<svg width="165" height="63" viewBox="0 0 165 63" fill="none" xmlns="http://www.w3.org/2000/svg">
<g id="ESG_BRANDING_LOGO_FINAL 1" clip-path="url(#clip0_40_90)">
<g id="Group">
<path id="Vector" d="M107.822 22.0435L108.676 21.845V15.0571L107.852 14.9426V14.2096H113.8L113.96 15.9428H113.068L112.672 15.0495L110.224 14.9578V17.9357L111.886 17.8898L112.123 17.0576H112.923V19.5773H112.123L111.886 18.7297L110.224 18.6992V21.929L112.977 21.7916L113.61 20.6997L114.479 20.8677L114.204 22.6773H107.822V22.0435Z" fill="#224771"/>
<path id="Vector_2" d="M117.75 22.8223C117.453 22.8223 117.163 22.7613 116.866 22.6467C116.568 22.5322 116.301 22.3413 116.065 22.097C115.829 21.845 115.63 21.5243 115.486 21.1349C115.333 20.7455 115.257 20.2797 115.257 19.7376C115.257 19.249 115.348 18.8061 115.524 18.3938C115.699 17.9891 115.943 17.6379 116.248 17.3401C116.553 17.0423 116.912 16.8133 117.316 16.6529C117.728 16.4849 118.162 16.4086 118.627 16.4086C118.742 16.4086 118.871 16.4086 119.009 16.4238C119.146 16.4315 119.291 16.4544 119.443 16.4849V14.9655L118.254 14.7059V14.0721L120.679 13.8202L120.991 13.9576V22.0741H121.746V22.578C121.617 22.6467 121.434 22.7078 121.182 22.7689C120.93 22.83 120.641 22.8529 120.313 22.8529C120.099 22.8529 119.924 22.8147 119.779 22.746C119.642 22.6773 119.55 22.5475 119.512 22.3642C119.443 22.4177 119.352 22.4711 119.245 22.5322C119.138 22.5933 119.016 22.6391 118.871 22.6849C118.726 22.7307 118.559 22.7613 118.376 22.7918C118.193 22.8223 117.987 22.8376 117.758 22.8376L117.75 22.8223ZM118.2 21.9595C118.36 21.9824 118.521 21.9901 118.681 21.9595C118.856 21.9519 119.009 21.9214 119.131 21.8832C119.26 21.845 119.359 21.7992 119.436 21.7457V17.3554C119.207 17.1645 118.887 17.0652 118.467 17.0652C118.376 17.0652 118.277 17.0805 118.162 17.1034C118.048 17.1263 117.933 17.1721 117.811 17.2408C117.689 17.3096 117.575 17.3935 117.461 17.5081C117.346 17.6226 117.247 17.76 117.156 17.928C117.064 18.096 116.995 18.3022 116.934 18.5389C116.873 18.7756 116.843 19.0504 116.843 19.3635C116.843 19.7682 116.866 20.1194 116.934 20.4248C117.003 20.7302 117.102 20.9898 117.232 21.2036C117.361 21.4174 117.506 21.5854 117.674 21.7076C117.842 21.8297 118.017 21.9061 118.208 21.9443L118.2 21.9595Z" fill="#224771"/>
<path id="Vector_3" d="M123.005 17.6913L122.471 17.4012V16.8438L124.255 16.4315L124.499 16.5307V20.3103C124.499 20.5775 124.514 20.8142 124.537 21.0128C124.568 21.2113 124.614 21.3716 124.69 21.5091C124.759 21.6389 124.865 21.7381 124.987 21.7992C125.117 21.8603 125.277 21.8908 125.475 21.8908C125.597 21.8908 125.719 21.8756 125.849 21.8526C125.971 21.8221 126.085 21.7916 126.192 21.7458C126.299 21.6999 126.398 21.6541 126.482 21.6083C126.566 21.5549 126.634 21.5091 126.68 21.4632V17.7677L125.994 17.4699V16.8514L127.961 16.4391L128.198 16.5307V22.0588H128.831V22.5704C128.77 22.6086 128.693 22.6391 128.594 22.6773C128.495 22.7078 128.388 22.7384 128.266 22.7689C128.144 22.7994 128.022 22.8147 127.893 22.83C127.763 22.8453 127.633 22.8529 127.519 22.8529C127.321 22.8529 127.153 22.8071 127.023 22.7231C126.894 22.6391 126.833 22.5017 126.833 22.3031V21.9901C126.703 22.1199 126.566 22.2344 126.406 22.3413C126.246 22.4482 126.085 22.5322 125.918 22.6009C125.75 22.6696 125.582 22.7231 125.414 22.7613C125.247 22.7994 125.094 22.8147 124.949 22.8147C124.553 22.8147 124.225 22.7613 123.973 22.6544C123.721 22.5475 123.523 22.3871 123.378 22.181C123.233 21.9748 123.134 21.7228 123.081 21.4174C123.027 21.1196 123.005 20.7684 123.005 20.379V17.6837V17.6913Z" fill="#224771"/>
<path id="Vector_4" d="M129.677 19.7834C129.677 19.2642 129.753 18.8061 129.921 18.3938C130.089 17.9815 130.31 17.6302 130.6 17.3477C130.89 17.0652 131.225 16.8362 131.614 16.6758C132.003 16.5155 132.422 16.4315 132.872 16.4086C133.04 16.4086 133.216 16.4086 133.399 16.4162C133.582 16.4238 133.749 16.4467 133.917 16.4697C134.085 16.4926 134.23 16.5231 134.367 16.5613C134.504 16.5995 134.611 16.6376 134.687 16.6834V18.2334H133.902L133.536 17.3477C133.429 17.2714 133.299 17.2256 133.147 17.2027C132.994 17.1797 132.865 17.1645 132.735 17.1645C132.522 17.1645 132.331 17.2103 132.148 17.3019C131.965 17.3935 131.812 17.5233 131.675 17.699C131.538 17.8746 131.431 18.096 131.355 18.3556C131.279 18.6228 131.233 18.9206 131.225 19.2642C131.218 19.73 131.263 20.127 131.362 20.4554C131.469 20.7837 131.607 21.0509 131.782 21.2647C131.957 21.4785 132.163 21.6312 132.392 21.7305C132.621 21.8297 132.85 21.8755 133.086 21.8755C133.238 21.8755 133.391 21.8679 133.543 21.845C133.696 21.8221 133.841 21.7992 133.986 21.7686C134.123 21.7381 134.245 21.6999 134.359 21.6541C134.474 21.6083 134.565 21.5625 134.634 21.509L134.878 22.1122C134.748 22.2191 134.603 22.3184 134.428 22.41C134.253 22.494 134.07 22.5704 133.864 22.6315C133.658 22.6925 133.444 22.7383 133.216 22.7689C132.987 22.7994 132.75 22.8147 132.506 22.8147C132.049 22.8147 131.645 22.7383 131.286 22.5856C130.935 22.4329 130.638 22.2191 130.394 21.9519C130.158 21.6847 129.975 21.364 129.845 20.9898C129.715 20.6157 129.654 20.2187 129.654 19.7834H129.677Z" fill="#224771"/>
<path id="Vector_5" d="M135.717 20.6997C135.755 20.4706 135.846 20.2721 135.991 20.0889C136.136 19.9056 136.304 19.7605 136.51 19.6307C136.716 19.5009 136.937 19.3864 137.189 19.3024C137.433 19.2108 137.684 19.1421 137.928 19.0886C138.172 19.0352 138.416 18.997 138.645 18.9741C138.874 18.9512 139.08 18.9359 139.255 18.9359V18.7297C139.255 18.4396 139.225 18.2105 139.164 18.0273C139.103 17.844 139.011 17.7066 138.897 17.5997C138.782 17.4928 138.645 17.4241 138.485 17.3935C138.325 17.3554 138.149 17.3401 137.951 17.3401C137.768 17.3401 137.593 17.3554 137.425 17.3859C137.257 17.4165 137.097 17.4546 136.945 17.5004C136.792 17.5463 136.662 17.5921 136.54 17.6455C136.418 17.699 136.319 17.7448 136.243 17.7906L135.946 17.0958C136.037 17.0194 136.167 16.9431 136.335 16.8667C136.502 16.7903 136.701 16.714 136.922 16.6529C137.143 16.5918 137.387 16.5384 137.646 16.5002C137.905 16.462 138.18 16.4391 138.454 16.4391C138.782 16.4391 139.095 16.4697 139.377 16.5307C139.667 16.5918 139.911 16.7064 140.125 16.8667C140.338 17.027 140.498 17.2485 140.62 17.5233C140.742 17.7982 140.803 18.1495 140.803 18.5694V22.0588H141.497V22.5475C141.421 22.6009 141.329 22.6391 141.223 22.6773C141.124 22.7154 141.017 22.746 140.902 22.7613C140.796 22.7842 140.681 22.7994 140.567 22.8071C140.452 22.8147 140.346 22.8223 140.247 22.8223C140.178 22.8223 140.094 22.8223 140.003 22.8071C139.911 22.7918 139.82 22.7689 139.728 22.7231C139.636 22.6773 139.568 22.6162 139.507 22.5398C139.446 22.4558 139.415 22.3489 139.415 22.2115V22.1657C139.232 22.3489 139.004 22.5093 138.729 22.6391C138.454 22.7689 138.127 22.83 137.738 22.83C137.349 22.83 137.013 22.7689 136.731 22.6544C136.449 22.5398 136.228 22.3795 136.06 22.1886C135.892 21.9901 135.778 21.7687 135.724 21.5167C135.671 21.2647 135.663 20.9975 135.717 20.715V20.6997ZM137.242 20.8906C137.242 21.28 137.349 21.5549 137.555 21.7152C137.768 21.8755 138.066 21.9443 138.462 21.9137C138.622 21.8985 138.76 21.8603 138.889 21.7839C139.019 21.7076 139.133 21.6388 139.24 21.5549C139.24 21.2342 139.24 20.9211 139.24 20.6004C139.24 20.2874 139.24 19.9667 139.24 19.646C139.11 19.646 138.965 19.646 138.821 19.6689C138.668 19.6842 138.523 19.7071 138.371 19.7453C138.226 19.7834 138.081 19.8293 137.944 19.8903C137.806 19.9514 137.684 20.0278 137.585 20.1194C137.478 20.211 137.395 20.3179 137.333 20.4401C137.272 20.5623 137.242 20.715 137.242 20.8753V20.8906Z" fill="#224771"/>
<path id="Vector_6" d="M142.824 17.4317H142.001V16.9049C142.123 16.882 142.237 16.8591 142.336 16.8285C142.435 16.8056 142.527 16.7751 142.603 16.7445C142.679 16.714 142.748 16.6758 142.816 16.63C142.877 16.5842 142.938 16.5308 142.984 16.4544C143.03 16.4009 143.076 16.3246 143.122 16.2253C143.167 16.1261 143.221 16.0192 143.266 15.897C143.312 15.7748 143.366 15.6527 143.411 15.5152C143.457 15.3778 143.495 15.248 143.533 15.1182H144.288V16.5766H146.134V17.4241H144.342V19.7376C144.342 20.1958 144.342 20.5623 144.365 20.8371C144.38 21.112 144.41 21.3258 144.464 21.4709C144.509 21.616 144.578 21.7152 144.662 21.7687C144.746 21.8145 144.853 21.8374 144.997 21.8374C145.074 21.8374 145.165 21.8374 145.264 21.8221C145.364 21.8068 145.463 21.7916 145.554 21.7763C145.646 21.7534 145.737 21.7305 145.821 21.7076C145.905 21.677 145.966 21.6541 146.012 21.6236L146.248 22.181C146.164 22.2726 146.05 22.3566 145.905 22.4329C145.76 22.5093 145.6 22.578 145.417 22.6315C145.234 22.6849 145.051 22.7307 144.853 22.7613C144.654 22.7918 144.456 22.8071 144.265 22.8071C143.998 22.8071 143.777 22.7689 143.594 22.7002C143.411 22.6315 143.266 22.5169 143.152 22.3719C143.038 22.2268 142.961 22.0359 142.908 21.8068C142.855 21.5778 142.832 21.3029 142.832 20.9898V17.4241L142.824 17.4317Z" fill="#224771"/>
<path id="Vector_7" d="M147.034 22.0588L147.85 21.9137V18.0655L147.133 17.447V17.0118L149.009 16.4315L149.375 16.5536V21.9214L150.198 22.0512V22.6696H147.034V22.0512V22.0588ZM148.421 15.3396C148.299 15.3396 148.185 15.3167 148.071 15.2785C147.956 15.2403 147.857 15.1793 147.773 15.1105C147.689 15.0418 147.613 14.9426 147.56 14.8357C147.506 14.7288 147.483 14.6066 147.483 14.4768C147.483 14.3317 147.514 14.1867 147.583 14.0645C147.651 13.9423 147.735 13.8278 147.842 13.7362C147.949 13.6445 148.071 13.5682 148.2 13.5147C148.33 13.4613 148.467 13.4384 148.597 13.4384C148.757 13.4384 148.902 13.4613 149.016 13.5071C149.131 13.5529 149.23 13.614 149.306 13.698C149.382 13.7743 149.436 13.866 149.474 13.9729C149.512 14.0798 149.527 14.1943 149.527 14.3165C149.527 14.4692 149.497 14.6142 149.436 14.744C149.375 14.8738 149.291 14.9807 149.184 15.0647C149.077 15.1564 148.963 15.2251 148.833 15.2709C148.704 15.3167 148.566 15.3472 148.429 15.3472L148.421 15.3396Z" fill="#224771"/>
<path id="Vector_8" d="M150.923 19.5696C150.923 19.0428 151.022 18.5847 151.197 18.1876C151.373 17.7906 151.609 17.4623 151.891 17.2027C152.181 16.9431 152.509 16.7445 152.89 16.6147C153.264 16.4849 153.66 16.4086 154.065 16.4086C154.537 16.4086 154.964 16.4773 155.33 16.6147C155.696 16.7522 156.002 16.966 156.253 17.2332C156.505 17.5004 156.695 17.8288 156.825 18.2105C156.955 18.5923 157.016 19.0275 157.016 19.5086C157.016 20.043 156.924 20.5164 156.756 20.9287C156.589 21.3411 156.368 21.6847 156.085 21.9672C155.803 22.2497 155.475 22.4558 155.102 22.6009C154.728 22.746 154.331 22.8223 153.92 22.8223C153.378 22.8223 152.913 22.7383 152.532 22.5627C152.15 22.3871 151.838 22.1581 151.601 21.8603C151.365 21.5625 151.19 21.2189 151.083 20.8295C150.976 20.4401 150.923 20.0278 150.93 19.5925L150.923 19.5696ZM153.973 22.0893C154.248 22.0893 154.476 22.0283 154.659 21.8908C154.842 21.7534 154.987 21.5778 155.086 21.3487C155.193 21.1196 155.262 20.8524 155.308 20.547C155.353 20.2416 155.369 19.9132 155.369 19.5696C155.369 19.2642 155.346 18.9664 155.308 18.6687C155.262 18.3709 155.193 18.1113 155.086 17.8822C154.98 17.6531 154.842 17.4623 154.667 17.3172C154.492 17.1721 154.27 17.1034 154.011 17.0958C153.729 17.0958 153.5 17.1568 153.317 17.279C153.134 17.4012 152.989 17.5768 152.875 17.7906C152.761 18.0044 152.684 18.2563 152.639 18.5465C152.593 18.8366 152.57 19.1344 152.57 19.4551C152.57 19.646 152.578 19.8369 152.6 20.043C152.623 20.2492 152.654 20.4477 152.7 20.6386C152.745 20.8295 152.806 21.0204 152.883 21.1884C152.951 21.364 153.043 21.5167 153.149 21.6465C153.256 21.7763 153.371 21.8832 153.516 21.9595C153.653 22.0359 153.805 22.0741 153.981 22.0741L153.973 22.0893Z" fill="#224771"/>
<path id="Vector_9" d="M158.091 22.0588L158.8 21.9366V17.9815L158.045 17.5004V16.966L159.814 16.4391L160.15 16.546V17.3325C160.287 17.2103 160.44 17.0958 160.615 16.9812C160.791 16.8743 160.981 16.7751 161.179 16.6987C161.378 16.6224 161.576 16.5537 161.79 16.5078C162.003 16.462 162.201 16.4315 162.4 16.4315C162.743 16.4315 163.025 16.4773 163.254 16.5842C163.482 16.6911 163.665 16.8438 163.81 17.05C163.948 17.2561 164.047 17.5234 164.108 17.8364C164.169 18.1495 164.192 18.516 164.192 18.9359V21.929L165 22.0588V22.6773H161.851V22.0588L162.644 21.9137V19.1573C162.644 18.8519 162.628 18.5847 162.598 18.3709C162.567 18.1571 162.514 17.9815 162.43 17.8517C162.346 17.7219 162.224 17.6226 162.072 17.5692C161.919 17.5157 161.721 17.4852 161.469 17.4928C161.401 17.4928 161.317 17.5081 161.225 17.5234C161.134 17.5386 161.035 17.5615 160.935 17.5997C160.836 17.6303 160.73 17.6761 160.63 17.7219C160.531 17.7677 160.432 17.8211 160.348 17.8822V21.929L161.08 22.0664V22.6849H158.099V22.0664L158.091 22.0588Z" fill="#224771"/>
</g>
<g id="Group_2">
<path id="Vector_10" d="M108.058 32.1146H108.729L109.164 33.3287C109.263 33.4508 109.377 33.5425 109.507 33.6188C109.637 33.6952 109.774 33.7486 109.919 33.7944C110.064 33.8402 110.216 33.8632 110.361 33.8784C110.513 33.8937 110.666 33.8937 110.811 33.8937C110.979 33.8937 111.146 33.8708 111.322 33.825C111.497 33.7792 111.65 33.7028 111.787 33.6036C111.924 33.5043 112.039 33.3669 112.13 33.1989C112.222 33.0309 112.26 32.8247 112.26 32.5804C112.26 32.3742 112.206 32.1834 112.092 32.0154C111.978 31.8474 111.833 31.6871 111.642 31.542C111.459 31.3969 111.246 31.2518 111.009 31.1144C110.773 30.977 110.521 30.8395 110.269 30.7021C109.995 30.5494 109.728 30.3967 109.461 30.2287C109.194 30.0607 108.958 29.8775 108.752 29.6789C108.546 29.4804 108.371 29.2514 108.249 28.9994C108.119 28.7474 108.058 28.4649 108.058 28.1518C108.058 27.8999 108.096 27.6708 108.172 27.4647C108.249 27.2585 108.355 27.0676 108.493 26.8996C108.63 26.7317 108.782 26.5942 108.965 26.4721C109.148 26.3499 109.339 26.2506 109.545 26.1666C109.751 26.0826 109.964 26.0216 110.186 25.9834C110.407 25.9452 110.628 25.9223 110.849 25.9223C111.131 25.9223 111.406 25.9376 111.665 25.9605C111.924 25.991 112.161 26.0216 112.382 26.0597C112.595 26.0979 112.778 26.1437 112.931 26.1895C113.083 26.2354 113.19 26.2812 113.259 26.3193V27.9991H112.55L112.077 26.8996C112.077 26.8996 111.985 26.8233 111.901 26.7927C111.825 26.7546 111.734 26.724 111.627 26.7011C111.52 26.6706 111.406 26.6553 111.284 26.6324C111.162 26.6095 111.04 26.6095 110.925 26.6095C110.78 26.6095 110.628 26.6248 110.46 26.6629C110.3 26.7011 110.147 26.7546 110.01 26.8462C109.873 26.9302 109.759 27.0447 109.667 27.1898C109.575 27.3349 109.53 27.5105 109.53 27.7243C109.53 27.9304 109.575 28.1137 109.667 28.2817C109.759 28.4496 109.881 28.61 110.041 28.755C110.193 28.9001 110.376 29.0376 110.582 29.1674C110.788 29.2972 111.002 29.4193 111.23 29.5415C111.429 29.6484 111.634 29.7629 111.84 29.8698C112.046 29.9844 112.245 30.0989 112.435 30.2211C112.626 30.3432 112.801 30.473 112.969 30.6105C113.137 30.7479 113.282 30.9006 113.411 31.061C113.533 31.2213 113.632 31.3969 113.709 31.5954C113.777 31.7863 113.815 32.0001 113.815 32.2292C113.815 32.6033 113.739 32.9393 113.587 33.2294C113.434 33.5272 113.228 33.7715 112.954 33.9777C112.687 34.1838 112.367 34.3366 111.993 34.4435C111.619 34.5503 111.207 34.6038 110.758 34.6038C110.498 34.6038 110.231 34.5885 109.957 34.5656C109.69 34.5351 109.431 34.5045 109.187 34.4587C108.943 34.4129 108.729 34.3595 108.531 34.306C108.332 34.2449 108.18 34.1915 108.066 34.1228V32.1146H108.058Z" fill="#224771"/>
<path id="Vector_11" d="M115.409 29.2208H114.586V28.694C114.708 28.6711 114.822 28.6482 114.921 28.6176C115.02 28.5947 115.112 28.5642 115.188 28.5336C115.264 28.5031 115.333 28.4649 115.402 28.4191C115.463 28.3733 115.524 28.3198 115.569 28.2435C115.615 28.19 115.661 28.1137 115.707 28.0144C115.752 27.9152 115.806 27.8083 115.852 27.6861C115.897 27.5639 115.951 27.4418 115.996 27.3043C116.042 27.1669 116.08 27.0371 116.118 26.9073H116.873V28.3657H118.719V29.2132H116.927V31.5267C116.927 31.9849 116.927 32.3514 116.95 32.6262C116.965 32.9011 116.995 33.1149 117.049 33.26C117.095 33.405 117.163 33.5043 117.247 33.5578C117.331 33.6036 117.438 33.6265 117.583 33.6265C117.659 33.6265 117.75 33.6265 117.85 33.6112C117.949 33.5959 118.048 33.5807 118.139 33.5654C118.231 33.5425 118.322 33.5196 118.406 33.4967C118.49 33.4661 118.551 33.4432 118.597 33.4127L118.833 33.9701C118.749 34.0617 118.635 34.1457 118.49 34.222C118.345 34.2984 118.185 34.3671 118.002 34.4206C117.819 34.474 117.636 34.5198 117.438 34.5504C117.239 34.5809 117.041 34.5962 116.851 34.5962C116.584 34.5962 116.362 34.558 116.179 34.4893C115.996 34.4206 115.852 34.306 115.737 34.161C115.623 34.0159 115.547 33.825 115.493 33.5959C115.44 33.3669 115.417 33.092 115.417 32.7789V29.2132L115.409 29.2208Z" fill="#224771"/>
<path id="Vector_12" d="M119.68 33.8479L120.442 33.7181V29.7706L119.687 29.2895V28.7551L121.457 28.2282L121.792 28.3351V29.3048C121.845 29.1597 121.937 29.0147 122.074 28.8849C122.211 28.7551 122.356 28.6405 122.517 28.5413C122.677 28.442 122.844 28.3656 123.02 28.3122C123.195 28.2588 123.348 28.2282 123.485 28.2282C123.607 28.2282 123.721 28.2282 123.828 28.2435C123.935 28.2588 124.004 28.2664 124.049 28.2817V29.74C123.943 29.6713 123.805 29.6179 123.63 29.572C123.454 29.5339 123.279 29.511 123.096 29.511C122.944 29.511 122.806 29.5186 122.692 29.5415C122.578 29.5568 122.471 29.5797 122.379 29.6102C122.288 29.6408 122.211 29.6713 122.15 29.7019C122.089 29.7324 122.036 29.7629 121.99 29.7935V33.6875L123.378 33.8479V34.4664H119.68V33.8479Z" fill="#224771"/>
<path id="Vector_13" d="M124.82 32.4888C124.858 32.2597 124.949 32.0612 125.094 31.8779C125.239 31.6947 125.407 31.5496 125.613 31.4198C125.819 31.29 126.04 31.1755 126.291 31.0915C126.535 30.9999 126.787 30.9312 127.031 30.8777C127.275 30.8243 127.519 30.7861 127.748 30.7632C127.977 30.7403 128.183 30.725 128.358 30.725V30.5188C128.358 30.2287 128.327 29.9996 128.266 29.8164C128.205 29.6331 128.114 29.4957 127.999 29.3888C127.885 29.2819 127.748 29.2132 127.588 29.1826C127.428 29.1445 127.252 29.1292 127.054 29.1292C126.871 29.1292 126.695 29.1445 126.528 29.175C126.36 29.2055 126.2 29.2437 126.047 29.2895C125.895 29.3353 125.765 29.3812 125.643 29.4346C125.521 29.4881 125.422 29.5339 125.346 29.5797L125.048 28.8849C125.14 28.8085 125.269 28.7321 125.437 28.6558C125.605 28.5794 125.803 28.5031 126.024 28.442C126.246 28.3809 126.49 28.3275 126.749 28.2893C127.008 28.2511 127.283 28.2282 127.557 28.2282C127.885 28.2282 128.198 28.2588 128.48 28.3198C128.77 28.3809 129.014 28.4954 129.227 28.6558C129.441 28.8161 129.601 29.0376 129.723 29.3124C129.845 29.5873 129.906 29.9385 129.906 30.3585V33.8479H130.6V34.3366C130.524 34.39 130.432 34.4282 130.325 34.4664C130.226 34.5045 130.119 34.5351 130.005 34.5504C129.898 34.5733 129.784 34.5885 129.67 34.5962C129.555 34.6038 129.448 34.6114 129.349 34.6114C129.281 34.6114 129.197 34.6114 129.105 34.5962C129.014 34.5809 128.922 34.558 128.831 34.5122C128.739 34.4664 128.671 34.4053 128.61 34.3289C128.549 34.2449 128.518 34.138 128.518 34.0006V33.9548C128.335 34.138 128.106 34.2984 127.832 34.4282C127.557 34.558 127.229 34.6191 126.84 34.6191C126.451 34.6191 126.116 34.558 125.834 34.4435C125.552 34.3289 125.33 34.1686 125.163 33.9777C124.995 33.7792 124.881 33.5577 124.827 33.3058C124.774 33.0538 124.766 32.7866 124.82 32.5041V32.4888ZM126.345 32.6797C126.345 33.0691 126.451 33.344 126.657 33.5043C126.871 33.6646 127.168 33.7334 127.565 33.7028C127.725 33.6875 127.862 33.6494 127.992 33.573C128.122 33.4967 128.236 33.4279 128.343 33.344C128.343 33.0233 128.343 32.7102 128.343 32.3895C128.343 32.0765 128.343 31.7558 128.343 31.4351C128.213 31.4351 128.068 31.4351 127.923 31.458C127.771 31.4733 127.626 31.4962 127.473 31.5344C127.328 31.5725 127.184 31.6183 127.046 31.6794C126.909 31.7405 126.787 31.8169 126.688 31.9085C126.581 32.0001 126.497 32.107 126.436 32.2292C126.375 32.3513 126.345 32.5041 126.345 32.6644V32.6797Z" fill="#224771"/>
<path id="Vector_14" d="M131.934 29.2208H131.111V28.694C131.233 28.6711 131.347 28.6482 131.446 28.6176C131.545 28.5947 131.637 28.5642 131.713 28.5336C131.79 28.5031 131.858 28.4649 131.927 28.4191C131.988 28.3733 132.049 28.3198 132.095 28.2435C132.14 28.19 132.186 28.1137 132.232 28.0144C132.278 27.9152 132.331 27.8083 132.377 27.6861C132.422 27.5639 132.476 27.4418 132.522 27.3043C132.567 27.1669 132.605 27.0371 132.644 26.9073H133.399V28.3657H135.244V29.2132H133.452V31.5267C133.452 31.9849 133.452 32.3514 133.475 32.6262C133.49 32.9011 133.521 33.1149 133.574 33.26C133.62 33.405 133.688 33.5043 133.772 33.5578C133.856 33.6036 133.963 33.6265 134.108 33.6265C134.184 33.6265 134.276 33.6265 134.375 33.6112C134.474 33.5959 134.573 33.5807 134.664 33.5654C134.756 33.5425 134.847 33.5196 134.931 33.4967C135.015 33.4661 135.076 33.4432 135.122 33.4127L135.358 33.9701C135.275 34.0617 135.16 34.1457 135.015 34.222C134.87 34.2984 134.71 34.3671 134.527 34.4206C134.344 34.474 134.161 34.5198 133.963 34.5504C133.765 34.5809 133.566 34.5962 133.376 34.5962C133.109 34.5962 132.888 34.558 132.705 34.4893C132.522 34.4206 132.377 34.306 132.262 34.161C132.148 34.0159 132.072 33.825 132.018 33.5959C131.965 33.3669 131.942 33.092 131.942 32.7789V29.2132L131.934 29.2208Z" fill="#224771"/>
<path id="Vector_15" d="M136.098 31.5115C136.098 31.0457 136.174 30.6105 136.319 30.2058C136.472 29.8011 136.678 29.4499 136.96 29.1597C137.234 28.862 137.57 28.6329 137.966 28.4573C138.363 28.2817 138.805 28.1977 139.293 28.19C139.682 28.19 140.018 28.2358 140.308 28.3427C140.597 28.4496 140.841 28.6023 141.032 28.8009C141.223 28.9994 141.375 29.2361 141.474 29.5186C141.573 29.8011 141.634 30.1142 141.65 30.4578C141.65 30.6868 141.65 30.8853 141.634 31.061C141.619 31.2366 141.596 31.3893 141.581 31.5344H137.677C137.677 31.5344 137.677 31.5573 137.677 31.5649C137.677 31.5725 137.677 31.5802 137.677 31.5878C137.7 31.9619 137.761 32.2826 137.867 32.5422C137.966 32.8018 138.104 33.0156 138.279 33.1836C138.447 33.3516 138.645 33.4738 138.866 33.5425C139.087 33.6188 139.324 33.657 139.575 33.657C139.713 33.657 139.85 33.657 140.003 33.6341C140.155 33.6112 140.3 33.5959 140.452 33.5654C140.597 33.5348 140.742 33.4967 140.88 33.4585C141.017 33.4203 141.146 33.3669 141.261 33.3058L141.512 33.8937C141.39 34.0006 141.238 34.0999 141.047 34.1839C140.864 34.2755 140.658 34.3518 140.445 34.4129C140.224 34.474 139.995 34.5198 139.759 34.558C139.522 34.5962 139.278 34.6038 139.034 34.6038C138.569 34.6038 138.149 34.5274 137.783 34.3824C137.417 34.2373 137.112 34.0311 136.861 33.7639C136.609 33.4967 136.418 33.176 136.289 32.7942C136.159 32.4124 136.098 31.9848 136.098 31.5038V31.5115ZM140.109 30.7632C140.117 30.6105 140.125 30.4425 140.132 30.2745C140.132 30.1065 140.132 29.9462 140.102 29.7858C140.079 29.6331 140.033 29.4881 139.972 29.3583C139.911 29.2285 139.812 29.1216 139.69 29.0376C139.614 28.9841 139.522 28.9459 139.423 28.9154C139.324 28.8849 139.202 28.8696 139.072 28.8696C138.859 28.8696 138.668 28.9154 138.508 29.0147C138.348 29.1139 138.21 29.2437 138.096 29.4193C137.982 29.595 137.89 29.7935 137.829 30.0225C137.768 30.2516 137.715 30.4959 137.7 30.7632H140.109Z" fill="#224771"/>
<path id="Vector_16" d="M142.397 35.7415C142.397 35.5659 142.428 35.3979 142.481 35.2452C142.542 35.0925 142.611 34.955 142.702 34.8329C142.794 34.7107 142.893 34.5962 142.999 34.5045C143.106 34.4129 143.213 34.3289 143.312 34.2678C143.16 34.2144 143.045 34.1457 142.961 34.0769C142.877 34.0006 142.816 33.9242 142.778 33.8326C142.74 33.7486 142.717 33.657 142.71 33.5577C142.702 33.4585 142.702 33.3668 142.702 33.2752C142.702 33.1989 142.717 33.0996 142.755 32.9927C142.794 32.8858 142.847 32.7713 142.908 32.6568C142.969 32.5422 143.053 32.4277 143.137 32.3208C143.221 32.2139 143.32 32.1146 143.411 32.0306C143.106 31.8703 142.862 31.6489 142.687 31.374C142.511 31.0991 142.428 30.7632 142.428 30.3585C142.428 29.9538 142.504 29.6484 142.664 29.3811C142.824 29.1139 143.03 28.8848 143.289 28.7016C143.549 28.526 143.838 28.3885 144.166 28.3046C144.494 28.2206 144.822 28.1747 145.165 28.1671C145.531 28.1671 145.867 28.1977 146.172 28.274C146.477 28.3504 146.751 28.4725 146.98 28.6481C147.018 28.5871 147.064 28.5336 147.125 28.4878C147.186 28.4344 147.255 28.3962 147.339 28.358C147.422 28.3198 147.522 28.2969 147.644 28.274C147.758 28.2511 147.895 28.2435 148.055 28.2435H148.62V29.343H147.529C147.628 29.5873 147.682 29.8698 147.682 30.1752C147.682 30.5417 147.613 30.8624 147.476 31.1373C147.339 31.4122 147.148 31.6412 146.912 31.8245C146.675 32.0077 146.393 32.1452 146.073 32.2368C145.752 32.3284 145.409 32.3742 145.043 32.3742C144.677 32.3742 144.311 32.3361 144.006 32.2521C143.976 32.3437 143.953 32.4353 143.945 32.5269C143.93 32.6186 143.922 32.6949 143.922 32.7636C143.922 32.9774 143.983 33.1301 144.105 33.2294C144.227 33.3287 144.41 33.3898 144.662 33.3898C144.83 33.3898 145.028 33.405 145.241 33.405C145.463 33.405 145.707 33.405 145.996 33.405C146.492 33.405 146.896 33.4508 147.209 33.5348C147.522 33.6188 147.766 33.741 147.949 33.8937C148.124 34.054 148.246 34.2373 148.315 34.4511C148.383 34.6649 148.414 34.9016 148.414 35.1535C148.414 35.4666 148.345 35.7567 148.2 36.024C148.055 36.2912 147.85 36.5203 147.567 36.7188C147.293 36.9173 146.95 37.07 146.538 37.1846C146.126 37.2991 145.661 37.3525 145.127 37.3525C144.746 37.3525 144.387 37.322 144.059 37.2686C143.732 37.2151 143.442 37.1235 143.198 36.9937C142.954 36.8639 142.763 36.6959 142.618 36.4897C142.481 36.2836 142.412 36.0316 142.412 35.7338L142.397 35.7415ZM143.754 35.291C143.754 35.52 143.793 35.7186 143.876 35.8789C143.96 36.0469 144.075 36.1843 144.22 36.2912C144.365 36.3981 144.54 36.4745 144.731 36.5279C144.929 36.5814 145.142 36.6043 145.363 36.6043C145.63 36.6043 145.867 36.589 146.073 36.5508C146.279 36.5126 146.454 36.4516 146.599 36.3676C146.744 36.2836 146.851 36.1691 146.919 36.0316C146.988 35.8942 147.034 35.7262 147.034 35.52C147.034 35.375 147.018 35.2452 146.995 35.1154C146.973 34.9856 146.912 34.8787 146.82 34.7794C146.729 34.6801 146.584 34.6038 146.401 34.5427C146.218 34.4816 145.966 34.4587 145.646 34.4587H144.799C144.639 34.4587 144.487 34.4511 144.349 34.4434C144.212 34.4434 144.082 34.4282 143.968 34.4129C143.907 34.5045 143.854 34.6191 143.808 34.7565C143.762 34.8939 143.739 35.0696 143.739 35.291H143.754ZM145.173 31.626C145.371 31.626 145.531 31.5954 145.669 31.5191C145.806 31.4427 145.905 31.3587 145.989 31.2366C146.073 31.1144 146.126 30.977 146.164 30.809C146.195 30.641 146.218 30.4654 146.218 30.2745C146.218 29.8011 146.118 29.4499 145.928 29.2055C145.737 28.9612 145.44 28.8467 145.058 28.8467C144.914 28.8467 144.784 28.8696 144.647 28.9078C144.517 28.9459 144.403 29.0146 144.296 29.1063C144.197 29.1979 144.113 29.3201 144.052 29.4728C143.991 29.6255 143.96 29.8087 143.96 30.0302C143.96 30.2516 143.983 30.4501 144.021 30.6486C144.059 30.8395 144.128 31.0075 144.22 31.1526C144.311 31.2976 144.441 31.4122 144.593 31.4962C144.746 31.5802 144.944 31.626 145.173 31.626Z" fill="#224771"/>
<path id="Vector_17" d="M150.015 36.1309C150.13 36.1461 150.244 36.1538 150.374 36.1538C150.48 36.1538 150.595 36.1385 150.732 36.0927C150.869 36.0545 150.999 35.9782 151.144 35.856C151.281 35.7415 151.418 35.5658 151.548 35.3444C151.678 35.123 151.792 34.8252 151.884 34.4587H151.617L149.459 29.2895L148.948 29.1674V28.3656H151.845V29.1674L151.152 29.3048L152.311 32.5346L152.509 33.3592L152.745 32.5346L153.721 29.2895L152.936 29.175V28.3733H155.521V29.175L154.949 29.2819C154.69 29.9767 154.461 30.5799 154.27 31.0991C154.072 31.6183 153.904 32.0688 153.76 32.4506C153.615 32.8324 153.493 33.153 153.401 33.4127C153.302 33.6723 153.218 33.8861 153.149 34.0617C153.081 34.2373 153.027 34.3747 152.989 34.474C152.951 34.5809 152.913 34.6649 152.883 34.7412C152.73 35.1383 152.578 35.4971 152.425 35.8102C152.273 36.1232 152.105 36.3905 151.929 36.6119C151.754 36.8333 151.556 37.0013 151.342 37.1311C151.129 37.2533 150.885 37.3296 150.618 37.3525C150.465 37.3678 150.305 37.3754 150.13 37.3678C150.053 37.3678 149.97 37.3525 149.893 37.3373C149.817 37.3296 149.764 37.3067 149.725 37.2915V36.0927C149.809 36.108 149.908 36.1309 150.015 36.1461V36.1309Z" fill="#224771"/>
</g>
<g id="Group_3">
<path id="Vector_18" d="M107.677 42.2316C107.677 41.5291 107.791 40.903 108.02 40.338C108.249 39.7806 108.561 39.3072 108.958 38.9178C109.354 38.5284 109.827 38.2306 110.369 38.0245C110.91 37.8183 111.49 37.7114 112.123 37.7114C112.473 37.7114 112.794 37.7267 113.091 37.7496C113.381 37.7725 113.64 37.8031 113.861 37.8412C114.082 37.8794 114.273 37.9099 114.426 37.9481C114.578 37.9863 114.692 38.0168 114.769 38.0321L114.67 39.773H113.861L113.449 38.8338C113.449 38.8338 113.381 38.7728 113.305 38.7269C113.228 38.6811 113.129 38.643 112.999 38.6048C112.87 38.5666 112.717 38.5361 112.534 38.5131C112.351 38.4902 112.138 38.475 111.909 38.475C111.528 38.475 111.185 38.559 110.872 38.7269C110.559 38.8873 110.285 39.1163 110.064 39.4141C109.842 39.7119 109.659 40.0631 109.537 40.4755C109.408 40.8878 109.347 41.3459 109.347 41.8422C109.347 42.1705 109.37 42.4912 109.408 42.8119C109.446 43.1326 109.514 43.4304 109.598 43.7129C109.682 43.9954 109.789 44.255 109.926 44.4993C110.056 44.736 110.216 44.9422 110.399 45.1178C110.582 45.2934 110.796 45.4232 111.032 45.5225C111.268 45.6217 111.535 45.6676 111.825 45.6676C111.985 45.6676 112.153 45.6523 112.321 45.6217C112.489 45.5912 112.641 45.553 112.778 45.4996C112.916 45.4461 113.045 45.3774 113.152 45.3011C113.259 45.2247 113.343 45.1331 113.396 45.0338V43.27L112.168 43.1479V42.3996H115.402V43.1479L114.822 43.27V45.9043C114.639 45.8966 114.418 45.9119 114.174 45.9653C113.93 46.0188 113.663 46.0722 113.381 46.141C113.099 46.2097 112.794 46.2708 112.481 46.3318C112.168 46.3929 111.84 46.4158 111.512 46.4158C110.933 46.4158 110.407 46.3089 109.934 46.0951C109.461 45.8813 109.057 45.5912 108.721 45.2171C108.386 44.8429 108.127 44.4001 107.944 43.8961C107.761 43.3846 107.669 42.8348 107.669 42.2469L107.677 42.2316Z" fill="#224771"/>
<path id="Vector_19" d="M116.355 45.637L117.117 45.5072V41.5597L116.362 41.0787V40.5442L118.132 40.0173L118.467 40.1242V41.0939C118.521 40.9489 118.612 40.8038 118.749 40.674C118.887 40.5442 119.032 40.4296 119.192 40.3304C119.352 40.2311 119.52 40.1548 119.695 40.1013C119.87 40.0479 120.023 40.0173 120.16 40.0173C120.282 40.0173 120.397 40.0173 120.503 40.0326C120.61 40.0479 120.679 40.0555 120.724 40.0708V41.5292C120.618 41.4604 120.48 41.407 120.305 41.3612C120.13 41.323 119.954 41.3001 119.771 41.3001C119.619 41.3001 119.481 41.3077 119.367 41.3306C119.253 41.3459 119.146 41.3688 119.054 41.3993C118.963 41.4299 118.887 41.4604 118.826 41.491C118.765 41.5215 118.711 41.5521 118.665 41.5826V45.4767L120.053 45.637V46.2555H116.355V45.637Z" fill="#224771"/>
<path id="Vector_20" d="M121.418 43.1479C121.418 42.621 121.518 42.1629 121.693 41.7658C121.868 41.3688 122.105 41.0405 122.387 40.7809C122.677 40.5213 123.005 40.3227 123.386 40.1929C123.76 40.0631 124.156 39.9868 124.56 39.9868C125.033 39.9868 125.46 40.0555 125.826 40.1929C126.192 40.3304 126.497 40.5442 126.749 40.8114C127.001 41.0787 127.191 41.407 127.321 41.7887C127.45 42.1705 127.511 42.6057 127.511 43.0868C127.511 43.6213 127.42 44.0947 127.252 44.507C127.084 44.9193 126.863 45.2629 126.581 45.5454C126.299 45.8279 125.971 46.0341 125.597 46.1791C125.224 46.3242 124.827 46.4006 124.415 46.4006C123.874 46.4006 123.409 46.3166 123.027 46.141C122.646 45.9653 122.334 45.7363 122.097 45.4385C121.861 45.1407 121.685 44.7971 121.579 44.4077C121.472 44.0183 121.418 43.606 121.426 43.1708L121.418 43.1479ZM124.469 45.6676C124.743 45.6676 124.972 45.6065 125.155 45.469C125.338 45.3316 125.483 45.156 125.582 44.9269C125.689 44.6979 125.758 44.4306 125.803 44.1252C125.849 43.8198 125.864 43.4915 125.864 43.1479C125.864 42.8424 125.841 42.5447 125.803 42.2469C125.758 41.9491 125.689 41.6895 125.582 41.4604C125.475 41.2314 125.338 41.0405 125.163 40.8954C124.987 40.7503 124.766 40.6816 124.507 40.674C124.225 40.674 123.996 40.7351 123.813 40.8572C123.63 40.9794 123.485 41.155 123.371 41.3688C123.256 41.5826 123.18 41.8346 123.134 42.1247C123.088 42.4149 123.066 42.7126 123.066 43.0333C123.066 43.2242 123.073 43.4151 123.096 43.6213C123.119 43.8274 123.149 44.0259 123.195 44.2168C123.241 44.4077 123.302 44.5986 123.378 44.7666C123.447 44.9422 123.538 45.0949 123.645 45.2247C123.752 45.3545 123.866 45.4614 124.011 45.5377C124.148 45.6141 124.301 45.6523 124.476 45.6523L124.469 45.6676Z" fill="#224771"/>
<path id="Vector_21" d="M128.922 41.2695L128.388 40.9794V40.422L130.173 40.0097L130.417 40.1089V43.8885C130.417 44.1557 130.432 44.3924 130.455 44.591C130.486 44.7895 130.531 44.9498 130.608 45.0873C130.676 45.2171 130.783 45.3163 130.905 45.3774C131.035 45.4385 131.195 45.469 131.393 45.469C131.515 45.469 131.637 45.4538 131.767 45.4308C131.889 45.4003 132.003 45.3698 132.11 45.324C132.217 45.2781 132.316 45.2323 132.4 45.1865C132.483 45.1331 132.552 45.0873 132.598 45.0414V41.3459L131.912 41.0481V40.4296L133.879 40.0173L134.115 40.1089V45.637H134.748V46.1486C134.687 46.1868 134.611 46.2173 134.512 46.2555C134.413 46.286 134.306 46.3166 134.184 46.3471C134.062 46.3776 133.94 46.3929 133.81 46.4082C133.681 46.4235 133.551 46.4311 133.437 46.4311C133.238 46.4311 133.071 46.3853 132.941 46.3013C132.811 46.2173 132.75 46.0799 132.75 45.8813V45.5683C132.621 45.6981 132.483 45.8126 132.323 45.9195C132.163 46.0264 132.003 46.1104 131.835 46.1791C131.668 46.2478 131.5 46.3013 131.332 46.3395C131.164 46.3776 131.012 46.3929 130.867 46.3929C130.47 46.3929 130.142 46.3395 129.891 46.2326C129.639 46.1257 129.441 45.9653 129.296 45.7592C129.151 45.553 129.052 45.301 128.998 44.9956C128.945 44.6978 128.922 44.3466 128.922 43.9572V41.2619V41.2695Z" fill="#224771"/>
<path id="Vector_22" d="M136.335 48.2712V41.5521L135.58 41.071V40.5365L137.349 40.0097L137.677 40.1166V40.7885C137.722 40.7274 137.791 40.6511 137.898 40.5594C138.005 40.4678 138.134 40.3838 138.287 40.2922C138.439 40.2082 138.622 40.1319 138.828 40.0708C139.034 40.0097 139.255 39.9792 139.507 39.9792C139.82 39.9792 140.125 40.0326 140.422 40.1319C140.719 40.2311 140.971 40.4067 141.2 40.6434C141.429 40.8801 141.604 41.1932 141.741 41.575C141.878 41.9567 141.94 42.4378 141.94 43.0028C141.94 43.4609 141.856 43.8961 141.695 44.3008C141.535 44.7055 141.307 45.0644 141.017 45.3774C140.727 45.6828 140.384 45.9272 139.98 46.1104C139.575 46.2937 139.141 46.3777 138.668 46.3777C138.508 46.3777 138.348 46.3624 138.203 46.3395C138.05 46.3166 137.928 46.286 137.822 46.2631L137.875 47.4084V48.2636L138.996 48.4087V49.0348H135.602V48.4087L136.342 48.2636L136.335 48.2712ZM137.867 45.1713C137.898 45.24 137.951 45.2934 138.02 45.3469C138.088 45.4003 138.172 45.4461 138.264 45.4767C138.355 45.5148 138.455 45.5378 138.569 45.5607C138.683 45.5836 138.798 45.5912 138.912 45.5912C139.08 45.5912 139.248 45.553 139.423 45.4767C139.598 45.4003 139.759 45.2705 139.903 45.0873C140.048 44.904 140.17 44.6597 140.262 44.3619C140.353 44.0641 140.399 43.69 140.407 43.2395C140.407 42.7737 140.361 42.3843 140.269 42.0713C140.178 41.7582 140.048 41.5139 139.903 41.3306C139.751 41.1474 139.591 41.0176 139.408 40.9489C139.225 40.8801 139.049 40.842 138.874 40.842C138.744 40.842 138.63 40.8572 138.523 40.8878C138.416 40.9183 138.325 40.9641 138.241 41.0099C138.157 41.0558 138.081 41.1092 138.02 41.1626C137.959 41.2161 137.905 41.2619 137.867 41.3001V43.3617V45.1636V45.1713Z" fill="#224771"/>
</g>
<path id="Vector_23" d="M97.6487 0H96.6955V63H97.6487V0Z" fill="#D71F26"/>
<g id="Group_4">
<path id="Vector_24" d="M26.5379 39.4599H7.02339V46.4922H26.5379V39.4599Z" fill="#22356B"/>
<path id="Vector_25" d="M26.5379 26.8386H7.02339V33.8708H26.5379V26.8386Z" fill="#22356B"/>
<path id="Vector_26" d="M26.5379 14.2859H7.02339V21.3181H26.5379V14.2859Z" fill="#22356B"/>
<path id="Vector_27" d="M7.02339 53.0434V46.454H0V53.0434L3.50788 50.6993L7.02339 53.0434Z" fill="#F0635E"/>
<path id="Vector_28" d="M0 39.4599L0 46.4922H7.02339V39.4599H0Z" fill="#D71F26"/>
<path id="Vector_29" d="M0 14.2859L0 21.3181H7.02339V14.2859H0Z" fill="#D71F26"/>
<path id="Vector_30" d="M0 26.8386L0 33.909H7.02339V26.8386H0Z" fill="#D71F26"/>
<path id="Vector_31" d="M0 21.3105L0 26.8309H7.02339V21.3105H0Z" fill="#F0635E"/>
<path id="Vector_32" d="M0 33.8784L0 39.4599H7.02339V33.8784H0Z" fill="#F0635E"/>
<path id="Vector_33" d="M51.8327 30.6715C50.2466 29.007 47.5775 27.7166 43.6731 26.7088C41.6446 26.2125 40.1118 25.7467 39.1205 25.3344C38.0452 24.8839 37.5496 24.4563 37.3284 24.1738C37.0463 23.8226 36.9014 23.3033 36.9014 22.6391C36.9014 21.509 37.275 20.8066 38.1291 20.3637C39.1815 19.8063 40.8592 19.5238 43.1164 19.5238C45.9303 19.5238 48.5307 19.9743 50.8414 20.8524L52.4047 21.4479V14.3012L51.6345 14.0263C50.5668 13.6445 49.1866 13.3238 47.5241 13.0719C45.877 12.8199 44.1459 12.6977 42.3843 12.6977C38.2435 12.6977 35.0102 13.5529 32.7758 15.2327C30.4499 16.9888 29.2679 19.478 29.2679 22.6314C29.2679 25.3038 30.0686 27.4418 31.6472 29.007C33.1647 30.5112 35.6507 31.6947 39.2425 32.6262C41.4464 33.1912 43.1088 33.7028 44.184 34.1304C45.122 34.5045 45.7855 34.9321 46.1591 35.3979C46.4947 35.8178 46.6624 36.4287 46.6624 37.2228C46.6624 38.8567 46.0066 39.3836 45.5185 39.6432C44.8246 40.0021 43.3681 40.4373 40.3635 40.4373C37.3589 40.4373 34.3848 39.8722 31.5328 38.7727L29.9619 38.1619V45.2705L30.6634 45.5683C33.2486 46.6602 36.6726 47.2099 40.8439 47.2099C45.0152 47.2099 48.4316 46.3471 50.7117 44.652C53.091 42.8806 54.3035 40.3838 54.3035 37.2304C54.3035 34.5733 53.4799 32.3666 51.8556 30.6639L51.8327 30.6715Z" fill="#22356B"/>
<path id="Vector_34" d="M70.7905 27.3043V33.0538H78.5841V39.7959C77.1124 40.2235 75.2364 40.4449 73.0097 40.4449C66.7565 40.4449 63.851 37.3144 63.851 30.5952C63.851 26.7851 64.5984 23.9371 66.0778 22.1427C67.5038 20.4095 69.9822 19.5314 73.4443 19.5314C76.487 19.5314 79.3238 19.9972 81.8632 20.9134L83.4113 21.4708V14.4462L82.6334 14.179C79.8119 13.2017 76.5709 12.713 73.0097 12.713C67.4962 12.713 63.2638 14.3241 60.427 17.5157C57.6284 20.6615 56.21 25.0671 56.21 30.6028C56.21 35.7415 57.6589 39.8341 60.5109 42.7813C63.3706 45.7286 67.5267 47.2252 72.8648 47.2252C75.5948 47.2252 77.9817 46.9656 79.9568 46.4616C81.9624 45.95 83.6096 45.2781 84.8678 44.4764L85.4016 44.1328V27.3119H70.7982L70.7905 27.3043Z" fill="#22356B"/>
</g>
</g>
<defs>
<clipPath id="clip0_40_90">
<rect width="165" height="63" fill="white"/>
</clipPath>
</defs>
</svg>
