<svg width="19" height="26" viewBox="0 0 19 26" fill="none" xmlns="http://www.w3.org/2000/svg">
<g clip-path="url(#clip0_360_31)">
<path d="M9.99674 14.8043C13.2462 14.8043 15.8803 12.1891 15.8803 8.96296C15.8803 5.73685 13.2462 3.12158 9.99674 3.12158C6.74733 3.12158 4.11316 5.73685 4.11316 8.96296C4.11316 12.1891 6.74733 14.8043 9.99674 14.8043Z" fill="white"/>
<path d="M9.60426 0.00811866C9.57564 0.00405933 9.54293 0 9.51431 0H9.49795C4.28083 0.00405933 0 3.95379 0 8.85746C0 10.4284 0.45793 11.8979 1.22251 13.1725C1.23069 13.1847 1.2266 13.2009 1.23477 13.2091C1.24295 13.2334 1.25522 13.2578 1.27157 13.2821C2.35098 15.0763 3.47536 16.8584 4.58748 18.6445L5.22122 19.6634L5.74865 20.4996L6.61136 21.8838L9.0114 25.728C9.23219 26.0893 9.85367 26.0893 10.0785 25.728L12.3682 21.9975H12.3723L12.5031 21.7824L13.791 19.6715L14.2449 18.9327C15.0872 17.5525 16.8453 14.6745 17.6998 13.3308V13.3187L17.7162 13.2943C17.7162 13.2943 17.7243 13.2862 17.7243 13.2821C18.4562 11.8248 18.9836 10.2173 18.9959 8.85746C19 3.98626 14.7764 0.0649493 9.60426 0.00811866ZM9.50613 13.5988C6.53368 13.5988 4.11319 11.3539 4.11319 8.60172C4.11319 5.84949 6.53368 3.59657 9.50613 3.59657C12.4786 3.59657 14.8991 5.84543 14.8991 8.60172C14.8991 11.358 12.4786 13.5988 9.50613 13.5988Z" fill="#3870B5"/>
</g>
<defs>
<clipPath id="clip0_360_31">
<rect width="19" height="26" fill="white"/>
</clipPath>
</defs>
</svg>
