<svg width="19" height="18" viewBox="0 0 19 18" fill="none" xmlns="http://www.w3.org/2000/svg">
<g id="auto_stories">
<mask id="mask0_396_23" style="mask-type:alpha" maskUnits="userSpaceOnUse" x="0" y="0" width="19" height="18">
<rect id="Bounding box" x="0.96228" width="18" height="18" fill="#D9D9D9"/>
</mask>
<g mask="url(#mask0_396_23)">
<path id="auto_stories_2" d="M10.0185 16.0688C9.40598 15.6063 8.74973 15.2219 8.04973 14.9156C7.34973 14.6094 6.61223 14.4563 5.83723 14.4563C5.35492 14.4563 4.88121 14.525 4.41611 14.6625C3.95103 14.8 3.49973 14.9813 3.06223 15.2063C2.62473 15.4313 2.19348 15.4209 1.76848 15.1751C1.34348 14.9294 1.13098 14.571 1.13098 14.1V5.1C1.13098 4.7875 1.19973 4.49625 1.33723 4.22625C1.47473 3.95625 1.68098 3.75375 1.95598 3.61875C2.55598 3.33125 3.17473 3.12188 3.81223 2.99063C4.44973 2.85938 5.1053 2.79375 5.77894 2.79375C6.5303 2.79375 7.25911 2.8875 7.96536 3.075C8.67161 3.2625 9.33723 3.5625 9.96223 3.975V13.6688C10.5997 13.2688 11.2685 12.9531 11.9685 12.7219C12.6685 12.4906 13.3747 12.375 14.0872 12.375C14.5372 12.375 14.9779 12.4219 15.4091 12.5156C15.8404 12.6094 16.2747 12.7313 16.7122 12.8813V3.13125C16.9247 3.19375 17.1404 3.26875 17.3591 3.35625C17.5779 3.44375 17.7935 3.53125 18.006 3.61875C18.2935 3.73125 18.4966 3.92863 18.6154 4.21089C18.7341 4.49314 18.7935 4.78951 18.7935 5.1V14.3813C18.7935 14.8063 18.5841 15.1094 18.1654 15.2906C17.7466 15.4719 17.3122 15.4438 16.8622 15.2063C16.4247 14.9813 15.9734 14.8 15.5084 14.6625C15.0433 14.525 14.5695 14.4563 14.0872 14.4563C13.3372 14.4563 12.6216 14.6125 11.9404 14.925C11.2591 15.2375 10.6185 15.6188 10.0185 16.0688ZM11.4622 11.7375V3.975L15.2122 0.09375V8.2125L11.4622 11.7375ZM7.88098 12.675V5.26875C7.55598 5.13125 7.22473 5.03125 6.88723 4.96875C6.54973 4.90625 6.19973 4.875 5.83723 4.875C5.37473 4.875 4.92473 4.91094 4.48723 4.98281C4.04973 5.05469 3.62473 5.1625 3.21223 5.30625V12.8625C3.64973 12.7 4.08411 12.5781 4.51536 12.4969C4.94661 12.4156 5.38723 12.375 5.83723 12.375C6.19973 12.375 6.54973 12.3969 6.88723 12.4406C7.22473 12.4844 7.55598 12.5625 7.88098 12.675Z" fill="#D90F03"/>
</g>
</g>
</svg>
