<svg width="25" height="24" viewBox="0 0 25 24" fill="none" xmlns="http://www.w3.org/2000/svg">
<mask id="mask0_640_119" style="mask-type:alpha" maskUnits="userSpaceOnUse" x="0" y="0" width="25" height="24">
<rect x="0.17627" width="24" height="24" fill="#D9D9D9"/>
</mask>
<g mask="url(#mask0_640_119)">
<path d="M4.17627 20C3.62627 20 3.15544 19.8042 2.76377 19.4125C2.3721 19.0208 2.17627 18.55 2.17627 18V6C2.17627 5.45 2.3721 4.97917 2.76377 4.5875C3.15544 4.19583 3.62627 4 4.17627 4H10.1763L12.1763 6H20.1763C20.7263 6 21.1971 6.19583 21.5888 6.5875C21.9804 6.97917 22.1763 7.45 22.1763 8V18C22.1763 18.55 21.9804 19.0208 21.5888 19.4125C21.1971 19.8042 20.7263 20 20.1763 20H4.17627Z" fill="#D90F03"/>
</g>
</svg>
