<svg width="398" height="157" viewBox="0 0 398 157" fill="none" xmlns="http://www.w3.org/2000/svg">
<path d="M0.927075 96.6858C0.927075 95.7258 1.11708 94.9158 1.49708 94.2558C1.87708 93.5858 2.38708 93.0858 3.02708 92.7558C3.67708 92.4258 4.38708 92.2608 5.15708 92.2608C6.41708 92.2608 7.40208 92.6408 8.11208 93.4008C8.83208 94.1508 9.19208 95.2008 9.19208 96.5508C9.19208 97.5408 9.00208 98.3658 8.62208 99.0258C8.24208 99.6858 7.73208 100.176 7.09208 100.496C6.45208 100.816 5.73708 100.976 4.94708 100.976C3.69708 100.976 2.71208 100.601 1.99208 99.8508C1.28208 99.0908 0.927075 98.0358 0.927075 96.6858ZM5.09708 99.9258C5.57708 99.9258 5.93208 99.6708 6.16208 99.1608C6.40208 98.6408 6.52208 97.8308 6.52208 96.7308C6.52208 95.5608 6.40708 94.7008 6.17708 94.1508C5.95708 93.5908 5.58208 93.3108 5.05208 93.3108C4.07208 93.3108 3.58208 94.3758 3.58208 96.5058C3.58208 97.6658 3.70208 98.5258 3.94208 99.0858C4.18208 99.6458 4.56708 99.9258 5.09708 99.9258ZM11.4961 93.7308H10.3261V92.8008L11.4961 92.5008V91.8708C11.4961 91.2008 11.6761 90.5908 12.0361 90.0408C12.3961 89.4908 12.8761 89.0558 13.4761 88.7358C14.0861 88.4158 14.7411 88.2558 15.4411 88.2558C15.8111 88.2558 16.1461 88.3058 16.4461 88.4058V90.5808C16.3361 90.4608 16.1211 90.3458 15.8011 90.2358C15.4811 90.1158 15.1661 90.0558 14.8561 90.0558C14.5261 90.0558 14.2911 90.1408 14.1511 90.3108C14.0111 90.4808 13.9411 90.7608 13.9411 91.1508V92.4858H15.7411V93.7308H13.9411V99.6858L15.4561 99.8208V100.811H10.3411V99.8208L11.4961 99.6858V93.7308ZM22.167 91.1808C21.777 91.1808 21.462 91.0658 21.222 90.8358C20.982 90.6058 20.862 90.3108 20.862 89.9508C20.862 89.5308 20.992 89.1858 21.252 88.9158C21.522 88.6458 21.882 88.5108 22.332 88.5108C22.772 88.5108 23.107 88.6258 23.337 88.8558C23.577 89.0858 23.697 89.3808 23.697 89.7408C23.697 90.1708 23.567 90.5208 23.307 90.7908C23.047 91.0508 22.672 91.1808 22.182 91.1808H22.167ZM20.172 92.6358L23.127 92.2758H23.157L23.607 92.5908V100.661C23.607 101.441 23.437 102.116 23.097 102.686C22.767 103.256 22.357 103.691 21.867 103.991C21.387 104.291 20.922 104.446 20.472 104.456C19.972 104.456 19.662 104.436 19.542 104.396L19.422 103.451C19.702 103.451 19.952 103.391 20.172 103.271C20.532 103.101 20.792 102.761 20.952 102.251C21.112 101.751 21.192 101.061 21.192 100.181V94.0758L20.172 93.7908V92.6358ZM25.3753 96.6858C25.3753 95.7258 25.5653 94.9158 25.9453 94.2558C26.3253 93.5858 26.8353 93.0858 27.4753 92.7558C28.1253 92.4258 28.8353 92.2608 29.6053 92.2608C30.8653 92.2608 31.8503 92.6408 32.5603 93.4008C33.2803 94.1508 33.6403 95.2008 33.6403 96.5508C33.6403 97.5408 33.4503 98.3658 33.0703 99.0258C32.6903 99.6858 32.1803 100.176 31.5403 100.496C30.9003 100.816 30.1853 100.976 29.3953 100.976C28.1453 100.976 27.1603 100.601 26.4403 99.8508C25.7303 99.0908 25.3753 98.0358 25.3753 96.6858ZM29.5453 99.9258C30.0253 99.9258 30.3803 99.6708 30.6103 99.1608C30.8503 98.6408 30.9703 97.8308 30.9703 96.7308C30.9703 95.5608 30.8553 94.7008 30.6253 94.1508C30.4053 93.5908 30.0303 93.3108 29.5003 93.3108C28.5203 93.3108 28.0303 94.3758 28.0303 96.5058C28.0303 97.6658 28.1503 98.5258 28.3903 99.0858C28.6303 99.6458 29.0153 99.9258 29.5453 99.9258ZM34.3393 88.8708L37.2943 88.5108H37.3243L37.8043 88.8108V93.1908C38.0643 92.9208 38.3843 92.7008 38.7643 92.5308C39.1443 92.3508 39.5493 92.2608 39.9793 92.2608C40.9393 92.2608 41.7143 92.6008 42.3043 93.2808C42.9043 93.9508 43.2043 94.9808 43.2043 96.3708C43.2043 97.2408 43.0193 98.0258 42.6493 98.7258C42.2893 99.4258 41.7693 99.9758 41.0893 100.376C40.4093 100.776 39.6143 100.976 38.7043 100.976C37.8443 100.976 37.1243 100.911 36.5443 100.781C35.9643 100.641 35.5843 100.516 35.4043 100.406V89.9358L34.3393 89.7408V88.8708ZM39.0493 93.7308C38.7993 93.7308 38.5643 93.7858 38.3443 93.8958C38.1243 94.0058 37.9443 94.1358 37.8043 94.2858V99.7158C37.8443 99.8158 37.9543 99.8958 38.1343 99.9558C38.3243 100.016 38.5393 100.046 38.7793 100.046C39.3393 100.046 39.7843 99.7508 40.1143 99.1608C40.4443 98.5708 40.6093 97.7008 40.6093 96.5508C40.6093 95.5808 40.4693 94.8708 40.1893 94.4208C39.9093 93.9608 39.5293 93.7308 39.0493 93.7308ZM49.7639 99.5658C49.8339 99.6758 49.9939 99.7758 50.2439 99.8658C50.5039 99.9558 50.7639 100.001 51.0239 100.001C51.4339 100.001 51.7439 99.9158 51.9539 99.7458C52.1739 99.5658 52.2839 99.3358 52.2839 99.0558C52.2839 98.7558 52.1439 98.5108 51.8639 98.3208C51.5839 98.1208 51.1239 97.8808 50.4839 97.6008L49.9139 97.3458C49.2639 97.0558 48.7739 96.7058 48.4439 96.2958C48.1239 95.8758 47.9639 95.3458 47.9639 94.7058C47.9639 94.2458 48.0989 93.8358 48.3689 93.4758C48.6389 93.1058 49.0289 92.8158 49.5389 92.6058C50.0489 92.3958 50.6489 92.2908 51.3389 92.2908C51.8189 92.2908 52.2339 92.3208 52.5839 92.3808C52.9339 92.4408 53.2889 92.5158 53.6489 92.6058C53.8889 92.6758 54.0689 92.7158 54.1889 92.7258V94.7658H52.8539L52.4639 93.6108C52.4139 93.5208 52.2939 93.4408 52.1039 93.3708C51.9139 93.2908 51.6989 93.2508 51.4589 93.2508C51.0789 93.2508 50.7789 93.3358 50.5589 93.5058C50.3389 93.6658 50.2289 93.8858 50.2289 94.1658C50.2289 94.4858 50.3539 94.7408 50.6039 94.9308C50.8539 95.1108 51.2539 95.3258 51.8039 95.5758L52.1189 95.7108C52.9289 96.0508 53.5639 96.4208 54.0239 96.8208C54.4839 97.2108 54.7139 97.7508 54.7139 98.4408C54.7139 99.1808 54.4189 99.7908 53.8289 100.271C53.2389 100.741 52.3689 100.976 51.2189 100.976C50.6889 100.976 50.2189 100.931 49.8089 100.841C49.3989 100.761 48.9489 100.651 48.4589 100.511L47.9639 100.376V98.3808H49.3889L49.7639 99.5658ZM59.6837 100.976C58.3137 100.976 57.2987 100.591 56.6387 99.8208C55.9787 99.0408 55.6487 97.9808 55.6487 96.6408C55.6487 95.7308 55.8187 94.9458 56.1587 94.2858C56.4987 93.6258 56.9737 93.1258 57.5837 92.7858C58.2037 92.4358 58.9287 92.2608 59.7587 92.2608C60.8087 92.2608 61.6087 92.5258 62.1587 93.0558C62.7187 93.5858 63.0087 94.3358 63.0287 95.3058C63.0287 95.9458 62.9837 96.4608 62.8937 96.8508H58.1987C58.2487 97.7008 58.4537 98.3508 58.8137 98.8008C59.1837 99.2408 59.6987 99.4608 60.3587 99.4608C60.7287 99.4608 61.1137 99.4008 61.5137 99.2808C61.9237 99.1508 62.2537 99.0058 62.5037 98.8458L62.9237 99.7608C62.6637 100.051 62.2187 100.326 61.5887 100.586C60.9687 100.846 60.3337 100.976 59.6837 100.976ZM60.6437 95.8608L60.6587 95.2308C60.6587 94.6008 60.5737 94.1208 60.4037 93.7908C60.2337 93.4608 59.9437 93.2958 59.5337 93.2958C59.1137 93.2958 58.7887 93.4808 58.5587 93.8508C58.3287 94.2108 58.2037 94.8808 58.1837 95.8608H60.6437ZM67.9894 100.976C66.6194 100.976 65.6044 100.591 64.9444 99.8208C64.2844 99.0408 63.9544 97.9808 63.9544 96.6408C63.9544 95.7308 64.1244 94.9458 64.4644 94.2858C64.8044 93.6258 65.2794 93.1258 65.8894 92.7858C66.5094 92.4358 67.2344 92.2608 68.0644 92.2608C69.1144 92.2608 69.9144 92.5258 70.4644 93.0558C71.0244 93.5858 71.3144 94.3358 71.3344 95.3058C71.3344 95.9458 71.2894 96.4608 71.1994 96.8508H66.5044C66.5544 97.7008 66.7594 98.3508 67.1194 98.8008C67.4894 99.2408 68.0044 99.4608 68.6644 99.4608C69.0344 99.4608 69.4194 99.4008 69.8194 99.2808C70.2294 99.1508 70.5594 99.0058 70.8094 98.8458L71.2294 99.7608C70.9694 100.051 70.5244 100.326 69.8944 100.586C69.2744 100.846 68.6394 100.976 67.9894 100.976ZM68.9494 95.8608L68.9644 95.2308C68.9644 94.6008 68.8794 94.1208 68.7094 93.7908C68.5394 93.4608 68.2494 93.2958 67.8394 93.2958C67.4194 93.2958 67.0944 93.4808 66.8644 93.8508C66.6344 94.2108 66.5094 94.8808 66.4894 95.8608H68.9494ZM73.1 89.9808L72.08 89.7858V88.8708L75.065 88.5108H75.11L75.545 88.8258V95.8308L75.5 96.5658L78.32 93.5958L77.21 93.4308V92.4858H81.29V93.4308L80.06 93.6258L78.44 95.1708L80.915 99.6858L81.695 99.8208V100.811H77.525V99.8208L78.2 99.6858L76.715 96.7158L75.5 97.9758L75.53 98.7408V99.6858L76.4 99.8208V100.811H72.275V99.8208L73.1 99.6858V89.9808ZM86.007 100.976C84.637 100.976 83.622 100.591 82.962 99.8208C82.302 99.0408 81.972 97.9808 81.972 96.6408C81.972 95.7308 82.142 94.9458 82.482 94.2858C82.822 93.6258 83.297 93.1258 83.907 92.7858C84.527 92.4358 85.252 92.2608 86.082 92.2608C87.132 92.2608 87.932 92.5258 88.482 93.0558C89.042 93.5858 89.332 94.3358 89.352 95.3058C89.352 95.9458 89.307 96.4608 89.217 96.8508H84.522C84.572 97.7008 84.777 98.3508 85.137 98.8008C85.507 99.2408 86.022 99.4608 86.682 99.4608C87.052 99.4608 87.437 99.4008 87.837 99.2808C88.247 99.1508 88.577 99.0058 88.827 98.8458L89.247 99.7608C88.987 100.051 88.542 100.326 87.912 100.586C87.292 100.846 86.657 100.976 86.007 100.976ZM86.967 95.8608L86.982 95.2308C86.982 94.6008 86.897 94.1208 86.727 93.7908C86.557 93.4608 86.267 93.2958 85.857 93.2958C85.437 93.2958 85.112 93.4808 84.882 93.8508C84.652 94.2108 84.527 94.8808 84.507 95.8608H86.967ZM90.4576 99.8208L91.3726 99.6858V94.0458L90.4876 93.7758V92.6058L92.9776 92.2758H93.0226L93.4426 92.5908V92.9508L93.3976 94.1958H93.4426C93.5126 93.9658 93.6726 93.7008 93.9226 93.4008C94.1726 93.0908 94.4876 92.8258 94.8676 92.6058C95.2576 92.3758 95.6776 92.2608 96.1276 92.2608C96.3876 92.2608 96.5876 92.2958 96.7276 92.3658V94.9758C96.5676 94.8558 96.3926 94.7608 96.2026 94.6908C96.0226 94.6208 95.7876 94.5858 95.4976 94.5858C95.1376 94.5858 94.8126 94.6358 94.5226 94.7358C94.2326 94.8258 94.0026 94.9308 93.8326 95.0508V99.6858L95.4826 99.8358V100.811H90.4576V99.8208ZM99.5247 99.5658C99.5947 99.6758 99.7547 99.7758 100.005 99.8658C100.265 99.9558 100.525 100.001 100.785 100.001C101.195 100.001 101.505 99.9158 101.715 99.7458C101.935 99.5658 102.045 99.3358 102.045 99.0558C102.045 98.7558 101.905 98.5108 101.625 98.3208C101.345 98.1208 100.885 97.8808 100.245 97.6008L99.6747 97.3458C99.0247 97.0558 98.5347 96.7058 98.2047 96.2958C97.8847 95.8758 97.7247 95.3458 97.7247 94.7058C97.7247 94.2458 97.8597 93.8358 98.1297 93.4758C98.3997 93.1058 98.7897 92.8158 99.2997 92.6058C99.8097 92.3958 100.41 92.2908 101.1 92.2908C101.58 92.2908 101.995 92.3208 102.345 92.3808C102.695 92.4408 103.05 92.5158 103.41 92.6058C103.65 92.6758 103.83 92.7158 103.95 92.7258V94.7658H102.615L102.225 93.6108C102.175 93.5208 102.055 93.4408 101.865 93.3708C101.675 93.2908 101.46 93.2508 101.22 93.2508C100.84 93.2508 100.54 93.3358 100.32 93.5058C100.1 93.6658 99.9897 93.8858 99.9897 94.1658C99.9897 94.4858 100.115 94.7408 100.365 94.9308C100.615 95.1108 101.015 95.3258 101.565 95.5758L101.88 95.7108C102.69 96.0508 103.325 96.4208 103.785 96.8208C104.245 97.2108 104.475 97.7508 104.475 98.4408C104.475 99.1808 104.18 99.7908 103.59 100.271C103 100.741 102.13 100.976 100.98 100.976C100.45 100.976 99.9797 100.931 99.5697 100.841C99.1597 100.761 98.7097 100.651 98.2197 100.511L97.7247 100.376V98.3808H99.1497L99.5247 99.5658ZM110.124 93.7308H108.954V92.8008L110.124 92.5008V91.8708C110.124 91.2008 110.304 90.5908 110.664 90.0408C111.024 89.4908 111.504 89.0558 112.104 88.7358C112.714 88.4158 113.369 88.2558 114.069 88.2558C114.439 88.2558 114.774 88.3058 115.074 88.4058V90.5808C114.964 90.4608 114.749 90.3458 114.429 90.2358C114.109 90.1158 113.794 90.0558 113.484 90.0558C113.154 90.0558 112.919 90.1408 112.779 90.3108C112.639 90.4808 112.569 90.7608 112.569 91.1508V92.4858H114.369V93.7308H112.569V99.6858L114.084 99.8208V100.811H108.969V99.8208L110.124 99.6858V93.7308ZM117.159 91.1808C116.769 91.1808 116.454 91.0658 116.214 90.8358C115.974 90.6058 115.854 90.3108 115.854 89.9508C115.854 89.5308 115.984 89.1858 116.244 88.9158C116.514 88.6458 116.874 88.5108 117.324 88.5108C117.774 88.5108 118.119 88.6258 118.359 88.8558C118.599 89.0858 118.719 89.3808 118.719 89.7408C118.719 90.1708 118.584 90.5208 118.314 90.7908C118.044 91.0508 117.664 91.1808 117.174 91.1808H117.159ZM116.244 94.0458L115.239 93.7608V92.6358L118.239 92.2758H118.269L118.734 92.5908V99.6858L119.634 99.8208V100.811H115.314V99.8208L116.244 99.6858V94.0458ZM121.502 94.0458L120.617 93.7758V92.6058L123.347 92.2758H123.392L123.782 92.5908V93.1458L123.767 93.4908C124.117 93.1608 124.562 92.8808 125.102 92.6508C125.642 92.4208 126.207 92.3058 126.797 92.3058C127.397 92.3058 127.867 92.4158 128.207 92.6358C128.557 92.8458 128.807 93.1858 128.957 93.6558C129.117 94.1258 129.197 94.7658 129.197 95.5758V99.6858L130.037 99.8058V100.811H125.957V99.8208L126.692 99.6858V95.5908C126.692 95.1108 126.657 94.7408 126.587 94.4808C126.527 94.2108 126.417 94.0158 126.257 93.8958C126.097 93.7758 125.867 93.7158 125.567 93.7158C125.107 93.7158 124.587 93.9308 124.007 94.3608V99.6858L124.832 99.8208V100.811H120.677V99.8208L121.502 99.6858V94.0458ZM134.138 100.976C133.178 100.976 132.398 100.631 131.798 99.9408C131.198 99.2508 130.898 98.2158 130.898 96.8358C130.898 96.0058 131.068 95.2458 131.408 94.5558C131.758 93.8558 132.268 93.3008 132.938 92.8908C133.618 92.4708 134.438 92.2608 135.398 92.2608C135.688 92.2608 135.988 92.2958 136.298 92.3658V89.9808L134.858 89.7708V88.8108L138.173 88.5108H138.248L138.698 88.8708V99.8058H139.478V100.766C138.708 100.916 138.068 100.991 137.558 100.991C137.208 100.991 136.953 100.931 136.793 100.811C136.643 100.701 136.568 100.481 136.568 100.151V99.7758C136.328 100.126 135.983 100.416 135.533 100.646C135.083 100.866 134.618 100.976 134.138 100.976ZM135.038 99.6258C135.318 99.6258 135.563 99.5708 135.773 99.4608C135.993 99.3408 136.168 99.2008 136.298 99.0408V93.6108C136.228 93.5208 136.098 93.4458 135.908 93.3858C135.728 93.3258 135.533 93.2958 135.323 93.2958C134.763 93.2958 134.318 93.5658 133.988 94.1058C133.658 94.6358 133.493 95.5058 133.493 96.7158C133.493 97.7058 133.633 98.4408 133.913 98.9208C134.193 99.3908 134.568 99.6258 135.038 99.6258ZM145.932 91.1808C145.542 91.1808 145.227 91.0658 144.987 90.8358C144.747 90.6058 144.627 90.3108 144.627 89.9508C144.627 89.5308 144.757 89.1858 145.017 88.9158C145.287 88.6458 145.647 88.5108 146.097 88.5108C146.537 88.5108 146.872 88.6258 147.102 88.8558C147.342 89.0858 147.462 89.3808 147.462 89.7408C147.462 90.1708 147.332 90.5208 147.072 90.7908C146.812 91.0508 146.437 91.1808 145.947 91.1808H145.932ZM143.937 92.6358L146.892 92.2758H146.922L147.372 92.5908V100.661C147.372 101.441 147.202 102.116 146.862 102.686C146.532 103.256 146.122 103.691 145.632 103.991C145.152 104.291 144.687 104.446 144.237 104.456C143.737 104.456 143.427 104.436 143.307 104.396L143.187 103.451C143.467 103.451 143.717 103.391 143.937 103.271C144.297 103.101 144.557 102.761 144.717 102.251C144.877 101.751 144.957 101.061 144.957 100.181V94.0758L143.937 93.7908V92.6358ZM149.14 96.6858C149.14 95.7258 149.33 94.9158 149.71 94.2558C150.09 93.5858 150.6 93.0858 151.24 92.7558C151.89 92.4258 152.6 92.2608 153.37 92.2608C154.63 92.2608 155.615 92.6408 156.325 93.4008C157.045 94.1508 157.405 95.2008 157.405 96.5508C157.405 97.5408 157.215 98.3658 156.835 99.0258C156.455 99.6858 155.945 100.176 155.305 100.496C154.665 100.816 153.95 100.976 153.16 100.976C151.91 100.976 150.925 100.601 150.205 99.8508C149.495 99.0908 149.14 98.0358 149.14 96.6858ZM153.31 99.9258C153.79 99.9258 154.145 99.6708 154.375 99.1608C154.615 98.6408 154.735 97.8308 154.735 96.7308C154.735 95.5608 154.62 94.7008 154.39 94.1508C154.17 93.5908 153.795 93.3108 153.265 93.3108C152.285 93.3108 151.795 94.3758 151.795 96.5058C151.795 97.6658 151.915 98.5258 152.155 99.0858C152.395 99.6458 152.78 99.9258 153.31 99.9258ZM158.104 88.8708L161.059 88.5108H161.089L161.569 88.8108V93.1908C161.829 92.9208 162.149 92.7008 162.529 92.5308C162.909 92.3508 163.314 92.2608 163.744 92.2608C164.704 92.2608 165.479 92.6008 166.069 93.2808C166.669 93.9508 166.969 94.9808 166.969 96.3708C166.969 97.2408 166.784 98.0258 166.414 98.7258C166.054 99.4258 165.534 99.9758 164.854 100.376C164.174 100.776 163.379 100.976 162.469 100.976C161.609 100.976 160.889 100.911 160.309 100.781C159.729 100.641 159.349 100.516 159.169 100.406V89.9358L158.104 89.7408V88.8708ZM162.814 93.7308C162.564 93.7308 162.329 93.7858 162.109 93.8958C161.889 94.0058 161.709 94.1358 161.569 94.2858V99.7158C161.609 99.8158 161.719 99.8958 161.899 99.9558C162.089 100.016 162.304 100.046 162.544 100.046C163.104 100.046 163.549 99.7508 163.879 99.1608C164.209 98.5708 164.374 97.7008 164.374 96.5508C164.374 95.5808 164.234 94.8708 163.954 94.4208C163.674 93.9608 163.294 93.7308 162.814 93.7308ZM169.969 99.5658C170.039 99.6758 170.199 99.7758 170.449 99.8658C170.709 99.9558 170.969 100.001 171.229 100.001C171.639 100.001 171.949 99.9158 172.159 99.7458C172.379 99.5658 172.489 99.3358 172.489 99.0558C172.489 98.7558 172.349 98.5108 172.069 98.3208C171.789 98.1208 171.329 97.8808 170.689 97.6008L170.119 97.3458C169.469 97.0558 168.979 96.7058 168.649 96.2958C168.329 95.8758 168.169 95.3458 168.169 94.7058C168.169 94.2458 168.304 93.8358 168.574 93.4758C168.844 93.1058 169.234 92.8158 169.744 92.6058C170.254 92.3958 170.854 92.2908 171.544 92.2908C172.024 92.2908 172.439 92.3208 172.789 92.3808C173.139 92.4408 173.494 92.5158 173.854 92.6058C174.094 92.6758 174.274 92.7158 174.394 92.7258V94.7658H173.059L172.669 93.6108C172.619 93.5208 172.499 93.4408 172.309 93.3708C172.119 93.2908 171.904 93.2508 171.664 93.2508C171.284 93.2508 170.984 93.3358 170.764 93.5058C170.544 93.6658 170.434 93.8858 170.434 94.1658C170.434 94.4858 170.559 94.7408 170.809 94.9308C171.059 95.1108 171.459 95.3258 172.009 95.5758L172.324 95.7108C173.134 96.0508 173.769 96.4208 174.229 96.8208C174.689 97.2108 174.919 97.7508 174.919 98.4408C174.919 99.1808 174.624 99.7908 174.034 100.271C173.444 100.741 172.574 100.976 171.424 100.976C170.894 100.976 170.424 100.931 170.014 100.841C169.604 100.761 169.154 100.651 168.664 100.511L168.169 100.376V98.3808H169.594L169.969 99.5658ZM3.41708 119.946C2.75708 119.946 2.26708 119.796 1.94708 119.496C1.63708 119.186 1.48208 118.711 1.48208 118.071V112.731H0.567075V111.861L0.867075 111.741C1.10708 111.661 1.31708 111.576 1.49708 111.486C1.69708 111.296 1.85708 111.046 1.97708 110.736C2.12708 110.376 2.29208 109.871 2.47208 109.221H3.86708L3.95708 111.471H6.10208V112.731H3.98708V116.706C3.98708 117.256 4.00208 117.641 4.03208 117.861C4.06208 118.081 4.11708 118.226 4.19708 118.296C4.28708 118.356 4.44708 118.386 4.67708 118.386C5.14708 118.386 5.59208 118.306 6.01208 118.146L6.32708 119.091C6.04708 119.321 5.63208 119.521 5.08208 119.691C4.53208 119.861 3.97708 119.946 3.41708 119.946ZM7.68012 108.981L6.61512 108.786V107.871L9.63012 107.511H9.67512L10.1101 107.826L10.1251 111.081L10.0051 112.416C10.3151 112.126 10.7251 111.871 11.2351 111.651C11.7451 111.421 12.3051 111.306 12.9151 111.306C13.5451 111.306 14.0351 111.421 14.3851 111.651C14.7351 111.881 14.9801 112.231 15.1201 112.701C15.2601 113.171 15.3301 113.796 15.3301 114.576V118.686L16.2451 118.821V119.811H12.0751V118.821L12.8701 118.686V114.591C12.8701 113.891 12.7951 113.406 12.6451 113.136C12.4951 112.856 12.1901 112.716 11.7301 112.716C11.4501 112.716 11.1701 112.781 10.8901 112.911C10.6101 113.031 10.3751 113.181 10.1851 113.361V118.686L11.0101 118.821V119.811H6.90012V118.821L7.68012 118.686V108.981ZM17.1715 118.821L18.0865 118.686V113.046L17.2015 112.776V111.606L19.6915 111.276H19.7365L20.1565 111.591V111.951L20.1115 113.196H20.1565C20.2265 112.966 20.3865 112.701 20.6365 112.401C20.8865 112.091 21.2015 111.826 21.5815 111.606C21.9715 111.376 22.3915 111.261 22.8415 111.261C23.1015 111.261 23.3015 111.296 23.4415 111.366V113.976C23.2815 113.856 23.1065 113.761 22.9165 113.691C22.7365 113.621 22.5015 113.586 22.2115 113.586C21.8515 113.586 21.5265 113.636 21.2365 113.736C20.9465 113.826 20.7165 113.931 20.5465 114.051V118.686L22.1965 118.836V119.811H17.1715V118.821ZM24.4085 115.686C24.4085 114.726 24.5985 113.916 24.9785 113.256C25.3585 112.586 25.8685 112.086 26.5085 111.756C27.1585 111.426 27.8685 111.261 28.6385 111.261C29.8985 111.261 30.8835 111.641 31.5935 112.401C32.3135 113.151 32.6735 114.201 32.6735 115.551C32.6735 116.541 32.4835 117.366 32.1035 118.026C31.7235 118.686 31.2135 119.176 30.5735 119.496C29.9335 119.816 29.2185 119.976 28.4285 119.976C27.1785 119.976 26.1935 119.601 25.4735 118.851C24.7635 118.091 24.4085 117.036 24.4085 115.686ZM28.5785 118.926C29.0585 118.926 29.4135 118.671 29.6435 118.161C29.8835 117.641 30.0035 116.831 30.0035 115.731C30.0035 114.561 29.8885 113.701 29.6585 113.151C29.4385 112.591 29.0635 112.311 28.5335 112.311C27.5535 112.311 27.0635 113.376 27.0635 115.506C27.0635 116.666 27.1835 117.526 27.4235 118.086C27.6635 118.646 28.0485 118.926 28.5785 118.926ZM40.7525 119.961C40.3925 119.961 40.1325 119.886 39.9725 119.736C39.8125 119.576 39.7325 119.346 39.7325 119.046V118.716C39.4925 119.046 39.1325 119.341 38.6525 119.601C38.1725 119.851 37.6875 119.976 37.1975 119.976C36.2175 119.976 35.5175 119.736 35.0975 119.256C34.6875 118.766 34.4825 117.951 34.4825 116.811V112.641L33.7775 112.446V111.486L36.5975 111.291H36.6125L36.9425 111.501V116.871C36.9425 117.521 37.0225 117.976 37.1825 118.236C37.3425 118.486 37.6275 118.611 38.0375 118.611C38.5975 118.611 39.0675 118.421 39.4475 118.041V112.641L38.5175 112.416V111.486L41.4875 111.291H41.5325L41.8925 111.501V118.776H42.6875V119.736C42.3475 119.806 42.0325 119.861 41.7425 119.901C41.4625 119.941 41.1325 119.961 40.7525 119.961ZM47.3459 123.861C45.9659 123.861 44.9659 123.646 44.3459 123.216C43.7359 122.786 43.4309 122.211 43.4309 121.491C43.4309 121.091 43.5659 120.711 43.8359 120.351C44.1059 119.991 44.4459 119.721 44.8559 119.541C44.3859 119.271 44.1509 118.841 44.1509 118.251C44.1509 117.931 44.2609 117.621 44.4809 117.321C44.7009 117.011 44.9959 116.776 45.3659 116.616C44.2559 116.206 43.7009 115.356 43.7009 114.066C43.7009 113.496 43.8709 113.001 44.2109 112.581C44.5509 112.151 45.0109 111.826 45.5909 111.606C46.1709 111.376 46.8109 111.261 47.5109 111.261C48.7609 111.261 49.6759 111.491 50.2559 111.951C50.3959 111.781 50.6159 111.621 50.9159 111.471C51.2159 111.311 51.5259 111.231 51.8459 111.231H52.3859V113.061H50.9009C51.0009 113.341 51.0509 113.626 51.0509 113.916C51.0509 114.836 50.7259 115.566 50.0759 116.106C49.4259 116.646 48.5009 116.916 47.3009 116.916C46.8109 116.916 46.4059 116.881 46.0859 116.811C46.0259 116.931 45.9759 117.056 45.9359 117.186C45.9059 117.316 45.8909 117.421 45.8909 117.501C45.8909 117.811 46.0059 118.026 46.2359 118.146C46.4659 118.256 46.8859 118.311 47.4959 118.311H49.0409C51.1509 118.311 52.2059 119.066 52.2059 120.576C52.2059 121.236 51.9759 121.816 51.5159 122.316C51.0559 122.816 50.4509 123.196 49.7009 123.456C48.9609 123.726 48.1759 123.861 47.3459 123.861ZM47.4509 115.896C47.8709 115.896 48.1709 115.741 48.3509 115.431C48.5409 115.111 48.6359 114.656 48.6359 114.066C48.6359 113.426 48.5409 112.961 48.3509 112.671C48.1609 112.381 47.8559 112.236 47.4359 112.236C46.5859 112.236 46.1609 112.826 46.1609 114.006C46.1609 115.266 46.5909 115.896 47.4509 115.896ZM47.6309 122.736C48.1809 122.736 48.6509 122.591 49.0409 122.301C49.4309 122.011 49.6259 121.601 49.6259 121.071C49.6259 120.651 49.5209 120.351 49.3109 120.171C49.1009 120.001 48.7309 119.916 48.2009 119.916H46.6709C46.5109 119.916 46.3309 119.906 46.1309 119.886C45.9409 120.196 45.8459 120.581 45.8459 121.041C45.8459 122.171 46.4409 122.736 47.6309 122.736ZM53.7788 108.981L52.7138 108.786V107.871L55.7288 107.511H55.7738L56.2088 107.826L56.2238 111.081L56.1038 112.416C56.4138 112.126 56.8238 111.871 57.3338 111.651C57.8438 111.421 58.4038 111.306 59.0138 111.306C59.6438 111.306 60.1338 111.421 60.4838 111.651C60.8338 111.881 61.0788 112.231 61.2188 112.701C61.3588 113.171 61.4288 113.796 61.4288 114.576V118.686L62.3438 118.821V119.811H58.1738V118.821L58.9688 118.686V114.591C58.9688 113.891 58.8938 113.406 58.7438 113.136C58.5938 112.856 58.2888 112.716 57.8288 112.716C57.5488 112.716 57.2688 112.781 56.9888 112.911C56.7088 113.031 56.4738 113.181 56.2838 113.361V118.686L57.1088 118.821V119.811H52.9988V118.821L53.7788 118.686V108.981ZM75.2747 115.371C75.2747 116.201 75.0997 116.966 74.7497 117.666C74.4097 118.366 73.8997 118.926 73.2197 119.346C72.5497 119.766 71.7397 119.976 70.7897 119.976C70.6297 119.976 70.4547 119.961 70.2647 119.931C70.0847 119.901 69.9447 119.866 69.8447 119.826L69.8897 121.041V122.316L71.1797 122.511V123.441H66.5747V122.511L67.4897 122.316V113.046L66.5747 112.776V111.606L69.2597 111.276H69.2897L69.6947 111.591V112.401C69.9247 112.091 70.2447 111.826 70.6547 111.606C71.0747 111.376 71.5297 111.261 72.0197 111.261C72.9797 111.261 73.7597 111.601 74.3597 112.281C74.9697 112.951 75.2747 113.981 75.2747 115.371ZM71.1347 112.641C70.8747 112.641 70.6297 112.696 70.3997 112.806C70.1697 112.906 69.9997 113.031 69.8897 113.181V118.671C69.9597 118.761 70.0797 118.836 70.2497 118.896C70.4297 118.956 70.6247 118.986 70.8347 118.986C71.3947 118.986 71.8397 118.716 72.1697 118.176C72.5097 117.636 72.6797 116.761 72.6797 115.551C72.6797 114.571 72.5397 113.841 72.2597 113.361C71.9797 112.881 71.6047 112.641 71.1347 112.641ZM80.2794 119.976C78.9094 119.976 77.8944 119.591 77.2344 118.821C76.5744 118.041 76.2444 116.981 76.2444 115.641C76.2444 114.731 76.4144 113.946 76.7544 113.286C77.0944 112.626 77.5694 112.126 78.1794 111.786C78.7994 111.436 79.5244 111.261 80.3544 111.261C81.4044 111.261 82.2044 111.526 82.7544 112.056C83.3144 112.586 83.6044 113.336 83.6244 114.306C83.6244 114.946 83.5794 115.461 83.4894 115.851H78.7944C78.8444 116.701 79.0494 117.351 79.4094 117.801C79.7794 118.241 80.2944 118.461 80.9544 118.461C81.3244 118.461 81.7094 118.401 82.1094 118.281C82.5194 118.151 82.8494 118.006 83.0994 117.846L83.5194 118.761C83.2594 119.051 82.8144 119.326 82.1844 119.586C81.5644 119.846 80.9294 119.976 80.2794 119.976ZM81.2394 114.861L81.2544 114.231C81.2544 113.601 81.1694 113.121 80.9994 112.791C80.8294 112.461 80.5394 112.296 80.1294 112.296C79.7094 112.296 79.3844 112.481 79.1544 112.851C78.9244 113.211 78.7994 113.881 78.7794 114.861H81.2394ZM84.7301 118.821L85.6451 118.686V113.046L84.7601 112.776V111.606L87.2501 111.276H87.2951L87.7151 111.591V111.951L87.6701 113.196H87.7151C87.7851 112.966 87.9451 112.701 88.1951 112.401C88.4451 112.091 88.7601 111.826 89.1401 111.606C89.5301 111.376 89.9501 111.261 90.4001 111.261C90.6601 111.261 90.8601 111.296 91.0001 111.366V113.976C90.8401 113.856 90.6651 113.761 90.4751 113.691C90.2951 113.621 90.0601 113.586 89.7701 113.586C89.4101 113.586 89.0851 113.636 88.7951 113.736C88.5051 113.826 88.2751 113.931 88.1051 114.051V118.686L89.7551 118.836V119.811H84.7301V118.821ZM93.7971 118.566C93.8671 118.676 94.0271 118.776 94.2771 118.866C94.5371 118.956 94.7971 119.001 95.0571 119.001C95.4671 119.001 95.7771 118.916 95.9871 118.746C96.2071 118.566 96.3171 118.336 96.3171 118.056C96.3171 117.756 96.1771 117.511 95.8971 117.321C95.6171 117.121 95.1571 116.881 94.5171 116.601L93.9471 116.346C93.2971 116.056 92.8071 115.706 92.4771 115.296C92.1571 114.876 91.9971 114.346 91.9971 113.706C91.9971 113.246 92.1321 112.836 92.4021 112.476C92.6721 112.106 93.0621 111.816 93.5721 111.606C94.0821 111.396 94.6821 111.291 95.3721 111.291C95.8521 111.291 96.2671 111.321 96.6171 111.381C96.9671 111.441 97.3221 111.516 97.6821 111.606C97.9221 111.676 98.1021 111.716 98.2221 111.726V113.766H96.8871L96.4971 112.611C96.4471 112.521 96.3271 112.441 96.1371 112.371C95.9471 112.291 95.7321 112.251 95.4921 112.251C95.1121 112.251 94.8121 112.336 94.5921 112.506C94.3721 112.666 94.2621 112.886 94.2621 113.166C94.2621 113.486 94.3871 113.741 94.6371 113.931C94.8871 114.111 95.2871 114.326 95.8371 114.576L96.1521 114.711C96.9621 115.051 97.5971 115.421 98.0571 115.821C98.5171 116.211 98.7471 116.751 98.7471 117.441C98.7471 118.181 98.4521 118.791 97.8621 119.271C97.2721 119.741 96.4021 119.976 95.2521 119.976C94.7221 119.976 94.2521 119.931 93.8421 119.841C93.4321 119.761 92.9821 119.651 92.4921 119.511L91.9971 119.376V117.381H93.4221L93.7971 118.566ZM99.8919 115.686C99.8919 114.726 100.082 113.916 100.462 113.256C100.842 112.586 101.352 112.086 101.992 111.756C102.642 111.426 103.352 111.261 104.122 111.261C105.382 111.261 106.367 111.641 107.077 112.401C107.797 113.151 108.157 114.201 108.157 115.551C108.157 116.541 107.967 117.366 107.587 118.026C107.207 118.686 106.697 119.176 106.057 119.496C105.417 119.816 104.702 119.976 103.912 119.976C102.662 119.976 101.677 119.601 100.957 118.851C100.247 118.091 99.8919 117.036 99.8919 115.686ZM104.062 118.926C104.542 118.926 104.897 118.671 105.127 118.161C105.367 117.641 105.487 116.831 105.487 115.731C105.487 114.561 105.372 113.701 105.142 113.151C104.922 112.591 104.547 112.311 104.017 112.311C103.037 112.311 102.547 113.376 102.547 115.506C102.547 116.666 102.667 117.526 102.907 118.086C103.147 118.646 103.532 118.926 104.062 118.926ZM110.311 113.046L109.426 112.776V111.606L112.156 111.276H112.201L112.591 111.591V112.146L112.576 112.491C112.926 112.161 113.371 111.881 113.911 111.651C114.451 111.421 115.016 111.306 115.606 111.306C116.206 111.306 116.676 111.416 117.016 111.636C117.366 111.846 117.616 112.186 117.766 112.656C117.926 113.126 118.006 113.766 118.006 114.576V118.686L118.846 118.806V119.811H114.766V118.821L115.501 118.686V114.591C115.501 114.111 115.466 113.741 115.396 113.481C115.336 113.211 115.226 113.016 115.066 112.896C114.906 112.776 114.676 112.716 114.376 112.716C113.916 112.716 113.396 112.931 112.816 113.361V118.686L113.641 118.821V119.811H109.486V118.821L110.311 118.686V113.046ZM119.632 117.411C119.632 116.531 120.077 115.856 120.967 115.386C121.867 114.916 123.047 114.676 124.507 114.666V114.366C124.507 114.006 124.467 113.721 124.387 113.511C124.307 113.301 124.162 113.146 123.952 113.046C123.742 112.936 123.432 112.881 123.022 112.881C122.532 112.881 122.092 112.941 121.702 113.061C121.322 113.171 120.922 113.321 120.502 113.511L119.992 112.431C120.152 112.301 120.412 112.146 120.772 111.966C121.132 111.776 121.562 111.616 122.062 111.486C122.572 111.346 123.102 111.276 123.652 111.276C124.452 111.276 125.077 111.381 125.527 111.591C125.987 111.801 126.312 112.126 126.502 112.566C126.702 113.006 126.802 113.606 126.802 114.366V118.821H127.582V119.766C127.352 119.816 127.032 119.866 126.622 119.916C126.212 119.966 125.862 119.991 125.572 119.991C125.192 119.991 124.937 119.936 124.807 119.826C124.687 119.716 124.627 119.496 124.627 119.166V118.821C124.377 119.121 124.042 119.391 123.622 119.631C123.202 119.861 122.717 119.976 122.167 119.976C121.697 119.976 121.267 119.876 120.877 119.676C120.497 119.466 120.192 119.171 119.962 118.791C119.742 118.401 119.632 117.941 119.632 117.411ZM123.337 118.596C123.517 118.596 123.717 118.546 123.937 118.446C124.157 118.336 124.347 118.206 124.507 118.056V115.671C123.727 115.671 123.147 115.811 122.767 116.091C122.397 116.371 122.212 116.731 122.212 117.171C122.212 117.621 122.312 117.971 122.512 118.221C122.712 118.471 122.987 118.596 123.337 118.596ZM129.177 108.981L128.127 108.786V107.871L131.127 107.511H131.172L131.607 107.826V118.686L132.582 118.821V119.811H128.217V118.821L129.177 118.686V108.981ZM136.903 117.411C136.903 116.531 137.348 115.856 138.238 115.386C139.138 114.916 140.318 114.676 141.778 114.666V114.366C141.778 114.006 141.738 113.721 141.658 113.511C141.578 113.301 141.433 113.146 141.223 113.046C141.013 112.936 140.703 112.881 140.293 112.881C139.803 112.881 139.363 112.941 138.973 113.061C138.593 113.171 138.193 113.321 137.773 113.511L137.263 112.431C137.423 112.301 137.683 112.146 138.043 111.966C138.403 111.776 138.833 111.616 139.333 111.486C139.843 111.346 140.373 111.276 140.923 111.276C141.723 111.276 142.348 111.381 142.798 111.591C143.258 111.801 143.583 112.126 143.773 112.566C143.973 113.006 144.073 113.606 144.073 114.366V118.821H144.853V119.766C144.623 119.816 144.303 119.866 143.893 119.916C143.483 119.966 143.133 119.991 142.843 119.991C142.463 119.991 142.208 119.936 142.078 119.826C141.958 119.716 141.898 119.496 141.898 119.166V118.821C141.648 119.121 141.313 119.391 140.893 119.631C140.473 119.861 139.988 119.976 139.438 119.976C138.968 119.976 138.538 119.876 138.148 119.676C137.768 119.466 137.463 119.171 137.233 118.791C137.013 118.401 136.903 117.941 136.903 117.411ZM140.608 118.596C140.788 118.596 140.988 118.546 141.208 118.446C141.428 118.336 141.618 118.206 141.778 118.056V115.671C140.998 115.671 140.418 115.811 140.038 116.091C139.668 116.371 139.483 116.731 139.483 117.171C139.483 117.621 139.583 117.971 139.783 118.221C139.983 118.471 140.258 118.596 140.608 118.596ZM146.507 113.046L145.622 112.776V111.606L148.352 111.276H148.397L148.787 111.591V112.146L148.772 112.491C149.122 112.161 149.567 111.881 150.107 111.651C150.647 111.421 151.212 111.306 151.802 111.306C152.402 111.306 152.872 111.416 153.212 111.636C153.562 111.846 153.812 112.186 153.962 112.656C154.122 113.126 154.202 113.766 154.202 114.576V118.686L155.042 118.806V119.811H150.962V118.821L151.697 118.686V114.591C151.697 114.111 151.662 113.741 151.592 113.481C151.532 113.211 151.422 113.016 151.262 112.896C151.102 112.776 150.872 112.716 150.572 112.716C150.112 112.716 149.592 112.931 149.012 113.361V118.686L149.837 118.821V119.811H145.682V118.821L146.507 118.686V113.046ZM159.143 119.976C158.183 119.976 157.403 119.631 156.803 118.941C156.203 118.251 155.903 117.216 155.903 115.836C155.903 115.006 156.073 114.246 156.413 113.556C156.763 112.856 157.273 112.301 157.943 111.891C158.623 111.471 159.443 111.261 160.403 111.261C160.693 111.261 160.993 111.296 161.303 111.366V108.981L159.863 108.771V107.811L163.178 107.511H163.253L163.703 107.871V118.806H164.483V119.766C163.713 119.916 163.073 119.991 162.563 119.991C162.213 119.991 161.958 119.931 161.798 119.811C161.648 119.701 161.573 119.481 161.573 119.151V118.776C161.333 119.126 160.988 119.416 160.538 119.646C160.088 119.866 159.623 119.976 159.143 119.976ZM160.043 118.626C160.323 118.626 160.568 118.571 160.778 118.461C160.998 118.341 161.173 118.201 161.303 118.041V112.611C161.233 112.521 161.103 112.446 160.913 112.386C160.733 112.326 160.538 112.296 160.328 112.296C159.768 112.296 159.323 112.566 158.993 113.106C158.663 113.636 158.498 114.506 158.498 115.716C158.498 116.706 158.638 117.441 158.918 117.921C159.198 118.391 159.573 118.626 160.043 118.626ZM9.34208 134.371C9.34208 135.201 9.16708 135.966 8.81708 136.666C8.47708 137.366 7.96708 137.926 7.28708 138.346C6.61708 138.766 5.80708 138.976 4.85708 138.976C4.69708 138.976 4.52208 138.961 4.33208 138.931C4.15208 138.901 4.01208 138.866 3.91208 138.826L3.95708 140.041V141.316L5.24708 141.511V142.441H0.642075V141.511L1.55708 141.316V132.046L0.642075 131.776V130.606L3.32708 130.276H3.35708L3.76208 130.591V131.401C3.99208 131.091 4.31208 130.826 4.72208 130.606C5.14208 130.376 5.59708 130.261 6.08708 130.261C7.04708 130.261 7.82708 130.601 8.42708 131.281C9.03708 131.951 9.34208 132.981 9.34208 134.371ZM5.20208 131.641C4.94208 131.641 4.69708 131.696 4.46708 131.806C4.23708 131.906 4.06708 132.031 3.95708 132.181V137.671C4.02708 137.761 4.14708 137.836 4.31708 137.896C4.49708 137.956 4.69208 137.986 4.90208 137.986C5.46208 137.986 5.90708 137.716 6.23708 137.176C6.57708 136.636 6.74708 135.761 6.74708 134.551C6.74708 133.571 6.60708 132.841 6.32708 132.361C6.04708 131.881 5.67208 131.641 5.20208 131.641ZM10.4918 137.821L11.4068 137.686V132.046L10.5218 131.776V130.606L13.0118 130.276H13.0568L13.4768 130.591V130.951L13.4318 132.196H13.4768C13.5468 131.966 13.7068 131.701 13.9568 131.401C14.2068 131.091 14.5218 130.826 14.9018 130.606C15.2918 130.376 15.7118 130.261 16.1618 130.261C16.4218 130.261 16.6218 130.296 16.7618 130.366V132.976C16.6018 132.856 16.4268 132.761 16.2368 132.691C16.0568 132.621 15.8218 132.586 15.5318 132.586C15.1718 132.586 14.8468 132.636 14.5568 132.736C14.2668 132.826 14.0368 132.931 13.8668 133.051V137.686L15.5168 137.836V138.811H10.4918V137.821ZM17.7288 134.686C17.7288 133.726 17.9188 132.916 18.2988 132.256C18.6788 131.586 19.1888 131.086 19.8288 130.756C20.4788 130.426 21.1888 130.261 21.9588 130.261C23.2188 130.261 24.2038 130.641 24.9138 131.401C25.6338 132.151 25.9938 133.201 25.9938 134.551C25.9938 135.541 25.8038 136.366 25.4238 137.026C25.0438 137.686 24.5338 138.176 23.8938 138.496C23.2538 138.816 22.5388 138.976 21.7488 138.976C20.4988 138.976 19.5138 138.601 18.7938 137.851C18.0838 137.091 17.7288 136.036 17.7288 134.686ZM21.8988 137.926C22.3788 137.926 22.7338 137.671 22.9638 137.161C23.2038 136.641 23.3238 135.831 23.3238 134.731C23.3238 133.561 23.2088 132.701 22.9788 132.151C22.7588 131.591 22.3838 131.311 21.8538 131.311C20.8738 131.311 20.3838 132.376 20.3838 134.506C20.3838 135.666 20.5038 136.526 20.7438 137.086C20.9838 137.646 21.3688 137.926 21.8988 137.926ZM28.2979 131.731H27.1279V130.801L28.2979 130.501V129.871C28.2979 129.201 28.4779 128.591 28.8379 128.041C29.1979 127.491 29.6779 127.056 30.2779 126.736C30.8879 126.416 31.5429 126.256 32.2429 126.256C32.6129 126.256 32.9479 126.306 33.2479 126.406V128.581C33.1379 128.461 32.9229 128.346 32.6029 128.236C32.2829 128.116 31.9679 128.056 31.6579 128.056C31.3279 128.056 31.0929 128.141 30.9529 128.311C30.8129 128.481 30.7429 128.761 30.7429 129.151V130.486H32.5429V131.731H30.7429V137.686L32.2579 137.821V138.811H27.1429V137.821L28.2979 137.686V131.731ZM37.3741 138.976C36.0041 138.976 34.9891 138.591 34.3291 137.821C33.6691 137.041 33.3391 135.981 33.3391 134.641C33.3391 133.731 33.5091 132.946 33.8491 132.286C34.1891 131.626 34.6641 131.126 35.2741 130.786C35.8941 130.436 36.6191 130.261 37.4491 130.261C38.4991 130.261 39.2991 130.526 39.8491 131.056C40.4091 131.586 40.6991 132.336 40.7191 133.306C40.7191 133.946 40.6741 134.461 40.5841 134.851H35.8891C35.9391 135.701 36.1441 136.351 36.5041 136.801C36.8741 137.241 37.3891 137.461 38.0491 137.461C38.4191 137.461 38.8041 137.401 39.2041 137.281C39.6141 137.151 39.9441 137.006 40.1941 136.846L40.6141 137.761C40.3541 138.051 39.9091 138.326 39.2791 138.586C38.6591 138.846 38.0241 138.976 37.3741 138.976ZM38.3341 133.861L38.3491 133.231C38.3491 132.601 38.2641 132.121 38.0941 131.791C37.9241 131.461 37.6341 131.296 37.2241 131.296C36.8041 131.296 36.4791 131.481 36.2491 131.851C36.0191 132.211 35.8941 132.881 35.8741 133.861H38.3341ZM43.6848 137.566C43.7548 137.676 43.9148 137.776 44.1648 137.866C44.4248 137.956 44.6848 138.001 44.9448 138.001C45.3548 138.001 45.6648 137.916 45.8748 137.746C46.0948 137.566 46.2048 137.336 46.2048 137.056C46.2048 136.756 46.0648 136.511 45.7848 136.321C45.5048 136.121 45.0448 135.881 44.4048 135.601L43.8348 135.346C43.1848 135.056 42.6948 134.706 42.3648 134.296C42.0448 133.876 41.8848 133.346 41.8848 132.706C41.8848 132.246 42.0198 131.836 42.2898 131.476C42.5598 131.106 42.9498 130.816 43.4598 130.606C43.9698 130.396 44.5698 130.291 45.2598 130.291C45.7398 130.291 46.1548 130.321 46.5048 130.381C46.8548 130.441 47.2098 130.516 47.5698 130.606C47.8098 130.676 47.9898 130.716 48.1098 130.726V132.766H46.7748L46.3848 131.611C46.3348 131.521 46.2148 131.441 46.0248 131.371C45.8348 131.291 45.6198 131.251 45.3798 131.251C44.9998 131.251 44.6998 131.336 44.4798 131.506C44.2598 131.666 44.1498 131.886 44.1498 132.166C44.1498 132.486 44.2748 132.741 44.5248 132.931C44.7748 133.111 45.1748 133.326 45.7248 133.576L46.0398 133.711C46.8498 134.051 47.4848 134.421 47.9448 134.821C48.4048 135.211 48.6348 135.751 48.6348 136.441C48.6348 137.181 48.3398 137.791 47.7498 138.271C47.1598 138.741 46.2898 138.976 45.1398 138.976C44.6098 138.976 44.1398 138.931 43.7298 138.841C43.3198 138.761 42.8698 138.651 42.3798 138.511L41.8848 138.376V136.381H43.3098L43.6848 137.566ZM51.6096 137.566C51.6796 137.676 51.8396 137.776 52.0896 137.866C52.3496 137.956 52.6096 138.001 52.8696 138.001C53.2796 138.001 53.5896 137.916 53.7996 137.746C54.0196 137.566 54.1296 137.336 54.1296 137.056C54.1296 136.756 53.9896 136.511 53.7096 136.321C53.4296 136.121 52.9696 135.881 52.3296 135.601L51.7596 135.346C51.1096 135.056 50.6196 134.706 50.2896 134.296C49.9696 133.876 49.8096 133.346 49.8096 132.706C49.8096 132.246 49.9446 131.836 50.2146 131.476C50.4846 131.106 50.8746 130.816 51.3846 130.606C51.8946 130.396 52.4946 130.291 53.1846 130.291C53.6646 130.291 54.0796 130.321 54.4296 130.381C54.7796 130.441 55.1346 130.516 55.4946 130.606C55.7346 130.676 55.9146 130.716 56.0346 130.726V132.766H54.6996L54.3096 131.611C54.2596 131.521 54.1396 131.441 53.9496 131.371C53.7596 131.291 53.5446 131.251 53.3046 131.251C52.9246 131.251 52.6246 131.336 52.4046 131.506C52.1846 131.666 52.0746 131.886 52.0746 132.166C52.0746 132.486 52.1996 132.741 52.4496 132.931C52.6996 133.111 53.0996 133.326 53.6496 133.576L53.9646 133.711C54.7746 134.051 55.4096 134.421 55.8696 134.821C56.3296 135.211 56.5596 135.751 56.5596 136.441C56.5596 137.181 56.2646 137.791 55.6746 138.271C55.0846 138.741 54.2146 138.976 53.0646 138.976C52.5346 138.976 52.0646 138.931 51.6546 138.841C51.2446 138.761 50.7946 138.651 50.3046 138.511L49.8096 138.376V136.381H51.2346L51.6096 137.566ZM59.4894 129.181C59.0994 129.181 58.7844 129.066 58.5444 128.836C58.3044 128.606 58.1844 128.311 58.1844 127.951C58.1844 127.531 58.3144 127.186 58.5744 126.916C58.8444 126.646 59.2044 126.511 59.6544 126.511C60.1044 126.511 60.4494 126.626 60.6894 126.856C60.9294 127.086 61.0494 127.381 61.0494 127.741C61.0494 128.171 60.9144 128.521 60.6444 128.791C60.3744 129.051 59.9944 129.181 59.5044 129.181H59.4894ZM58.5744 132.046L57.5694 131.761V130.636L60.5694 130.276H60.5994L61.0644 130.591V137.686L61.9644 137.821V138.811H57.6444V137.821L58.5744 137.686V132.046ZM63.0511 134.686C63.0511 133.726 63.2411 132.916 63.6211 132.256C64.0011 131.586 64.5111 131.086 65.1511 130.756C65.8011 130.426 66.5111 130.261 67.2811 130.261C68.5411 130.261 69.5261 130.641 70.2361 131.401C70.9561 132.151 71.3161 133.201 71.3161 134.551C71.3161 135.541 71.1261 136.366 70.7461 137.026C70.3661 137.686 69.8561 138.176 69.2161 138.496C68.5761 138.816 67.8611 138.976 67.0711 138.976C65.8211 138.976 64.8361 138.601 64.1161 137.851C63.4061 137.091 63.0511 136.036 63.0511 134.686ZM67.2211 137.926C67.7011 137.926 68.0561 137.671 68.2861 137.161C68.5261 136.641 68.6461 135.831 68.6461 134.731C68.6461 133.561 68.5311 132.701 68.3011 132.151C68.0811 131.591 67.7061 131.311 67.1761 131.311C66.1961 131.311 65.7061 132.376 65.7061 134.506C65.7061 135.666 65.8261 136.526 66.0661 137.086C66.3061 137.646 66.6911 137.926 67.2211 137.926ZM73.4701 132.046L72.5851 131.776V130.606L75.3151 130.276H75.3601L75.7501 130.591V131.146L75.7351 131.491C76.0851 131.161 76.5301 130.881 77.0701 130.651C77.6101 130.421 78.1751 130.306 78.7651 130.306C79.3651 130.306 79.8351 130.416 80.1751 130.636C80.5251 130.846 80.7751 131.186 80.9251 131.656C81.0851 132.126 81.1651 132.766 81.1651 133.576V137.686L82.0051 137.806V138.811H77.9251V137.821L78.6601 137.686V133.591C78.6601 133.111 78.6251 132.741 78.5551 132.481C78.4951 132.211 78.3851 132.016 78.2251 131.896C78.0651 131.776 77.8351 131.716 77.5351 131.716C77.0751 131.716 76.5551 131.931 75.9751 132.361V137.686L76.8001 137.821V138.811H72.6451V137.821L73.4701 137.686V132.046ZM82.7912 136.411C82.7912 135.531 83.2362 134.856 84.1262 134.386C85.0262 133.916 86.2062 133.676 87.6662 133.666V133.366C87.6662 133.006 87.6262 132.721 87.5462 132.511C87.4662 132.301 87.3212 132.146 87.1112 132.046C86.9012 131.936 86.5912 131.881 86.1812 131.881C85.6912 131.881 85.2512 131.941 84.8612 132.061C84.4812 132.171 84.0812 132.321 83.6612 132.511L83.1512 131.431C83.3112 131.301 83.5712 131.146 83.9312 130.966C84.2912 130.776 84.7212 130.616 85.2212 130.486C85.7312 130.346 86.2612 130.276 86.8112 130.276C87.6112 130.276 88.2362 130.381 88.6862 130.591C89.1462 130.801 89.4712 131.126 89.6612 131.566C89.8612 132.006 89.9612 132.606 89.9612 133.366V137.821H90.7412V138.766C90.5112 138.816 90.1912 138.866 89.7812 138.916C89.3712 138.966 89.0212 138.991 88.7312 138.991C88.3512 138.991 88.0962 138.936 87.9662 138.826C87.8462 138.716 87.7862 138.496 87.7862 138.166V137.821C87.5362 138.121 87.2012 138.391 86.7812 138.631C86.3612 138.861 85.8762 138.976 85.3262 138.976C84.8562 138.976 84.4262 138.876 84.0362 138.676C83.6562 138.466 83.3512 138.171 83.1212 137.791C82.9012 137.401 82.7912 136.941 82.7912 136.411ZM86.4962 137.596C86.6762 137.596 86.8762 137.546 87.0962 137.446C87.3162 137.336 87.5062 137.206 87.6662 137.056V134.671C86.8862 134.671 86.3062 134.811 85.9262 135.091C85.5562 135.371 85.3712 135.731 85.3712 136.171C85.3712 136.621 85.4712 136.971 85.6712 137.221C85.8712 137.471 86.1462 137.596 86.4962 137.596ZM92.3359 127.981L91.2859 127.786V126.871L94.2859 126.511H94.3309L94.7659 126.826V137.686L95.7409 137.821V138.811H91.3759V137.821L92.3359 137.686V127.981ZM101.112 132.046L100.227 131.776V130.606L102.957 130.276H103.002L103.392 130.591V131.146L103.377 131.491C103.727 131.161 104.172 130.881 104.712 130.651C105.252 130.421 105.817 130.306 106.407 130.306C107.007 130.306 107.477 130.416 107.817 130.636C108.167 130.846 108.417 131.186 108.567 131.656C108.727 132.126 108.807 132.766 108.807 133.576V137.686L109.647 137.806V138.811H105.567V137.821L106.302 137.686V133.591C106.302 133.111 106.267 132.741 106.197 132.481C106.137 132.211 106.027 132.016 105.867 131.896C105.707 131.776 105.477 131.716 105.177 131.716C104.717 131.716 104.197 131.931 103.617 132.361V137.686L104.442 137.821V138.811H100.287V137.821L101.112 137.686V132.046ZM114.513 138.976C113.143 138.976 112.128 138.591 111.468 137.821C110.808 137.041 110.478 135.981 110.478 134.641C110.478 133.731 110.648 132.946 110.988 132.286C111.328 131.626 111.803 131.126 112.413 130.786C113.033 130.436 113.758 130.261 114.588 130.261C115.638 130.261 116.438 130.526 116.988 131.056C117.548 131.586 117.838 132.336 117.858 133.306C117.858 133.946 117.813 134.461 117.723 134.851H113.028C113.078 135.701 113.283 136.351 113.643 136.801C114.013 137.241 114.528 137.461 115.188 137.461C115.558 137.461 115.943 137.401 116.343 137.281C116.753 137.151 117.083 137.006 117.333 136.846L117.753 137.761C117.493 138.051 117.048 138.326 116.418 138.586C115.798 138.846 115.163 138.976 114.513 138.976ZM115.473 133.861L115.488 133.231C115.488 132.601 115.403 132.121 115.233 131.791C115.063 131.461 114.773 131.296 114.363 131.296C113.943 131.296 113.618 131.481 113.388 131.851C113.158 132.211 113.033 132.881 113.013 133.861H115.473ZM121.483 138.946C120.823 138.946 120.333 138.796 120.013 138.496C119.703 138.186 119.548 137.711 119.548 137.071V131.731H118.633V130.861L118.933 130.741C119.173 130.661 119.383 130.576 119.563 130.486C119.763 130.296 119.923 130.046 120.043 129.736C120.193 129.376 120.358 128.871 120.538 128.221H121.933L122.023 130.471H124.168V131.731H122.053V135.706C122.053 136.256 122.068 136.641 122.098 136.861C122.128 137.081 122.183 137.226 122.263 137.296C122.353 137.356 122.513 137.386 122.743 137.386C123.213 137.386 123.658 137.306 124.078 137.146L124.393 138.091C124.113 138.321 123.698 138.521 123.148 138.691C122.598 138.861 122.043 138.946 121.483 138.946ZM124.172 130.486H128.282V131.431L127.277 131.596L128.297 135.331L128.612 136.816L128.882 135.331L130.172 130.486H132.197L133.682 135.331L133.997 136.801L134.297 135.331L135.242 131.611L134.162 131.431V130.486H137.462V131.431L136.742 131.596L134.477 138.931H132.572L131.087 134.341L130.772 132.601L130.547 134.341L129.212 138.931H127.262L124.877 131.596L124.172 131.431V130.486ZM137.729 134.686C137.729 133.726 137.919 132.916 138.299 132.256C138.679 131.586 139.189 131.086 139.829 130.756C140.479 130.426 141.189 130.261 141.959 130.261C143.219 130.261 144.204 130.641 144.914 131.401C145.634 132.151 145.994 133.201 145.994 134.551C145.994 135.541 145.804 136.366 145.424 137.026C145.044 137.686 144.534 138.176 143.894 138.496C143.254 138.816 142.539 138.976 141.749 138.976C140.499 138.976 139.514 138.601 138.794 137.851C138.084 137.091 137.729 136.036 137.729 134.686ZM141.899 137.926C142.379 137.926 142.734 137.671 142.964 137.161C143.204 136.641 143.324 135.831 143.324 134.731C143.324 133.561 143.209 132.701 142.979 132.151C142.759 131.591 142.384 131.311 141.854 131.311C140.874 131.311 140.384 132.376 140.384 134.506C140.384 135.666 140.504 136.526 140.744 137.086C140.984 137.646 141.369 137.926 141.899 137.926ZM147.323 137.821L148.238 137.686V132.046L147.353 131.776V130.606L149.843 130.276H149.888L150.308 130.591V130.951L150.263 132.196H150.308C150.378 131.966 150.538 131.701 150.788 131.401C151.038 131.091 151.353 130.826 151.733 130.606C152.123 130.376 152.543 130.261 152.993 130.261C153.253 130.261 153.453 130.296 153.593 130.366V132.976C153.433 132.856 153.258 132.761 153.068 132.691C152.888 132.621 152.653 132.586 152.363 132.586C152.003 132.586 151.678 132.636 151.388 132.736C151.098 132.826 150.868 132.931 150.698 133.051V137.686L152.348 137.836V138.811H147.323V137.821ZM155.19 127.981L154.17 127.786V126.871L157.155 126.511H157.2L157.635 126.826V133.831L157.59 134.566L160.41 131.596L159.3 131.431V130.486H163.38V131.431L162.15 131.626L160.53 133.171L163.005 137.686L163.785 137.821V138.811H159.615V137.821L160.29 137.686L158.805 134.716L157.59 135.976L157.62 136.741V137.686L158.49 137.821V138.811H154.365V137.821L155.19 137.686V127.981ZM166.102 137.566C166.172 137.676 166.332 137.776 166.582 137.866C166.842 137.956 167.102 138.001 167.362 138.001C167.772 138.001 168.082 137.916 168.292 137.746C168.512 137.566 168.622 137.336 168.622 137.056C168.622 136.756 168.482 136.511 168.202 136.321C167.922 136.121 167.462 135.881 166.822 135.601L166.252 135.346C165.602 135.056 165.112 134.706 164.782 134.296C164.462 133.876 164.302 133.346 164.302 132.706C164.302 132.246 164.437 131.836 164.707 131.476C164.977 131.106 165.367 130.816 165.877 130.606C166.387 130.396 166.987 130.291 167.677 130.291C168.157 130.291 168.572 130.321 168.922 130.381C169.272 130.441 169.627 130.516 169.987 130.606C170.227 130.676 170.407 130.716 170.527 130.726V132.766H169.192L168.802 131.611C168.752 131.521 168.632 131.441 168.442 131.371C168.252 131.291 168.037 131.251 167.797 131.251C167.417 131.251 167.117 131.336 166.897 131.506C166.677 131.666 166.567 131.886 166.567 132.166C166.567 132.486 166.692 132.741 166.942 132.931C167.192 133.111 167.592 133.326 168.142 133.576L168.457 133.711C169.267 134.051 169.902 134.421 170.362 134.821C170.822 135.211 171.052 135.751 171.052 136.441C171.052 137.181 170.757 137.791 170.167 138.271C169.577 138.741 168.707 138.976 167.557 138.976C167.027 138.976 166.557 138.931 166.147 138.841C165.737 138.761 165.287 138.651 164.797 138.511L164.302 138.376V136.381H165.727L166.102 137.566Z" fill="#002555"/>
<path d="M8.59208 67.34C11.1921 62.26 13.7321 56.84 16.2121 51.08C18.7321 45.28 21.5321 38.66 24.6121 31.22L26.1721 27.5L11.4721 27.8L7.99208 37.1L2.29208 35.96L3.85208 21.74H33.2521L35.0521 24.02L19.0321 70.1L8.59208 67.34ZM41.3315 63.86C42.4915 63.98 43.6515 64.04 44.8115 64.04C47.4915 64.04 49.9315 63.48 52.1315 62.36C54.3715 61.28 56.1315 59.8 57.4115 57.92C58.6915 56 59.3315 53.94 59.3315 51.74C59.3315 48.98 58.6315 47.02 57.2315 45.86C55.8715 44.66 53.8915 44.06 51.2915 44.06C49.9715 44.06 48.5515 44.24 47.0315 44.6C45.5115 44.92 44.2315 45.3 43.1915 45.74L40.9715 44.18L43.8515 21.74H63.2915L63.8915 20.6H68.2715L66.8915 28.94H50.1515L47.8115 40.46C50.9315 38.9 54.0915 38.12 57.2915 38.12C61.4915 38.12 64.6715 39.18 66.8315 41.3C69.0315 43.38 70.1315 46.28 70.1315 50C70.1315 53.64 69.0715 56.88 66.9515 59.72C64.8315 62.56 61.8915 64.76 58.1315 66.32C54.4115 67.88 50.2115 68.66 45.5315 68.66C44.0115 68.66 42.6115 68.52 41.3315 68.24V63.86ZM90.5525 48.08C90.5525 45.8 91.3125 43.72 92.8325 41.84C94.3525 39.92 96.5525 38.38 99.4325 37.22C97.2325 35.74 95.5125 34.1 94.2725 32.3C93.0725 30.46 92.4725 28.22 92.4725 25.58C92.4725 23.14 93.1325 21.04 94.4525 19.28C95.7725 17.52 97.5725 16.18 99.8525 15.26C102.133 14.3 104.673 13.82 107.473 13.82C110.393 13.82 112.893 14.26 114.973 15.14C117.093 15.98 118.693 17.16 119.773 18.68C120.893 20.2 121.453 21.92 121.453 23.84C121.453 26 120.773 27.98 119.413 29.78C118.093 31.54 116.153 33 113.593 34.16C116.793 35.96 119.293 37.86 121.093 39.86C122.933 41.86 123.853 44.36 123.853 47.36C123.853 49.84 123.133 52.02 121.693 53.9C120.253 55.74 118.233 57.16 115.633 58.16C113.073 59.16 110.113 59.66 106.753 59.66C102.193 59.66 98.3525 58.72 95.2325 56.84C92.1125 54.92 90.5525 52 90.5525 48.08ZM101.233 23.36C101.233 24.64 101.613 25.78 102.373 26.78C103.133 27.78 104.113 28.68 105.313 29.48C106.513 30.24 108.113 31.16 110.113 32.24C111.393 31.32 112.373 30.26 113.053 29.06C113.773 27.82 114.133 26.52 114.133 25.16C114.133 22.76 113.553 20.9 112.393 19.58C111.273 18.26 109.633 17.6 107.473 17.6C105.753 17.6 104.273 18.12 103.033 19.16C101.833 20.16 101.233 21.56 101.233 23.36ZM113.953 49.1C113.953 47.86 113.573 46.74 112.813 45.74C112.053 44.74 111.073 43.88 109.873 43.16C108.713 42.4 107.153 41.5 105.193 40.46L102.613 39.08C101.373 40 100.393 41.1 99.6725 42.38C98.9525 43.66 98.5925 45.08 98.5925 46.64C98.5925 49.32 99.3125 51.5 100.753 53.18C102.233 54.82 104.293 55.64 106.933 55.64C108.773 55.64 110.393 55.04 111.793 53.84C113.233 52.64 113.953 51.06 113.953 49.1ZM131.8 63.86C132.96 63.98 134.12 64.04 135.28 64.04C137.96 64.04 140.4 63.48 142.6 62.36C144.84 61.28 146.6 59.8 147.88 57.92C149.16 56 149.8 53.94 149.8 51.74C149.8 48.98 149.1 47.02 147.7 45.86C146.34 44.66 144.36 44.06 141.76 44.06C140.44 44.06 139.02 44.24 137.5 44.6C135.98 44.92 134.7 45.3 133.66 45.74L131.44 44.18L134.32 21.74H153.76L154.36 20.6H158.74L157.36 28.94H140.62L138.28 40.46C141.4 38.9 144.56 38.12 147.76 38.12C151.96 38.12 155.14 39.18 157.3 41.3C159.5 43.38 160.6 46.28 160.6 50C160.6 53.64 159.54 56.88 157.42 59.72C155.3 62.56 152.36 64.76 148.6 66.32C144.88 67.88 140.68 68.66 136 68.66C134.48 68.66 133.08 68.52 131.8 68.24V63.86ZM202.723 13.94H208.903L189.643 59H183.523L202.723 13.94ZM178.183 40.28C175.743 40.28 173.643 39.72 171.883 38.6C170.123 37.44 168.803 35.9 167.923 33.98C167.043 32.02 166.603 29.86 166.603 27.5C166.603 24.74 167.143 22.36 168.223 20.36C169.343 18.32 170.863 16.78 172.783 15.74C174.703 14.66 176.843 14.12 179.203 14.12C183.243 14.12 186.183 15.3 188.023 17.66C189.863 20.02 190.783 23.18 190.783 27.14C190.783 29.86 190.223 32.22 189.103 34.22C187.983 36.18 186.463 37.68 184.543 38.72C182.623 39.76 180.503 40.28 178.183 40.28ZM178.723 36.44C180.283 36.44 181.363 35.66 181.963 34.1C182.603 32.5 182.923 30.26 182.923 27.38C182.923 24.66 182.603 22.44 181.963 20.72C181.363 18.96 180.323 18.08 178.843 18.08C177.323 18.08 176.223 18.88 175.543 20.48C174.903 22.04 174.583 24.24 174.583 27.08C174.583 29.6 174.903 31.8 175.543 33.68C176.183 35.52 177.243 36.44 178.723 36.44ZM213.283 58.4C210.843 58.4 208.743 57.82 206.983 56.66C205.263 55.5 203.963 53.96 203.083 52.04C202.203 50.08 201.763 47.92 201.763 45.56C201.763 42.8 202.303 40.42 203.383 38.42C204.503 36.38 206.003 34.84 207.883 33.8C209.803 32.76 211.963 32.24 214.363 32.24C218.363 32.24 221.283 33.42 223.123 35.78C225.003 38.14 225.943 41.28 225.943 45.2C225.943 47.96 225.383 50.34 224.263 52.34C223.143 54.3 221.623 55.8 219.703 56.84C217.783 57.88 215.643 58.4 213.283 58.4ZM213.823 54.44C215.343 54.44 216.423 53.7 217.063 52.22C217.703 50.74 218.023 48.64 218.023 45.92C218.023 43.04 217.723 40.7 217.123 38.9C216.563 37.1 215.523 36.2 214.003 36.2C212.443 36.2 211.323 37 210.643 38.6C210.003 40.16 209.683 42.36 209.683 45.2C209.683 47.72 210.003 49.9 210.643 51.74C211.283 53.54 212.343 54.44 213.823 54.44Z" fill="#002555"/>
<g clip-path="url(#clip0_1065_524)">
<path d="M338.963 125.731C338.963 131.664 334.131 136.462 328.156 136.462C322.181 136.462 317.349 131.664 317.349 125.731C317.349 119.798 322.181 115 328.156 115C334.131 115 338.963 119.798 338.963 125.731ZM345.355 154.628C344.475 155.747 343.117 156.406 341.681 156.391H314.632C312.069 156.391 310 154.337 310 151.792C310 151.409 310.046 151.041 310.139 150.673C312.023 143.085 319.263 137.995 328.156 137.995C335.984 137.995 342.561 141.873 345.309 148.113C345.679 148.987 345.988 149.891 346.22 150.826C346.529 152.16 346.22 153.555 345.355 154.628Z" fill="#90A3B8"/>
</g>
<g clip-path="url(#clip1_1065_524)">
<path d="M389.963 124.731C389.963 130.664 385.131 135.462 379.156 135.462C373.181 135.462 368.349 130.664 368.349 124.731C368.349 118.798 373.181 114 379.156 114C385.131 114 389.963 118.798 389.963 124.731ZM396.355 153.628C395.475 154.747 394.117 155.406 392.681 155.391H365.632C363.069 155.391 361 153.337 361 150.792C361 150.409 361.046 150.041 361.139 149.673C363.023 142.085 370.263 136.995 379.156 136.995C386.984 136.995 393.561 140.873 396.309 147.113C396.679 147.987 396.988 148.891 397.22 149.826C397.529 151.16 397.22 152.555 396.355 153.628Z" fill="#90A3B8"/>
</g>
<g clip-path="url(#clip2_1065_524)">
<path d="M339.963 16.731C339.963 22.6637 335.131 27.462 329.156 27.462C323.181 27.462 318.349 22.6637 318.349 16.731C318.349 10.7983 323.181 6 329.156 6C335.131 6 339.963 10.7983 339.963 16.731ZM346.355 45.6281C345.475 46.7472 344.117 47.4063 342.681 47.391H315.632C313.069 47.391 311 45.3368 311 42.792C311 42.4088 311.046 42.0408 311.139 41.6729C313.023 34.0846 320.263 28.995 329.156 28.995C336.984 28.995 343.561 32.8735 346.309 39.1128C346.679 39.9866 346.988 40.8911 347.22 41.8262C347.529 43.1599 347.22 44.555 346.355 45.6281Z" fill="#FFB800"/>
</g>
<g clip-path="url(#clip3_1065_524)">
<path d="M288.963 16.731C288.963 22.6637 284.131 27.462 278.156 27.462C272.181 27.462 267.349 22.6637 267.349 16.731C267.349 10.7983 272.181 6 278.156 6C284.131 6 288.963 10.7983 288.963 16.731ZM295.355 45.6281C294.475 46.7472 293.117 47.4063 291.681 47.391H264.632C262.069 47.391 260 45.3368 260 42.792C260 42.4088 260.046 42.0408 260.139 41.6729C262.023 34.0846 269.263 28.995 278.156 28.995C285.984 28.995 292.561 32.8735 295.309 39.1128C295.679 39.9866 295.988 40.8911 296.22 41.8262C296.529 43.1599 296.22 44.555 295.355 45.6281Z" fill="#FFB800"/>
</g>
<g clip-path="url(#clip4_1065_524)">
<path d="M389.62 73.3223C389.62 79.255 384.788 84.0533 378.813 84.0533C372.838 84.0533 368.006 79.255 368.006 73.3223C368.006 67.3896 372.838 62.5913 378.813 62.5913C384.788 62.5913 389.62 67.3896 389.62 73.3223ZM396.012 102.219C395.132 103.338 393.773 103.998 392.337 103.982H365.288C362.726 103.982 360.657 101.928 360.657 99.3833C360.657 99.0001 360.703 98.6321 360.796 98.2642C362.679 90.6759 369.92 85.5863 378.813 85.5863C386.641 85.5863 393.218 89.4648 395.966 95.7041C396.336 96.5779 396.645 97.4824 396.877 98.4175C397.185 99.7512 396.877 101.146 396.012 102.219Z" fill="#FFB800"/>
</g>
<g clip-path="url(#clip5_1065_524)">
<path d="M389.62 15.7789C389.62 21.7116 384.788 26.5099 378.813 26.5099C372.838 26.5099 368.006 21.7116 368.006 15.7789C368.006 9.84614 372.838 5.04785 378.813 5.04785C384.788 5.04785 389.62 9.84614 389.62 15.7789ZM396.012 44.6759C395.132 45.795 393.773 46.4542 392.337 46.4389H365.288C362.726 46.4389 360.657 44.3846 360.657 41.8399C360.657 41.4566 360.703 41.0887 360.796 40.7208C362.679 33.1324 369.92 28.0429 378.813 28.0429C386.641 28.0429 393.218 31.9213 395.966 38.1607C396.336 39.0345 396.645 39.9389 396.877 40.8741C397.185 42.2078 396.877 43.6028 396.012 44.6759Z" fill="#FFB800"/>
</g>
<g clip-path="url(#clip6_1065_524)">
<path d="M339.143 73.3223C339.143 79.255 334.311 84.0533 328.336 84.0533C322.361 84.0533 317.529 79.255 317.529 73.3223C317.529 67.3896 322.361 62.5913 328.336 62.5913C334.311 62.5913 339.143 67.3896 339.143 73.3223ZM345.535 102.219C344.655 103.338 343.297 103.998 341.861 103.982H314.812C312.249 103.982 310.18 101.928 310.18 99.3833C310.18 99.0001 310.226 98.6321 310.319 98.2642C312.202 90.6759 319.443 85.5863 328.336 85.5863C336.164 85.5863 342.741 89.4648 345.489 95.7041C345.859 96.5779 346.168 97.4824 346.4 98.4175C346.709 99.7512 346.4 101.146 345.535 102.219Z" fill="#FFB800"/>
</g>
<g clip-path="url(#clip7_1065_524)">
<path d="M288.667 124.809C288.667 130.741 283.834 135.54 277.859 135.54C271.884 135.54 267.052 130.741 267.052 124.809C267.052 118.876 271.884 114.078 277.859 114.078C283.834 114.078 288.667 118.876 288.667 124.809ZM295.058 153.706C294.178 154.825 292.82 155.484 291.384 155.469H264.335C261.772 155.469 259.703 153.414 259.703 150.87C259.703 150.486 259.749 150.118 259.842 149.751C261.726 142.162 268.966 137.073 277.859 137.073C285.687 137.073 292.264 140.951 295.012 147.19C295.382 148.064 295.691 148.969 295.923 149.904C296.232 151.238 295.923 152.633 295.058 153.706Z" fill="#FFB800"/>
</g>
<g clip-path="url(#clip8_1065_524)">
<path d="M288.667 73.3223C288.667 79.255 283.834 84.0533 277.859 84.0533C271.884 84.0533 267.052 79.255 267.052 73.3223C267.052 67.3896 271.884 62.5913 277.859 62.5913C283.834 62.5913 288.667 67.3896 288.667 73.3223ZM295.058 102.219C294.178 103.338 292.82 103.998 291.384 103.982H264.335C261.772 103.982 259.703 101.928 259.703 99.3833C259.703 99.0001 259.749 98.6321 259.842 98.2642C261.726 90.6759 268.966 85.5863 277.859 85.5863C285.687 85.5863 292.264 89.4648 295.012 95.7041C295.382 96.5779 295.691 97.4824 295.923 98.4175C296.232 99.7512 295.923 101.146 295.058 102.219Z" fill="#FFB800"/>
</g>
<path d="M378.828 45.4292L378.828 62.5913" stroke="#FFB800" stroke-width="3"/>
<path d="M328 45.4292L328 62.5913" stroke="#FFB800" stroke-width="3"/>
<path d="M278 45.4292L278 62.5913" stroke="#FFB800" stroke-width="3"/>
<path d="M361.666 98.9346L344.504 98.9346" stroke="#FFB800" stroke-width="3"/>
<path d="M361.666 42L344.504 42" stroke="#FFB800" stroke-width="3"/>
<path d="M311.189 98.9346L294.027 98.9346" stroke="#FFB800" stroke-width="3"/>
<path d="M311.189 42L294.027 42" stroke="#FFB800" stroke-width="3"/>
<path d="M277.875 97.9253L277.875 115.087" stroke="#FFB800" stroke-width="3"/>
<rect x="74.9578" y="39.3718" width="12.1144" height="6.05722" fill="#002555"/>
<defs>
<clipPath id="clip0_1065_524">
<rect width="36.3433" height="41.391" fill="white" transform="translate(310 115)"/>
</clipPath>
<clipPath id="clip1_1065_524">
<rect width="36.3433" height="41.391" fill="white" transform="translate(361 114)"/>
</clipPath>
<clipPath id="clip2_1065_524">
<rect width="36.3433" height="41.391" fill="white" transform="translate(311 6)"/>
</clipPath>
<clipPath id="clip3_1065_524">
<rect width="36.3433" height="41.391" fill="white" transform="translate(260 6)"/>
</clipPath>
<clipPath id="clip4_1065_524">
<rect width="36.3433" height="41.391" fill="white" transform="translate(360.657 62.5913)"/>
</clipPath>
<clipPath id="clip5_1065_524">
<rect width="36.3433" height="41.391" fill="white" transform="translate(360.657 5.04785)"/>
</clipPath>
<clipPath id="clip6_1065_524">
<rect width="36.3433" height="41.391" fill="white" transform="translate(310.18 62.5913)"/>
</clipPath>
<clipPath id="clip7_1065_524">
<rect width="36.3433" height="41.391" fill="white" transform="translate(259.703 114.078)"/>
</clipPath>
<clipPath id="clip8_1065_524">
<rect width="36.3433" height="41.391" fill="white" transform="translate(259.703 62.5913)"/>
</clipPath>
</defs>
</svg>
