<svg width="274" height="155" viewBox="0 0 274 155" fill="none" xmlns="http://www.w3.org/2000/svg">
<path d="M0.675 96.6858C0.675 95.7258 0.865 94.9158 1.245 94.2558C1.625 93.5858 2.135 93.0858 2.775 92.7558C3.425 92.4258 4.135 92.2608 4.905 92.2608C6.165 92.2608 7.15 92.6408 7.86 93.4008C8.58 94.1508 8.94 95.2008 8.94 96.5508C8.94 97.5408 8.75 98.3658 8.37 99.0258C7.99 99.6858 7.48 100.176 6.84 100.496C6.2 100.816 5.485 100.976 4.695 100.976C3.445 100.976 2.46 100.601 1.74 99.8508C1.03 99.0908 0.675 98.0358 0.675 96.6858ZM4.845 99.9258C5.325 99.9258 5.68 99.6708 5.91 99.1608C6.15 98.6408 6.27 97.8308 6.27 96.7308C6.27 95.5608 6.155 94.7008 5.925 94.1508C5.705 93.5908 5.33 93.3108 4.8 93.3108C3.82 93.3108 3.33 94.3758 3.33 96.5058C3.33 97.6658 3.45 98.5258 3.69 99.0858C3.93 99.6458 4.315 99.9258 4.845 99.9258ZM11.244 93.7308H10.074V92.8008L11.244 92.5008V91.8708C11.244 91.2008 11.424 90.5908 11.784 90.0408C12.144 89.4908 12.624 89.0558 13.224 88.7358C13.834 88.4158 14.489 88.2558 15.189 88.2558C15.559 88.2558 15.894 88.3058 16.194 88.4058V90.5808C16.084 90.4608 15.869 90.3458 15.549 90.2358C15.229 90.1158 14.914 90.0558 14.604 90.0558C14.274 90.0558 14.039 90.1408 13.899 90.3108C13.759 90.4808 13.689 90.7608 13.689 91.1508V92.4858H15.489V93.7308H13.689V99.6858L15.204 99.8208V100.811H10.089V99.8208L11.244 99.6858V93.7308ZM21.9149 91.1808C21.5249 91.1808 21.2099 91.0658 20.9699 90.8358C20.7299 90.6058 20.6099 90.3108 20.6099 89.9508C20.6099 89.5308 20.7399 89.1858 20.9999 88.9158C21.2699 88.6458 21.6299 88.5108 22.0799 88.5108C22.5199 88.5108 22.8549 88.6258 23.0849 88.8558C23.3249 89.0858 23.4449 89.3808 23.4449 89.7408C23.4449 90.1708 23.3149 90.5208 23.0549 90.7908C22.7949 91.0508 22.4199 91.1808 21.9299 91.1808H21.9149ZM19.9199 92.6358L22.8749 92.2758H22.9049L23.3549 92.5908V100.661C23.3549 101.441 23.1849 102.116 22.8449 102.686C22.5149 103.256 22.1049 103.691 21.6149 103.991C21.1349 104.291 20.6699 104.446 20.2199 104.456C19.7199 104.456 19.4099 104.436 19.2899 104.396L19.1699 103.451C19.4499 103.451 19.6999 103.391 19.9199 103.271C20.2799 103.101 20.5399 102.761 20.6999 102.251C20.8599 101.751 20.9399 101.061 20.9399 100.181V94.0758L19.9199 93.7908V92.6358ZM25.1232 96.6858C25.1232 95.7258 25.3132 94.9158 25.6932 94.2558C26.0732 93.5858 26.5832 93.0858 27.2232 92.7558C27.8732 92.4258 28.5832 92.2608 29.3532 92.2608C30.6132 92.2608 31.5982 92.6408 32.3082 93.4008C33.0282 94.1508 33.3882 95.2008 33.3882 96.5508C33.3882 97.5408 33.1982 98.3658 32.8182 99.0258C32.4382 99.6858 31.9282 100.176 31.2882 100.496C30.6482 100.816 29.9332 100.976 29.1432 100.976C27.8932 100.976 26.9082 100.601 26.1882 99.8508C25.4782 99.0908 25.1232 98.0358 25.1232 96.6858ZM29.2932 99.9258C29.7732 99.9258 30.1282 99.6708 30.3582 99.1608C30.5982 98.6408 30.7182 97.8308 30.7182 96.7308C30.7182 95.5608 30.6032 94.7008 30.3732 94.1508C30.1532 93.5908 29.7782 93.3108 29.2482 93.3108C28.2682 93.3108 27.7782 94.3758 27.7782 96.5058C27.7782 97.6658 27.8982 98.5258 28.1382 99.0858C28.3782 99.6458 28.7632 99.9258 29.2932 99.9258ZM34.0873 88.8708L37.0423 88.5108H37.0723L37.5523 88.8108V93.1908C37.8123 92.9208 38.1323 92.7008 38.5123 92.5308C38.8923 92.3508 39.2973 92.2608 39.7273 92.2608C40.6873 92.2608 41.4623 92.6008 42.0523 93.2808C42.6523 93.9508 42.9523 94.9808 42.9523 96.3708C42.9523 97.2408 42.7673 98.0258 42.3973 98.7258C42.0373 99.4258 41.5173 99.9758 40.8373 100.376C40.1573 100.776 39.3623 100.976 38.4523 100.976C37.5923 100.976 36.8723 100.911 36.2923 100.781C35.7123 100.641 35.3323 100.516 35.1523 100.406V89.9358L34.0873 89.7408V88.8708ZM38.7973 93.7308C38.5473 93.7308 38.3123 93.7858 38.0923 93.8958C37.8723 94.0058 37.6923 94.1358 37.5523 94.2858V99.7158C37.5923 99.8158 37.7023 99.8958 37.8823 99.9558C38.0723 100.016 38.2873 100.046 38.5273 100.046C39.0873 100.046 39.5323 99.7508 39.8623 99.1608C40.1923 98.5708 40.3573 97.7008 40.3573 96.5508C40.3573 95.5808 40.2173 94.8708 39.9373 94.4208C39.6573 93.9608 39.2773 93.7308 38.7973 93.7308ZM45.9523 99.5658C46.0223 99.6758 46.1823 99.7758 46.4323 99.8658C46.6923 99.9558 46.9523 100.001 47.2123 100.001C47.6223 100.001 47.9323 99.9158 48.1423 99.7458C48.3623 99.5658 48.4723 99.3358 48.4723 99.0558C48.4723 98.7558 48.3323 98.5108 48.0523 98.3208C47.7723 98.1208 47.3123 97.8808 46.6723 97.6008L46.1023 97.3458C45.4523 97.0558 44.9623 96.7058 44.6323 96.2958C44.3123 95.8758 44.1523 95.3458 44.1523 94.7058C44.1523 94.2458 44.2873 93.8358 44.5573 93.4758C44.8273 93.1058 45.2173 92.8158 45.7273 92.6058C46.2373 92.3958 46.8373 92.2908 47.5273 92.2908C48.0073 92.2908 48.4223 92.3208 48.7723 92.3808C49.1223 92.4408 49.4773 92.5158 49.8373 92.6058C50.0773 92.6758 50.2573 92.7158 50.3773 92.7258V94.7658H49.0423L48.6523 93.6108C48.6023 93.5208 48.4823 93.4408 48.2923 93.3708C48.1023 93.2908 47.8873 93.2508 47.6473 93.2508C47.2673 93.2508 46.9673 93.3358 46.7473 93.5058C46.5273 93.6658 46.4173 93.8858 46.4173 94.1658C46.4173 94.4858 46.5423 94.7408 46.7923 94.9308C47.0423 95.1108 47.4423 95.3258 47.9923 95.5758L48.3073 95.7108C49.1173 96.0508 49.7523 96.4208 50.2123 96.8208C50.6723 97.2108 50.9023 97.7508 50.9023 98.4408C50.9023 99.1808 50.6073 99.7908 50.0173 100.271C49.4273 100.741 48.5573 100.976 47.4073 100.976C46.8773 100.976 46.4073 100.931 45.9973 100.841C45.5873 100.761 45.1373 100.651 44.6473 100.511L44.1523 100.376V98.3808H45.5773L45.9523 99.5658ZM55.3516 98.4108C55.3516 97.5308 55.7966 96.8558 56.6866 96.3858C57.5866 95.9158 58.7666 95.6758 60.2266 95.6658V95.3658C60.2266 95.0058 60.1866 94.7208 60.1066 94.5108C60.0266 94.3008 59.8816 94.1458 59.6716 94.0458C59.4616 93.9358 59.1516 93.8808 58.7416 93.8808C58.2516 93.8808 57.8116 93.9408 57.4216 94.0608C57.0416 94.1708 56.6416 94.3208 56.2216 94.5108L55.7116 93.4308C55.8716 93.3008 56.1316 93.1458 56.4916 92.9658C56.8516 92.7758 57.2816 92.6158 57.7816 92.4858C58.2916 92.3458 58.8216 92.2758 59.3716 92.2758C60.1716 92.2758 60.7966 92.3808 61.2466 92.5908C61.7066 92.8008 62.0316 93.1258 62.2216 93.5658C62.4216 94.0058 62.5216 94.6058 62.5216 95.3658V99.8208H63.3016V100.766C63.0716 100.816 62.7516 100.866 62.3416 100.916C61.9316 100.966 61.5816 100.991 61.2916 100.991C60.9116 100.991 60.6566 100.936 60.5266 100.826C60.4066 100.716 60.3466 100.496 60.3466 100.166V99.8208C60.0966 100.121 59.7616 100.391 59.3416 100.631C58.9216 100.861 58.4366 100.976 57.8866 100.976C57.4166 100.976 56.9866 100.876 56.5966 100.676C56.2166 100.466 55.9116 100.171 55.6816 99.7908C55.4616 99.4008 55.3516 98.9408 55.3516 98.4108ZM59.0566 99.5958C59.2366 99.5958 59.4366 99.5458 59.6566 99.4458C59.8766 99.3358 60.0666 99.2058 60.2266 99.0558V96.6708C59.4466 96.6708 58.8666 96.8108 58.4866 97.0908C58.1166 97.3708 57.9316 97.7308 57.9316 98.1708C57.9316 98.6208 58.0316 98.9708 58.2316 99.2208C58.4316 99.4708 58.7066 99.5958 59.0566 99.5958ZM64.1313 99.8208L65.0463 99.6858V94.0458L64.1613 93.7758V92.6058L66.6513 92.2758H66.6963L67.1163 92.5908V92.9508L67.0713 94.1958H67.1163C67.1863 93.9658 67.3463 93.7008 67.5963 93.4008C67.8463 93.0908 68.1613 92.8258 68.5413 92.6058C68.9313 92.3758 69.3513 92.2608 69.8013 92.2608C70.0613 92.2608 70.2613 92.2958 70.4013 92.3658V94.9758C70.2413 94.8558 70.0663 94.7608 69.8763 94.6908C69.6963 94.6208 69.4613 94.5858 69.1713 94.5858C68.8113 94.5858 68.4863 94.6358 68.1963 94.7358C67.9063 94.8258 67.6763 94.9308 67.5063 95.0508V99.6858L69.1563 99.8358V100.811H64.1313V99.8208ZM75.1934 100.976C73.8234 100.976 72.8084 100.591 72.1484 99.8208C71.4884 99.0408 71.1584 97.9808 71.1584 96.6408C71.1584 95.7308 71.3284 94.9458 71.6684 94.2858C72.0084 93.6258 72.4834 93.1258 73.0934 92.7858C73.7134 92.4358 74.4384 92.2608 75.2684 92.2608C76.3184 92.2608 77.1184 92.5258 77.6684 93.0558C78.2284 93.5858 78.5184 94.3358 78.5384 95.3058C78.5384 95.9458 78.4934 96.4608 78.4034 96.8508H73.7084C73.7584 97.7008 73.9634 98.3508 74.3234 98.8008C74.6934 99.2408 75.2084 99.4608 75.8684 99.4608C76.2384 99.4608 76.6234 99.4008 77.0234 99.2808C77.4334 99.1508 77.7634 99.0058 78.0134 98.8458L78.4334 99.7608C78.1734 100.051 77.7284 100.326 77.0984 100.586C76.4784 100.846 75.8434 100.976 75.1934 100.976ZM76.1534 95.8608L76.1684 95.2308C76.1684 94.6008 76.0834 94.1208 75.9134 93.7908C75.7434 93.4608 75.4534 93.2958 75.0434 93.2958C74.6234 93.2958 74.2984 93.4808 74.0684 93.8508C73.8384 94.2108 73.7134 94.8808 73.6934 95.8608H76.1534ZM1.47 113.046L0.585 112.776V111.606L3.315 111.276H3.36L3.75 111.591V112.146L3.735 112.491C4.085 112.161 4.53 111.881 5.07 111.651C5.61 111.421 6.175 111.306 6.765 111.306C7.365 111.306 7.835 111.416 8.175 111.636C8.525 111.846 8.775 112.186 8.925 112.656C9.085 113.126 9.165 113.766 9.165 114.576V118.686L10.005 118.806V119.811H5.925V118.821L6.66 118.686V114.591C6.66 114.111 6.625 113.741 6.555 113.481C6.495 113.211 6.385 113.016 6.225 112.896C6.065 112.776 5.835 112.716 5.535 112.716C5.075 112.716 4.555 112.931 3.975 113.361V118.686L4.8 118.821V119.811H0.645V118.821L1.47 118.686V113.046ZM14.8711 119.976C13.5011 119.976 12.4861 119.591 11.8261 118.821C11.1661 118.041 10.8361 116.981 10.8361 115.641C10.8361 114.731 11.0061 113.946 11.3461 113.286C11.6861 112.626 12.1611 112.126 12.7711 111.786C13.3911 111.436 14.1161 111.261 14.9461 111.261C15.9961 111.261 16.7961 111.526 17.3461 112.056C17.9061 112.586 18.1961 113.336 18.2161 114.306C18.2161 114.946 18.1711 115.461 18.0811 115.851H13.3861C13.4361 116.701 13.6411 117.351 14.0011 117.801C14.3711 118.241 14.8861 118.461 15.5461 118.461C15.9161 118.461 16.3011 118.401 16.7011 118.281C17.1111 118.151 17.4411 118.006 17.6911 117.846L18.1111 118.761C17.8511 119.051 17.4061 119.326 16.7761 119.586C16.1561 119.846 15.5211 119.976 14.8711 119.976ZM15.8311 114.861L15.8461 114.231C15.8461 113.601 15.7611 113.121 15.5911 112.791C15.4211 112.461 15.1311 112.296 14.7211 112.296C14.3011 112.296 13.9761 112.481 13.7461 112.851C13.5161 113.211 13.3911 113.881 13.3711 114.861H15.8311ZM18.5418 111.471H22.8018V112.431L21.8568 112.611L23.1168 116.571L23.5068 117.936L23.8218 116.586L25.0668 112.611L24.1518 112.431V111.471H27.6168V112.431L26.8368 112.611L24.1068 119.931H22.0968L19.1268 112.611L18.5418 112.431V111.471ZM31.7754 119.976C30.4054 119.976 29.3904 119.591 28.7304 118.821C28.0704 118.041 27.7404 116.981 27.7404 115.641C27.7404 114.731 27.9104 113.946 28.2504 113.286C28.5904 112.626 29.0654 112.126 29.6754 111.786C30.2954 111.436 31.0204 111.261 31.8504 111.261C32.9004 111.261 33.7004 111.526 34.2504 112.056C34.8104 112.586 35.1004 113.336 35.1204 114.306C35.1204 114.946 35.0754 115.461 34.9854 115.851H30.2904C30.3404 116.701 30.5454 117.351 30.9054 117.801C31.2754 118.241 31.7904 118.461 32.4504 118.461C32.8204 118.461 33.2054 118.401 33.6054 118.281C34.0154 118.151 34.3454 118.006 34.5954 117.846L35.0154 118.761C34.7554 119.051 34.3104 119.326 33.6804 119.586C33.0604 119.846 32.4254 119.976 31.7754 119.976ZM32.7354 114.861L32.7504 114.231C32.7504 113.601 32.6654 113.121 32.4954 112.791C32.3254 112.461 32.0354 112.296 31.6254 112.296C31.2054 112.296 30.8804 112.481 30.6504 112.851C30.4204 113.211 30.2954 113.881 30.2754 114.861H32.7354ZM36.2261 118.821L37.1411 118.686V113.046L36.2561 112.776V111.606L38.7461 111.276H38.7911L39.2111 111.591V111.951L39.1661 113.196H39.2111C39.2811 112.966 39.4411 112.701 39.6911 112.401C39.9411 112.091 40.2561 111.826 40.6361 111.606C41.0261 111.376 41.4461 111.261 41.8961 111.261C42.1561 111.261 42.3561 111.296 42.4961 111.366V113.976C42.3361 113.856 42.1611 113.761 41.9711 113.691C41.7911 113.621 41.5561 113.586 41.2661 113.586C40.9061 113.586 40.5811 113.636 40.2911 113.736C40.0011 113.826 39.7711 113.931 39.6011 114.051V118.686L41.2511 118.836V119.811H36.2261V118.821ZM55.4377 115.371C55.4377 116.201 55.2627 116.966 54.9127 117.666C54.5727 118.366 54.0627 118.926 53.3827 119.346C52.7127 119.766 51.9027 119.976 50.9527 119.976C50.7927 119.976 50.6177 119.961 50.4277 119.931C50.2477 119.901 50.1077 119.866 50.0077 119.826L50.0527 121.041V122.316L51.3427 122.511V123.441H46.7377V122.511L47.6527 122.316V113.046L46.7377 112.776V111.606L49.4227 111.276H49.4527L49.8577 111.591V112.401C50.0877 112.091 50.4077 111.826 50.8177 111.606C51.2377 111.376 51.6927 111.261 52.1827 111.261C53.1427 111.261 53.9227 111.601 54.5227 112.281C55.1327 112.951 55.4377 113.981 55.4377 115.371ZM51.2977 112.641C51.0377 112.641 50.7927 112.696 50.5627 112.806C50.3327 112.906 50.1627 113.031 50.0527 113.181V118.671C50.1227 118.761 50.2427 118.836 50.4127 118.896C50.5927 118.956 50.7877 118.986 50.9977 118.986C51.5577 118.986 52.0027 118.716 52.3327 118.176C52.6727 117.636 52.8427 116.761 52.8427 115.551C52.8427 114.571 52.7027 113.841 52.4227 113.361C52.1427 112.881 51.7677 112.641 51.2977 112.641ZM56.6174 115.686C56.6174 114.726 56.8074 113.916 57.1874 113.256C57.5674 112.586 58.0774 112.086 58.7174 111.756C59.3674 111.426 60.0774 111.261 60.8474 111.261C62.1074 111.261 63.0924 111.641 63.8024 112.401C64.5224 113.151 64.8824 114.201 64.8824 115.551C64.8824 116.541 64.6924 117.366 64.3124 118.026C63.9324 118.686 63.4224 119.176 62.7824 119.496C62.1424 119.816 61.4274 119.976 60.6374 119.976C59.3874 119.976 58.4024 119.601 57.6824 118.851C56.9724 118.091 56.6174 117.036 56.6174 115.686ZM60.7874 118.926C61.2674 118.926 61.6224 118.671 61.8524 118.161C62.0924 117.641 62.2124 116.831 62.2124 115.731C62.2124 114.561 62.0974 113.701 61.8674 113.151C61.6474 112.591 61.2724 112.311 60.7424 112.311C59.7624 112.311 59.2724 113.376 59.2724 115.506C59.2724 116.666 59.3924 117.526 59.6324 118.086C59.8724 118.646 60.2574 118.926 60.7874 118.926ZM68.0714 118.566C68.1414 118.676 68.3014 118.776 68.5514 118.866C68.8114 118.956 69.0714 119.001 69.3314 119.001C69.7414 119.001 70.0514 118.916 70.2614 118.746C70.4814 118.566 70.5914 118.336 70.5914 118.056C70.5914 117.756 70.4514 117.511 70.1714 117.321C69.8914 117.121 69.4314 116.881 68.7914 116.601L68.2214 116.346C67.5714 116.056 67.0814 115.706 66.7514 115.296C66.4314 114.876 66.2714 114.346 66.2714 113.706C66.2714 113.246 66.4064 112.836 66.6764 112.476C66.9464 112.106 67.3364 111.816 67.8464 111.606C68.3564 111.396 68.9564 111.291 69.6464 111.291C70.1264 111.291 70.5414 111.321 70.8914 111.381C71.2414 111.441 71.5964 111.516 71.9564 111.606C72.1964 111.676 72.3764 111.716 72.4964 111.726V113.766H71.1614L70.7714 112.611C70.7214 112.521 70.6014 112.441 70.4114 112.371C70.2214 112.291 70.0064 112.251 69.7664 112.251C69.3864 112.251 69.0864 112.336 68.8664 112.506C68.6464 112.666 68.5364 112.886 68.5364 113.166C68.5364 113.486 68.6614 113.741 68.9114 113.931C69.1614 114.111 69.5614 114.326 70.1114 114.576L70.4264 114.711C71.2364 115.051 71.8714 115.421 72.3314 115.821C72.7914 116.211 73.0214 116.751 73.0214 117.441C73.0214 118.181 72.7264 118.791 72.1364 119.271C71.5464 119.741 70.6764 119.976 69.5264 119.976C68.9964 119.976 68.5264 119.931 68.1164 119.841C67.7064 119.761 67.2564 119.651 66.7664 119.511L66.2714 119.376V117.381H67.6964L68.0714 118.566ZM76.6562 119.946C75.9962 119.946 75.5062 119.796 75.1862 119.496C74.8762 119.186 74.7212 118.711 74.7212 118.071V112.731H73.8062V111.861L74.1062 111.741C74.3462 111.661 74.5562 111.576 74.7362 111.486C74.9362 111.296 75.0962 111.046 75.2162 110.736C75.3662 110.376 75.5312 109.871 75.7112 109.221H77.1062L77.1962 111.471H79.3412V112.731H77.2262V116.706C77.2262 117.256 77.2412 117.641 77.2712 117.861C77.3012 118.081 77.3562 118.226 77.4362 118.296C77.5262 118.356 77.6862 118.386 77.9162 118.386C78.3862 118.386 78.8312 118.306 79.2512 118.146L79.5662 119.091C79.2862 119.321 78.8712 119.521 78.3212 119.691C77.7712 119.861 77.2162 119.946 76.6562 119.946ZM84.1143 119.976C82.7443 119.976 81.7293 119.591 81.0693 118.821C80.4093 118.041 80.0793 116.981 80.0793 115.641C80.0793 114.731 80.2493 113.946 80.5893 113.286C80.9293 112.626 81.4043 112.126 82.0143 111.786C82.6343 111.436 83.3593 111.261 84.1893 111.261C85.2393 111.261 86.0393 111.526 86.5893 112.056C87.1493 112.586 87.4393 113.336 87.4593 114.306C87.4593 114.946 87.4143 115.461 87.3243 115.851H82.6293C82.6793 116.701 82.8843 117.351 83.2443 117.801C83.6143 118.241 84.1293 118.461 84.7893 118.461C85.1593 118.461 85.5443 118.401 85.9443 118.281C86.3543 118.151 86.6843 118.006 86.9343 117.846L87.3543 118.761C87.0943 119.051 86.6493 119.326 86.0193 119.586C85.3993 119.846 84.7643 119.976 84.1143 119.976ZM85.0743 114.861L85.0893 114.231C85.0893 113.601 85.0043 113.121 84.8343 112.791C84.6643 112.461 84.3743 112.296 83.9643 112.296C83.5443 112.296 83.2193 112.481 82.9893 112.851C82.7593 113.211 82.6343 113.881 82.6143 114.861H85.0743ZM91.6549 119.976C90.6949 119.976 89.9149 119.631 89.3149 118.941C88.7149 118.251 88.4149 117.216 88.4149 115.836C88.4149 115.006 88.5849 114.246 88.9249 113.556C89.2749 112.856 89.7849 112.301 90.4549 111.891C91.1349 111.471 91.9549 111.261 92.9149 111.261C93.2049 111.261 93.5049 111.296 93.8149 111.366V108.981L92.3749 108.771V107.811L95.6899 107.511H95.7649L96.2149 107.871V118.806H96.9949V119.766C96.2249 119.916 95.5849 119.991 95.0749 119.991C94.7249 119.991 94.4699 119.931 94.3099 119.811C94.1599 119.701 94.0849 119.481 94.0849 119.151V118.776C93.8449 119.126 93.4999 119.416 93.0499 119.646C92.5999 119.866 92.1349 119.976 91.6549 119.976ZM92.5549 118.626C92.8349 118.626 93.0799 118.571 93.2899 118.461C93.5099 118.341 93.6849 118.201 93.8149 118.041V112.611C93.7449 112.521 93.6149 112.446 93.4249 112.386C93.2449 112.326 93.0499 112.296 92.8399 112.296C92.2799 112.296 91.8349 112.566 91.5049 113.106C91.1749 113.636 91.0099 114.506 91.0099 115.716C91.0099 116.706 91.1499 117.441 91.4299 117.921C91.7099 118.391 92.0849 118.626 92.5549 118.626Z" fill="#002555"/>
<path d="M1.98 55.34C7.46 52.02 11.86 48.52 15.18 44.84C18.54 41.12 20.22 37.44 20.22 33.8C20.22 32 19.62 30.56 18.42 29.48C17.26 28.4 15.68 27.86 13.68 27.86C12.32 27.86 11.08 28.06 9.96 28.46C8.88 28.86 8 29.3 7.32 29.78C6.68 30.22 5.86 30.86 4.86 31.7L2.4 28.04C3.16 27.04 4.32 26.02 5.88 24.98C7.44 23.9 9.22 23 11.22 22.28C13.26 21.56 15.32 21.2 17.4 21.2C20.4 21.2 22.92 21.7 24.96 22.7C27 23.66 28.5 24.96 29.46 26.6C30.46 28.24 30.96 30.06 30.96 32.06C30.96 35.82 29.16 39.54 25.56 43.22C22 46.9 17.34 50.36 11.58 53.6L28.26 51.86L30.66 46.88L34.8 47.78L33 59H3.42L1.98 55.34ZM45.2025 69.62H38.4825L53.7825 12.14H60.4425L45.2025 69.62ZM73.0223 68.6C71.7023 68.6 70.2423 68.48 68.6423 68.24C67.0823 68.04 65.8423 67.8 64.9223 67.52V62.48C66.6823 63.04 68.6223 63.32 70.7423 63.32C73.3423 63.32 75.5823 62.9 77.4623 62.06C79.3823 61.22 80.8423 60.06 81.8423 58.58C82.8423 57.1 83.3423 55.46 83.3423 53.66C83.3423 48.74 80.5423 46.12 74.9423 45.8L71.4623 46.7L70.1423 42.68C71.5823 42.48 73.2023 41.98 75.0023 41.18C77.2023 40.14 78.8623 38.88 79.9823 37.4C81.1423 35.92 81.7223 34.34 81.7223 32.66C81.7223 30.86 81.1423 29.54 79.9823 28.7C78.8223 27.82 77.3823 27.38 75.6623 27.38C73.9023 27.38 72.2823 27.68 70.8023 28.28C69.3623 28.84 68.1423 29.54 67.1423 30.38L64.7423 26.18C65.4623 25.5 66.5623 24.78 68.0423 24.02C69.5623 23.22 71.2623 22.56 73.1423 22.04C75.0623 21.48 76.9823 21.2 78.9023 21.2C82.8623 21.2 86.0623 22.02 88.5023 23.66C90.9423 25.3 92.1623 27.76 92.1623 31.04C92.1623 33.96 91.0423 36.48 88.8023 38.6C86.6023 40.72 83.8223 42.38 80.4623 43.58C80.9023 43.54 81.5223 43.52 82.3223 43.52C85.9223 43.52 88.8423 44.42 91.0823 46.22C93.3223 47.98 94.4423 50.4 94.4423 53.48C94.4423 56.32 93.5823 58.88 91.8623 61.16C90.1423 63.48 87.6623 65.3 84.4223 66.62C81.1823 67.94 77.3823 68.6 73.0223 68.6Z" fill="#002555"/>
<g clip-path="url(#clip0_1065_523)">
<path d="M208.616 11.8489H197.279V7.47681C197.279 6.14088 196.182 5.04785 194.841 5.04785H178.749C177.408 5.04785 176.311 6.14088 176.311 7.47681V11.8489H164.974C163.633 11.8489 162.535 12.942 162.535 14.2779V43.0004C162.535 44.3363 163.633 45.4293 164.974 45.4293H208.555C209.896 45.4293 210.993 44.3363 210.993 43.0004V14.2779C211.054 12.942 209.957 11.8489 208.616 11.8489ZM181.187 9.90577H192.463V11.8489H181.187V9.90577Z" fill="#FFB800"/>
</g>
<g clip-path="url(#clip1_1065_523)">
<path d="M271.207 11.8489H259.87V7.47681C259.87 6.14088 258.773 5.04785 257.432 5.04785H241.34C239.999 5.04785 238.902 6.14088 238.902 7.47681V11.8489H227.565C226.224 11.8489 225.127 12.942 225.127 14.2779V43.0004C225.127 44.3363 226.224 45.4293 227.565 45.4293H271.146C272.487 45.4293 273.584 44.3363 273.584 43.0004V14.2779C273.645 12.942 272.548 11.8489 271.207 11.8489ZM243.778 9.90577H255.055V11.8489H243.778V9.90577Z" fill="#FFB800"/>
</g>
<g clip-path="url(#clip2_1065_523)">
<path d="M271.207 66.3636H259.87V61.9915C259.87 60.6555 258.773 59.5625 257.432 59.5625H241.34C239.999 59.5625 238.902 60.6555 238.902 61.9915V66.3636H227.565C226.224 66.3636 225.127 67.4566 225.127 68.7926V97.515C225.127 98.8509 226.224 99.944 227.565 99.944H271.146C272.487 99.944 273.584 98.8509 273.584 97.515V68.7926C273.645 67.4566 272.548 66.3636 271.207 66.3636ZM243.778 64.4204H255.055V66.3636H243.778V64.4204Z" fill="#FFB800"/>
</g>
<g clip-path="url(#clip3_1065_523)">
<path d="M208.616 66.3636H197.279V61.9915C197.279 60.6555 196.182 59.5625 194.841 59.5625H178.749C177.408 59.5625 176.311 60.6555 176.311 61.9915V66.3636H164.974C163.633 66.3636 162.535 67.4566 162.535 68.7926V97.515C162.535 98.8509 163.633 99.944 164.974 99.944H208.555C209.896 99.944 210.993 98.8509 210.993 97.515V68.7926C211.054 67.4566 209.957 66.3636 208.616 66.3636ZM181.187 64.4204H192.463V66.3636H181.187V64.4204Z" fill="#FFB800"/>
</g>
<g clip-path="url(#clip4_1065_523)">
<path d="M208.616 120.879H197.279V116.507C197.279 115.171 196.182 114.078 194.841 114.078H178.749C177.408 114.078 176.311 115.171 176.311 116.507V120.879H164.974C163.633 120.879 162.535 121.972 162.535 123.308V152.03C162.535 153.366 163.633 154.459 164.974 154.459H208.555C209.896 154.459 210.993 153.366 210.993 152.03V123.308C211.054 121.972 209.957 120.879 208.616 120.879ZM181.187 118.936H192.463V120.879H181.187V118.936Z" fill="#90A3B8"/>
</g>
<g clip-path="url(#clip5_1065_523)">
<path d="M270.198 120.879H258.86V116.507C258.86 115.171 257.763 114.078 256.422 114.078H240.331C238.99 114.078 237.893 115.171 237.893 116.507V120.879H226.555C225.214 120.879 224.117 121.972 224.117 123.308V152.03C224.117 153.366 225.214 154.459 226.555 154.459H270.137C271.478 154.459 272.575 153.366 272.575 152.03V123.308C272.636 121.972 271.539 120.879 270.198 120.879ZM242.769 118.936H254.045V120.879H242.769V118.936Z" fill="#90A3B8"/>
</g>
<defs>
<clipPath id="clip0_1065_523">
<rect width="48.4578" height="40.3815" fill="white" transform="translate(162.535 5.04785)"/>
</clipPath>
<clipPath id="clip1_1065_523">
<rect width="48.4578" height="40.3815" fill="white" transform="translate(225.127 5.04785)"/>
</clipPath>
<clipPath id="clip2_1065_523">
<rect width="48.4578" height="40.3815" fill="white" transform="translate(225.127 59.5625)"/>
</clipPath>
<clipPath id="clip3_1065_523">
<rect width="48.4578" height="40.3815" fill="white" transform="translate(162.535 59.5625)"/>
</clipPath>
<clipPath id="clip4_1065_523">
<rect width="48.4578" height="40.3815" fill="white" transform="translate(162.535 114.078)"/>
</clipPath>
<clipPath id="clip5_1065_523">
<rect width="48.4578" height="40.3815" fill="white" transform="translate(224.117 114.078)"/>
</clipPath>
</defs>
</svg>
