<svg width="429" height="274" viewBox="0 0 429 274" fill="none" xmlns="http://www.w3.org/2000/svg">
<path d="M342.332 255.471C340.552 254.651 339.633 253.02 338.552 251.533C337.252 249.742 335.97 247.93 334.516 246.263C333.864 245.516 332.887 244.878 331.934 244.601C330.129 244.072 328.994 242.952 328.232 241.344C327.635 240.09 326.976 238.912 326.031 237.843C325.467 237.205 325.225 236.155 325.137 235.262C324.987 233.77 324.584 232.461 323.559 231.338C322.292 229.949 321.065 228.523 319.805 227.126C319.043 226.28 318.974 225.314 319.153 224.256C319.351 223.089 319.56 221.915 319.633 220.737C319.757 218.732 318.468 217.448 317.007 216.438C315.839 215.628 314.854 214.746 314.352 213.43C313.407 210.968 311.312 209.783 309.159 208.638C308.668 208.379 308.368 208.62 308.093 208.995C307.393 209.958 306.65 210.892 305.991 211.883C305.006 213.364 301.735 214.403 300.428 213.969C299.373 213.623 298.802 212.883 298.296 212.015C297.176 210.089 295.616 208.529 293.869 207.216C293.067 206.614 291.891 206.395 290.851 206.253C289.697 206.093 288.496 206.155 287.324 206.235C286.2 206.311 285.083 206.53 283.823 206.709C283.677 205.053 283.53 203.394 283.373 201.633C283.882 201.593 284.328 201.556 284.779 201.523C289.763 201.162 294.748 200.816 299.728 200.43C300.307 200.386 300.64 200.51 300.853 201.06C301.028 201.513 301.241 201.965 301.538 202.344C301.812 202.694 302.215 202.942 302.559 203.237C302.834 202.906 303.109 202.574 303.38 202.242C303.332 202.173 303.284 202.103 303.233 202.034C304.973 201.906 306.716 201.782 308.456 201.655C315.245 201.162 322.035 200.688 328.818 200.163C329.704 200.094 330.015 200.327 330.356 201.177C331.228 203.347 332.249 205.465 333.344 207.537C334.465 209.659 335.304 211.88 335.721 214.214C336.084 216.23 337.032 217.824 338.325 219.355C339.874 221.189 341.574 223.027 342.141 225.423C342.606 227.392 343.606 228.968 344.701 230.605C346.463 233.234 347.474 236.173 347.499 239.39C347.536 243.809 347.005 248.167 345.935 252.455C345.617 253.739 345.053 254.913 343.709 255.482H342.328L342.332 255.471Z" fill="#224771"/>
<path d="M401.967 55.1847C401.187 56.1474 400.374 57.0882 399.638 58.08C399.184 58.6927 398.825 59.3782 398.466 60.0528C398.016 60.9025 397.371 61.3802 396.463 61.1651C394.94 60.804 393.888 61.6026 392.885 62.4596C392.035 63.1816 391.336 64.013 390.047 64.0057C389.713 64.0057 389.263 64.6111 389.062 65.0341C388.739 65.716 388.659 66.5109 388.336 67.1892C387.912 68.0936 387.425 68.9906 386.828 69.7929C386.304 70.4966 385.582 71.0509 384.963 71.6927C384.143 72.5387 383.652 73.5233 383.693 74.7376C383.718 75.507 383.715 76.2838 383.685 77.0532C383.678 77.2319 383.532 77.5273 383.407 77.5528C383.25 77.5856 382.971 77.4361 382.88 77.2866C382.393 76.477 381.858 75.6821 381.51 74.8106C380.232 71.6016 379.023 68.3634 377.782 65.1398C377.097 63.353 376.493 61.5297 375.691 59.7939C375.024 58.3535 375.376 57.0882 375.995 55.8301C376.419 54.9695 377.02 54.1964 377.485 53.3504C377.679 52.9967 377.833 52.5591 377.815 52.1689C377.741 50.3493 377.621 48.5333 377.478 46.7173C377.445 46.2797 377.328 45.8239 377.141 45.4264C376.463 43.9897 376.822 42.666 377.511 41.3678C377.789 40.8427 378.133 40.3504 378.386 39.818C378.514 39.5408 378.587 39.1908 378.547 38.8917C378.397 37.7941 379.346 36.722 380.408 37.0757C381.997 37.6082 383.425 37.1596 384.949 36.8752C387.626 36.3756 389.611 37.3565 390.933 40.2446C391.896 42.3487 392.874 44.4382 393.332 46.7392C393.552 47.8514 394.625 48.3947 395.859 48.1139C396.793 47.8988 397.496 48.2233 398.067 48.8542C399.547 50.4879 401.239 51.9757 401.967 54.16V55.1883V55.1847Z" fill="#224771"/>
<path d="M168.511 151.746C170.408 152.07 172.185 152.373 173.961 152.683C178.176 153.416 182.388 154.156 186.603 154.878C187.083 154.958 187.35 155.06 187.365 155.655C187.453 158.765 187.595 161.876 187.724 164.99C187.786 166.529 187.848 168.064 187.929 169.603C187.969 170.402 188.365 170.854 189.225 170.89C190.69 170.948 191.972 171.419 193.224 172.258C194.535 173.136 196.03 173.764 197.498 174.376C198.161 174.653 198.949 174.683 199.685 174.741C201.358 174.872 203.083 174.708 204.596 175.682C204.731 175.769 204.929 175.766 205.09 175.817C206.555 176.273 208.097 176.579 209.467 177.235C210.734 177.841 211.946 177.72 213.231 177.676C214.685 177.625 216.158 177.563 217.597 177.724C219.615 177.95 221.596 178.012 223.581 177.534C223.83 177.472 224.189 177.552 224.401 177.702C225.097 178.202 225.716 178.811 226.43 179.281C226.895 179.587 227.463 179.744 227.998 179.934C228.913 180.258 229.858 180.517 230.748 180.893C230.935 180.973 231.063 181.465 231.026 181.742C230.503 185.706 231.316 189.539 232.217 193.342C232.587 194.91 233.334 196.387 233.854 197.922C234.051 198.502 234.139 199.137 234.183 199.749C234.293 201.365 234.37 202.984 234.421 204.603C234.454 205.715 234.48 206.834 234.407 207.943C234.275 209.992 234.062 212.038 233.901 214.088C233.857 214.653 233.817 215.163 233.026 214.959C233.202 215.276 233.553 215.732 233.48 215.812C233.216 216.108 232.814 216.461 232.458 216.469C230.928 216.498 229.693 217.227 228.426 217.935C227.866 218.248 227.251 218.504 226.632 218.66C224.559 219.196 222.772 220.279 221.343 221.793C219.197 224.065 216.623 225.695 214.004 227.317C211.69 228.75 210.129 230.906 208.774 233.196C207.892 234.687 208.602 236.12 209.221 237.48C209.697 238.531 210.346 239.504 210.906 240.518C211.719 241.991 211.528 242.87 210.199 243.906C209.771 244.237 209.353 244.584 208.932 244.923C208.28 245.444 208.225 246.152 208.21 246.921C208.181 248.22 207.408 248.836 206.119 248.522C204.885 248.223 203.636 247.877 202.486 247.352C200.164 246.294 197.916 245.073 195.612 243.975C193.777 243.103 192.558 241.568 191.382 240.048C189.793 237.987 188.405 235.774 186.907 233.648C186.185 232.623 186.043 231.558 186.292 230.337C186.537 229.144 186.057 228.09 185.16 227.285C183.838 226.099 182.527 224.932 181.86 223.219C181.461 222.198 181.029 221.184 180.56 220.192C179.901 218.806 178.821 217.814 177.462 217.129C176.1 216.443 174.968 215.524 173.891 214.419C172.906 213.409 171.573 212.709 170.331 211.98C169.269 211.356 167.186 211.787 166.409 212.921C165.607 214.088 164.728 215.207 163.948 216.389C163.315 217.348 162.725 218.336 161.553 218.711C159.974 219.222 158.528 218.737 157.495 217.617C156.023 216.024 154.287 214.817 152.569 213.551C150.65 212.14 149.581 210.273 149.603 207.801C149.61 207.064 149.215 206.313 148.962 205.584C148.629 204.636 148.189 203.724 147.911 202.761C147.567 201.565 147.043 200.493 145.897 199.95C143.498 198.816 142 196.923 140.945 194.578C140.466 193.51 139.861 192.547 138.557 192.288C138.407 192.259 138.217 191.829 138.246 191.61C138.338 190.932 138.572 190.275 138.66 189.597C138.748 188.908 139.099 188.809 139.715 188.871C144.088 189.313 148.46 189.725 152.833 190.148C156.492 190.501 160.15 190.859 163.809 191.209C164.864 191.311 165.197 191.023 165.288 189.936C166.101 180.335 166.911 170.73 167.72 161.128C167.98 158.054 168.244 154.98 168.519 151.753L168.511 151.746Z" fill="#224771"/>
<path d="M119.363 94.9429C107.223 91.8141 95.1776 88.7073 83.0518 85.5821C83.6048 83.7661 84.1285 82.0523 84.6522 80.3347C86.4797 74.347 88.3181 68.363 90.1346 62.3717C90.3544 61.6496 90.6327 61.1464 91.464 60.8948C92.6286 60.5374 93.6724 59.943 93.8006 58.4698C93.8775 57.5655 93.6358 56.8909 92.8703 56.4205C91.8046 55.7677 91.4714 54.6628 91.0685 53.598C91.0319 53.4995 91.0319 53.3683 91.0648 53.2662C92.5993 48.6933 94.1595 44.1278 95.672 39.5477C97.2394 34.7962 98.7666 30.0338 100.283 25.2641C100.492 24.6041 100.686 24.4071 101.469 24.5639C103.498 24.9724 105.564 25.1875 107.615 25.4938C109.742 25.8147 111.863 26.1611 113.991 26.482C116.43 26.8467 118.876 27.1858 121.315 27.5541C123.839 27.9334 126.358 28.3454 128.882 28.721C131.321 29.0857 133.767 29.4212 136.206 29.7822C138.7 30.1505 141.194 30.537 143.692 30.909C145.794 31.2226 147.896 31.5216 149.998 31.8425C152.097 32.1634 154.192 32.5171 156.29 32.8344C158.367 33.148 160.447 33.4215 162.523 33.7314C165.043 34.107 167.555 34.5045 170.075 34.8874C170.635 34.9713 171.196 35.0551 171.76 35.0953C172.8 35.1718 172.84 35.2083 172.708 36.2986C171.965 42.3155 171.221 48.3323 170.478 54.3492C169.632 61.1902 168.782 68.0275 167.933 74.8685C167.907 75.0654 167.87 75.2587 167.819 75.5759C166.577 75.3936 165.373 75.2259 164.168 75.0435C151.507 73.1327 138.843 71.2183 126.182 69.3075C124.813 69.0996 124.586 69.271 124.315 70.6202C122.747 78.413 121.176 86.2021 119.605 93.9948C119.55 94.2719 119.47 94.5418 119.367 94.9466L119.363 94.9429Z" fill="#224771"/>
<path d="M60.5436 81.3961C59.5804 84.4301 58.6502 87.3692 57.7163 90.3084C56.4675 94.2321 55.215 98.1522 53.9661 102.076C53.5413 103.407 53.556 103.454 54.5155 104.271C54.3433 104.836 54.2042 105.358 54.0211 105.865C53.9515 106.058 53.8196 106.288 53.6512 106.375C52.2485 107.09 52.1863 108.158 53.1677 109.632C56.1232 114.062 59.1849 118.42 62.2026 122.807C68.7764 132.357 75.3539 141.911 81.9167 151.469C82.0742 151.699 82.0851 152.034 82.1364 152.326C82.3049 153.267 82.3525 154.244 82.6528 155.137C83.0666 156.363 83.041 156.895 82.0412 157.686C80.6495 158.791 79.8695 160.159 79.9573 161.978C79.9866 162.602 79.8585 163.233 79.8511 163.86C79.8402 164.651 79.6314 165.216 78.8697 165.687C78.3533 166.008 77.9577 166.715 77.771 167.328C77.4194 168.498 77.2619 169.727 77.0239 170.927C76.9506 170.927 76.8664 170.952 76.8407 170.927C75.8226 169.753 74.5775 169.683 73.0723 169.756C71.1642 169.848 69.2342 169.377 67.3078 169.235C65.0812 169.071 63.1621 168.152 61.2614 167.094C60.3788 166.602 59.3973 166.27 58.4524 165.898C56.3869 165.085 55.1747 163.101 55.3908 160.924C55.4237 160.578 55.3724 160.18 55.226 159.867C54.4569 158.244 53.534 156.742 51.9702 155.721C51.56 155.451 51.1169 155.075 50.9338 154.645C50.1134 152.723 48.6302 151.425 46.9602 150.306C45.4293 149.281 43.7886 148.406 42.3018 147.326C40.8112 146.243 39.9359 144.763 40.0531 142.819C40.0751 142.451 39.9799 142.042 39.8297 141.7C39.0387 139.858 37.9473 138.232 36.5666 136.748C35.4936 135.595 34.6 134.257 33.743 132.93C33.0472 131.857 32.8457 130.61 33.0984 129.341C33.5159 127.259 32.6406 125.509 31.6189 123.839C30.8681 122.613 30.4433 121.439 31.0366 120.021C31.7361 118.343 31.3552 116.68 30.7802 115.058C30.132 113.227 29.275 111.455 28.8026 109.588C28.4876 108.341 28.5059 106.94 28.6927 105.657C28.9015 104.224 28.7 102.878 28.3558 101.543C28.0152 100.22 27.8943 99.0383 28.462 97.6854C28.8026 96.8686 28.5389 95.7345 28.3558 94.7827C27.9786 92.8464 27.2424 90.9684 27.4475 88.9409C27.7185 86.2607 28.2862 83.6497 29.253 81.1263C30.0917 78.942 30.9267 76.7541 31.7214 74.5552C31.8899 74.0884 32.0913 74.0009 32.5344 74.1176C41.7011 76.4915 50.8715 78.8545 60.0382 81.2248C60.1737 81.2612 60.3019 81.3159 60.5436 81.3998V81.3961Z" fill="#224771"/>
<path d="M119.082 192.346C116.075 191.723 113.024 191.584 110.505 189.659C108.607 188.211 106.41 187.529 104.044 187.336C101.986 187.168 100.14 186.395 98.4263 185.29C96.0166 183.74 93.6617 182.103 91.2116 180.623C88.6847 179.098 86.0771 177.709 83.4879 176.291C82.9495 175.995 82.3599 175.722 81.763 175.601C79.8476 175.222 79.203 173.68 78.4999 172.188C78.4046 171.984 78.4779 171.681 78.5182 171.43C78.661 170.584 78.8368 169.745 78.9723 168.895C79.1371 167.863 79.3275 166.915 80.4592 166.383C80.8474 166.2 81.1404 165.529 81.2246 165.037C81.4041 163.972 81.4956 162.878 81.4919 161.799C81.4846 160.639 81.9387 159.772 82.7957 159.039C84.6855 157.416 84.8832 156.49 83.8981 154.251C83.4659 153.27 83.5025 152.314 84.1105 151.399C84.2313 151.217 84.3412 150.987 84.3412 150.775C84.3375 148.489 84.4218 146.195 83.671 143.982C83.4476 143.322 83.4696 142.695 83.9823 142.137C84.1508 141.951 84.2606 141.703 84.3742 141.477C84.9528 140.335 85.0114 140.295 86.1394 140.988C86.6704 141.316 87.0989 141.794 87.608 142.159C87.9046 142.374 88.3184 142.695 88.5858 142.622C88.8751 142.541 89.1718 142.093 89.2596 141.75C89.7138 140.007 90.102 138.249 90.5158 136.495C90.5744 136.247 90.644 135.999 90.7355 135.642C92.0686 135.89 93.3834 136.131 94.6945 136.382C104.784 138.326 114.877 140.273 124.967 142.217C125.777 142.372 126.124 142.871 126.007 143.712C123.766 159.538 121.528 175.364 119.287 191.194C119.239 191.53 119.173 191.865 119.093 192.332L119.082 192.346Z" fill="#224771"/>
<path d="M120.602 192.652C121.155 188.754 121.682 185.016 122.209 181.282C123.967 168.854 125.74 156.427 127.465 143.992C127.589 143.098 127.915 142.96 128.717 143.018C138.799 143.758 148.882 144.466 158.964 145.184C161.542 145.367 164.12 145.553 166.699 145.739C166.922 145.753 167.142 145.79 167.622 145.844C167.325 147.416 167.043 148.929 166.757 150.439C166.732 150.578 166.644 150.745 166.691 150.851C167.281 152.171 166.805 153.506 166.699 154.815C165.768 166.214 164.787 177.61 163.82 189.009C163.806 189.177 163.776 189.344 163.743 189.61C163.34 189.592 162.949 189.592 162.56 189.556C154.756 188.808 146.952 188.057 139.151 187.302C137.844 187.175 137.639 187.32 137.327 188.633C137.115 189.523 136.913 190.416 136.705 191.306C136.694 191.361 136.657 191.408 136.591 191.547C135.467 191.138 134.339 190.719 133.203 190.318C131.446 189.698 129.622 189.457 127.765 189.392C127.216 189.373 126.981 189.53 127.033 190.125C127.091 190.759 127.055 191.405 127.047 192.043C127.04 192.776 126.135 193.494 125.212 193.377C123.7 193.191 122.195 192.911 120.602 192.655V192.652Z" fill="#224771"/>
<path d="M54.1611 107.858C55.0328 107.435 55.5638 106.914 55.626 105.984C55.6444 105.732 56.0435 105.492 56.2999 105.28C57.0543 104.657 57.069 103.949 56.1864 103.522C55.3111 103.099 55.3587 102.614 55.6151 101.823C57.6769 95.4599 59.6948 89.0783 61.7238 82.7041C61.819 82.4087 61.9215 82.1134 62.046 81.7341C74.5308 84.9541 86.9789 88.163 99.5588 91.4049C95.7171 107.716 91.8863 123.983 88.0263 140.364C87.5941 140.101 87.2389 139.831 86.8397 139.653C86.2684 139.397 85.6824 139.131 85.0745 139.011C84.331 138.865 83.7524 139.146 83.4118 139.904C83.1225 140.553 82.7453 141.166 82.368 141.771C81.8187 142.661 82.0311 143.555 82.2032 144.503C82.4779 145.983 82.6098 147.493 82.7892 148.992C82.8075 149.137 82.7233 149.298 82.6391 149.659C82.3534 149.323 82.1666 149.141 82.0201 148.926C76.0579 140.269 70.0957 131.616 64.1592 122.944C63.7856 122.397 63.6977 121.657 63.3242 121.114C62.1412 119.403 60.8411 117.77 59.6619 116.056C57.8161 113.372 56.0326 110.648 54.1611 107.851V107.858Z" fill="#224771"/>
<path d="M81.5687 85.2047C65.1251 80.9638 48.8133 76.7593 32.4722 72.5475C32.6443 71.5228 32.9007 70.5346 32.9556 69.539C33.0142 68.4268 32.853 67.3073 32.8677 66.1915C32.875 65.6263 32.8677 64.8714 33.201 64.5359C34.1165 63.6243 35.2116 62.8913 36.2407 62.0927C36.5043 61.8849 36.8486 61.7463 37.0464 61.491C38.6797 59.3797 40.3204 57.2647 41.3679 54.7886C41.8476 53.6509 42.0161 52.3819 42.5215 51.2551C43.6678 48.6988 44.9459 46.2009 46.1435 43.6666C46.6122 42.6747 46.9931 41.6391 47.4289 40.629C47.5095 40.4393 47.6597 40.1476 47.7988 40.1367C48.6814 40.071 49.5933 39.9434 50.4467 40.0929C50.9704 40.1841 51.4098 40.7384 51.8933 41.0775C52.4426 41.4567 52.9956 41.8287 53.5523 42.2006C53.8086 42.372 54.1309 42.4851 54.3104 42.7148C55.0172 43.6082 55.7277 44.5089 56.3503 45.4607C57.427 47.1016 58.9541 48.1847 60.6644 49.038C61.0416 49.2239 61.602 49.2713 62.0012 49.1437C64.334 48.3852 66.4618 49.1109 68.6226 49.8657C69.1902 50.0627 69.9044 50.0335 70.5086 49.9095C72.8672 49.4245 75.1561 49.388 77.3827 50.482C78.0346 50.8029 78.7634 50.9743 79.4629 51.204C79.8401 51.328 80.232 51.4192 80.6129 51.5395C82.2829 52.0719 84.0408 52.3308 85.5423 53.3592C86.4286 53.9645 87.4467 53.5561 88.3916 53.3847C89.124 53.2534 89.4463 53.5743 89.6734 54.1869C90.1714 55.5289 90.6768 56.8599 92.0062 57.6731C92.475 57.9612 92.3725 58.7269 91.8634 59.0442C91.5521 59.2375 91.2005 59.4635 90.849 59.4927C89.5708 59.6021 89.135 60.4882 88.8201 61.5166C86.9157 67.7522 85.0149 73.9842 83.1106 80.2199C82.6125 81.8535 82.1071 83.4872 81.5834 85.2047H81.5687Z" fill="#224771"/>
<path d="M174.03 144.842C172.147 144.583 170.345 144.266 168.533 144.113C166.863 143.974 165.171 144.076 163.497 143.96C151.953 143.165 140.41 142.341 128.866 141.524C128.006 141.462 127.881 141.283 128.024 140.258C128.573 136.324 129.126 132.385 129.683 128.451C130.643 121.657 131.606 114.864 132.569 108.066C132.609 107.789 132.668 107.512 132.734 107.155C134.825 107.417 136.869 107.669 138.912 107.928C147.229 108.982 155.528 110.243 163.871 111.013C168.243 111.418 172.367 112.738 176.637 113.445C177.264 113.547 177.337 113.85 177.26 114.386C176.974 116.417 176.674 118.452 176.465 120.49C176.212 122.959 176.088 125.439 175.843 127.907C175.301 133.341 174.718 138.771 174.147 144.204C174.132 144.343 174.096 144.478 174.026 144.835L174.03 144.842Z" fill="#224771"/>
<path d="M125.831 70.7896C139.824 72.9009 153.694 74.9941 167.647 77.1018C167.438 78.8448 167.244 80.4858 167.039 82.1231C165.959 90.864 164.874 99.6012 163.79 108.338C163.688 109.173 163.219 109.491 162.274 109.374C156.008 108.579 149.742 107.788 143.476 106.993C135.701 106.005 127.926 105.016 120.151 104.028C119.843 103.988 119.539 103.933 119.158 103.875C121.385 92.8295 123.593 81.8606 125.827 70.7896H125.831Z" fill="#224771"/>
<path d="M248.99 91.8187C237.959 91.5561 227.207 91.2972 216.473 91.0419C216.341 84.3286 216.209 77.6918 216.077 71.1243C216.374 70.8763 216.747 70.5664 217.121 70.2528C216.725 69.8918 216.333 69.5344 215.938 69.1734C215.832 69.2281 215.722 69.2792 215.616 69.3338C215.711 67.7731 215.758 66.2051 215.912 64.6516C216.117 62.5621 216.147 60.5274 215.418 58.4962C215.004 57.3475 214.982 56.1223 215.458 54.8934C215.67 54.3501 215.645 53.5733 215.418 53.0336C214.663 51.265 214.293 49.5548 215.011 47.6513C215.282 46.9366 215.147 46.014 215.015 45.219C214.795 43.9026 214.429 42.6117 214.103 41.2114C215.696 41.4193 217.209 41.6016 218.718 41.8131C220.208 42.0246 221.691 42.2543 223.178 42.495C223.881 42.6081 224.478 42.8889 224.749 43.6328C224.819 43.826 224.987 44.0302 225.167 44.1287C227.126 45.2044 229.049 46.3567 231.074 47.2939C233.257 48.304 235.538 49.1537 237.966 49.3105C239.058 49.3798 240.186 49.1683 241.27 48.9568C243.464 48.5301 245.639 48.6869 247.833 48.9422C249.873 49.1792 251.737 49.8611 253.509 50.8639C253.74 50.9952 254.176 50.9332 254.443 50.8129C255.556 50.3096 256.417 50.8129 257.241 51.4474C257.622 51.7391 257.706 53.3399 257.292 53.4603C256.395 53.7192 256.607 54.7767 255.897 55.0538C255.553 55.1888 254.956 55.393 254.831 55.2508C254.183 54.5214 253.711 55.1559 253.451 55.4878C252.158 57.1543 250.257 58.0367 248.675 59.324C246.771 60.8701 244.874 62.4309 242.958 63.9624C242.365 64.4365 242.185 64.9616 242.438 65.6836C242.632 66.2488 242.823 66.8359 242.87 67.423C242.903 67.8679 242.867 68.5097 242.585 68.754C241.783 69.4505 240.915 70.1726 239.94 70.5518C238.38 71.1608 237.882 71.9667 238.589 73.4691C239.061 74.4719 239.311 75.4528 239.105 76.5978C238.97 77.36 239.142 78.1877 239.263 78.9754C239.311 79.2854 239.53 79.6208 239.772 79.836C241.105 81.0467 242.259 82.3266 242.636 84.1937C242.738 84.7005 243.273 85.2293 243.749 85.5356C245.547 86.6952 247.067 88.059 247.877 90.1048C248.093 90.6554 248.525 91.1185 248.994 91.826L248.99 91.8187Z" fill="#224771"/>
<path d="M126.376 140.969C114.529 138.686 102.839 136.433 91.0537 134.157C94.3864 120.005 97.7008 105.944 101.037 91.7842C107.08 93.3413 113.038 94.8765 119.092 96.4372C118.73 98.2532 118.382 100.011 118.034 101.765C117.906 102.41 117.766 103.052 117.638 103.698C117.4 104.905 117.638 105.236 118.887 105.397C122.645 105.878 126.406 106.349 130.167 106.826C130.478 106.866 130.786 106.917 131.189 106.979C129.585 118.317 127.988 129.596 126.376 140.969Z" fill="#224771"/>
<path d="M170.419 67.1902C171.734 56.5568 173.034 46.0364 174.338 35.4905C178.421 36.0557 182.428 36.5954 186.434 37.1752C190.613 37.7805 194.788 38.4369 198.966 39.0386C202.753 39.5819 206.547 40.0815 210.342 40.5993C210.763 40.6577 211.184 40.716 211.605 40.7744C212.187 40.8546 212.554 41.0989 212.682 41.748C212.938 43.0644 213.33 44.359 213.564 45.679C213.671 46.2734 213.692 46.9772 213.476 47.5205C212.696 49.4897 213.103 51.3458 213.861 53.1764C214.095 53.7453 214.136 54.1974 213.912 54.7918C213.378 56.2103 213.447 57.7091 214.011 59.0693C214.623 60.5425 214.546 62.0485 214.509 63.5363C214.462 65.4143 214.194 67.285 214.004 69.3344C199.578 68.6233 185.061 67.9086 170.423 67.1865L170.419 67.1902Z" fill="#224771"/>
<path d="M225.584 125.157C225.379 125.474 225.288 125.617 225.192 125.762C224.222 127.261 224.343 128.322 225.8 129.394C226.624 130 226.774 130.674 226.697 131.608C226.613 132.644 226.719 133.694 226.723 134.737C226.734 137.938 226.738 141.144 226.745 144.345C226.745 145.68 226.745 147.015 226.745 148.466C209.774 147.263 192.77 146.059 175.627 144.841C176.444 136.979 177.253 129.183 178.062 121.419C179.22 121.419 180.278 121.387 181.333 121.423C194.649 121.926 207.965 122.44 221.281 122.947C221.794 122.965 222.325 122.911 222.526 123.574C222.566 123.702 222.775 123.797 222.922 123.87C223.775 124.289 224.636 124.701 225.58 125.153L225.584 125.157Z" fill="#224771"/>
<path d="M215.576 99.3806C214.276 98.8117 213.133 98.2793 211.965 97.8126C210.918 97.3932 209.907 97.3896 209.002 98.2283C208.566 98.6294 208.05 99.2311 207.567 99.2384C206.475 99.2493 205.307 99.1253 204.311 98.7206C203.278 98.3012 202.3 97.9694 201.176 97.9657C200.788 97.9657 200.396 97.6339 200.008 97.4479C199.986 97.437 199.975 97.3968 199.949 97.3859C198.612 96.6602 197.287 95.9163 195.935 95.2162C195.228 94.8479 194.489 94.5379 193.745 94.2462C193.302 94.0712 192.826 93.9034 192.357 93.8742C184.216 93.3601 176.075 92.8678 167.933 92.3646C167.765 92.3536 167.6 92.3026 167.329 92.2515C167.527 90.5996 167.717 88.9623 167.922 87.325C168.644 81.5051 169.365 75.6888 170.09 69.8688C170.23 68.742 170.274 68.6946 171.431 68.753C178.602 69.1067 185.776 69.464 192.947 69.8178C199.66 70.1496 206.373 70.5033 213.086 70.7805C214.064 70.8206 214.419 71.1852 214.455 72.0495C214.576 74.9011 214.723 77.7564 214.8 80.608C214.873 83.208 214.873 85.8117 214.895 88.4117C214.902 89.0972 214.957 89.7937 214.847 90.4647C214.778 90.8913 214.529 91.3618 214.214 91.6644C213.73 92.1312 213.58 92.6526 213.8 93.2142C214.162 94.1404 214.492 95.125 215.078 95.909C215.913 97.0249 215.649 98.148 215.576 99.3806Z" fill="#224771"/>
<path d="M60.1864 28.5418C60.7906 27.1378 61.5194 25.5771 62.131 23.9726C62.3508 23.3928 62.3251 22.7145 62.3654 22.08C62.3837 21.8065 62.2629 21.5257 62.2519 21.245C62.186 19.3998 63.0283 18.8564 64.6214 19.0679C68.5254 19.5931 72.4074 20.2567 76.3041 20.8402C79.5598 21.3252 82.8266 21.7555 86.0824 22.2441C88.917 22.6671 91.7442 23.1412 94.5789 23.5751C96.0071 23.7939 97.4428 23.9726 99.0395 24.195C96.0401 33.4865 93.0517 42.7342 90.1255 51.8069C89.0635 51.8945 88.1369 52.0585 87.214 52.0184C86.5365 51.9893 85.8626 51.7304 85.2071 51.5116C84.3538 51.2271 83.5298 50.8625 82.6801 50.5634C82.2516 50.4139 81.7902 50.3556 81.3617 50.2061C79.7246 49.6299 78.1352 48.8933 76.4579 48.4813C74.3411 47.9561 72.162 47.7629 70.0049 48.474C69.7156 48.5688 69.3347 48.5177 69.0344 48.4193C67.3241 47.8395 65.6358 47.1575 63.7681 47.3216C63.541 47.3435 63.281 47.2852 63.0869 47.369C61.2081 48.1895 59.9227 47.07 58.7691 45.9323C57.8022 44.9805 57.0258 43.8246 56.2384 42.7087C55.5865 41.7825 54.9823 40.8636 53.7371 40.6593C53.5393 40.6265 53.3269 40.4442 53.1987 40.2728C52.1623 38.9017 50.8585 38.2088 49.0933 38.5771C48.8479 38.6282 48.5806 38.5844 48.2363 38.5844C48.4341 37.5196 48.6428 36.4913 48.8186 35.4593C49.1702 33.4063 49.5145 31.3496 49.8404 29.2893C50.1407 27.3894 50.4374 25.4896 50.6901 23.5861C50.745 23.1776 50.5436 22.7401 50.5802 22.328C50.6095 21.967 50.7084 21.5184 50.9537 21.2997C51.1515 21.121 51.6606 21.1027 51.9352 21.2267C53.1987 21.7956 53.9275 22.8932 54.4988 24.0893C54.7735 24.6691 55.1324 24.9936 55.7587 25.2307C56.7878 25.6209 57.8205 26.1058 58.6958 26.7549C59.366 27.2509 59.8018 28.0604 60.1937 28.5491L60.1864 28.5418Z" fill="#224771"/>
<path d="M278.457 104.628C279.314 103.184 280.094 101.776 280.969 100.431C281.581 99.49 281.815 98.5857 281.467 97.4808C281.207 96.6567 281.174 95.7669 280.973 94.9209C280.844 94.3812 280.669 93.8269 280.398 93.3456C279.325 91.4676 278.936 89.4656 278.669 87.3178C278.145 83.1205 279.676 79.5797 281.712 76.1884C282.412 75.0251 283.679 74.1864 284.738 73.2602C285.085 72.9575 286.411 73.5264 286.635 73.9822C286.763 74.2411 286.895 74.4964 287.034 74.7699C288.07 73.9567 287.953 72.9174 287.843 71.9183C287.733 70.8826 287.532 69.8579 287.327 68.8332C287.286 68.6254 287.096 68.3665 286.906 68.2826C286.29 68.0091 285.657 67.7721 285.009 67.5861C284.206 67.3564 283.481 67.6299 282.881 68.1513C281.91 68.9937 280.892 69.5334 279.544 69.125C279.398 69.0812 278.951 69.4568 278.933 69.661C278.882 70.2736 278.973 70.8972 279.01 71.5317C278.12 71.9401 277.34 71.5098 277.127 70.518C277.069 70.2518 276.875 69.8652 276.68 69.8215C276.409 69.7595 276.007 69.8908 275.78 70.0804C275.014 70.7295 274.446 71.5135 274.219 72.5382C273.937 73.8072 273.113 74.748 272.07 75.5612C271.33 75.0725 271.011 74.2995 270.85 73.4936C270.612 72.3084 269.817 71.5463 268.887 71.0103C266.708 69.7449 264.474 68.567 262.218 67.4439C261.332 67.0027 260.325 66.8094 259.38 66.4812C259.087 66.3791 258.735 66.2661 258.559 66.0436C257.534 64.7564 256.055 64.2276 254.571 63.5895C256.798 59.8991 260.339 57.9956 264.108 56.3875C264.617 56.1687 265.075 55.8332 265.584 55.6217C265.943 55.4722 266.474 55.257 266.715 55.4065C267.217 55.7165 267.766 56.1906 267.946 56.7157C268.162 57.3465 268.034 58.0977 268.023 58.7979C268.016 59.2464 267.95 59.6986 267.891 60.3549C269.015 60.5701 270.18 60.9238 271.359 60.9858C272.707 61.0587 273.989 61.1025 275.256 61.7188C275.864 62.0141 276.728 61.8829 277.461 61.8136C278.303 61.737 279.131 61.3979 279.966 61.3942C280.83 61.3906 281.489 61.128 282.137 60.5993C283.723 59.2938 285.518 59.4579 287.334 59.983C287.565 60.0486 287.803 60.2419 287.942 60.4388C289.169 62.1709 290.934 63.316 292.542 64.6324C292.956 64.9679 293.472 65.1976 293.82 65.5878C294.025 65.8175 294.146 66.3171 294.036 66.587C293.835 67.0829 293.516 67.7757 293.102 67.8961C292.216 68.1477 291.242 68.0966 290.301 68.144C290.03 68.1586 289.751 68.0821 289.414 68.0419C289.498 68.3811 289.561 68.6217 289.645 68.9572C290.601 68.3738 291.513 68.5743 292.443 68.9025C293.556 69.2964 294.692 69.6282 295.809 70.0074C296.047 70.0877 296.303 70.2117 296.475 70.3867C298.599 72.571 300.665 74.8465 300.716 78.0919C300.734 79.2771 300.222 80.5096 299.764 81.651C299.284 82.8543 298.577 83.9666 297.98 85.1225C297.907 85.2647 297.892 85.4325 297.889 85.4507C299.185 85.1371 300.496 84.7797 301.829 84.5172C302.346 84.4151 302.91 84.5719 303.448 84.5245C304.063 84.4734 304.734 84.8709 305.279 84.0905C305.572 83.6712 307.096 84.1051 307.554 84.5901C309.264 86.3952 310.055 88.6305 310.417 91.0117C310.674 92.6965 309.608 93.7066 307.623 93.8451C307.934 95.2782 309.169 96.4998 308.703 98.0752C308.293 99.4791 307.759 100.847 307.264 102.272C297.654 103.06 288.074 103.844 278.453 104.632L278.457 104.628Z" fill="#224771"/>
<path d="M226.987 150.012C227.558 159.569 228.602 168.963 228.935 178.681C228.188 178.375 227.628 178.244 227.185 177.945C226.5 177.481 225.881 176.92 225.262 176.369C224.717 175.884 224.131 175.757 223.431 175.961C221.607 176.493 219.769 176.413 217.89 176.22C216.279 176.052 214.634 176.088 213.008 176.18C211.836 176.245 210.752 176.205 209.687 175.636C208.991 175.264 208.229 174.983 207.467 174.765C204.702 173.97 201.974 173.12 199.018 173.124C197.883 173.124 196.704 172.398 195.62 171.858C193.796 170.95 192.228 169.463 190.02 169.441C189.548 169.437 189.361 169.182 189.324 168.755C189.291 168.328 189.255 167.902 189.236 167.475C189.108 164.536 188.958 161.597 188.866 158.658C188.815 157.031 188.892 155.398 188.848 153.771C188.837 153.392 188.636 152.94 188.368 152.685C188.244 152.564 187.574 152.728 187.456 152.936C187.196 153.399 186.896 153.403 186.471 153.33C180.762 152.327 175.049 151.335 169.335 150.336C169.141 150.303 168.951 150.252 168.654 150.187C168.757 148.896 168.83 147.62 168.999 146.354C169.021 146.183 169.541 145.949 169.819 145.964C172.54 146.124 175.261 146.329 177.982 146.522C192.217 147.532 206.449 148.539 220.684 149.549C222.772 149.698 224.856 149.851 226.983 150.008L226.987 150.012Z" fill="#224771"/>
<path d="M221.923 121.468C207.354 120.91 192.844 120.352 178.239 119.791C178.441 117.821 178.627 115.951 178.829 114.08C178.986 112.603 178.873 112.417 177.408 112.085C173.628 111.228 169.853 110.361 166.066 109.54C165.388 109.394 165.209 109.143 165.297 108.457C165.897 103.833 166.469 99.2093 167.018 94.5782C167.091 93.9692 167.322 93.8488 167.893 93.8853C176.034 94.4068 184.176 94.9027 192.313 95.4278C192.749 95.457 193.196 95.6612 193.591 95.8727C194.811 96.5254 196.173 96.8427 197.312 97.7325C198.015 98.2831 198.964 98.5128 199.667 99.1947C199.986 99.5047 200.693 99.4062 201.213 99.5266C202.007 99.7089 202.791 99.9168 203.582 100.114C204.241 100.278 204.897 100.464 205.563 100.599C206.091 100.708 206.647 100.701 207.164 100.839C208.226 101.12 208.892 100.416 209.489 99.8256C210.277 99.0489 210.987 98.9212 211.936 99.4427C212.661 99.8402 213.463 100.099 214.199 100.478C214.792 100.785 215.162 101.266 215.049 102.006C215.016 102.218 215.019 102.564 215.148 102.655C215.898 103.188 215.602 103.917 215.598 104.603C215.587 106.043 216.122 107.33 217.056 108.359C218.096 109.504 218.462 110.9 218.879 112.282C219.026 112.767 218.923 113.373 218.781 113.883C218.305 115.597 218.828 116.884 220.114 118.099C221.007 118.948 221.967 119.915 221.93 121.464L221.923 121.468Z" fill="#224771"/>
<path d="M264.566 157.364C264.207 156.89 264.02 156.51 263.72 156.273C263.313 155.952 262.852 155.61 262.361 155.5C261.167 155.23 260.94 155.03 260.933 153.823C260.933 153.538 260.933 153.25 260.907 152.966C260.838 152.251 260.482 151.959 259.71 151.959C249.518 151.952 239.325 151.912 229.133 151.879C228.991 151.879 228.851 151.846 228.65 151.821C228.558 150.486 228.408 149.159 228.386 147.831C228.317 143.488 228.287 139.145 228.254 134.799C228.243 133.438 228.291 132.082 228.28 130.722C228.273 129.81 227.855 129.07 227.141 128.512C225.892 127.531 225.867 127.411 226.742 126.185C227.485 125.15 227.357 124.541 226.262 123.884C226.189 123.841 226.112 123.804 226.035 123.76C223.827 122.531 223.468 121.995 223.116 119.359C225.325 119.242 227.526 119.118 229.73 119.005C234.978 118.739 240.226 118.487 245.471 118.196C246.115 118.159 246.588 118.287 246.932 118.83C247.009 118.951 247.108 119.064 247.218 119.151C248.617 120.285 249.133 121.813 249.294 123.542C249.437 125.051 250.624 126.014 251.407 127.181C252.026 128.1 252.766 128.939 253.363 129.868C254.301 131.334 255.535 132.253 257.326 132.308C258.391 132.341 258.67 132.592 258.545 133.665C258.318 135.656 258.655 137.384 260.142 138.912C261.347 140.152 262.325 141.625 263.335 143.04C263.654 143.485 263.72 144.101 263.951 144.615C264.156 145.071 264.368 145.552 264.694 145.928C265.258 146.581 266.104 147.04 265.969 148.094C265.969 148.12 265.972 148.156 265.991 148.174C267.265 149.647 265.566 150.873 265.639 152.247C265.654 152.51 265.452 152.784 265.474 153.046C265.58 154.512 265.152 155.847 264.559 157.364H264.566Z" fill="#224771"/>
<path d="M332.196 187.97C328.666 191.008 328.3 194.589 329.611 198.589C328.534 198.673 327.597 198.749 326.655 198.819C318.781 199.384 310.904 199.938 303.034 200.533C302.36 200.584 302.045 200.328 301.917 199.778C301.338 197.331 300.774 194.88 300.25 192.423C300.195 192.171 300.375 191.821 300.54 191.584C301.096 190.785 301.668 189.998 302.283 189.243C302.807 188.594 302.916 187.966 302.349 187.317C299.741 184.327 298.899 180.633 298.079 176.906C297.251 173.169 296.302 169.456 295.409 165.733C295.343 165.463 295.299 165.186 295.211 164.756C297.082 164.654 298.888 164.38 300.653 164.537C301.411 164.603 302.048 164.782 302.719 164.359C302.81 164.3 302.938 164.286 303.052 164.278C305.854 164.089 308.655 163.903 311.644 163.702C311.384 164.256 311.274 164.752 310.973 165.077C310.322 165.781 310.582 166.262 311.164 166.813C315.69 171.076 320.206 175.349 324.725 179.619C325.267 180.13 325.773 180.688 326.359 181.144C327.351 181.92 327.857 183.003 328.289 184.112C328.622 184.965 329.168 185.523 329.907 186.027C330.695 186.563 331.369 187.259 332.196 187.981V187.97Z" fill="#224771"/>
<path d="M215.199 92.7843C216.096 92.7041 216.836 92.5691 217.569 92.5874C227.706 92.8171 237.839 93.076 247.977 93.2984C248.64 93.313 248.976 93.5136 249.269 94.1189C250.093 95.8109 251.035 97.4483 251.884 99.133C252.071 99.5049 252.042 99.9826 252.144 100.406C252.199 100.639 252.254 100.956 252.423 101.069C254.679 102.583 256.147 104.73 257.378 107.075C257.737 107.761 257.389 108.253 256.971 108.764C255.92 110.047 254.587 110.908 253.071 111.561C252.701 111.721 252.371 112.257 252.262 112.68C252.005 113.672 251.914 114.708 251.712 115.714C251.632 116.119 251.489 116.524 251.298 116.892C250.833 117.803 250.321 118.693 249.757 119.722C249.138 119.025 248.53 118.431 248.032 117.756C247.383 116.888 246.603 116.6 245.512 116.662C238.143 117.078 230.771 117.439 223.399 117.822C221.399 117.924 219.865 116.122 220.293 114.186C220.792 111.922 220.026 109.909 218.744 108.151C217.686 106.7 216.92 105.296 217.173 103.436C217.261 102.79 216.986 102.101 216.902 101.43C216.866 101.128 216.844 100.814 216.884 100.515C216.95 99.979 217.111 99.4502 217.159 98.9105C217.29 97.4045 217.213 95.9678 216.107 94.7279C215.679 94.2466 215.529 93.5209 215.199 92.7879V92.7843Z" fill="#224771"/>
<path d="M270.982 77.1383C270.195 78.8485 268.54 80.5843 268.965 83.1478C272.491 81.299 273.66 77.667 275.582 74.5856C276.611 75.1691 276.19 76.0807 276.187 76.7663C276.179 78.3489 275.472 79.7018 274.659 81.0839C273.513 83.0348 272.198 84.9675 271.938 87.3195C271.766 88.8766 271.777 90.3972 272.33 91.9215C272.814 93.2561 273.125 94.671 273.367 96.0713C273.553 97.147 273.52 98.2592 273.59 99.4079C273.213 99.4334 272.934 99.4626 272.652 99.4663C266.65 99.5538 260.647 99.6304 254.649 99.7288C254.125 99.7361 253.825 99.6012 253.579 99.1089C252.671 97.2965 251.664 95.5316 250.792 93.7047C250.496 93.0811 250.565 92.2934 250.349 91.6188C250.144 90.9843 249.789 90.3936 249.485 89.7919C249.382 89.5913 249.192 89.4272 249.111 89.2194C248.28 87.0934 246.709 85.6494 244.841 84.4314C244.416 84.1543 244.054 83.5891 243.933 83.0931C243.552 81.5324 242.541 80.3801 241.464 79.3408C240.728 78.6261 240.439 77.8566 240.604 76.9814C240.908 75.3514 240.677 73.8636 239.714 72.4232C239.97 72.2774 240.146 72.1206 240.344 72.0695C241.889 71.6684 242.995 70.6546 243.962 69.4804C244.541 68.7766 244.614 67.9197 244.409 67.0372C244.27 66.4355 243.838 65.5968 244.083 65.2686C244.676 64.4737 245.493 63.6714 246.394 63.3177C247.797 62.7634 249.338 62.5155 250.84 62.2602C252.21 62.0268 252.869 62.5702 253.089 63.934C253.209 64.6706 253.623 64.9988 254.334 65.2686C255.319 65.6406 256.348 66.1146 257.11 66.8148C258.033 67.6608 259.142 67.9489 260.212 68.4083C261.281 68.8715 262.376 69.2799 263.42 69.7977C265.009 70.589 266.606 71.3876 268.108 72.3284C268.679 72.6858 269.049 73.4151 269.408 74.035C269.942 74.954 270.382 75.9276 270.99 77.131L270.982 77.1383Z" fill="#224771"/>
<path d="M254.832 185.112C254.894 186.25 254.96 187.391 255.022 188.529C255.084 189.685 255 190.783 254.279 191.796C253.945 192.263 253.861 192.909 253.685 193.481C253.286 194.787 252.997 196.132 252.484 197.39C252.118 198.287 251.437 199.053 250.931 199.903C250.587 200.483 250.206 201.073 250.023 201.711C249.792 202.517 250.353 203.024 251.199 202.908C251.228 202.904 251.257 202.9 251.283 202.889C254.846 201.405 258.637 201.959 262.332 201.657C262.761 201.62 262.925 201.744 263.065 202.149C263.42 203.199 263.735 204.29 264.277 205.245C264.694 205.982 265.408 206.565 266.038 207.163C266.958 208.038 267.921 208.87 268.935 209.785C267.774 210.35 267.437 210.981 267.829 211.937C268.437 213.424 269.148 214.876 269.847 216.323C270.144 216.94 270.547 217.508 270.862 218.117C271.294 218.96 270.576 220.05 269.627 220.134C267.565 220.316 265.511 220.699 263.445 220.732C261.01 220.769 258.545 220.761 256.19 219.893C255.509 219.642 254.773 219.51 254.048 219.39C252.543 219.139 251.429 218.245 250.327 217.286C248.965 216.105 247.375 215.514 245.541 215.638C244.94 215.678 244.336 215.634 243.731 215.645C243.134 215.656 242.607 215.579 242.182 216.309C241.955 216.695 240.977 216.903 240.421 216.79C238.71 216.447 237.04 215.908 235.29 215.43C235.407 213.603 235.407 211.831 235.656 210.091C236.022 207.524 236.077 204.986 235.671 202.419C235.542 201.613 235.748 200.763 235.682 199.943C235.608 199.049 235.535 198.112 235.22 197.285C233.905 193.802 232.858 190.261 232.51 186.542C232.47 186.126 232.506 185.699 232.506 185.101H254.828L254.832 185.112Z" fill="#224771"/>
<path d="M259.358 153.577C259.372 153.745 259.394 153.88 259.402 154.018C259.493 156.071 259.621 156.243 261.537 156.91C262.26 157.161 262.848 157.618 263.302 158.281C262.141 158.872 262.046 160.079 261.632 161.129C261.028 162.661 260.383 164.181 259.691 165.677C259.175 166.789 258.589 167.868 257.977 168.933C257.68 169.443 257.208 169.852 256.9 170.359C256.644 170.778 256.395 171.263 256.351 171.737C256.201 173.327 256.069 174.877 255.289 176.357C254.828 177.233 254.784 178.323 254.56 179.322C254.26 180.657 253.971 181.991 253.634 183.505H232.473C232.506 182.958 232.524 182.341 232.59 181.732C232.704 180.711 232.565 179.854 231.44 179.439C230.624 179.136 230.385 178.531 230.349 177.637C230.224 174.56 229.972 171.486 229.77 168.408C229.554 165.1 229.345 161.789 229.133 158.482C229.038 157.031 228.954 155.576 228.844 154.124C228.803 153.595 229.016 153.417 229.536 153.417C239.387 153.453 249.239 153.482 259.09 153.515C259.145 153.515 259.2 153.544 259.358 153.584V153.577Z" fill="#224771"/>
<path d="M351.516 168.43C349.704 167.186 347.905 165.99 346.147 164.732C344.327 163.43 342.536 162.092 340.764 160.728C340.163 160.269 339.563 160.134 338.838 160.287C338.024 160.458 337.19 160.535 336.376 160.717C334.586 161.126 332.806 161.056 330.989 160.841C326.712 160.338 322.423 159.904 318.138 159.485C317.655 159.437 317.109 159.572 316.659 159.765C315.871 160.108 315.099 160.509 314.384 160.983C312.945 161.935 311.378 162.311 309.667 162.318C308.382 162.325 307.1 162.46 305.643 162.548C306.661 161.702 307.58 161.005 308.422 160.229C310.466 158.343 312.678 156.706 315.066 155.266C316.19 154.587 317.208 153.628 318.036 152.6C318.999 151.404 320.112 150.481 321.445 149.792C322.361 149.318 322.87 148.585 323.097 147.619C323.441 146.167 323.441 146.175 324.939 145.981C336.644 144.464 348.348 142.958 360.049 141.401C360.991 141.277 361.467 141.598 361.785 142.346C361.961 142.758 362.115 143.21 362.13 143.648C362.218 146.386 362.397 149.132 362.283 151.863C362.17 154.569 361.053 157.012 359.559 159.255C357.845 161.826 355.885 164.189 353.516 166.213C352.769 166.851 352.179 167.678 351.509 168.426L351.516 168.43Z" fill="#224771"/>
<path d="M255.393 101.239C261.476 101.148 267.636 101.057 273.777 100.966C274.118 102.165 274.44 103.296 274.763 104.426C274.777 104.481 274.807 104.554 274.785 104.594C274.078 105.965 275.312 107.139 275.165 108.503C275.015 109.878 275.264 111.296 275.345 112.693C275.425 114.093 275.51 115.49 275.594 116.89C275.788 120.23 275.993 123.567 276.165 126.907C276.191 127.407 276.026 127.91 276.011 128.413C276.004 128.676 276.03 129.055 276.198 129.186C277.081 129.876 276.931 130.937 277.216 131.834C277.271 132.009 277.147 132.282 277.03 132.461C276.359 133.486 275.51 134.43 275.019 135.535C274.495 136.713 274.268 138.026 273.968 139.295C273.711 140.374 273.539 141.472 273.331 142.562C273.316 142.646 273.29 142.733 273.246 142.803C272.554 143.937 271.88 145.082 271.152 146.19C271.023 146.387 270.679 146.486 270.419 146.541C269.998 146.628 269.536 146.562 269.141 146.697C267.991 147.095 267.295 146.588 266.588 145.735C265.966 144.983 265.567 144.178 265.149 143.306C264.453 141.858 263.409 140.567 262.483 139.233C262.175 138.788 261.813 138.369 261.414 138.004C260.183 136.877 259.952 135.488 260.066 133.894C260.227 131.611 259.473 131.01 257.158 130.725C256.338 130.623 255.466 129.952 254.862 129.31C253.935 128.322 253.159 127.177 252.43 126.029C251.756 124.971 250.683 124.078 250.72 122.674C250.738 122.014 250.734 121.292 250.998 120.712C251.514 119.57 252.225 118.52 252.814 117.412C253.012 117.043 253.129 116.624 253.221 116.212C253.313 115.796 253.378 115.362 253.367 114.936C253.324 113.196 254.51 112.522 255.836 111.8C257.44 110.924 258.7 109.637 259.07 107.748C259.143 107.369 259.048 106.866 258.843 106.534C257.744 104.773 256.59 103.044 255.411 101.243L255.393 101.239Z" fill="#224771"/>
<path d="M300.119 198.88C297.746 199.055 295.49 199.223 293.234 199.383C289.883 199.624 286.532 199.854 283.184 200.098C282.031 200.182 281.767 200.481 281.851 201.608C281.976 203.26 282.111 204.915 282.276 206.563C282.327 207.078 282.243 207.34 281.657 207.435C279.822 207.734 277.999 208.095 276.043 208.452C276.043 207.92 276.039 207.643 276.043 207.366C276.281 194.792 276.53 182.215 276.732 169.638C276.743 168.934 276.446 168.212 276.211 167.527C276.05 167.049 275.746 166.622 275.442 166.046C277.285 165.922 279.017 165.798 280.749 165.685C284.675 165.434 288.601 165.222 292.52 164.912C293.421 164.839 293.714 165.124 293.9 165.93C295.211 171.491 296.504 177.059 297.943 182.591C298.269 183.845 299.119 184.968 299.764 186.135C300.159 186.857 300.958 187.546 300.954 188.247C300.95 188.899 300.192 189.614 299.646 190.187C298.672 191.215 298.515 192.302 298.907 193.64C299.394 195.31 299.701 197.031 300.119 198.876V198.88Z" fill="#224771"/>
<path d="M368.307 101.23C367.732 100.898 367.26 100.738 366.937 100.42C365.864 99.3738 364.59 98.8268 363.121 98.608C362.308 98.4877 361.675 98.0136 360.968 97.5687C358.873 96.256 357.598 94.192 355.862 92.5656C355.383 92.1171 354.892 92.0551 354.288 92.1682C345.509 93.7872 336.731 95.3917 327.949 96.9999C327.67 97.0509 327.388 97.0801 326.978 97.1384C326.762 96.2997 326.55 95.4829 326.341 94.677C326.656 94.3816 326.934 94.0936 327.238 93.8419C327.974 93.2293 328.245 92.4745 328.227 91.5118C328.209 90.6147 328.421 89.7177 328.491 88.8133C328.513 88.5544 328.483 88.2043 328.326 88.0402C327.868 87.5662 328.168 87.0484 328.454 86.8952C328.871 86.6728 329.084 85.9726 329.945 86.4284C330.681 86.8223 331.772 86.8259 332.636 86.6545C334.878 86.2024 337.057 85.4329 339.305 85.0391C340.675 84.7984 341.554 84.1603 342.33 83.1101C343.411 81.6551 344.583 80.2694 345.711 78.8618C344.799 77.5344 344 76.3274 343.795 74.8068C343.696 74.0921 343.762 73.505 344.209 72.9945C345.593 71.4082 347.014 69.8547 348.402 68.2758C348.758 67.871 349.168 67.4553 349.347 66.9703C349.992 65.2127 351.435 64.8152 353.05 64.6256C354.628 64.4432 356.203 64.2281 357.778 64.0457C358.682 63.94 359.587 63.8379 360.495 63.8087C360.66 63.8014 360.935 64.115 360.993 64.3265C361.404 65.7815 361.762 67.2511 362.158 68.7097C362.403 69.6177 362.755 70.5002 362.923 71.4191C363.059 72.1484 363.143 72.9507 362.986 73.6581C362.66 75.1204 362.788 75.6127 364.084 76.4405C364.231 76.5353 364.388 76.7067 364.418 76.8671C364.846 79.0186 365.275 81.1737 365.663 83.3325C365.959 84.988 366.212 86.6509 366.443 88.3174C366.476 88.5435 366.3 88.8315 366.15 89.0394C365.846 89.466 365.696 90.0203 366.183 90.2245C366.934 90.5381 367.003 91.1653 367.091 91.7306C367.534 94.6004 367.911 97.4776 368.303 100.355C368.329 100.548 368.303 100.749 368.303 101.223L368.307 101.23Z" fill="#224771"/>
<path d="M274.514 207.753C273.232 208.307 272.152 208.752 271.093 209.244C270.569 209.488 270.269 209.434 269.914 208.92C269.031 207.643 268.002 206.498 266.607 205.721C266.252 205.521 265.885 205.174 265.732 204.81C265.234 203.632 264.783 202.429 264.417 201.203C264.19 200.449 263.78 200.066 263.018 200.095C260.15 200.208 257.283 200.314 254.419 200.47C253.712 200.511 253.02 200.729 252.481 200.835C253.086 199.595 253.763 198.286 254.36 196.941C254.657 196.27 254.88 195.54 254.994 194.818C255.177 193.673 255.517 192.63 256.089 191.606C256.444 190.971 256.543 190.129 256.539 189.378C256.539 187.693 256.422 186.008 256.305 184.327C256.279 183.981 256.155 183.51 255.902 183.331C255.217 182.839 255.419 182.289 255.558 181.661C255.785 180.633 255.928 179.586 256.14 178.551C256.243 178.051 256.338 177.512 256.594 177.089C257.554 175.513 257.74 173.77 257.847 171.998C257.861 171.761 257.971 171.513 258.096 171.305C258.883 170.021 259.671 168.742 260.498 167.483C260.656 167.246 260.967 166.977 261.223 166.958C265.032 166.685 268.845 166.473 272.653 166.2C273.426 166.145 273.858 166.331 274.279 167.046C275.012 168.278 275.246 169.522 275.217 170.948C274.946 182.981 274.741 195.015 274.514 207.049C274.506 207.362 274.514 207.672 274.514 207.76V207.753Z" fill="#224771"/>
<path d="M324.917 117.755C324.657 115.939 324.405 114.159 324.152 112.383C323.471 107.57 322.8 102.753 322.097 97.9427C322.02 97.4067 322.127 97.1004 322.621 96.8488C323.397 96.4513 324.134 95.9772 324.961 95.4922C325.159 96.2507 325.331 96.9399 325.522 97.6182C325.811 98.6721 326.119 98.8653 327.199 98.6684C332.48 97.7057 337.761 96.7394 343.042 95.773C346.712 95.1021 350.388 94.442 354.054 93.7455C354.574 93.6471 354.904 93.7455 355.252 94.1357C356.439 95.4558 357.578 96.8415 358.896 98.0193C360.09 99.0878 359.907 100.2 359.526 101.473C359.291 102.257 359.046 103.066 359.013 103.876C358.933 105.765 359.793 106.939 361.54 107.573C361.551 107.599 361.566 107.624 361.577 107.65C361.936 108.758 361.965 109.681 360.672 110.316C359.962 110.662 359.431 111.369 358.801 111.891C358.636 112.026 358.402 112.117 358.189 112.153C347.265 114.013 336.336 115.862 325.408 117.714C325.273 117.736 325.137 117.74 324.914 117.758L324.917 117.755Z" fill="#224771"/>
<path d="M294.488 104.848C295.829 104.739 297.136 104.626 298.447 104.52C301.622 104.268 304.801 104.039 307.976 103.758C308.464 103.714 308.947 103.473 309.405 103.262C311.115 102.463 312.906 101.924 314.792 101.836C316.605 101.752 317.806 100.622 319.062 99.5533C319.535 99.1522 320.011 98.7584 320.608 98.2588C321.512 104.629 322.395 110.865 323.296 117.225C321.692 117.509 321.421 118.647 321.347 120.018C321.282 121.28 319.787 122.596 318.549 122.676C317.542 122.742 317.044 123.274 316.909 124.416C316.821 125.152 316.773 125.9 316.612 126.618C316.557 126.866 316.235 127.165 315.982 127.235C315.041 127.482 314.656 127.964 314.543 128.992C314.47 129.659 314.268 130.32 314.082 130.969C313.917 131.541 313.55 131.669 313.049 131.304C312.1 130.619 311.166 129.911 310.196 129.255C309.046 128.474 308.881 128.533 307.819 129.422C307.574 129.63 307.09 129.725 306.772 129.649C305.387 129.313 304.04 128.927 302.589 128.773C300.835 128.591 298.967 128.332 297.587 126.976C297.363 126.757 297.176 126.447 297.099 126.144C296.246 122.702 296.557 119.146 296.081 115.668C295.788 113.52 295.451 111.376 295.136 109.231C294.924 107.798 294.712 106.361 294.488 104.848Z" fill="#224771"/>
<path d="M261.832 165.39C262.414 163.629 262.964 161.955 263.535 160.288C263.612 160.066 263.788 159.785 263.985 159.705C265.963 158.921 266.388 157.13 266.798 155.369C267.227 153.52 267.175 153.491 269.058 153.247C281.473 151.628 293.888 150.016 306.307 148.408C306.501 148.382 306.699 148.408 306.893 148.408C307.003 148.521 307.109 148.63 307.219 148.743C306.955 148.849 306.596 148.885 306.446 149.082C306.252 149.334 306.226 149.71 306.127 150.034C306.483 150.136 306.966 150.435 307.164 150.304C307.666 149.972 308.149 149.513 308.431 148.991C308.815 148.284 309.292 147.996 310.09 147.901C313.712 147.474 317.327 146.978 320.941 146.512C321.19 146.479 321.443 146.486 321.714 146.475C321.688 147.452 321.403 148.174 320.491 148.601C318.978 149.308 317.759 150.377 316.832 151.766C315.975 153.054 314.682 153.786 313.408 154.57C312.364 155.212 311.346 155.916 310.383 156.671C308.566 158.093 306.827 159.614 304.985 161.007C304.102 161.674 303.106 162.225 302.088 162.659C301.469 162.921 300.711 162.888 300.011 162.932C291.5 163.479 282.985 164.015 274.474 164.562C270.691 164.806 266.908 165.062 263.128 165.313C262.7 165.343 262.275 165.372 261.832 165.401V165.39Z" fill="#224771"/>
<path d="M267.276 151.906C267.679 150.678 268.034 149.598 268.448 148.34C268.785 148.289 269.312 148.129 269.836 148.147C271.795 148.22 272.663 147.013 273.348 145.43C273.747 144.507 274.179 143.443 274.926 142.874C275.772 142.228 276.541 141.189 278.054 141.568C278.856 141.769 279.947 141.251 280.771 140.81C281.639 140.347 282.346 139.577 283.13 138.954C283.811 138.41 284.492 138.272 285.353 138.684C285.975 138.983 286.763 139.183 287.426 139.078C287.938 138.998 288.484 138.465 288.803 137.987C289.195 137.4 289.462 136.996 290.312 137.087C291.246 137.185 291.718 136.328 292.245 135.694C293.227 134.512 294.142 133.261 295.219 132.171C295.955 131.427 296.757 130.833 296.768 129.651C296.768 129.356 297.083 129.061 297.178 128.896C298.691 129.334 300.112 129.921 301.584 130.129C303.463 130.392 305.279 130.826 307.114 131.267C307.7 131.405 308.451 130.851 309.128 130.61C309.128 130.523 309.125 130.432 309.121 130.344C309.561 130.647 310.007 130.939 310.44 131.252C310.923 131.606 311.348 132.062 311.875 132.324C312.798 132.78 313.336 133.327 313.439 134.461C313.505 135.165 314.105 135.883 314.618 136.467C315.647 137.645 315.673 137.601 314.838 138.848C314.626 139.165 314.541 139.574 314.446 139.953C314.289 140.587 313.985 141.003 313.281 141.142C312.824 141.233 312.348 141.441 311.981 141.725C310.63 142.775 309.546 144.055 308.832 145.627C308.531 146.287 308.07 146.666 307.272 146.768C294.311 148.428 281.354 150.12 268.393 151.804C268.089 151.844 267.781 151.859 267.283 151.903L267.276 151.906Z" fill="#224771"/>
<path d="M276.549 106.31C282.09 105.858 287.546 105.41 292.959 104.969C293.428 107.9 293.948 110.759 294.318 113.636C294.615 115.926 294.717 118.242 294.922 120.547C295.05 121.994 295.197 123.438 295.365 124.882C295.409 125.265 295.475 125.51 295.032 125.783C294.384 126.184 294.589 126.815 295.072 127.224C295.691 127.745 295.578 128.157 295.442 128.93C295.131 130.702 293.498 131.304 292.714 132.613C292.238 133.412 291.564 134.094 290.996 134.838C290.634 135.315 290.293 135.658 289.572 135.512C288.634 135.323 288.213 136.081 287.803 136.741C287.235 137.656 286.913 137.831 285.95 137.31C284.51 136.53 283.298 136.902 282.13 137.806C281.474 138.313 280.848 138.863 280.204 139.389C279.427 140.023 278.574 140.191 277.559 140.056C276.871 139.965 276.135 140.231 275.428 140.333C275.362 137.831 276.358 135.629 277.981 133.714C278.739 132.817 278.951 131.924 278.555 130.874C277.362 127.698 277.585 124.346 277.354 121.057C277.028 116.382 276.805 111.7 276.541 107.018C276.53 106.821 276.541 106.628 276.541 106.314L276.549 106.31Z" fill="#224771"/>
<path d="M350.61 169.654C347.937 172.247 345.146 174.351 341.714 175.503C339.828 176.134 338.667 177.283 338.671 179.664C338.671 182.173 337.298 184.117 335.496 185.754C334.877 186.319 334.134 186.749 333.602 187.132C332.372 186.137 331.16 185.327 330.175 184.299C329.552 183.646 329.281 182.665 328.82 181.848C328.574 181.414 328.318 180.951 327.959 180.612C322.978 175.875 317.983 171.153 312.969 166.449C312.5 166.008 312.453 165.687 312.658 165.071C313.156 163.572 314.196 162.759 315.536 162.015C316.965 161.223 318.316 160.954 319.938 161.161C324.209 161.708 328.486 162.226 332.778 162.496C334.687 162.616 336.642 162.15 338.561 161.862C339.246 161.759 339.751 161.862 340.297 162.277C342.762 164.148 345.245 165.993 347.75 167.816C348.643 168.465 349.61 169.02 350.603 169.654H350.61Z" fill="#224771"/>
<path d="M310.201 146.099C311.27 144.703 311.955 142.96 314.046 142.54C315.042 142.34 315.544 141.472 315.885 140.553C316.108 139.955 316.346 139.36 316.636 138.617C317.485 139.587 318.507 140.134 318.705 141.373C318.745 141.621 319.203 141.928 319.499 141.971C319.683 141.997 319.954 141.585 320.14 141.337C320.649 140.659 321.118 139.951 321.638 139.28C321.722 139.171 321.997 139.16 322.173 139.178C324.059 139.36 325.795 139.007 327.348 137.862C328.608 136.932 329.801 135.969 330.281 134.39C330.325 134.248 330.479 134.098 330.622 134.026C332.12 133.26 332.83 131.965 333.185 130.394C333.237 130.164 333.574 129.941 333.83 129.836C334.05 129.748 334.339 129.817 334.595 129.843C335.775 129.96 336.654 129.456 337.324 128.534C337.712 128.001 338.012 127.392 338.47 126.929C338.972 126.422 339.613 126.061 340.177 125.609C340.638 125.241 341.147 124.894 341.506 124.439C342.348 123.359 343.114 122.218 343.993 120.985C345.143 121.492 346.329 121.923 347.413 122.531C348.179 122.962 348.582 123.695 348.527 124.687C348.399 126.995 349.607 128.472 351.79 129.216C352.907 129.595 353.918 130.306 354.939 130.93C355.112 131.035 355.174 131.466 355.148 131.732C354.954 133.737 355.049 135.688 355.855 137.581C356.419 138.901 357.62 139.335 358.792 140.057C342.645 142.154 326.494 144.254 310.347 146.351C310.296 146.267 310.249 146.18 310.197 146.096L310.201 146.099Z" fill="#224771"/>
<path d="M319.748 139.087C318.228 137.712 316.731 136.429 315.321 135.054C314.584 134.335 314.698 133.358 315.009 132.468C315.427 131.276 315.925 130.113 316.438 128.804C317.507 128.92 317.924 128.067 318.104 126.98C318.221 126.277 318.36 125.573 318.408 124.865C318.441 124.358 318.609 124.176 319.129 124.165C320.111 124.147 320.865 123.662 321.448 122.882C322.239 121.824 323.099 120.799 322.949 119.534C323.747 119.45 324.473 119.406 325.183 119.293C326.714 119.053 328.237 118.772 329.768 118.52C330.742 118.36 330.951 118.517 331.149 119.523C331.35 120.559 331.512 121.602 331.757 122.626C331.984 123.563 332.694 123.859 333.423 123.235C334.57 122.258 335.672 121.208 336.672 120.081C337.327 119.348 337.961 118.801 338.997 118.914C339.99 119.02 341.011 119.002 341.975 119.235C342.909 119.465 342.956 119.778 342.41 120.57C341.696 121.605 340.964 122.63 340.22 123.647C340.074 123.848 339.876 124.114 339.667 124.154C338.265 124.417 337.617 125.522 336.877 126.535C336.723 126.743 336.562 126.948 336.437 127.17C335.95 128.074 335.232 128.508 334.181 128.333C333.929 128.293 333.665 128.315 333.409 128.333C332.332 128.406 331.848 128.833 331.695 129.883C331.504 131.167 330.926 132.144 329.743 132.8C329.34 133.023 329.039 133.533 328.82 133.978C327.904 135.827 326.498 137.023 324.458 137.482C323.586 137.679 322.766 137.895 321.865 137.497C321.623 137.391 321.111 137.69 320.832 137.931C320.36 138.336 319.972 138.839 319.745 139.091L319.748 139.087Z" fill="#224771"/>
<path d="M368.31 125.009C368.2 126.056 367.68 126.632 366.914 127.066C366.643 127.219 366.431 127.518 366.252 127.792C365.472 128.97 364.761 130.202 363.926 131.34C363.347 132.128 362.501 132.164 361.546 131.923C359.517 131.416 358.26 129.958 357.1 128.43C356.88 128.138 357.125 127.135 357.477 126.844C358.762 125.772 358.323 124.499 358.099 123.248C357.803 121.585 357.433 119.937 357.034 117.979C356.667 118.799 356.25 119.386 356.155 120.025C355.898 121.757 355.726 123.507 355.62 125.254C355.539 126.581 355.605 127.916 355.605 129.48C355.012 129.181 354.693 129.017 354.375 128.857C353.536 128.441 352.708 127.992 351.852 127.62C350.588 127.073 349.958 126.224 350.057 124.809C350.196 122.825 349.163 121.647 347.497 120.867C346.691 120.491 345.856 120.185 345.051 119.813C344.754 119.675 344.373 119.489 344.256 119.222C343.758 118.096 342.747 117.756 341.707 117.57C340.755 117.399 339.762 117.443 338.792 117.377C337.532 117.293 336.605 117.884 335.785 118.767C334.939 119.682 334.045 120.553 333.031 121.589C332.819 120.324 332.639 119.248 332.441 118.059C341.198 116.571 349.954 115.087 358.792 113.585C359.293 115.773 359.777 117.884 360.256 119.992C360.623 121.607 360.978 123.226 361.355 124.842C361.604 125.907 361.915 126.114 362.996 125.928C364.743 125.629 366.49 125.319 368.313 125.002L368.31 125.009Z" fill="#224771"/>
<path d="M366.969 81.9205C366.625 80.079 366.346 78.2848 365.929 76.5235C365.808 76.0167 365.372 75.4733 364.925 75.1816C364.449 74.8716 364.241 74.62 364.464 74.1022C364.991 72.8697 364.676 71.7173 364.226 70.5395C363.933 69.7737 363.79 68.9496 363.589 68.1473C363.226 66.6814 362.875 65.2155 362.508 63.7095C365.618 62.6337 368.785 61.5397 371.968 60.4385C371.917 60.7885 371.917 61.2517 371.774 61.6674C371.404 62.7395 371.715 63.6766 372.213 64.6175C372.766 65.6677 372.7 65.912 371.84 66.6668C370.877 67.5128 370.609 68.6579 370.642 69.8467C370.704 72.1258 370.913 74.4049 370.961 76.684C370.99 77.9931 370.847 79.3059 370.715 80.6114C370.69 80.8557 370.386 81.213 370.148 81.275C369.133 81.5376 368.097 81.7053 366.976 81.9241L366.969 81.9205Z" fill="#224771"/>
<path d="M367.908 88.3869C367.7 86.8554 367.487 85.3967 367.308 83.9381C367.231 83.3218 367.733 83.2453 368.157 83.2124C369.882 83.0812 371.49 82.5342 373.134 82.0419C376.119 81.1521 379.177 80.4884 382.213 79.7664C382.913 79.6023 383.491 79.7154 383.96 80.4811C384.601 81.5277 385.465 82.443 386.253 83.3948C386.355 83.5187 386.59 83.6063 386.754 83.5917C389.084 83.4093 390.065 84.6091 389.377 86.8663C388.904 88.4125 387.578 89.0615 386.216 89.6195C386.066 89.6815 385.755 89.4627 385.568 89.3132C384.286 88.2994 382.993 87.3002 381.755 86.2354C381.118 85.6885 380.488 85.5973 379.694 85.7833C376.115 86.611 372.53 87.3987 368.945 88.1973C368.674 88.2593 368.395 88.2994 367.908 88.3869Z" fill="#224771"/>
<path d="M372.333 80.5913C372.333 80.1173 372.34 79.7198 372.333 79.326C372.285 76.591 372.23 73.8561 372.197 71.1212C372.186 70.3846 372.146 69.6261 372.304 68.9186C372.41 68.4336 372.765 67.9486 373.135 67.5913C374.109 66.6578 374.519 65.6258 373.823 64.5245C372.732 62.796 373.483 61.1988 373.816 59.2734C376.515 65.7461 378.291 72.3173 381.587 78.1773C378.485 78.9868 375.449 79.7782 372.337 80.5913H372.333Z" fill="#224771"/>
<path d="M367.084 102.511C366.337 103.077 366.732 103.576 367.172 104.291C368.292 106.114 368.644 108.105 367.435 110.045C366.501 111.544 365.97 113.13 365.758 114.866C365.633 115.883 364.817 116.168 364.059 115.493C363.121 114.654 362.22 113.779 361.286 112.937C360.883 112.572 360.814 112.24 361.246 111.872C361.612 111.558 362.008 111.278 362.359 110.946C362.704 110.621 363.286 110.242 363.275 109.899C363.246 108.758 363.037 107.613 362.799 106.49C362.751 106.267 362.282 106.059 361.975 105.976C361.1 105.735 360.517 105.151 360.554 104.247C360.583 103.521 360.766 102.799 360.916 102.085C361.074 101.341 361.275 100.608 361.451 99.8931C363.696 99.9259 365.509 100.903 367.084 102.508V102.511Z" fill="#224771"/>
<path d="M369.949 99.3906C369.407 96.24 368.872 93.1331 368.315 89.9058C371.227 89.2531 374.175 88.5931 377.171 87.9185C377.614 89.3224 378.035 90.6461 378.453 91.9589C376.819 92.5533 375.911 93.9317 374.893 95.1788C374.538 95.6164 374.19 96.0759 373.937 96.5718C373.091 98.2419 371.454 98.7597 369.945 99.3906H369.949Z" fill="#224771"/>
<path d="M362.814 124.431C362.048 121.065 361.312 117.816 360.558 114.487C361.528 114.873 361.905 115.614 362.312 116.368C362.583 116.875 362.934 117.371 363.352 117.765C364.425 118.772 365.546 119.727 366.663 120.69C367.479 121.393 367.457 122.396 367.644 123.322C367.662 123.406 367.454 123.607 367.329 123.632C365.868 123.906 364.403 124.158 362.817 124.435L362.814 124.431Z" fill="#224771"/>
<path d="M384.495 90.4166C383.03 91.1495 381.723 91.8023 380.269 92.5316C379.716 90.8469 379.207 89.2934 378.705 87.7619C379.888 87.0799 380.393 87.1055 381.309 87.8421C382.327 88.6626 383.342 89.483 384.495 90.4166Z" fill="#224771"/>
<g clip-path="url(#clip0_1001_2576)">
<path d="M364.97 82.4406C366.873 82.4406 368.417 80.8413 368.417 78.8684C368.417 76.8955 366.873 75.2961 364.97 75.2961C363.067 75.2961 361.523 76.8955 361.523 78.8684C361.523 80.8413 363.067 82.4406 364.97 82.4406Z" fill="white"/>
<path d="M364.74 73.3922C364.723 73.3897 364.704 73.3872 364.687 73.3872H364.678C361.621 73.3897 359.114 75.8051 359.114 78.8039C359.114 79.7646 359.382 80.6632 359.83 81.4427C359.835 81.4502 359.832 81.4601 359.837 81.4651C359.842 81.4799 359.849 81.4948 359.859 81.5097C360.491 82.607 361.15 83.6968 361.801 84.789L362.172 85.4121L362.481 85.9235L362.987 86.77L364.393 89.1209C364.522 89.3418 364.886 89.3418 365.018 89.1209L366.359 86.8395H366.361L366.438 86.708L367.192 85.4171L367.458 84.9653C367.952 84.1213 368.982 82.3612 369.482 81.5395V81.5321L369.492 81.5172C369.492 81.5172 369.497 81.5122 369.497 81.5097C369.925 80.6185 370.234 79.6355 370.241 78.8039C370.244 75.825 367.77 73.4269 364.74 73.3922ZM364.682 81.7034C362.941 81.7034 361.523 80.3306 361.523 78.6475C361.523 76.9644 362.941 75.5866 364.682 75.5866C366.424 75.5866 367.841 76.9619 367.841 78.6475C367.841 80.3331 366.424 81.7034 364.682 81.7034Z" fill="#FF554D"/>
</g>
<g clip-path="url(#clip1_1001_2576)">
<path d="M287.06 150.809C288.964 150.809 290.507 149.209 290.507 147.237C290.507 145.264 288.964 143.664 287.06 143.664C285.157 143.664 283.614 145.264 283.614 147.237C283.614 149.209 285.157 150.809 287.06 150.809Z" fill="white"/>
<path d="M286.83 141.76C286.813 141.758 286.794 141.755 286.777 141.755H286.768C283.712 141.758 281.204 144.173 281.204 147.172C281.204 148.133 281.472 149.031 281.92 149.811C281.925 149.818 281.923 149.828 281.927 149.833C281.932 149.848 281.939 149.863 281.949 149.878C282.581 150.975 283.24 152.065 283.891 153.157L284.263 153.78L284.572 154.292L285.077 155.138L286.483 157.489C286.612 157.71 286.976 157.71 287.108 157.489L288.449 155.208H288.452L288.528 155.076L289.283 153.785L289.549 153.333C290.042 152.489 291.072 150.729 291.572 149.908V149.9L291.582 149.885C291.582 149.885 291.587 149.88 291.587 149.878C292.016 148.987 292.325 148.004 292.332 147.172C292.334 144.193 289.86 141.795 286.83 141.76ZM286.773 150.072C285.031 150.072 283.614 148.699 283.614 147.016C283.614 145.333 285.031 143.955 286.773 143.955C288.514 143.955 289.932 145.33 289.932 147.016C289.932 148.701 288.514 150.072 286.773 150.072Z" fill="#FF554D"/>
</g>
<g clip-path="url(#clip2_1001_2576)">
<path d="M308.011 209.109C310.005 209.109 311.621 207.51 311.621 205.537C311.621 203.564 310.005 201.965 308.011 201.965C306.016 201.965 304.4 203.564 304.4 205.537C304.4 207.51 306.016 209.109 308.011 209.109Z" fill="white"/>
<path d="M307.768 200.06C307.751 200.057 307.731 200.055 307.713 200.055H307.703C304.502 200.057 301.875 202.473 301.875 205.472C301.875 206.432 302.156 207.331 302.625 208.11C302.63 208.118 302.627 208.128 302.632 208.133C302.637 208.148 302.645 208.163 302.655 208.177C303.317 209.275 304.007 210.364 304.69 211.457L305.079 212.08L305.402 212.591L305.932 213.438L307.405 215.789C307.54 216.01 307.922 216.01 308.06 215.789L309.465 213.507H309.467L309.547 213.376L310.338 212.085L310.616 211.633C311.133 210.789 312.212 209.029 312.737 208.207V208.2L312.747 208.185C312.747 208.185 312.752 208.18 312.752 208.177C313.201 207.286 313.524 206.303 313.532 205.472C313.535 202.493 310.943 200.095 307.768 200.06ZM307.708 208.371C305.884 208.371 304.399 206.998 304.399 205.315C304.399 203.632 305.884 202.254 307.708 202.254C309.532 202.254 311.018 203.63 311.018 205.315C311.018 207.001 309.532 208.371 307.708 208.371Z" fill="#FF554D"/>
</g>
<g clip-path="url(#clip3_1001_2576)">
<path d="M275.149 146.038C277.143 146.038 278.76 144.439 278.76 142.466C278.76 140.493 277.143 138.894 275.149 138.894C273.155 138.894 271.539 140.493 271.539 142.466C271.539 144.439 273.155 146.038 275.149 146.038Z" fill="white"/>
<path d="M274.908 136.99C274.89 136.987 274.87 136.985 274.852 136.985H274.842C271.641 136.987 269.014 139.403 269.014 142.402C269.014 143.362 269.295 144.261 269.764 145.04C269.769 145.048 269.766 145.058 269.771 145.063C269.776 145.078 269.784 145.092 269.794 145.107C270.456 146.205 271.146 147.294 271.829 148.387L272.218 149.01L272.542 149.521L273.071 150.368L274.544 152.719C274.679 152.939 275.061 152.939 275.199 152.719L276.604 150.437H276.606L276.687 150.306L277.477 149.015L277.756 148.563C278.272 147.719 279.351 145.959 279.876 145.137V145.13L279.886 145.115C279.886 145.115 279.891 145.11 279.891 145.107C280.34 144.216 280.664 143.233 280.671 142.402C280.674 139.423 278.082 137.025 274.908 136.99ZM274.847 145.301C273.023 145.301 271.538 143.928 271.538 142.245C271.538 140.562 273.023 139.184 274.847 139.184C276.672 139.184 278.157 140.56 278.157 142.245C278.157 143.931 276.672 145.301 274.847 145.301Z" fill="#FF554D"/>
</g>
<g clip-path="url(#clip4_1001_2576)">
<path d="M277.802 117.952C279.796 117.952 281.412 116.352 281.412 114.38C281.412 112.407 279.796 110.807 277.802 110.807C275.807 110.807 274.191 112.407 274.191 114.38C274.191 116.352 275.807 117.952 277.802 117.952Z" fill="white"/>
<path d="M277.56 108.902C277.543 108.9 277.523 108.897 277.505 108.897H277.495C274.294 108.9 271.667 111.315 271.667 114.314C271.667 115.275 271.948 116.173 272.417 116.953C272.422 116.96 272.419 116.97 272.424 116.975C272.429 116.99 272.437 117.005 272.447 117.02C273.109 118.117 273.799 119.207 274.482 120.299L274.871 120.922L275.194 121.434L275.724 122.28L277.197 124.631C277.332 124.852 277.714 124.852 277.852 124.631L279.257 122.35H279.259L279.339 122.218L280.13 120.927L280.408 120.476C280.925 119.632 282.004 117.871 282.529 117.05V117.042L282.539 117.027C282.539 117.027 282.544 117.022 282.544 117.02C282.993 116.129 283.316 115.146 283.324 114.314C283.327 111.335 280.735 108.937 277.56 108.902ZM277.5 117.214C275.676 117.214 274.191 115.841 274.191 114.158C274.191 112.475 275.676 111.097 277.5 111.097C279.324 111.097 280.81 112.472 280.81 114.158C280.81 115.843 279.324 117.214 277.5 117.214Z" fill="#FF554D"/>
</g>
<g clip-path="url(#clip5_1001_2576)">
<path d="M334.511 115.299C336.505 115.299 338.121 113.7 338.121 111.727C338.121 109.754 336.505 108.155 334.511 108.155C332.516 108.155 330.9 109.754 330.9 111.727C330.9 113.7 332.516 115.299 334.511 115.299Z" fill="white"/>
<path d="M334.268 106.25C334.251 106.248 334.231 106.245 334.213 106.245H334.203C331.002 106.248 328.375 108.663 328.375 111.662C328.375 112.622 328.656 113.521 329.125 114.301C329.13 114.308 329.127 114.318 329.132 114.323C329.137 114.338 329.145 114.353 329.155 114.368C329.817 115.465 330.507 116.555 331.19 117.647L331.579 118.27L331.902 118.781L332.432 119.628L333.905 121.979C334.04 122.2 334.422 122.2 334.56 121.979L335.965 119.697H335.967L336.047 119.566L336.838 118.275L337.116 117.823C337.633 116.979 338.712 115.219 339.237 114.397V114.39L339.247 114.375C339.247 114.375 339.252 114.37 339.252 114.368C339.701 113.476 340.024 112.493 340.032 111.662C340.035 108.683 337.443 106.285 334.268 106.25ZM334.208 114.561C332.384 114.561 330.899 113.188 330.899 111.505C330.899 109.822 332.384 108.445 334.208 108.445C336.032 108.445 337.518 109.82 337.518 111.505C337.518 113.191 336.032 114.561 334.208 114.561Z" fill="#FF554D"/>
</g>
<g clip-path="url(#clip6_1001_2576)">
<path d="M209.682 174.127C211.586 174.127 213.129 172.528 213.129 170.555C213.129 168.582 211.586 166.983 209.682 166.983C207.779 166.983 206.236 168.582 206.236 170.555C206.236 172.528 207.779 174.127 209.682 174.127Z" fill="white"/>
<path d="M209.45 165.08C209.433 165.077 209.414 165.075 209.397 165.075H209.388C206.331 165.077 203.824 167.493 203.824 170.492C203.824 171.452 204.092 172.351 204.54 173.13C204.545 173.138 204.542 173.148 204.547 173.153C204.552 173.168 204.559 173.183 204.569 173.197C205.201 174.295 205.86 175.385 206.511 176.477L206.882 177.1L207.191 177.611L207.697 178.458L209.103 180.809C209.232 181.03 209.596 181.03 209.728 180.809L211.069 178.527H211.071L211.148 178.396L211.902 177.105L212.168 176.653C212.662 175.809 213.692 174.049 214.192 173.227V173.22L214.202 173.205C214.202 173.205 214.206 173.2 214.206 173.197C214.635 172.306 214.944 171.323 214.951 170.492C214.954 167.513 212.48 165.115 209.45 165.08ZM209.392 173.391C207.651 173.391 206.233 172.018 206.233 170.335C206.233 168.652 207.651 167.274 209.392 167.274C211.134 167.274 212.551 168.65 212.551 170.335C212.551 172.021 211.134 173.391 209.392 173.391Z" fill="#FF554D"/>
</g>
<g clip-path="url(#clip7_1001_2576)">
<path d="M199.361 205.398C201.355 205.398 202.971 203.798 202.971 201.825C202.971 199.853 201.355 198.253 199.361 198.253C197.367 198.253 195.75 199.853 195.75 201.825C195.75 203.798 197.367 205.398 199.361 205.398Z" fill="white"/>
<path d="M199.121 196.349C199.103 196.346 199.083 196.344 199.065 196.344H199.055C195.854 196.346 193.227 198.762 193.227 201.761C193.227 202.721 193.508 203.62 193.977 204.399C193.982 204.407 193.979 204.417 193.984 204.422C193.989 204.437 193.997 204.452 194.007 204.467C194.669 205.564 195.359 206.654 196.042 207.746L196.431 208.369L196.754 208.88L197.284 209.727L198.757 212.078C198.892 212.299 199.274 212.299 199.412 212.078L200.817 209.796H200.819L200.9 209.665L201.69 208.374L201.968 207.922C202.485 207.078 203.564 205.318 204.089 204.496V204.489L204.099 204.474C204.099 204.474 204.104 204.469 204.104 204.467C204.553 203.575 204.877 202.592 204.884 201.761C204.887 198.782 202.295 196.384 199.121 196.349ZM199.06 204.66C197.236 204.66 195.751 203.287 195.751 201.604C195.751 199.921 197.236 198.543 199.06 198.543C200.884 198.543 202.37 199.919 202.37 201.604C202.37 203.29 200.884 204.66 199.06 204.66Z" fill="#FF554D"/>
</g>
<g clip-path="url(#clip8_1001_2576)">
<path d="M74.2816 153.46C76.2757 153.46 77.8922 151.861 77.8922 149.888C77.8922 147.915 76.2757 146.316 74.2816 146.316C72.2874 146.316 70.6709 147.915 70.6709 149.888C70.6709 151.861 72.2874 153.46 74.2816 153.46Z" fill="white"/>
<path d="M74.037 144.408C74.0195 144.406 73.9994 144.403 73.9818 144.403H73.9718C70.7701 144.406 68.1431 146.821 68.1431 149.82C68.1431 150.78 68.4241 151.679 68.8933 152.459C68.8983 152.466 68.8958 152.476 68.9008 152.481C68.9058 152.496 68.9134 152.511 68.9234 152.526C69.5858 153.623 70.2758 154.713 70.9583 155.805L71.3472 156.428L71.6709 156.939L72.2004 157.786L73.6732 160.137C73.8087 160.358 74.1901 160.358 74.3281 160.137L75.7332 157.855H75.7357L75.816 157.724L76.6064 156.433L76.8849 155.981C77.4018 155.137 78.4807 153.377 79.0052 152.555V152.548L79.0152 152.533C79.0152 152.533 79.0202 152.528 79.0202 152.526C79.4693 151.634 79.793 150.651 79.8006 149.82C79.8031 146.841 77.2111 144.443 74.037 144.408ZM73.9768 152.719C72.1527 152.719 70.6673 151.346 70.6673 149.663C70.6673 147.98 72.1527 146.603 73.9768 146.603C75.801 146.603 77.2864 147.978 77.2864 149.663C77.2864 151.349 75.801 152.719 73.9768 152.719Z" fill="#FF554D"/>
</g>
<g clip-path="url(#clip9_1001_2576)">
<path d="M80.6414 44.8083C82.6355 44.8083 84.2521 43.2089 84.2521 41.236C84.2521 39.2632 82.6355 37.6638 80.6414 37.6638C78.6473 37.6638 77.0308 39.2632 77.0308 41.236C77.0308 43.2089 78.6473 44.8083 80.6414 44.8083Z" fill="white"/>
<path d="M80.3984 35.7601C80.3808 35.7576 80.3607 35.7551 80.3432 35.7551H80.3331C77.1315 35.7576 74.5044 38.173 74.5044 41.1718C74.5044 42.1325 74.7854 43.0311 75.2546 43.8106C75.2596 43.8181 75.2571 43.828 75.2622 43.833C75.2672 43.8479 75.2747 43.8628 75.2847 43.8777C75.9472 44.9749 76.6372 46.0647 77.3197 47.157L77.7086 47.78L78.0323 48.2914L78.5617 49.1379L80.0346 51.4888C80.17 51.7097 80.5514 51.7097 80.6894 51.4888L82.0946 49.2074H82.0971L82.1774 49.0759L82.9677 47.785L83.2463 47.3332C83.7631 46.4892 84.8421 44.7291 85.3665 43.9074V43.9L85.3765 43.8851C85.3765 43.8851 85.3815 43.8801 85.3815 43.8777C85.8307 42.9865 86.1544 42.0034 86.1619 41.1718C86.1644 38.1929 83.5724 35.7948 80.3984 35.7601ZM80.3382 44.0713C78.514 44.0713 77.0286 42.6985 77.0286 41.0154C77.0286 39.3323 78.514 37.9546 80.3382 37.9546C82.1623 37.9546 83.6477 39.3298 83.6477 41.0154C83.6477 42.701 82.1623 44.0713 80.3382 44.0713Z" fill="#FF554D"/>
</g>
<defs>
<clipPath id="clip0_1001_2576">
<rect width="11.13" height="15.9" fill="white" transform="translate(359.116 73.3877)"/>
</clipPath>
<clipPath id="clip1_1001_2576">
<rect width="11.13" height="15.9" fill="white" transform="translate(281.207 141.758)"/>
</clipPath>
<clipPath id="clip2_1001_2576">
<rect width="11.66" height="15.9" fill="white" transform="translate(301.875 200.058)"/>
</clipPath>
<clipPath id="clip3_1001_2576">
<rect width="11.66" height="15.9" fill="white" transform="translate(269.015 136.987)"/>
</clipPath>
<clipPath id="clip4_1001_2576">
<rect width="11.66" height="15.9" fill="white" transform="translate(271.666 108.898)"/>
</clipPath>
<clipPath id="clip5_1001_2576">
<rect width="11.66" height="15.9" fill="white" transform="translate(328.375 106.248)"/>
</clipPath>
<clipPath id="clip6_1001_2576">
<rect width="11.13" height="15.9" fill="white" transform="translate(203.832 165.075)"/>
</clipPath>
<clipPath id="clip7_1001_2576">
<rect width="11.66" height="15.9" fill="white" transform="translate(193.232 196.345)"/>
</clipPath>
<clipPath id="clip8_1001_2576">
<rect width="11.66" height="15.9" fill="white" transform="translate(68.1504 144.405)"/>
</clipPath>
<clipPath id="clip9_1001_2576">
<rect width="11.66" height="15.9" fill="white" transform="translate(74.5107 35.7549)"/>
</clipPath>
</defs>
</svg>
