<svg width="320" height="121" viewBox="0 0 320 121" fill="none" xmlns="http://www.w3.org/2000/svg">
<g opacity="0.8">
<circle cx="164.855" cy="64.8548" r="115.765" fill="url(#paint0_radial_994_1674)" fill-opacity="0.7"/>
<circle cx="164.855" cy="64.8549" r="140.361" fill="url(#paint1_radial_994_1674)" fill-opacity="0.4"/>
<circle cx="164.855" cy="64.8547" r="172.5" fill="url(#paint2_radial_994_1674)" fill-opacity="0.3"/>
<circle cx="164.855" cy="64.8548" r="92.8089" fill="url(#paint3_radial_994_1674)" fill-opacity="0.6"/>
<circle cx="164.855" cy="64.8546" r="67.557" fill="url(#paint4_radial_994_1674)" fill-opacity="0.6"/>
<circle cx="164.855" cy="64.8547" r="41.3213" fill="#3870B5" fill-opacity="0.7"/>
<g opacity="0.6">
<path d="M205.52 72.3976L164.691 65.0188" stroke="#002555" stroke-width="0.653715" stroke-dasharray="2.61 3.92"/>
<path d="M164.84 65.0034L140.05 31.7322" stroke="#002555" stroke-width="0.653715" stroke-dasharray="2.61 3.92"/>
<path d="M162.23 128.804L164.016 73.7092" stroke="#002555" stroke-width="0.653715" stroke-dasharray="2.61 3.92"/>
<path d="M164.99 66.1882L117.105 99.691L84.4192 145.451M101.252 73.8694L163.682 65.6979M101.252 73.8694L74.45 91.5197M101.252 73.8694L86.3804 28.4361M99.9451 -27.6199L176.103 -0.981004L161.395 -27.7833M199.473 25.8213L205.03 -43.1456M199.473 25.8213L224.641 64.3905M199.473 25.8213L262.557 22.7162M221.863 108.68L197.349 157.872M213.855 195.297L135.246 148.556L77.065 174.051M204.049 -44.6165L239.84 -54.5857M221.046 106.882L273.18 105.738M244.09 10.459L264.191 22.7162M160.087 -28.6005L182.478 -73.7068L152.897 -79.7537" stroke="#002555" stroke-width="0.653715" stroke-dasharray="2.61 3.92"/>
<path d="M140.259 29.9371L170.687 1.73071" stroke="#002555" stroke-width="0.653715" stroke-dasharray="2.61 3.92"/>
<path d="M219.622 106.832L204.536 76.0049" stroke="#002555" stroke-width="0.653715" stroke-dasharray="2.61 3.92"/>
<circle cx="164.855" cy="65.8385" r="10.1674" fill="#3870B5" stroke="#002555" stroke-width="0.653715"/>
<circle cx="139.931" cy="31.7321" r="3.93645" fill="#3870B5" stroke="#002555" stroke-width="0.653715"/>
<circle cx="202.569" cy="73.0535" r="7.21592" fill="#3870B5" stroke="#002555" stroke-width="0.653715"/>
<circle cx="271.898" cy="105.273" r="7.21592" fill="#3870B5" stroke="#002555" stroke-width="0.653715"/>
<circle cx="175.677" cy="-0.73468" r="7.87181" fill="#3870B5" stroke="#002555" stroke-width="0.653715"/>
<circle cx="86.2446" cy="28.4633" r="7.87181" fill="#3870B5" stroke="#002555" stroke-width="0.653715"/>
<circle cx="220.606" cy="108.144" r="5.24824" fill="#3870B5" stroke="#002555" stroke-width="0.653715"/>
<circle cx="74.7979" cy="91.2134" r="5.90413" fill="#3870B5" stroke="#002555" stroke-width="0.653715"/>
<circle cx="100.947" cy="74.2168" r="5.90413" fill="#3870B5" stroke="#002555" stroke-width="0.653715"/>
<circle cx="199.984" cy="26.8225" r="5.90413" fill="#3870B5" stroke="#002555" stroke-width="0.653715"/>
<circle cx="244.437" cy="10.1529" r="5.90413" fill="#3870B5" stroke="#002555" stroke-width="0.653715"/>
<circle cx="264.376" cy="22.9002" r="5.90413" fill="#3870B5" stroke="#002555" stroke-width="0.653715"/>
<circle cx="223.845" cy="64.0843" r="5.90413" fill="#3870B5" stroke="#002555" stroke-width="0.653715"/>
<circle cx="117.296" cy="100.045" r="7.87181" fill="#3870B5" stroke="#002555" stroke-width="0.653715"/>
</g>
</g>
<defs>
<radialGradient id="paint0_radial_994_1674" cx="0" cy="0" r="1" gradientUnits="userSpaceOnUse" gradientTransform="translate(164.855 64.8548) rotate(90) scale(115.765)">
<stop stop-color="#3870B5"/>
<stop offset="1" stop-color="#2760A6"/>
</radialGradient>
<radialGradient id="paint1_radial_994_1674" cx="0" cy="0" r="1" gradientUnits="userSpaceOnUse" gradientTransform="translate(164.855 64.8549) rotate(90) scale(140.361)">
<stop stop-color="#3870B5"/>
<stop offset="1" stop-color="#2760A6"/>
</radialGradient>
<radialGradient id="paint2_radial_994_1674" cx="0" cy="0" r="1" gradientUnits="userSpaceOnUse" gradientTransform="translate(164.855 64.8547) rotate(90) scale(172.5)">
<stop stop-color="#3870B5"/>
<stop offset="1" stop-color="#2760A6"/>
</radialGradient>
<radialGradient id="paint3_radial_994_1674" cx="0" cy="0" r="1" gradientUnits="userSpaceOnUse" gradientTransform="translate(164.855 64.8548) rotate(90) scale(92.8089)">
<stop stop-color="#3870B5"/>
<stop offset="1" stop-color="#2760A6"/>
</radialGradient>
<radialGradient id="paint4_radial_994_1674" cx="0" cy="0" r="1" gradientUnits="userSpaceOnUse" gradientTransform="translate(164.855 64.8546) rotate(90) scale(67.557)">
<stop stop-color="#3870B5"/>
<stop offset="1" stop-color="#2760A6"/>
</radialGradient>
</defs>
</svg>
