<svg width="1057" height="1056" viewBox="0 0 1057 1056" fill="none" xmlns="http://www.w3.org/2000/svg">
<g opacity="0.8">
<circle cx="528.586" cy="527.753" r="206.686" fill="url(#paint0_radial_1160_256)" fill-opacity="0.6"/>
<circle cx="528.586" cy="527.753" r="126.42" fill="#3870B5" fill-opacity="0.7"/>
<g opacity="0.6">
<path d="M652.999 550.83L528.084 528.255" stroke="#002555" stroke-width="2" stroke-dasharray="8 12"/>
<path d="M528.539 528.208L452.698 426.417" stroke="#002555" stroke-width="2" stroke-dasharray="8 12"/>
<path d="M520.557 723.403L526.018 554.843" stroke="#002555" stroke-width="2" stroke-dasharray="8 12"/>
<path d="M382.498 634.332L528.998 531.832M333.998 555.332L524.998 530.332M634.498 408.333L711.498 526.333" stroke="#002555" stroke-width="2" stroke-dasharray="8 12"/>
<path d="M453.336 420.925L546.429 334.629" stroke="#002555" stroke-width="2" stroke-dasharray="8 12"/>
<path d="M696.142 656.179L649.989 561.866" stroke="#002555" stroke-width="2" stroke-dasharray="8 12"/>
<circle cx="528.586" cy="530.763" r="31.1066" fill="#3870B5" stroke="#002555" stroke-width="2"/>
<circle cx="452.333" cy="426.416" r="12.0433" fill="#3870B5" stroke="#002555" stroke-width="2"/>
<circle cx="643.969" cy="552.836" r="22.0766" fill="#3870B5" stroke="#002555" stroke-width="2"/>
<circle cx="561.696" cy="327.086" r="24.0833" fill="#3870B5" stroke="#002555" stroke-width="2"/>
<circle cx="699.152" cy="660.193" r="16.0567" fill="#3870B5" stroke="#002555" stroke-width="2"/>
<circle cx="519.556" cy="730.426" r="18.0633" fill="#3870B5" stroke="#002555" stroke-width="2"/>
<circle cx="333.063" cy="556.396" r="18.0633" fill="#3870B5" stroke="#002555" stroke-width="2"/>
<circle cx="636.063" cy="411.396" r="18.0633" fill="#3870B5" stroke="#002555" stroke-width="2"/>
<circle cx="709.063" cy="525.396" r="18.0633" fill="#3870B5" stroke="#002555" stroke-width="2"/>
<circle cx="383.083" cy="635.416" r="24.0833" fill="#3870B5" stroke="#002555" stroke-width="2"/>
</g>
</g>
<defs>
<radialGradient id="paint0_radial_1160_256" cx="0" cy="0" r="1" gradientUnits="userSpaceOnUse" gradientTransform="translate(528.586 527.753) rotate(90) scale(206.686)">
<stop stop-color="#3870B5"/>
<stop offset="1" stop-color="#2760A6"/>
</radialGradient>
</defs>
</svg>
