<svg width="31" height="31" viewBox="0 0 31 31" fill="none" xmlns="http://www.w3.org/2000/svg">
<mask id="mask0_637_820" style="mask-type:alpha" maskUnits="userSpaceOnUse" x="0" y="0" width="31" height="31">
<rect width="31" height="31" fill="#D9D9D9"/>
</mask>
<g mask="url(#mask0_637_820)">
<path d="M5.16671 25.8333C4.45629 25.8333 3.84813 25.5804 3.34223 25.0745C2.83633 24.5686 2.58337 23.9604 2.58337 23.25V7.74999C2.58337 7.03957 2.83633 6.43141 3.34223 5.92551C3.84813 5.41961 4.45629 5.16666 5.16671 5.16666H12.9167L15.5 7.74999H25.8334C26.5438 7.74999 27.152 8.00294 27.6579 8.50884C28.1638 9.01475 28.4167 9.62291 28.4167 10.3333V23.25C28.4167 23.9604 28.1638 24.5686 27.6579 25.0745C27.152 25.5804 26.5438 25.8333 25.8334 25.8333H5.16671Z" fill="#3870B5"/>
</g>
</svg>
