<svg width="33" height="33" viewBox="0 0 33 33" fill="none" xmlns="http://www.w3.org/2000/svg">
<mask id="mask0_389_2276" style="mask-type:alpha" maskUnits="userSpaceOnUse" x="0" y="0" width="33" height="33">
<rect y="12" width="24" height="24" transform="rotate(-30 0 12)" fill="#D9D9D9"/>
</mask>
<g mask="url(#mask0_389_2276)">
<path d="M15.2452 23.4054C13.9173 24.1721 12.5248 24.3602 11.0677 23.9698C9.6106 23.5794 8.49872 22.7202 7.73206 21.3923C6.96539 20.0644 6.77727 18.6719 7.1677 17.2148C7.55812 15.7577 8.41729 14.6458 9.7452 13.8792L18.8385 8.62915C19.7911 8.07915 20.8024 7.94751 21.8725 8.23423C22.9425 8.52095 23.7526 9.14062 24.3026 10.0933C24.8526 11.0459 24.9842 12.0572 24.6975 13.1273C24.4108 14.1973 23.7911 15.0074 22.8385 15.5574L14.6112 20.3074C14.005 20.6574 13.3718 20.7439 12.7115 20.567C12.0513 20.3901 11.5462 19.9985 11.1962 19.3923C10.8462 18.7861 10.7596 18.1528 10.9365 17.4926C11.1134 16.8323 11.505 16.3272 12.1112 15.9772L20.3385 11.2272L21.0885 12.5263L12.8612 17.2763C12.6158 17.4179 12.4581 17.6197 12.3879 17.8815C12.3178 18.1433 12.3535 18.3969 12.4952 18.6423C12.6369 18.8877 12.8386 19.0454 13.1004 19.1156C13.3622 19.1857 13.6158 19.15 13.8612 19.0083L22.0885 14.2583C22.6947 13.9083 23.0862 13.4032 23.2632 12.7429C23.4401 12.0827 23.3535 11.4495 23.0035 10.8433C22.6535 10.237 22.1484 9.84547 21.4882 9.66856C20.8279 9.49165 20.1947 9.57819 19.5885 9.92819L10.4952 15.1782C9.54257 15.7282 8.92289 16.5382 8.63617 17.6083C8.34945 18.6783 8.48109 19.6897 9.03109 20.6423C9.58109 21.5949 10.3911 22.2146 11.4612 22.5013C12.5312 22.788 13.5426 22.6564 14.4952 22.1064L23.5885 16.8564L24.3385 18.1554L15.2452 23.4054Z" fill="#FFAB01"/>
</g>
</svg>
