<?xml version="1.0" encoding="UTF-8"?><svg id="Layer_1" xmlns="http://www.w3.org/2000/svg" xmlns:xlink="http://www.w3.org/1999/xlink" viewBox="0 0 216 216"><defs><style>.cls-1{fill:none;}.cls-1,.cls-2,.cls-3,.cls-4,.cls-5,.cls-6,.cls-7,.cls-8{stroke-width:0px;}.cls-9{stroke:#3870b5;stroke-miterlimit:10;stroke-width:2px;}.cls-9,.cls-6{fill:#fff;}.cls-10{clip-path:url(#clippath-1);}.cls-11{clip-path:url(#clippath-3);}.cls-2{fill:#3870b5;}.cls-3{fill:#d90f03;}.cls-4{fill:#a81c20;}.cls-5{fill:#b7dff7;}.cls-7{fill:#ff554d;}.cls-8{fill:#002555;}</style><clipPath id="clippath"><circle class="cls-1" cx="-119.51" cy="333.42" r="78.31"/></clipPath><clipPath id="clippath-1"><circle class="cls-1" cx="-128.06" cy="123.58" r="78.12"/></clipPath><clipPath id="clippath-3"><path class="cls-1" d="m196.77,103.81c2.28,43.09-30.8,79.88-73.89,82.16-39.7,2.1-74.05-25.82-81-63.93-.59-3.25-14.24-15.24-14.24-15.24,0,0-10.57-11.07-9.49-22.37,3.6-37.56,16.03-35.6,23.05-42.71s38.09-2.08,47.94-6.11c7.9-3.23,16.47-5.22,25.48-5.7,43.09-2.28,79.88,30.8,82.16,73.89Z"/></clipPath></defs><g class="cls-10"><g id="character_1"><polygon class="cls-3" points="23.04 73.51 14.38 125.98 -49.37 144.67 -66.34 149.64 -82.01 110.1 -40.64 91.67 5.65 71.06 23.04 73.51"/></g></g><circle class="cls-9" cx="118.75" cy="108" r="79.18"/><circle class="cls-1" cx="118.75" cy="108" r="79.18"/><g class="cls-11"><polygon class="cls-6" points="25.53 76.86 32.47 57.87 54.12 43.94 77.56 47.06 99.93 68.24 90.15 101.31 60.67 113.06 37.43 104.08 26.8 87.88 25.53 76.86"/><path class="cls-5" d="m38.88,88.47c3.44,12.72,2.1,14.25-.39,11.9-.06-.07-.13-.15-.19-.22-12.77-14.37-9.31-33.34,4.86-44.1,4.01-3.04,8.54-5.04,13.25-6.03-.15.07-24.93,11.1-17.53,38.45Z"/><path class="cls-8" d="m89.96,49.61c-17.85-13.55-44.05-10.64-58.52,6.49-14.47,17.13-11.73,42,6.13,55.55,17.85,13.55,44.05,10.64,58.52-6.49,14.47-17.13,11.73-42-6.13-55.55Zm-47,55.64c-14.17-10.76-16.35-30.5-4.86-44.1,11.49-13.6,32.29-15.91,46.46-5.15,14.17,10.76,16.35,30.5,4.86,44.1-11.49,13.6-32.29,15.91-46.46,5.15Z"/><path class="cls-2" d="m88.83,46.52c-17.85-13.55-44.05-10.64-58.52,6.49-14.47,17.13-11.73,42,6.13,55.55,17.85,13.55,44.05,10.64,58.52-6.49,14.47-17.13,11.73-42-6.13-55.55Zm-47,55.64c-14.17-10.76-16.35-30.5-4.86-44.1,11.49-13.6,32.29-15.91,46.46-5.15,14.17,10.76,16.35,30.5,4.86,44.1-11.49,13.6-32.29,15.91-46.46,5.15Z"/><path class="cls-7" d="m59.34,54.2s-1.39,4.86-.36,19.17l6.03-.81s-1.17-8.17-5.68-18.37Z"/><path class="cls-5" d="m65.98,101.78s1.46-4.84.63-19.17l-6.05.72s1.05,8.19,5.41,18.45Z"/><path class="cls-6" d="m66.96,72.42c-2.95-2.24-7.27-1.76-9.66,1.07-2.39,2.83-1.93,6.93,1.01,9.17,2.95,2.24,7.27,1.76,9.66-1.07,2.39-2.83,1.93-6.93-1.01-9.17Z"/><path class="cls-8" d="m62.55,84.57c-1.67,0-3.24-.52-4.54-1.51-1.53-1.16-2.49-2.83-2.7-4.7-.21-1.87.36-3.71,1.61-5.18,1.43-1.69,3.54-2.66,5.8-2.66,1.67,0,3.24.52,4.54,1.51,1.53,1.16,2.49,2.83,2.7,4.7.21,1.87-.36,3.71-1.61,5.18-1.43,1.69-3.54,2.66-5.8,2.66Z"/><path class="cls-6" d="m62.66,75.7c-.61,0-1.18.26-1.57.71-.33.39-.48.86-.42,1.35.05.48.3.92.71,1.22.35.26.77.4,1.22.4.61,0,1.18-.26,1.57-.71.33-.39.48-.86.42-1.35-.05-.48-.3-.92-.71-1.22-.35-.26-.77-.4-1.22-.4Z"/><path class="cls-8" d="m89.78,63.31l10.42-1.56s.66-.04,1,.01l114.84,12.86c3.18.5,5.13,4.02,4.35,7.82l-17.85,86.69c-.24,1.17-.87,2.15-1.72,2.83,0,0-.04.03-.04.03-.04.03-.09.07-.13.1l-8.79,6.68-7.89-8.9-83.09-19.22c-2.22-.51-4.06-3.01-4.11-5.59l-1.62-75.34-5.37-6.4Z"/><path class="cls-8" d="m191.86,179.39c-.17,0-.34-.07-.47-.21l-7.76-8.75-82.89-19.18c-2.52-.58-4.53-3.3-4.59-6.18l-1.61-75.12-5.23-6.23c-.14-.17-.17-.16-.09-.37.08-.21.88-.18,1.1-.21l9.8-1.99s.04,0,.05,0c.01,0,.27-.02.55-.02.24,0,.42.01.57.03l115.08,12.98s0,0,0,0c1.5.23,2.62.97,3.54,2.3,1.16,1.67,1.57,3.91,1.11,6.14l-17.85,86.69c-.26,1.27-.95,2.4-1.94,3.19,0,0,0,0-.01,0l-.04.03s-.09.07-.14.11l-8.78,6.68c-.11.09-.25.13-.38.13ZM90.97,63.76l4.66,5.55c.09.11.14.24.15.39l1.62,75.34c.05,2.3,1.67,4.54,3.63,5l83.09,19.22c.13.03.24.1.33.19l7.51,8.47,8.33-6.33s0,0,.01,0c.04-.03.08-.06.12-.09l.04-.03c.76-.61,1.29-1.48,1.49-2.46l17.85-86.69c.39-1.9.06-3.79-.91-5.18-.73-1.05-1.74-1.71-2.91-1.89l-114.83-12.86s-.02,0-.03,0c-.05,0-.16-.02-.4-.02-.2,0-.38,0-.45.01l-9.29,1.39Z"/><path class="cls-2" d="m193.84,175.92c-.55,2.68-3.1,4.34-5.7,3.74l-96.22-22.31c-2.23-.52-4.07-3.02-4.12-5.62l-1.66-83.18c-.07-3.59,2.01-6.2,4.67-5.78l116.56,18.2c3.19.5,5.15,4.04,4.36,7.85l-17.9,87.11Z"/><path class="cls-5" d="m184.62,166.4c-1.09,2.62-4.55,4.14-7.14,3.53l-108.4-23.42c-2.23-.52-4.78-3.26-4.12-5.62l21.43-60.29-.24-12.06c-.07-3.59,2.01-6.2,4.67-5.78l116.56,18.2c3.19.5,5.15,4.04,4.36,7.85l-2.92,14.19s-17.87,48.18-24.2,63.39Z"/><path class="cls-8" d="m101.23,61.2l115.13,12.92c3.19.5,5.15,4.04,4.36,7.85l-2.76,13.42-9.14,7.62-117.45-38.36-1.58-1.89,10.44-1.57s.66-.04,1.01.01Z"/><polygon class="cls-7" points="119.47 105.94 133.45 108.41 129.76 117.87 116.22 115.23 119.47 105.94"/><path class="cls-6" d="m159.27,156.73s13.53-34.25,16.96-43.41c2.01-5.36,16.59-4.7,16.59-4.7l-20.3,50.85-13.25-2.75Z"/><path class="cls-8" d="m91.33,102.99c-.07,0-.14-.01-.21-.04-.33-.11-.5-.47-.38-.8l2.24-6.39c.11-.33.47-.5.8-.38.33.11.5.47.38.8l-2.24,6.39c-.09.26-.33.42-.59.42Z"/><polygon class="cls-2" points="139.75 130.66 153.49 133.45 149.68 143.36 135.98 140.59 139.75 130.66"/><path class="cls-8" d="m84.78,121.66c-.07,0-.14-.01-.21-.04-.33-.11-.5-.47-.38-.8l4.32-12.32c.11-.33.47-.5.8-.38.33.11.5.47.38.8l-4.32,12.32c-.09.26-.33.42-.59.42Z"/><path class="cls-8" d="m112.28,147.6s-.08,0-.13-.01l-34.11-7.08c-.18-.04-.33-.15-.42-.3-.09-.16-.11-.34-.05-.51l3.4-9.69c.11-.33.47-.5.8-.38.33.11.5.47.38.8l-3.16,9.01,33.41,6.94c.34.07.55.4.48.74-.06.29-.32.5-.61.5Z"/><path class="cls-8" d="m172.52,160.1s-.08,0-.13-.01l-49.73-10.32c-.34-.07-.55-.4-.48-.74.07-.34.4-.55.74-.48l49.22,10.22,12.14-30.41c.13-.32.49-.48.81-.35.32.13.48.49.35.81l-12.34,30.9c-.1.24-.33.39-.58.39Z"/><path class="cls-8" d="m186.84,124.23c-.08,0-.16-.01-.23-.04-.32-.13-.48-.49-.35-.81l5.7-14.27-4.52-.82c-.34-.06-.56-.39-.5-.73.06-.34.39-.56.73-.5l5.27.96c.18.03.34.15.43.31.09.16.1.36.03.53l-5.98,14.98c-.1.24-.33.39-.58.39Z"/><path class="cls-8" d="m182.54,107.39s-.07,0-.11-.01l-9.05-1.64c-.34-.06-.56-.39-.5-.73.06-.34.39-.56.73-.5l9.05,1.64c.34.06.56.39.5.73-.05.3-.32.51-.61.51Z"/><path class="cls-8" d="m169.47,105.01s-.07,0-.11-.01l-29.67-5.39c-.34-.06-.56-.39-.5-.73.06-.34.39-.56.73-.5l29.67,5.39c.34.06.56.39.5.73-.05.3-.32.51-.61.51Z"/><path class="cls-8" d="m132.4,98.28s-.07,0-.11-.01l-15.1-2.74c-.34-.06-.56-.39-.5-.73.06-.34.39-.57.73-.5l15.1,2.74c.34.06.56.39.5.73-.05.3-.32.51-.61.51Z"/><path class="cls-8" d="m111.42,94.47s-.07,0-.11-.01l-6.11-1.11c-.34-.06-.56-.39-.5-.73.06-.34.39-.57.73-.5l6.11,1.11c.34.06.56.39.5.73-.05.3-.32.51-.61.51Z"/><path class="cls-8" d="m186.13,118.95s-.08,0-.12-.01l-94.18-17.74c-.34-.06-.56-.39-.5-.73.06-.34.39-.56.73-.5l94.18,17.74c.34.06.56.39.5.73-.06.3-.32.51-.61.51Z"/><path class="cls-8" d="m177.3,127.8s-.08,0-.12-.01l-88.59-17.34c-.34-.07-.56-.39-.49-.73.07-.34.39-.56.73-.49l88.59,17.34c.34.07.56.39.49.73-.06.3-.32.5-.61.5Z"/><path class="cls-8" d="m180.73,139.54s-.08,0-.12-.01l-95.47-19.24c-.34-.07-.56-.4-.49-.74.07-.34.4-.56.74-.49l95.47,19.24c.34.07.56.4.49.74-.06.3-.32.5-.61.5Z"/><path class="cls-8" d="m154.27,144.9s-.08,0-.12-.01l-69.71-14.07c-.34-.07-.56-.4-.49-.74.07-.34.4-.56.74-.49l69.71,14.07c.34.07.56.4.49.74-.06.3-.32.5-.61.5Z"/><path class="cls-8" d="m173.49,148.75s-.08,0-.12-.01l-21.23-4.24c-.34-.07-.56-.4-.49-.73.07-.34.4-.56.73-.49l21.23,4.24c.34.07.56.4.49.73-.06.3-.32.5-.61.5Z"/><path class="cls-8" d="m159.27,157.35c-.08,0-.15-.01-.23-.04-.32-.13-.48-.49-.35-.81l19.78-50.6c.13-.32.49-.48.81-.35.32.13.48.49.35.81l-19.78,50.6c-.1.25-.33.4-.58.4Z"/><path class="cls-8" d="m145.63,154.52c-.07,0-.15-.01-.22-.04-.32-.12-.48-.48-.36-.81l4.79-12.48c.12-.32.48-.48.81-.36.32.12.48.48.36.81l-4.79,12.48c-.1.25-.33.4-.58.4Z"/><path class="cls-8" d="m153.49,134.07c-.07,0-.15-.01-.22-.04-.32-.12-.48-.48-.36-.81l11.48-29.88c.12-.32.48-.48.81-.36.32.12.48.48.36.81l-11.48,29.88c-.1.25-.33.4-.58.4Z"/><path class="cls-8" d="m132,151.69c-.07,0-.15-.01-.22-.04-.32-.12-.48-.48-.36-.81l13.6-35.81c.12-.32.48-.48.81-.36.32.12.48.48.36.81l-13.6,35.81c-.09.25-.33.4-.58.4Z"/><path class="cls-8" d="m147.01,112.16c-.07,0-.15-.01-.22-.04-.32-.12-.48-.48-.36-.81l3.99-10.5c.12-.32.48-.48.81-.36.32.12.48.48.36.81l-3.99,10.5c-.09.25-.33.4-.58.4Z"/><path class="cls-8" d="m119.43,146.03c-.07,0-.15-.01-.22-.04-.32-.12-.49-.48-.37-.8l16.65-44.37c.12-.32.48-.49.8-.37.32.12.49.48.37.8l-16.65,44.37c-.09.25-.33.41-.58.41Z"/><path class="cls-8" d="m107.63,138.21c-.07,0-.15-.01-.22-.04-.32-.12-.49-.48-.37-.8l15.44-41.63c.12-.32.48-.49.8-.37.32.12.49.48.37.8l-15.44,41.63c-.09.25-.33.41-.59.41Z"/><path class="cls-8" d="m91.09,143.2c-.07,0-.14-.01-.21-.04-.32-.12-.49-.48-.37-.8l18.01-49.15c.12-.32.48-.49.8-.37.32.12.49.48.37.8l-18.01,49.15c-.09.25-.33.41-.59.41Z"/><path class="cls-5" d="m209.54,85.12l-95.26-12.98-22.92-7.49-1.58-1.89,13.94-2.75s.66-.04,1.01.01l111.63,14.1c1.46.23,2.67,1.1,3.47,2.34l-10.28,8.65Z"/><path class="cls-7" d="m207.37,80.97c3.19.5,5.15,4.04,4.36,7.85l-2.92,14.19-122.44-22.4-.24-12.06c-.07-3.59,2.01-6.2,4.67-5.78l5.66.91,110.9,17.29Z"/><path class="cls-4" d="m139.91,82.49c-.07.33-.11.67-.11,1.02,0,2.24,1.6,4.06,3.58,4.06s3.58-1.82,3.58-4.06c0-.79-.2-1.54-.55-2.16-.63-1.14-1.75-1.9-3.03-1.9-.54,0-1.06.14-1.52.38l-1.94,2.66Z"/><path class="cls-8" d="m146.61,85.24c-.07,0-1.24-.03-1.75-.11-3.81-.54-7.07-3.02-9.19-6.97-2.03-3.79-2.77-8.52-2.09-13.32,1.33-9.38,7.76-16.46,14.95-16.46.51,0,1.02.04,1.53.11,3.81.54,7.07,3.02,9.19,6.97,1.8,3.36,2.59,7.47,2.27,11.71l-3.3-.42c.24-3.55-.41-6.96-1.9-9.72-1.61-3-4-4.87-6.73-5.26-.35-.05-.71-.08-1.06-.08-2.57,0-5.17,1.32-7.31,3.73-2.26,2.54-3.81,6.05-4.35,9.88-.58,4.11.03,8.12,1.73,11.29,1.61,3,4,4.87,6.73,5.26.35.05,1.24.07,1.33.07l-.05,3.32Z"/><path class="cls-8" d="m143.38,81.71s2.55,1.79,0,3.61h3.77l-.42-3.23-3.35-.38Z"/><path class="cls-8" d="m146.62,85.87c-.17,0-1.31-.04-1.83-.11-4.01-.57-7.44-3.16-9.65-7.3-2.09-3.9-2.86-8.77-2.16-13.7,1.37-9.69,8.07-17,15.57-17,.54,0,1.08.04,1.62.11,4.01.57,7.44,3.16,9.65,7.3,1.87,3.48,2.67,7.65,2.34,12.05-.01.17-.1.33-.23.44-.13.11-.3.16-.47.14l-3.3-.42c-.33-.04-.57-.33-.54-.66.24-3.47-.39-6.71-1.82-9.38-1.51-2.82-3.74-4.57-6.27-4.93-.32-.05-.65-.07-.97-.07-2.39,0-4.82,1.25-6.85,3.52-2.18,2.45-3.68,5.84-4.2,9.55-.56,3.98.03,7.85,1.66,10.9,1.51,2.82,3.74,4.57,6.27,4.93.3.04,1.12.07,1.23.06,0,0,0,0,0,0,.34,0,.62.27.63.61,0,.34-.26.63-.6.64-.11,0-1.04-.02-1.44-.08-2.93-.42-5.49-2.4-7.19-5.58-1.76-3.29-2.4-7.43-1.8-11.67.56-3.95,2.16-7.58,4.51-10.21,2.26-2.54,5.03-3.94,7.78-3.94.38,0,.77.03,1.15.08,2.93.42,5.49,2.4,7.19,5.58,1.46,2.72,2.15,5.99,2,9.47l2.06.26c.19-3.88-.6-7.66-2.24-10.71-2.02-3.78-5.12-6.14-8.73-6.65-.48-.07-.96-.1-1.44-.1-6.88,0-13.05,6.85-14.33,15.92-.66,4.67.06,9.27,2.02,12.94,2.02,3.78,5.12,6.14,8.73,6.65.45.06,1.55.1,1.65.1,0,0,0,0,.01,0,.34,0,.61.27.62.61,0,.34-.27.63-.61.64,0,0,0,0-.01,0Z"/><path class="cls-4" d="m140.5,84.26s1.47,2.69,2.88,2.69c1.63,0,2.95-1.54,2.95-3.44,0-.66-.16-1.31-.47-1.86-.55-.99-1.48-1.58-2.48-1.58-.26,0-.75.11-.75.11-.33-.11-1.14-.85-1.14-.85.02-.02.05-.03.08-.05.57-.3,1.18-.46,1.81-.46,1.47,0,2.8.83,3.57,2.22.41.74.63,1.59.63,2.47,0,2.58-1.88,4.69-4.2,4.69s-4.2-2.1-4.2-4.69c0-.05,0-.1,0-.15,0,0,1.14.82,1.32.9Z"/><polygon class="cls-5" points="156.46 66.55 164.27 67.55 159.1 68.93 156.46 66.55"/><path class="cls-4" d="m185.27,90.06c-.07.33-.11.67-.11,1.02,0,2.24,1.6,4.06,3.58,4.06s3.58-1.82,3.58-4.06c0-.79-.2-1.54-.55-2.16-.63-1.14-1.75-1.9-3.03-1.9-.54,0-1.06.14-1.52.38l-1.94,2.66Z"/><path class="cls-8" d="m191.97,92.81c-.07,0-1.24-.03-1.75-.11-3.81-.54-7.07-3.02-9.19-6.97-2.03-3.79-2.77-8.52-2.09-13.32,1.33-9.38,7.76-16.46,14.95-16.46.51,0,1.02.04,1.53.11,3.81.54,7.07,3.02,9.19,6.97,1.8,3.36,2.59,7.47,2.27,11.71l-3.3-.42c.24-3.55-.41-6.96-1.9-9.72-1.61-3-4-4.87-6.73-5.26-.35-.05-.71-.08-1.06-.08-2.57,0-5.17,1.32-7.31,3.73-2.26,2.54-3.81,6.05-4.35,9.88-.58,4.11.03,8.12,1.73,11.29,1.61,3,4,4.87,6.73,5.26.35.05,1.24.07,1.33.07l-.05,3.32Z"/><path class="cls-8" d="m188.73,89.28s2.55,1.79,0,3.61h3.77l-.42-3.23-3.35-.38Z"/><path class="cls-8" d="m191.97,93.43c-.17,0-1.31-.04-1.83-.11-4.01-.57-7.44-3.16-9.65-7.3-2.09-3.9-2.86-8.77-2.16-13.7,1.37-9.69,8.07-17,15.57-17,.54,0,1.08.04,1.62.11,4.01.57,7.44,3.16,9.65,7.3,1.87,3.48,2.67,7.65,2.34,12.05-.01.17-.1.33-.23.44-.13.11-.3.16-.47.14l-3.3-.42c-.33-.04-.57-.33-.54-.66.24-3.47-.39-6.71-1.82-9.38-1.51-2.82-3.74-4.57-6.27-4.93-.32-.05-.65-.07-.97-.07-2.39,0-4.82,1.25-6.85,3.52-2.18,2.45-3.68,5.84-4.2,9.55-.56,3.98.03,7.85,1.66,10.9,1.51,2.82,3.74,4.57,6.27,4.93.3.04,1.12.07,1.23.06,0,0,0,0,0,0,.34,0,.62.27.63.61,0,.34-.26.63-.6.64-.11,0-1.04-.02-1.44-.08-2.93-.42-5.49-2.4-7.19-5.58-1.76-3.29-2.4-7.43-1.8-11.67.56-3.95,2.16-7.58,4.51-10.21,2.26-2.54,5.03-3.94,7.78-3.94.38,0,.77.03,1.15.08,2.93.42,5.49,2.4,7.19,5.58,1.46,2.72,2.15,5.99,2,9.47l2.06.26c.19-3.88-.6-7.66-2.24-10.71-2.02-3.78-5.12-6.14-8.73-6.65-.48-.07-.96-.1-1.44-.1-6.88,0-13.05,6.85-14.33,15.92-.66,4.67.06,9.27,2.02,12.94,2.02,3.78,5.12,6.14,8.73,6.65.45.06,1.55.1,1.65.1,0,0,0,0,.01,0,.34,0,.61.27.62.61,0,.34-.27.63-.61.64,0,0,0,0-.01,0Z"/><path class="cls-4" d="m185.85,91.83s1.47,2.69,2.88,2.69c1.63,0,2.95-1.54,2.95-3.44,0-.66-.16-1.31-.47-1.86-.55-.99-1.48-1.58-2.48-1.58-.26,0-.75.11-.75.11-.33-.11-1.14-.85-1.14-.85.02-.02.05-.03.08-.05.57-.3,1.18-.46,1.81-.46,1.47,0,2.8.83,3.57,2.22.41.74.63,1.59.63,2.47,0,2.58-1.88,4.69-4.2,4.69s-4.2-2.1-4.2-4.69c0-.05,0-.1,0-.15,0,0,1.14.82,1.32.9Z"/><polygon class="cls-5" points="200.85 72.17 210.77 73.42 207.89 79.13 201.02 75.13 200.85 72.17"/><path class="cls-4" d="m97.55,74.65c-.07.3-.11.62-.11.95,0,2.08,1.48,3.76,3.31,3.76s3.31-1.68,3.31-3.76c0-.74-.19-1.42-.51-2-.59-1.06-1.62-1.76-2.8-1.76-.5,0-.98.13-1.41.35l-1.8,2.46Z"/><path class="cls-8" d="m103.75,77.2c-.07,0-1.15-.03-1.62-.1-3.52-.5-6.55-2.79-8.51-6.46-1.88-3.51-2.57-7.89-1.94-12.33,1.23-8.69,7.19-15.24,13.85-15.24.47,0,.95.03,1.42.1,3.52.5,6.55,2.79,8.51,6.46,1.67,3.11,2.4,8.92,2.1,12.84l-3.05-.39c.23-3.29-.38-8.44-1.76-11-1.49-2.78-3.7-4.51-6.23-4.87-.33-.05-.66-.07-.98-.07-2.38,0-4.79,1.23-6.77,3.45-2.1,2.35-3.53,5.6-4.03,9.15-.54,3.8.03,7.52,1.6,10.45,1.49,2.78,3.7,4.51,6.23,4.87.32.05,1.15.07,1.24.07l-.05,3.07Z"/><path class="cls-8" d="m100.76,73.92s2.36,1.66,0,3.34h3.5l-.39-2.99-3.1-.35Z"/><path class="cls-8" d="m103.75,77.77c-.15,0-1.22-.04-1.7-.1-3.71-.53-6.89-2.93-8.94-6.76-1.94-3.61-2.65-8.12-2-12.69,1.27-8.97,7.47-15.74,14.42-15.74.5,0,1,.04,1.5.11,3.71.53,6.89,2.93,8.94,6.76,1.73,3.22,2.48,9.08,2.17,13.16-.01.16-.09.3-.21.4-.12.1-.28.15-.44.13l-3.05-.39c-.3-.04-.52-.31-.5-.61.22-3.21-.36-8.22-1.69-10.69-1.4-2.61-3.46-4.23-5.81-4.57-.3-.04-.6-.06-.9-.06-2.22,0-4.47,1.16-6.34,3.26-2.02,2.27-3.4,5.41-3.89,8.85-.52,3.68.02,7.27,1.54,10.1,1.4,2.61,3.46,4.23,5.81,4.57.27.04,1.04.06,1.14.06,0,0,0,0,0,0,.31,0,.57.25.58.56,0,.32-.24.58-.55.59-.1,0-.97-.02-1.34-.07-2.72-.39-5.08-2.22-6.66-5.17-1.63-3.04-2.22-6.88-1.67-10.81.52-3.66,2-7.02,4.17-9.45,2.1-2.35,4.65-3.65,7.2-3.65.35,0,.71.03,1.06.08,2.72.39,5.08,2.22,6.66,5.17,1.35,2.52,1.99,5.54,1.85,8.77l1.91.24c.17-3.59-.56-7.09-2.07-9.91-1.87-3.5-4.74-5.68-8.08-6.16-.44-.06-.89-.09-1.33-.09-6.37,0-12.08,6.34-13.27,14.75-.61,4.33.05,8.58,1.87,11.98,1.87,3.5,4.74,5.68,8.08,6.16.42.06,1.43.09,1.53.09,0,0,0,0,.01,0,.31,0,.57.25.57.57,0,.32-.25.58-.57.59,0,0,0,0-.01,0Z"/><path class="cls-4" d="m98.09,76.29s1.37,2.49,2.67,2.49c1.51,0,2.73-1.43,2.73-3.18,0-.61-.15-1.21-.44-1.72-.51-.91-1.37-1.46-2.3-1.46-.24,0-.69.1-.69.1-.3-.1-1.06-.79-1.06-.79.02-.02.05-.03.07-.05.53-.28,1.09-.42,1.68-.42,1.36,0,2.59.77,3.31,2.06.38.68.58,1.47.58,2.28,0,2.39-1.75,4.34-3.89,4.34s-3.89-1.95-3.89-4.34c0-.05,0-.09,0-.14,0,0,1.05.76,1.22.83Z"/><polygon class="cls-5" points="112.69 61.03 122.25 62.24 117.25 64.02 111.82 63.59 112.69 61.03"/></g></svg>