<?xml version="1.0" encoding="UTF-8"?><svg id="Layer_1" xmlns="http://www.w3.org/2000/svg" viewBox="0 0 648 576"><defs><style>.cls-1{opacity:.38;}.cls-2{opacity:.73;}.cls-3,.cls-4,.cls-5,.cls-6,.cls-7,.cls-8,.cls-9,.cls-10,.cls-11,.cls-12,.cls-13,.cls-14,.cls-15,.cls-16,.cls-17,.cls-18{stroke-width:0px;}.cls-4{fill:#2a5488;}.cls-5{fill:#9ac7f7;}.cls-6{fill:#3870b5;}.cls-7{fill:#111;}.cls-8{fill:#d90f03;}.cls-9{fill:#dc8c67;}.cls-10{fill:#d2e9ff;}.cls-11{fill:#bf8001;}.cls-12{fill:#a30b02;}.cls-13{fill:#f2a479;}.cls-14{fill:#fff;}.cls-15{fill:#ffc257;}.cls-16{fill:#f48074;}.cls-17{fill:#00132b;}.cls-18{fill:#002555;}</style></defs><path class="cls-14" d="m273.84,503.79c-61.33,0-118.99-23.88-162.35-67.25s-67.25-101.02-67.25-162.35,23.88-118.99,67.25-162.35c43.37-43.37,101.02-67.25,162.35-67.25s118.99,23.88,162.35,67.25c43.37,43.37,67.25,101.02,67.25,162.35s-23.88,118.99-67.25,162.35-101.02,67.25-162.35,67.25Z"/><path class="cls-6" d="m273.84,45.9c126.08,0,228.28,102.21,228.28,228.28s-102.21,228.28-228.28,228.28S45.56,400.26,45.56,274.18,147.77,45.9,273.84,45.9m0-2.63c-31.17,0-61.41,6.11-89.88,18.15-27.5,11.63-52.19,28.28-73.4,49.49-21.21,21.21-37.86,45.9-49.49,73.4-12.04,28.47-18.15,58.71-18.15,89.88s6.11,61.41,18.15,89.88c11.63,27.5,28.28,52.19,49.49,73.4,21.21,21.21,45.9,37.86,73.4,49.49,28.47,12.04,58.71,18.15,89.88,18.15s61.41-6.11,89.88-18.15c27.5-11.63,52.19-28.28,73.4-49.49,21.21-21.21,37.86-45.9,49.49-73.4,12.04-28.47,18.15-58.71,18.15-89.88s-6.11-61.41-18.15-89.88c-11.63-27.5-28.28-52.19-49.49-73.4-21.21-21.21-45.9-37.86-73.4-49.49-28.47-12.04-58.71-18.15-89.88-18.15h0Z"/><path class="cls-15" d="m147.28,229.67c1.24,18.3,1.61,35.25.37,47.79,0,0,157.85-31.49,185.14-1.92l-5.13,25.59s35.04-15.66,42.72-28.19c0,0,36.78-119.21,30.32-162.66,0,0-3.76-10.95-26.88-20.4-12.28-5.02-30.01-9.62-55.54-11.93-73.61-6.67-168.2,13.95-185.58,33.55,0,0,10.98,64.82,14.59,118.18Z"/><path class="cls-15" d="m147.65,277.46s157.85-31.49,185.14-1.92l-5.13,25.59s35.04-15.66,42.72-28.19c0,0,36.78-119.21,30.32-162.66,0,0-3.76-10.95-26.88-20.4-3,24.14-29.74,127.68-84.19,109.65-60.19-19.93-21.73-37.04-93.47,7.84-21.2,13.26-37.06,19.75-48.87,22.31,1.24,18.3,1.61,35.25.37,47.79Z"/><path class="cls-14" d="m181.22,181.17c.6-.45,39.44-29.23,117.42-29.46,6.81-.02,13.91.17,21.32.63,0,0-46.36-39.03-80.73-44.49,0,0-12.85,17.46-32.3,41.87-7.67,9.62-16.36,20.32-25.7,31.46Z"/><path class="cls-10" d="m181.22,181.17c.6-.45,39.44-29.23,117.42-29.46-12.67-2.2-25.46-3.72-38.3-4.53-17.81-1.12-35.96-.84-53.42,2.53-7.67,9.62-16.36,20.32-25.7,31.46Z"/><path class="cls-14" d="m219.87,111.23c-15.71,2.47-31.31,6-46.29,11.38-4.04,1.45-8.04,3.04-11.96,4.8-1.01.45-2.21.29-2.81-.74-.51-.88-.28-2.35.74-2.81,14.52-6.52,29.88-10.97,45.46-14.13,4.57-.93,9.17-1.74,13.78-2.47,1.09-.17,2.21.28,2.53,1.43.27.98-.33,2.35-1.43,2.53h0Z"/><path class="cls-14" d="m351,109.9c-5.02-.65-10.07-1.09-15.11-1.51-12.78-1.06-25.6-1.68-38.42-1.89-9.44-.16-18.88-.08-28.31.25-2.64.09-2.64-4.02,0-4.11,15.78-.55,31.58-.39,47.35.38,9.83.48,19.66,1.18,29.45,2.21,1.68.18,3.37.36,5.04.57,1.1.14,2.05.84,2.05,2.05,0,1-.95,2.2-2.05,2.05h0Z"/><path class="cls-14" d="m202.37,134.28c-13.94,2.8-27.76,6.7-40.75,12.53-1.01.45-2.21.29-2.81-.74-.51-.88-.28-2.35.74-2.81,13.34-5.99,27.42-10.07,41.73-12.94,1.09-.22,2.22.31,2.53,1.43.28,1.01-.34,2.31-1.43,2.53h0Z"/><path class="cls-14" d="m350.45,134.29c-2.89-.5-5.79-.9-8.7-1.3-.78-.11-.94-.13-1.87-.25-.81-.11-1.63-.21-2.44-.31-1.83-.23-3.67-.45-5.5-.66-4.47-.51-8.95-.97-13.44-1.37-6.03-.54-12.06-.98-18.1-1.32-2.63-.15-2.65-4.26,0-4.11,16.12.92,32.24,2.45,48.2,4.89.98.15,1.96.3,2.94.47,1.09.19,1.71,1.53,1.43,2.53-.32,1.16-1.43,1.62-2.53,1.43h0Z"/><path class="cls-14" d="m188.03,160.04c-7.63,2.18-15.13,4.79-22.37,8.04-1.01.45-2.21.29-2.81-.74-.51-.88-.28-2.35.74-2.81,7.57-3.39,15.38-6.18,23.35-8.45,2.55-.73,3.63,3.24,1.09,3.96h0Z"/><path class="cls-14" d="m352.65,157.65c-5.97-1.15-12-2.01-18.02-2.82-1.1-.15-2.05-.84-2.05-2.05s.95-2.2,2.05-2.05c6.38.85,12.78,1.74,19.11,2.96,1.09.21,1.71,1.52,1.43,2.53-.31,1.14-1.43,1.65-2.53,1.43h0Z"/><path class="cls-14" d="m354.49,183c-2.54-.43-5.09-.79-7.63-1.14-.29-.04-.58-.08-.87-.12-.08-.01-.55-.07-.26-.03s-.32-.04-.43-.06c-.72-.1-1.44-.19-2.16-.28-1.59-.2-3.19-.4-4.78-.59-3.93-.46-7.87-.88-11.8-1.26-10.04-.96-20.11-1.65-30.19-2.05-12-.48-24.03-.57-36.03-.15-12.91.45-25.83,1.45-38.62,3.29-1.63.23-3.26.48-4.88.75-1.09.18-2.21-.28-2.53-1.43-.27-.98.33-2.35,1.43-2.53,12.99-2.09,26.1-3.34,39.24-3.96,12.36-.58,24.74-.62,37.1-.22,10.44.33,20.87.98,31.27,1.91,7.41.66,14.82,1.47,22.19,2.45,2.32.31,4.64.63,6.95.98.98.15,2,.24,2.97.47.04.01.09.01.13.02,1.09.19,1.71,1.53,1.43,2.53-.32,1.16-1.43,1.62-2.53,1.43h0Z"/><path class="cls-14" d="m354.49,212.25c-3.9-.99-7.85-1.8-11.8-2.6-4.45-.9-8.9-1.72-13.38-2.48-2.76-.47-5.53-.91-8.29-1.34s-6.08-.89-8.63-1.23c-14.28-1.89-28.65-3.15-43.05-3.62-16.05-.52-32.17-.08-48.12,1.86-15.87,1.93-31.68,5.42-46.55,11.35-1.71.68-3.41,1.4-5.1,2.16-1.01.45-2.21.29-2.81-.74-.51-.88-.28-2.35.74-2.81,14.84-6.66,30.7-10.74,46.76-13.13,16.21-2.41,32.63-3.22,49.01-2.95,14.79.25,29.56,1.36,44.24,3.15,11.15,1.36,22.27,3.08,33.3,5.23,4.85.94,9.81,1.79,14.57,3.14.07.02.14.03.2.05,2.56.65,1.48,4.61-1.09,3.96h0Z"/><path class="cls-11" d="m327.66,301.13s26.21-11.72,38.26-22.99c1.88-1.76,3.42-3.51,4.46-5.21,0,0,36.78-119.21,30.32-162.66-3.08,4.91-7,8.62-11.32,11.41-18.1,11.66-43.25,7.19-43.25,7.19,2.02,30.32-13.34,146.67-13.34,146.67l-5.13,25.59Z"/><path class="cls-11" d="m365.92,278.14c1.88-1.76,3.42-3.51,4.46-5.21,0,0,36.78-119.21,30.32-162.66-3.08,4.91-7,8.62-11.32,11.41l-23.45,156.46Z"/><path class="cls-8" d="m239.22,462.29c2.11,1.98,41.77,1.98,41.77,1.98l-.48-3.55-3.34-24.65-30.09-2.02c-.35.59-1.7,4.05-3.21,8.36-2.75,7.88-6.02,18.6-4.66,19.89Z"/><path class="cls-12" d="m243.87,442.41c4.8,2.91,19.09,9.23,19.44,9.2l17.2,9.11-3.34-24.65-30.09-2.02c-.35.59-1.7,4.05-3.21,8.36Z"/><path class="cls-8" d="m177.34,470.62s22.03,8.28,25.38,3.53c2.24-3.18,2.31-19.54,1.56-30.81-.37-5.58-.94-9.91-1.56-10.79l-17.65.23h-.73s-.31,1.67-.31,1.67l-2.35,12.7-4.34,23.46Z"/><path class="cls-12" d="m181.57,446.33c.03.28.07.55.11.83.25,1.54.72,3.06,1.55,4.37.24.38.54.76.96.92.49.19,1.04.04,1.55-.11,6.66-1.96,13.66-4.14,18.53-9-.37-5.58-.94-9.91-1.56-10.79l-17.65.23c-.37.54-.72,1.1-1.04,1.67-2,3.59-2.93,7.79-2.46,11.88Z"/><path class="cls-10" d="m142.32,487.23c.06.07.13.15.19.23.23.27.45.54.68.8,5.2,6.14,10.53,11.73,11.94,13.05.14.13.43.29.87.49.04.02.08.04.12.06.13.06.26.12.41.18.05.02.1.04.15.06.24.1.51.2.8.32.08.03.16.06.25.09.61.23,1.33.49,2.14.76.09.03.19.06.28.1.65.22,1.35.45,2.1.7.2.07.41.13.62.2.15.05.31.1.46.15.17.05.34.11.51.16.33.11.67.21,1.02.32.12.04.23.07.35.11.2.06.4.12.6.19.04.01.08.02.12.04.12.04.24.08.37.11.74.23,1.5.46,2.3.7.26.08.53.16.8.24h0c.22.06.44.13.66.2.49.15.99.29,1.5.45.26.08.53.16.8.23.34.1.67.2,1.02.3.25.07.51.15.77.22.15.04.3.09.46.13,1.07.31,2.17.63,3.3.95.26.07.52.15.78.22.55.16,1.12.31,1.69.48.33.09.67.19,1.01.28.17.05.34.1.51.14.26.07.53.15.79.22.14.04.28.08.42.12.24.07.48.13.72.2.23.06.46.13.69.19.34.09.68.19,1.03.28.57.16,1.15.32,1.73.48.19.05.37.1.56.15.31.09.63.17.95.26.91.25,1.83.5,2.76.75.19.05.37.1.56.15.93.25,1.88.51,2.83.76.33.09.66.18.99.27.43.11.87.23,1.3.35.19.05.39.1.58.15.19.05.39.1.58.15.58.15,1.15.31,1.73.46,0,0,0,0,.01,0,.39.1.78.2,1.17.31,0,0,.02,0,.03,0,.97.25,1.94.51,2.92.76.2.05.4.1.59.15.66.17,1.33.35,2,.52.52.13,1.03.26,1.55.4.1.03.2.05.31.08.71.18,1.41.36,2.12.54.12.03.24.06.36.09,1.08.27,2.17.55,3.25.82.99.25,1.98.5,2.97.74,1.01.25,2.03.5,3.04.75.4.1.8.19,1.2.29.4.1.8.19,1.2.29.67.16,1.34.33,2,.49,2.59.63,5.16,1.24,7.68,1.83,1.08.25,2.14.5,3.2.74,2.89.66,5.72,1.3,8.44,1.89.24.05.48.1.72.16,1.69.36,3.33.71,4.93,1.04.29.06.57.12.85.17,1.41.29,2.78.56,4.11.82.29.06.57.11.85.17.31.06.61.12.92.17.15.03.3.06.45.08.2.04.41.08.61.11.31.06.61.11.91.17.15.03.3.05.45.08.15.03.3.05.45.08.07.01.14.02.21.04.22.04.45.08.67.12.92.16,1.81.31,2.66.44.21.03.41.06.62.1.73.11,1.43.22,2.1.31.16.02.32.05.48.07.03,0,.05,0,.08.01.22.03.43.06.65.08.02,0,.04,0,.05,0,.2.02.41.05.6.07.15.02.29.04.44.05.17.02.34.04.51.06.03,0,.07,0,.1.01.11.01.21.02.31.03.06,0,.13.01.19.02.14.01.28.03.42.04.17.01.33.03.49.04.82.06,1.62-.04,2.38-.28.97-.31,1.87-.87,2.59-1.63,2.33-2.44,7.73-6.71,19.26-10.66,17.47-5.99,46.02-7.58,79.51-7.4,33.49.18,60.81-3,67.33-21.15,0,0,1.72-4.59-1.64-8.58-.91-1.08-2.2-2.12-4-3.01,0,0-1.15-.57-3.22-1.6-14.52-7.19-74.27-36.56-99.21-45.27-.05-.02-.1-.03-.15-.05,0,0,.18,11.1-18.68,15.86-2.31.58-5.05,1.08-8.13,1.51-22.13,3.13-62.07,3.26-88.1,11.18-.43.13-.85.26-1.27.39-27.3,8.46-27.05,13.62-55.97,10.88-1.1-.1-2.25-.22-3.44-.35,0,0-17.57-1.59-24.27-.35-3.73.69,2.54,9.47,9.4,17.66Z"/><path class="cls-10" d="m305.98,447.81c8.57,14.31,45.1,50.06,60.27,55.92,15.97,6.17,74.52-.39,73.13-23.36-.91-1.08-2.2-2.12-4-3.01,0,0-1.15-.57-3.22-1.6-14.52-7.19-74.27-36.56-99.21-45.27-.05-.02-.1-.03-.15-.05,0,0,.18,11.1-18.68,15.86-2.31.58-5.05,1.08-8.13,1.51Z"/><path class="cls-10" d="m160.63,470.26c2.51,10.79,14.7,20.74,29.65,28.99,35.04,19.34,85.28,29.39,62,19.34-9.62-4.15-16.55-10.51-21.6-17.69-9.89-14.08-12.56-31.34-14.08-41.52-27.3,8.46-27.05,13.62-55.97,10.88Z"/><path class="cls-18" d="m283.63,509.4c-4-3.68-56.14-34.41-56.66-34.72l-.35-.21.31-.27c2.96-2.52,8.77-4.9,17.27-7.08,9.12-2.34,21.34-4.46,36.32-6.31,20.88-2.58,39.99-3.71,40.18-3.72h.07s.07.03.07.03c16.26,7.63,48.94,40.21,49.27,40.54l.54.54-.76-.04c-37.23-1.85-58.59,1.31-69.95,4.27-12.31,3.22-15.86,6.92-15.89,6.96l-.2.22-.22-.2Zm85.52-11.87c-4.33-4.28-33.46-32.75-48.49-39.85-1.33.08-19.87,1.22-40.07,3.71-14.96,1.85-27.15,3.96-36.24,6.3-8.11,2.08-13.73,4.33-16.72,6.7,4.96,2.92,51.04,30.13,56.19,34.4.9-.83,4.91-4.02,15.85-6.89,9.05-2.38,24.43-4.88,49.1-4.88,6.19,0,12.98.16,20.39.51Z"/><path class="cls-6" d="m143.2,488.26c5.2,6.14,10.53,11.73,11.94,13.05.14.13.43.29.87.49.04.02.08.04.12.06.13.06.26.12.41.18.05.02.1.04.15.06.24.1.51.2.8.32.08.03.16.06.25.09.61.23,1.33.49,2.14.76.09.03.19.06.28.1.65.22,1.35.45,2.1.7.2.07.41.13.62.2.15.05.31.1.46.15.17.05.34.11.51.16.33.11.67.21,1.02.32.12.04.23.07.35.11.2.06.4.12.6.19.04.01.08.02.12.04.12.04.24.08.37.11.74.23,1.5.46,2.3.7.26.08.53.16.8.24h0c.22.06.44.13.66.2.49.15.99.29,1.5.45.26.08.53.16.8.23.34.1.67.2,1.02.3.25.07.51.15.77.22.15.04.3.09.46.13,1.07.31,2.17.63,3.3.95.26.07.52.15.78.22.55.16,1.12.31,1.69.48.33.09.67.19,1.01.28.17.05.34.1.51.14.26.07.53.15.79.22.14.04.28.08.42.12.24.07.48.13.72.2.23.06.46.13.69.19.34.09.68.19,1.03.28.57.16,1.15.32,1.73.48.19.05.37.1.56.15.31.09.63.17.95.26.91.25,1.83.5,2.76.75.19.05.37.1.56.15.93.25,1.88.51,2.83.76.33.09.66.18.99.27.43.11.87.23,1.3.35.19.05.39.1.58.15.19.05.39.1.58.15.58.15,1.15.31,1.73.46,0,0,0,0,.01,0,.39.1.78.2,1.17.31,0,0,.02,0,.03,0,.97.25,1.94.51,2.92.76.2.05.4.1.59.15.66.17,1.33.35,2,.52.52.13,1.03.26,1.55.4.1.03.2.05.31.08.71.18,1.41.36,2.12.54.12.03.24.06.36.09,1.08.27,2.17.55,3.25.82.99.25,1.98.5,2.97.74,1.01.25,2.03.5,3.04.75.4.1.8.19,1.2.29.4.1.8.19,1.2.29.67.16,1.34.33,2,.49,2.59.63,5.16,1.24,7.68,1.83,1.08.25,2.14.5,3.2.74,2.89.66,5.72,1.3,8.44,1.89.24.05.48.1.72.16,1.69.36,3.33.71,4.93,1.04.29.06.57.12.85.17,1.41.29,2.78.56,4.11.82.29.06.57.11.85.17.31.06.61.12.92.17.15.03.3.06.45.08.2.04.41.08.61.11.31.06.61.11.91.17.15.03.3.05.45.08.15.03.3.05.45.08.07.01.14.02.21.04.22.04.45.08.67.12.92.16,1.81.31,2.66.44.21.03.41.06.62.1.73.11,1.43.22,2.1.31.16.02.32.05.48.07.03,0,.05,0,.08.01.22.03.43.06.65.08.02,0,.04,0,.05,0,.2.02.41.05.6.07.15.02.29.04.44.05.17.02.34.04.51.06.03,0,.07,0,.1.01.11.01.21.02.31.03.06,0,.13.01.19.02.14.01.28.03.42.04.17.01.33.03.49.04.82.06,1.62-.04,2.38-.28-.02-.03-.05-.06-.1-.08-1.79-.85-5.42-2.9-8.13-6.5-1.97-2.61-3.46-6.05-3.41-10.45.03-3.27.9-7.07,3.05-11.45,0,0-45.48,0-76.32-2.26-3.38-.25-6.57-.52-9.52-.83-1.34-.14-2.62-.28-3.84-.43-3.2-.39-5.99-.83-8.25-1.32-.38-.08-.75-.17-1.1-.25,0,0-1.35-.23-3.39-.68-2.04-.45-4.77-1.11-7.53-1.96-4.31-1.33-8.68-3.13-10.6-5.32Z"/><path class="cls-6" d="m264.1,523.22c-1.97-2.61-3.46-6.05-3.41-10.45-15.75-1.31-47.96-2.39-47.96-2.39-4.67,4.11,34.14,10.32,51.37,12.84Z"/><path class="cls-6" d="m332.95,430.49l3.02,2.06c24.62,9.25,88.39,62.33,88.89,62.75l-2.49-7.03c-.49-2.61-.06-4.6.9-6.11,3.17-5.02,12.11-4.8,12.11-4.8,0,0-32.82-16.39-63.15-30.27h0c-15.19-6.95-29.77-13.28-39.27-16.6Z"/><path class="cls-6" d="m372.23,447.09l51.04,35.07c3.17-5.02,12.11-4.8,12.11-4.8,0,0-32.82-16.39-63.15-30.27Z"/><path class="cls-18" d="m264.6,496.83c3.22-6.11,19.16-10.86,46.09-13.74,20.42-2.18,40.11-2.52,40.31-2.52v-.59c-.21,0-19.93.34-40.37,2.53-27.53,2.94-43.19,7.67-46.55,14.05l.52.27Z"/><path class="cls-18" d="m338.89,497.48s.08-.02.13-.05l.15-.31-.58.09.29-.05-.15-.25c.12-.07.25-.04.31,0-.15-.11-1.49-1.41-3.33-3.2-7.7-7.47-28.15-27.3-38.36-34.68l-.34.48c10.18,7.36,30.61,27.17,38.3,34.63,1.05,1.02,1.89,1.83,2.47,2.39.79.76.99.95,1.12.95Z"/><path class="cls-18" d="m331.15,497.96l.42-.41c-1.4-1.41-34.42-34.57-40.55-37.73l-.27.52c6.05,3.12,40.06,37.28,40.41,37.63Z"/><rect class="cls-18" x="259.24" y="456.19" width=".59" height="66" transform="translate(-292.86 450.08) rotate(-58)"/><path class="cls-18" d="m243.58,467.28l.63-.16c9.12-2.34,21.34-4.46,36.32-6.31h.16s19.94,17.65,19.94,17.65l-.69.06c-.27.02-27.46,2.27-31.21,5.73l-.17.16-24.97-17.12Zm36.89-5.87c-14.56,1.8-26.49,3.86-35.49,6.12l23.53,16.13c4.12-3.23,26.39-5.3,30.69-5.67l-18.73-16.58Z"/><path class="cls-18" d="m221.61,480.51c-4.17,2.2-8.53,4.03-13.02,5.45s-9.12,2.43-13.79,3.03c-2.63.34-5.28.54-7.94.6-.4,0-.4-.61,0-.62,4.67-.11,9.33-.65,13.91-1.6s9.06-2.31,13.39-4.06c2.44-.98,4.82-2.1,7.15-3.33.35-.19.67.35.31.54h0Z"/><path class="cls-18" d="m231.01,487.65c-3.83,1.87-7.82,3.43-11.87,4.76-4.16,1.37-8.4,2.49-12.7,3.34-2.31.45-4.63.82-6.96,1.09-.4.05-.39-.58,0-.62,4.18-.48,8.33-1.3,12.41-2.34,4.21-1.08,8.37-2.4,12.42-3.98,2.17-.85,4.3-1.77,6.39-2.79.36-.17.67.36.31.54h0Z"/><path class="cls-6" d="m267.96,292.56l5.75,15.31,11.18,29.74,26.63,31.12s11.29,2.53,19.37,1.13c2.24-.39,4.23-1.07,5.66-2.2,1.9-1.49,2.82-3.74,2.07-7.07-.62-2.76-1.96-7.23-3.76-12.74-7.93-24.31-24.77-68.89-28.09-76.6-2.21-5.14-7.05-9.36-11.01-12.15-1.28-.9-2.46-1.65-3.44-2.23-1.58-.94-2.61-1.45-2.61-1.45l-21.76,37.15Z"/><path class="cls-4" d="m273.72,307.87l11.18,29.74,26.63,31.12s11.29,2.53,19.37,1.13l5.66-2.2c1.9-1.49,2.82-3.74,2.07-7.07-.62-2.76,3.31,1.52,1.51-3.99-4.67.06-21.27,5.4-23.73,5.38-2.61-.02-8.02-30.39-8.02-30.39-1.41-14.23-14.2-21.07-14.2-21.07,1.32-17.79,1.99-39.64,1.59-51.43-1.28-.9-2.46-1.65-3.44-2.23l-1.25,4.03-17.37,46.98Z"/><path class="cls-14" d="m278.61,274.41c.74,1.82,2.38,19.97,2.38,19.97l-7.66-7.26,5.28-12.71Z"/><path class="cls-3" d="m272.63,287.26l5.98-14.39.54,1.32c.75,1.84,2.25,18.27,2.42,20.14l.14,1.55-9.08-8.61Zm1.39-.3l6.24,5.91c-.53-5.73-1.3-13.11-1.83-16.51l-4.4,10.6Z"/><path class="cls-18" d="m138.92,388.45c.35,1.37,5.11,20.31,6.26,26.83.83,4.75,5.73,10.53,9.13,13.93,1.27,1.27,2.33,2.21,2.89,2.64,2.06,1.59,30.63,17.9,37.77,14.1,1.75-.93,3.4-2.33,4.88-3.96,4.56-5.02,7.59-12.23,7.46-14.86-.18-3.49-7.4-15.55-10.18-18.9-2.78-3.35,3.13-4.58,3.13-4.58,0,0,18.08,0,27.99-.17,2.73-.05,4.84-.11,5.77-.18,1.07-.09,2.5-.79,4.06-1.79,4.75-3.07,10.62-8.98,10.62-8.98h0c-.15.72-7.87,37.96-6.21,43.2.86,2.71,11.52,7.76,22.51,11.47,10.5,3.54,21.29,5.84,24.17,3.69,5.89-4.41,17.56-122.15,15.17-127.3-1.86-4-12.39-12.51-16.97-16.09-.51-.28-1.08-.56-1.71-.83h0c-3.48-1.48-8.56-2.4-12.31,2.24,0,0-25.66,23.71-28.1,46.22-2.43,22.51-23.73,19.47-26.37,29.21-2.64,9.73-7.1.81-13.79-1.62-6.69-2.43-19.47-10.95-19.47-10.95l1.12-39.64.18-6.38c-18.29,5.43-32.31,10.09-34.24,11.25-5.77,3.49-14.1,50.08-13.75,51.46Z"/><path class="cls-17" d="m154.31,429.2c1.27,1.27,2.33,2.21,2.89,2.64,2.06,1.59,30.63,17.9,37.77,14.1,1.75-.93,3.4-2.33,4.88-3.96-8.94-11.22-11.12-26.94-11.22-31.75-.1-4.88,15.13-6.6,8.49-6.95-6.64-.35-5.01-15.35-3.94-18.14,1.07-2.79,17.34,3.68,21.06,4.58,3.72.89,7.93-3.58,8.43-5.67.5-2.09,22.89-7.46,24.41-28.91,1.52-21.45,21.97-34.99,24.96-41.58,2.96-6.53,13.41-6.89,13.6-6.9-3.48-1.48-8.56-2.4-12.31,2.24,0,0-25.66,23.71-28.1,46.22-2.43,22.51-23.73,19.47-26.37,29.21-2.64,9.73-7.1.81-13.79-1.62-6.69-2.43-19.47-10.95-19.47-10.95l1.12-39.64c-14.85,7.55-27.54,14.56-29.53,17.4-4.26,6.09-3.46,57.68-2.89,79.68Z"/><path class="cls-14" d="m173.85,237.5c.08-.02.82-.21,2.01-.23,2.08-.04,5.55.42,9.33,3.12,0,0,0,0,0,0,1.6,3.05,2.88,9.9,3.91,18.73,3.64,31.29,4.09,87.45,4.09,87.45l-6.91,1.33-.67,23.87s12.78,8.52,19.47,10.95c5.11,1.86,8.92,7.49,11.6,5.73.83-.55,1.56-1.81,2.19-4.11,1.94-7.16,13.97-7.41,21.17-15.99,2.59-3.09,4.56-7.26,5.2-13.21.21-1.93.59-3.88,1.11-5.81,5.54-20.6,26.99-40.41,26.99-40.41,3.75-4.64,8.84-3.72,12.31-2.24.63.27,1.2.55,1.71.83,1.37.75.56-10.12.56-10.12,2.49.43,7.92-38.64,5.48-40.57,0,0-1.9-1.31-5.06-3.41-11.4-7.6-39.12-25.58-52.25-29.56-.64-.19-1.24-.36-1.81-.48-15.3-3.37-59.8,13.9-60.43,14.15Z"/><path class="cls-14" d="m173.85,237.5c.08-.02.82-.21,2.01-.23,2.08-.04,5.55.42,9.33,3.12,0,0,0,0,0,0,1,1.9,1.87,5.28,2.64,9.7.46,2.66.88,5.71,1.27,9.03,2.85,24.46,3.74,64.13,4,80.27.07,4.5.09,7.18.09,7.18l-6.91,1.33-.08,2.75-.13,4.51-.32,11.25-.15,5.36s12.78,8.52,19.47,10.95c2.37.86,4.47,2.54,6.3,3.92.69.52,1.34.99,1.96,1.36,1.26.76,2.38,1.09,3.34.45.83-.55,1.56-1.81,2.19-4.11.03-.1.06-.21.09-.31,0-.01,0-.03.01-.04.03-.1.07-.2.11-.31,0,0,0,0,0-.01.04-.09.07-.19.11-.28,0-.01.01-.03.02-.04.04-.09.08-.17.12-.26,0-.01.01-.03.02-.05.05-.09.09-.18.14-.27.05-.08.1-.17.15-.25.07-.12.15-.24.23-.36.05-.07.09-.13.14-.19.02-.02.03-.05.05-.07.12-.16.25-.31.38-.46,0,0,.01-.01.02-.02.07-.08.14-.16.22-.24.08-.08.16-.16.24-.24.07-.07.15-.15.23-.22,0,0,.01-.01.02-.02.08-.08.17-.15.26-.23.18-.16.36-.31.55-.45.16-.12.32-.24.48-.36.04-.03.08-.06.12-.08.09-.06.19-.13.28-.19,0,0,0,0,.01,0,.1-.07.2-.13.3-.2.02-.01.04-.03.06-.04.09-.06.19-.12.28-.18.1-.06.2-.12.3-.18.22-.13.45-.26.68-.39.12-.06.23-.13.35-.19.3-.16.6-.32.91-.48.43-.22.87-.44,1.32-.66.12-.06.23-.12.35-.17,1.5-.73,3.09-1.49,4.68-2.37l.28-.16s.07-.04.1-.06c.08-.04.15-.08.23-.13.25-.14.51-.29.77-.45,0,0,.01,0,.02-.01.09-.05.19-.11.28-.17.28-.17.55-.34.83-.52.08-.06.17-.11.26-.17.2-.14.41-.27.61-.42.07-.05.15-.11.22-.16.45-.32.89-.66,1.33-1.01.07-.06.14-.12.21-.18.09-.08.18-.16.28-.23h0c.88-.76,1.72-1.59,2.5-2.53l.2-7.7.6-23.18.13-5.17.28-10.76c-.09-.41-2.89-10.89-6.32-23.67l-.16-.6c-2.5-9.33-5.32-19.8-7.64-28.46-2.09-7.76-3.78-14.05-4.51-16.74-.42-1.54-.92-3.15-1.39-4.78-2.24-7.69.1-13.21,9.84-17.99l5.03-5.47c-.64-.19-1.24-.36-1.81-.48-15.3-3.37-59.8,13.9-60.43,14.15Z"/><path class="cls-9" d="m234.76,297.26c.05.2.11.4.16.6,1.95,2.25,4.5,3.99,7.28,5.09.66.26,1.34.49,2.03.68,2.75.78,5.65,1.02,8.52.85h0c5.92-5.91,12.28-11.1,17.02-14.73.06-1.28.03-2.56-.07-3.82-.1-1.38-.26-2.76-.43-4.14-.33-2.84-.65-5.68-.4-8.52-2.14-3.06-8.02-4.72-11.45-6.18-5.13-2.17-11.27-4.28-16.03-1.59-.19.11-.37.22-.56.34-1.95,1.3-3.3,3.31-4.51,5.32-.47.79-.93,1.6-1.36,2.42,1.69,5.21.94,15.17-.21,23.67Z"/><path class="cls-14" d="m186.28,347.89l6.91-1.33s-.45-56.16-4.09-87.45c-.05,6.46-.65,12.05-.65,12.05l-1.54,54.57-.63,22.15Z"/><path class="cls-3" d="m187.86,271.15v-.05c0-.06.6-5.64.65-12l1.17-.06c3.61,30.96,4.09,86.95,4.09,87.52v.49s-8.1,1.56-8.1,1.56l2.19-77.46Zm1.49-3.77c-.15,2.17-.3,3.62-.32,3.82l-2.14,75.97,5.71-1.1c-.05-5.1-.56-48.78-3.24-78.7Z"/><path class="cls-6" d="m242.47,316.47c1.24-1.78,2.62-3.55,4.08-5.28,1.94-2.3,4.04-4.55,6.2-6.7h0c3.91-3.9,8.02-7.5,11.72-10.53,1.9-1.56,3.7-2.97,5.31-4.2,4.39-3.36,7.4-5.37,7.4-5.37,0,0-3.94-2.16-7.89-2.59-.44-.05-.88-.08-1.32-.08-2.22,0-8.6,4.14-14.47,8.23-1.74,1.21-3.43,2.41-4.96,3.5-1.32.94-2.53,1.8-3.52,2.5-.03.37-.06.74-.1,1.11-.02.27-.05.54-.07.81-.12,1.28-.25,2.57-.39,3.85-.07.64-.14,1.28-.22,1.92-.03.29-.06.57-.1.86-.07.57-.14,1.14-.21,1.7-.05.37-.09.74-.14,1.11-.06.47-.12.94-.18,1.4-.11.83-.22,1.64-.34,2.44-.04.27-.07.53-.11.8-.04.26-.07.53-.11.78-.01.09-.02.17-.04.26-.05.37-.11.74-.16,1.1-.12.82-.24,1.61-.36,2.38Z"/><path class="cls-4" d="m267.96,281.72c-2.22,0-8.6,4.14-14.47,8.23l10.98,4.01c1.9-1.56,3.7-2.97,5.31-4.2,4.39-3.36,7.4-5.37,7.4-5.37,0,0-3.94-2.16-7.89-2.59-.44-.05-.88-.08-1.32-.08Z"/><path class="cls-14" d="m216.25,383.77c.03,1.47.15,3.07.43,4.68.83-.55,1.56-1.81,2.19-4.11,2.64-9.74,23.93-6.69,26.37-29.21,2.43-22.51,28.1-46.22,28.1-46.22,4.43-5.48,10.71-3.21,14.02-1.41,1.37.75,2.23,1.41,2.23,1.41.1.02-1.23-6.85-1.12-7,2.43-3.41,7.15-41.54,5.06-44.96-.04-.06-.08-.11-.12-.15,0,0-1.9-1.31-5.06-3.41-.24.63-.52,1.31-.82,2.06-3.21,8.05-9.22,22.73-11.53,33.85-.03.14-.06.28-.08.42-1.29,6.42-5.44,11.9-11.32,14.79-.06.03-.11.05-.17.08-1.69.82-3.67,2.3-5.6,4.08-4.38,4.03-8.61,9.63-9.1,12.86-.7,4.62-11.69,18.7-11.86,18.92,0,0-3.6,4.52-3.85,11.3-.25,6.78-9.99,6.21-8.86,12.14.89,4.69-.16,8.06-4.42,11.01-2.89,2-4.56,5.35-4.49,8.86Z"/><path class="cls-10" d="m216.25,383.77c.03,1.47.15,3.07.43,4.68.83-.55,1.56-1.81,2.19-4.11.03-.1.06-.21.09-.31,0-.01,0-.03.01-.04.03-.1.07-.2.11-.31,0,0,0,0,0-.01.04-.09.07-.19.11-.28,0-.01.01-.03.02-.04.04-.09.08-.17.12-.26,0-.01.01-.03.02-.05.05-.09.09-.18.14-.27.05-.08.1-.17.15-.25.07-.12.15-.24.23-.36.05-.07.09-.13.14-.19.02-.02.03-.05.05-.07.12-.16.25-.31.38-.46,0,0,.01-.01.02-.02.07-.08.14-.16.22-.24.08-.08.16-.16.24-.24.07-.07.15-.15.23-.22,0,0,.01-.01.02-.02.08-.08.17-.15.26-.23.18-.16.36-.31.55-.45.16-.12.32-.24.48-.36.04-.03.08-.06.12-.08.09-.06.19-.13.28-.19,0,0,0,0,.01,0,.1-.07.2-.13.3-.2.02-.01.04-.03.06-.04.09-.06.19-.12.28-.18.1-.06.2-.12.3-.18.22-.13.45-.26.68-.39.12-.06.23-.13.35-.19.3-.16.6-.32.91-.48.43-.22.87-.44,1.32-.66.12-.06.23-.12.35-.17,1.5-.73,3.09-1.49,4.68-2.37l.28-.16s.07-.04.1-.06c.08-.04.15-.08.23-.13.26-.15.52-.3.78-.46.09-.05.19-.11.28-.17.28-.17.55-.34.83-.52.08-.06.17-.11.26-.17.2-.14.41-.27.61-.42.07-.05.15-.11.22-.16.45-.32.89-.66,1.33-1.01.07-.06.14-.12.21-.18.09-.08.18-.16.28-.23h0c.88-.76,1.72-1.59,2.5-2.53.88-1.05,1.69-2.22,2.4-3.55.73-1.36,1.35-2.88,1.84-4.59.03-.1.05-.19.08-.29.4-1.45.7-3.04.89-4.78.11-1.05.28-2.1.49-3.15,4.28-21.52,27.61-43.08,27.61-43.08,4.43-5.48,10.71-3.21,14.02-1.41,1.37.75,2.23,1.41,2.23,1.41.1.02.21-.05.31-.2-3.26-2.95-7.03-5.15-11.35-5.48-3.86-.3-7.67.96-11.32,2.24-2.82.99-5.66,2.02-8.41,3.21-4.38,4.03-8.61,9.63-9.1,12.87-.56,3.71-3.63,7.45-5.68,10.45-1.37,2.01-2.37,3.71-3.21,5.47-.97,2.05-1.73,4.17-2.57,6.92-.77,2.54-1.64,5.08-2.6,7.62-1.07,2.82-2.26,5.62-3.56,8.36-.41.87-.84,1.72-1.28,2.57-1.11,2.17-2.29,4.28-3.55,6.31-.15.24-.3.47-.47.69-.84,1.14-1.88,2.11-2.98,3.03-3.55,2.95-7.7,5.28-7.58,10.82Z"/><path class="cls-10" d="m185.61,371.76s12.78,8.52,19.47,10.95c5.11,1.86,8.92,7.49,11.6,5.73-.28-1.61-.4-3.21-.43-4.68-.12-5.54,4.03-7.87,7.58-10.82-5.41-2.06-10.66-4.9-13.98-9.59-4.73-6.7-6.11-17.83-4.28-25.55,2.22-9.34.27-19.01-.84-28.35-2.16-18.17-5.75-36.32-12.77-53.29-.95-2.29-2.14-4.74-4.14-6.08.46,2.66.88,5.71,1.27,9.03,2.85,24.46,3.74,64.13,4,80.27.07,4.5.09,7.18.09,7.18l-6.91,1.33-.08,2.75-.13,4.51-.32,11.25-.15,5.36Z"/><path class="cls-6" d="m157.38,300.77c.47,7.76.75,16.25.91,24.09.32,15.43.2,28.36.2,28.36l27.79-5.33,6.91-1.33s-.45-56.16-4.09-87.45c-1.03-8.83-2.31-15.68-3.91-18.73,0,0,0,0,0,0-3.78-2.69-7.25-3.15-9.33-3.12-.3.15-.6.31-.9.47-3.18,1.72-6.16,4.08-7.86,7.04-4.58,7.98-11.1,32.96-9.71,56Z"/><path class="cls-4" d="m158.49,353.23l27.79-5.33,6.91-1.33s-.45-56.16-4.09-87.45c-1.03-8.83-2.31-15.68-3.91-18.73,0,0,0,0,0,0-3.78-2.69-7.25-3.15-9.33-3.12-.3.15-.6.31-.9.47,2.54.64,8.61,2.69,9.39,7.92.98,6.64,2.38,86.46,2.38,86.46,0,0-17.6-4.48-18.1-1.32-.5,3.16-2.6,8.96-2.6,8.96l-6.46-6.58c.32,15.43-1.07,20.05-1.07,20.05Z"/><path class="cls-6" d="m158.3,326.62l-1.11,31.88s.24-.8,1.05-1.89c2.47-3.31,10.31-9.22,33.15-2.8.59.17,1.19.34,1.8.52.42.13-.36-24.66-.36-24.66-2.36-1.53-15.95-6.59-28.23-5.59h0l3.32-.85-9.61,3.39Z"/><path class="cls-13" d="m145.17,489.22s1.94,1.53,4.44.55c2.46-.96,6.26-14.55,6.38-14.98l-2.19,18.79c2.76.85,5.49,1.51,7.53,1.96l4.1-19.37v19.98s.14.12.39.32c2.25.49,5.05.92,8.25,1.32.4-6.22,1.13-19.12,1.13-19.12l2.71,19.56c2.95.3,6.14.58,9.52.83.15-2.8-1.09-13.09-1.45-20.1-.04-.83-.04-1.61,0-2.34.24-4.76,1.99-7.45,2.68-9.82.22-.77.33-1.51.24-2.28-.25-2.09-1.26-17.72-2.02-29.79-.18-2.8-.34-5.41-.48-7.62-.25-4.04-.42-6.72-.42-6.72l3.26-40.06,2.16-26.52c-22.84-6.42-30.68-.51-33.15,2.8-.04.67-.07,1.34-.1,2.02-1.23,29.85,8.13,71.19,8.13,71.19l-.13.29-2.47,5.7-12.67,29.26-5.83,24.15Z"/><path class="cls-6" d="m306.47,361.76s9.53,27.69,11.33,29.96c0,0,.12.08.39.19.16-.4-.17-2.28.07-4.57.36-3.41,2-7.7,8.4-9.27,6.91-1.69,13.82-2.62,18.52-2.46,2.74.1,4.73.56,5.53,1.47.12.14.22.29.28.46-.57-3.94-20.06-42.39-21.78-43.46-1.92-1.2-5.44,19.53-5.44,19.53l-.37-5.44-7.79.12s-1.3.78-9.14,13.47Z"/><path class="cls-4" d="m318.2,391.91c.43.17,1.25.42,2.58.54,2.68.24,7.46-.04,15.37-2.55,5.73-1.82,9.27-4.08,11.45-6.14,3.05-2.87,3.46-5.35,3.5-5.66,0,0,0,0,0-.01,0-.01,0-.02,0-.02-.01-.03-.02-.06-.03-.09,0,0,0,0,0,0-.11-.31-.22-.6-.35-.89-.79-.91-2.78-1.37-5.53-1.47-4.7-.17-11.61.76-18.52,2.46-6.4,1.57-8.03,5.86-8.4,9.27-.24,2.29.08,4.18-.07,4.57Z"/><path class="cls-13" d="m374.28,496.98c-.46.61-.82,1.31-1.25,1.94-.29.43-1.45,2.54-2.14,2.39-.78-.16-3.92-3.04-1.31-9.32,0,0-10.73-16.74-11.77-21.72,0,0-.7-.95-1.66-2.07-1.91-2.24-4.82-5.17-5.16-2.64-.32,2.37.43,9.71-.01,15.36-.27,3.38-.97,6.15-2.59,6.89-4.32,1.96-5.89-17.66-7.85-21.98-1.96-4.32-1.87-14.39-1.66-16.74.19-2.08,3.98-8.02,4.87-9.39.12-.18.19-.29.19-.29,0,0-3.74-7.54-8.58-17.34-2.28-4.61-4.8-9.71-7.29-14.77-2.57-5.2-5.1-10.35-7.3-14.84-.9-1.83-1.74-3.55-2.5-5.12.36-3.41,2-7.7,8.4-9.27,6.91-1.69,13.82-2.62,18.52-2.46.11.39.23.78.35,1.19h0c.6,2.04,1.3,4.39,2.05,6.95,5.74,19.49,15.08,51.43,15.72,54.86.92,4.97,13.61,26.95,14.13,29.3.46,2.05,1.91,12.46,2.27,15.09.06.4.02.81-.11,1.19,0,0-1.9,5.69-1.9,5.7-.28.84-1.09,1.74-1.13,2.62l-2.28,4.47Z"/><path class="cls-17" d="m200.26,403.65s18.08,0,27.99-.17c-16.45-1.83-23.05-11.75-23.05-11.75-4.63,6.25-4.94,11.93-4.94,11.93Z"/><path class="cls-17" d="m234.01,403.29c4.32-.35,14.67-10.77,14.67-10.77,0,0,7.96-37.53,11.14-47.04,3.18-9.52-17.96,47.06-25.81,57.81Z"/><path class="cls-6" d="m226.11,268.03c1.69,5.21,8.65,29.24,8.65,29.24.05.2.11.4.16.6l4.03,15.09,2.29,8.58c.17.75-.13,2.99-.6,5.68.24-1.3.99-5.37,1.82-10.74.59-3.8,1.23-8.26,1.76-12.84.3-2.55.56-5.15.77-7.69.53-6.46.69-12.58.06-16.88-.29-1.99-.75-3.6-1.42-4.66-1.17-1.85-1.87-5.03-2.24-8.89-1.05-10.77.42-26.84,1.19-34.02.08-.74.15-1.38.21-1.92.13-1.14.22-1.78.22-1.78,0,0-1.74-.59-4.17-.74-.73-.04-1.52-.05-2.34.01-3.81.29-8.34,2.01-10.8,7.9-.12.28-.23.56-.35.86-1.25,3.08-2.69,7.14-4.15,11.48"/><path class="cls-6" d="m212.73,274.4c.17-.11,7.94-5.15,14.39-5.6"/><path class="cls-4" d="m225.74,248.79c2.2,8.94,16.62,26.96,19.33,30.28-.29-1.99-.75-3.6-1.42-4.66-1.17-1.85-1.87-5.03-2.24-8.89-1.05-10.77.42-26.84,1.19-34.02.08-.74.15-1.38.21-1.92l-6.29-2.51c-3.81.29-8.34,2.01-10.8,7.9-.12.28-.23.56-.35.86-.48,4.32-.59,9.07.37,12.97Z"/><path class="cls-7" d="m230.31,209.2s-5.81,18.29,0,30.15c4.85,9.89,18.37-3.63,18.37-3.63,0,0,5.76-13.16-4.77-21.42s-13.6-5.1-13.6-5.1Z"/><path class="cls-13" d="m234.72,253.79c1.11,25.54,19.44,33.71,26.2,35.01,2.15.41,5.03.51,6.42-.03,13.26-5.22,22.73-23.62,25.29-31.22.52-1.53,4.3-12.39,4.22-12.84l-56.87-17.21-.13,3.05-.31,7.17c-1.42-3.53-4.95-4.9-6.86-4.85-1.7.05-5.66,1.15-7.29,4.28-6.48,12.45,9.35,16.65,9.35,16.65Z"/><path class="cls-9" d="m239.92,230.54c3.21,4.3,11.91,15.18,25.44,22.12,11.15,5.72,22,6.7,27.34,4.88.52-1.53,4.79-14.8,4.72-15.26l-56.2-30.22-1.31,18.47Z"/><path class="cls-5" d="m211.38,386.64c.69.52,1.34.99,1.96,1.36.05-1.46.88-3.89,4.03-7.1,10.42-10.62,19.5-25.31,23.47-43.43l.13-5.17c-1.74,5.42-11.3,34.26-19.19,39.83-5.25,3.7-8.58,10.05-10.4,14.51Z"/><path class="cls-17" d="m248.68,392.54c-.15.71-7.87,37.95-6.21,43.19.86,2.71,11.52,7.76,22.51,11.47-5.73-34.17-4.89-69.34-2.49-104-1.01.54-2.92,1.08-3.44,2.11-6.37,12.51-9.57,26.35-14.4,39.53-2.05,5.6-4.4,11.11-6.59,16.67,4.75-3.07,10.62-8.98,10.62-8.98h0Z"/><g class="cls-2"><path class="cls-9" d="m318.27,387.34c.77,1.57,1.61,3.29,2.5,5.12,2.2,4.49,4.74,9.64,7.3,14.84-.11-.45-.24-.93-.41-1.44-2.92-8.72-3.4-16.54-1.9-23.05,1.5-6.51,19.78-6,19.78-6h0c-.12-.41-.24-.81-.35-1.2-4.7-.17-11.61.76-18.52,2.46-6.4,1.57-8.03,5.86-8.4,9.27Z"/></g><path class="cls-9" d="m343.95,439.4s-.07.1-.19.29c.44-.55.89-1.1,1.33-1.64.24-.3.49-.63.51-1.01.02-.42-.26-.79-.52-1.12-3.47-4.45-6.71-9.08-9.72-13.85,4.84,9.8,8.58,17.34,8.58,17.34Z"/><path class="cls-9" d="m349.5,472.47c.82,2.74,1.31,5.59,1.48,8.45.45-5.64-.3-12.98.01-15.36.34-2.53,3.25.4,5.16,2.64-1.24-2-2.68-3.87-4.29-5.58-1.45-1.53-3.23-3.02-5.34-3.06-1.03-.02,2.77,12.21,2.98,12.91Z"/><path class="cls-9" d="m158.14,358.64c1.91-1.64,3.91-3.23,6.23-4.18,1.76-.72,3.65-1.06,5.54-1.25,3.91-.39,8.69-.56,11.52,2.36,3.87,3.99,5.12,9.04,6.13,14.3.66,3.47,1.22,6.96,1.67,10.47l2.16-26.52c-22.84-6.42-30.68-.51-33.15,2.8-.04.67-.07,1.34-.1,2.02Z"/><g class="cls-2"><path class="cls-9" d="m185.96,476.61c.24-4.76,1.99-7.45,2.68-9.82-4.07.56-3.87,5.56-2.68,9.82Z"/></g><path class="cls-16" d="m491.26,474.91l-24.32,18.17s29.68,14.04,41.67,6.16c11.98-7.87,88.48-114.48,93.8-129.25,0,0,.78-8.54-5.38-23.95-11.91-29.8-49.75-85.26-169.29-154.25,0,0-14.08,66.93-38.63,100.37-2.7,3.68-5.54,6.96-8.49,9.7,0,0,137.67,108.37,110.65,173.04Z"/><path class="cls-16" d="m491.26,474.91l-24.32,18.17s29.68,14.04,41.67,6.16c11.98-7.87,88.48-114.48,93.8-129.25,0,0,.78-8.54-5.38-23.95-15.66,9.7-51.99,21.44-121.25-6.72-43.69-17.76-70.43-34.25-86.67-47.15-2.7,3.68-5.54,6.96-8.49,9.7,0,0,137.67,108.37,110.65,173.04Z"/><path class="cls-8" d="m466.94,493.08s6.13,2.9,13.93,5.32c9.38,2.91,21.19,5.14,27.73.84,7-4.6,36.06-42.95,60.05-76.96,17.05-24.17,31.54-46.15,33.75-52.29-19.85,20.09-39.8,8.78-39.8,8.78-28.43,63.59-71.35,96.13-71.35,96.13l-24.32,18.17Z"/><g class="cls-1"><path class="cls-8" d="m480.87,498.4c9.38,2.91,21.19,5.14,27.73.84,7-4.6,36.06-42.95,60.05-76.96-29.11,36.54-67.56,79.9-83.83,76.77-1.51-.29-2.82-.51-3.96-.65Z"/></g><path class="cls-8" d="m536.04,282.58c.79.68,1.56,1.37,2.36,2.04-4.63,7.29-9.34,14.54-14.04,21.78-.76-.74-1.53-1.47-2.31-2.19,4.67-7.21,9.43-14.36,13.99-21.63Z"/><path class="cls-14" d="m533.69,280.56c.78.68,1.57,1.34,2.36,2.02-4.56,7.27-9.32,14.43-13.99,21.63-.78-.72-1.56-1.42-2.35-2.13,4.65-7.18,9.42-14.28,13.98-21.52Z"/><path class="cls-8" d="m426.07,309.95c17.47,18.85,37.01,35.87,52.44,56.54.37-.47.74-.95,1.11-1.43,15.19-19.56,28.94-40.09,42.44-60.84l24.5,24.73c-5.21-8.75-13.47-18.33-22.84-27.74-26.78-26.87-62.68-52.23-62.68-52.23,0,0-19.43,41.63-34.97,60.97Z"/><path class="cls-14" d="m478.51,366.48c6.28,8.56,11.6,17.77,17.68,26.47,18.15-20.24,33.54-42.71,50.37-64.01-5.21-8.75-13.47-18.33-22.84-27.74-13.36,20.41-31.09,47.01-44.09,63.85-.37.48-.75.96-1.11,1.43Z"/><path class="cls-14" d="m473.75,274.76c-3.75-3.52-7.47-7.05-11.16-10.63.65-1.14,1.29-2.27,1.94-3.41,3.69,3.59,7.42,7.13,11.18,10.65-.66,1.13-1.31,2.26-1.97,3.39Z"/><path class="cls-14" d="m469.57,281.98c-3.7-3.52-7.39-7.05-11.06-10.6.64-1.13,1.27-2.26,1.91-3.38,3.68,3.57,7.38,7.1,11.11,10.62-.65,1.12-1.3,2.25-1.95,3.37Z"/><path class="cls-14" d="m465.42,289.08c-3.67-3.5-7.33-7-10.95-10.55.63-1.11,1.25-2.23,1.88-3.34,3.64,3.55,7.32,7.07,11,10.58-.64,1.1-1.29,2.21-1.93,3.31Z"/><path class="cls-14" d="m461.33,296.04c-3.64-3.47-7.27-6.95-10.83-10.5.62-1.08,1.24-2.16,1.86-3.24,3.58,3.54,7.23,7.02,10.88,10.5-.64,1.08-1.27,2.16-1.91,3.24Z"/><path class="cls-14" d="m457.26,302.87c-3.59-3.49-7.18-7-10.72-10.54.62-1.05,1.24-2.1,1.85-3.15,3.55,3.55,7.17,7.02,10.77,10.5-.63,1.06-1.27,2.13-1.9,3.19Z"/><path class="cls-14" d="m453.22,309.62c-3.54-3.54-7.09-7.09-10.61-10.66.61-1.03,1.23-2.06,1.84-3.1,3.52,3.57,7.09,7.09,10.66,10.61-.63,1.05-1.26,2.1-1.89,3.15Z"/><path class="cls-14" d="m449.2,316.3c-3.53-3.57-7.04-7.15-10.52-10.77.61-1.02,1.23-2.04,1.84-3.07,3.49,3.6,7.02,7.16,10.55,10.72-.63,1.04-1.25,2.08-1.87,3.12Z"/><path class="cls-14" d="m490.43,290.26c-3.91-3.59-7.79-7.21-11.68-10.82.66-1.13,1.33-2.27,1.99-3.4,3.9,3.6,7.82,7.17,11.71,10.79-.68,1.15-1.35,2.29-2.02,3.44Z"/><path class="cls-14" d="m486.12,297.53c-3.89-3.6-7.74-7.24-11.6-10.87.66-1.12,1.32-2.25,1.98-3.37,3.88,3.63,7.74,7.26,11.65,10.86-.67,1.13-1.35,2.26-2.02,3.38Z"/><path class="cls-14" d="m481.75,304.64c-3.83-3.61-7.63-7.26-11.43-10.9.65-1.1,1.31-2.2,1.96-3.3,3.83,3.64,7.66,7.28,11.52,10.89-.68,1.1-1.36,2.21-2.05,3.31Z"/><path class="cls-14" d="m477.32,311.58c-3.74-3.61-7.4-7.29-11.14-10.89.64-1.08,1.29-2.16,1.93-3.24,3.78,3.62,7.51,7.28,11.29,10.9-.69,1.08-1.39,2.15-2.08,3.23Z"/><path class="cls-14" d="m473.1,318.45c-3.7-3.61-7.36-7.26-11.04-10.89.65-1.07,1.29-2.14,1.93-3.21,3.7,3.61,7.35,7.26,11.04,10.88-.64,1.07-1.29,2.15-1.93,3.22Z"/><path class="cls-14" d="m468.94,325.26c-3.67-3.63-7.34-7.27-10.99-10.91.64-1.05,1.28-2.11,1.91-3.16,3.67,3.64,7.34,7.28,11.03,10.9-.65,1.06-1.3,2.12-1.95,3.18Z"/><path class="cls-14" d="m464.76,332c-3.62-3.65-7.25-7.3-10.86-10.95.63-1.04,1.26-2.09,1.89-3.13,3.63,3.65,7.29,7.28,10.93,10.93-.65,1.05-1.3,2.1-1.96,3.15Z"/><path class="cls-14" d="m508.41,306.22c-4.21-3.75-8.46-7.45-12.68-11.17.68-1.14,1.36-2.29,2.05-3.43,4.26,3.73,8.57,7.41,12.84,11.13-.73,1.16-1.46,2.32-2.2,3.47Z"/><path class="cls-14" d="m503.68,313.59c-4.07-3.81-8.22-7.54-12.35-11.29.7-1.12,1.39-2.25,2.07-3.38,4.17,3.74,8.36,7.46,12.49,11.24-.73,1.15-1.47,2.29-2.21,3.43Z"/><path class="cls-14" d="m498.96,320.82c-3.97-3.87-8.03-7.64-12.09-11.41.7-1.11,1.4-2.21,2.1-3.31,4.09,3.76,8.16,7.54,12.2,11.35-.73,1.13-1.47,2.25-2.21,3.37Z"/><path class="cls-14" d="m494.29,327.95c-3.91-3.91-7.86-7.76-11.88-11.56.69-1.09,1.38-2.17,2.07-3.26,4.04,3.78,8.06,7.59,11.98,11.49-.72,1.11-1.45,2.22-2.18,3.32Z"/><path class="cls-14" d="m489.67,334.97c-3.8-3.94-7.63-7.84-11.55-11.65.67-1.07,1.33-2.15,1.99-3.23,3.98,3.8,7.88,7.68,11.73,11.61-.72,1.09-1.44,2.18-2.17,3.27Z"/><path class="cls-14" d="m485.06,341.81c-3.63-4-7.39-7.86-11.21-11.68.67-1.06,1.34-2.12,2-3.18,3.87,3.82,7.65,7.71,11.36,11.68-.72,1.06-1.43,2.12-2.16,3.18Z"/><path class="cls-14" d="m480.41,348.39c-3.53-3.94-7.17-7.76-10.87-11.55.67-1.05,1.35-2.1,2.02-3.14,3.75,3.81,7.45,7.67,11.03,11.64-.73,1.01-1.45,2.03-2.18,3.05Z"/><path class="cls-16" d="m534.1,331.57c-4.03-4.18-8.07-8.36-12.17-12.46.78-1.14,1.55-2.29,2.31-3.45,4.1,4.19,8.26,8.32,12.37,12.51-.83,1.14-1.67,2.27-2.51,3.4Z"/><path class="cls-16" d="m528.73,338.74c-3.94-4.14-7.88-8.28-11.9-12.34.81-1.13,1.6-2.27,2.4-3.4,4.03,4.1,8.03,8.24,12,12.39-.83,1.12-1.67,2.23-2.51,3.34Z"/><path class="cls-16" d="m523.43,345.88c-3.84-4.15-7.77-8.21-11.71-12.26.79-1.13,1.58-2.26,2.38-3.38,3.97,4.06,7.9,8.16,11.8,12.28-.84,1.11-1.67,2.22-2.48,3.36Z"/><path class="cls-16" d="m518.2,353.44c-3.82-4.23-7.67-8.43-11.55-12.6.79-1.13,1.57-2.26,2.35-3.38,3.92,4.11,7.86,8.21,11.67,12.42-.82,1.19-1.65,2.38-2.47,3.57Z"/><path class="cls-16" d="m512.81,360.99c-3.69-4.37-7.38-8.74-11.18-13.01.79-1.11,1.57-2.21,2.35-3.33,3.87,4.2,7.62,8.51,11.38,12.81-.84,1.18-1.7,2.35-2.56,3.52Z"/><path class="cls-16" d="m507.16,368.39c-3.43-4.54-6.95-9.02-10.57-13.42.79-1.08,1.58-2.16,2.37-3.24,3.64,4.4,7.29,8.78,10.87,13.22-.88,1.15-1.78,2.29-2.68,3.43Z"/><path class="cls-16" d="m501.25,375.54c-3.18-4.65-6.33-9.32-9.77-13.79.8-1.05,1.6-2.1,2.4-3.15,3.48,4.47,6.81,9.06,10.14,13.64-.92,1.11-1.84,2.2-2.77,3.29Z"/><path class="cls-8" d="m560.27,307.84c.74.81,1.49,1.61,2.23,2.42-5.24,6.28-10.83,12.27-15.94,18.67-.76-.79-1.51-1.58-2.27-2.36,5.16-6.38,10.73-12.42,15.98-18.73Z"/><path class="cls-14" d="m558.05,305.43c.74.8,1.48,1.61,2.22,2.41-5.24,6.32-10.82,12.35-15.98,18.73-.76-.78-1.51-1.56-2.28-2.33,5.04-6.53,10.76-12.48,16.03-18.82Z"/><path class="cls-7" d="m247.38,206.91s1.42-28.33,34.35-12.71c0,0,26.23,10.88,16.46,58.04,0,0-11.72-2.79-18.97-12.84,0,0,2.38,7.19,2.32,12.92,0,0-41.7-21.78-34.15-45.41Z"/><path class="cls-9" d="m230.67,237.73s3.08,1.31,2.74,3.36c0,0-3.42.57-3.88,4.85,0,0,3.65-3.19,5.13-2.4,1.48.8,1.71,2.85,1.2,4.11,0,0,2.4-4.5.11-7.93-2.28-3.42-5.3-2-5.3-2Z"/><path class="cls-7" d="m298.19,252.24s-.9,35.03,7.26,55.88c0,0-13.16,4.98-16.14-7.18,0,0,2.24,8.01,1.63,12.17,0,0-15.68-9.34-17.56-27.78,0,0,18.41-16.58,20.81-35l4,1.92Z"/><path class="cls-7" d="m272.04,190.62s44.11,5.52,30.56,67.22c0,0-4.83,33.33,2.85,50.27l-17.4-28.7,6.14-29.1-10.44-21.64-11.71-38.05Z"/><polygon class="cls-7" points="239.5 236.73 251.84 223.79 250.24 212.26 241.22 212.07 230.07 221.55 239.5 236.73"/><path class="cls-7" d="m215.41,280.32c3.17,6.68,7.4,17.38,5.18,23.09,0,0,20.54,1.29,2.67-48.94,0,0-1.5-4.02-.41-10.47.8-4.74,3.74-8.85,7.95-11.15h0s10.33-11.8,10.33-11.8l30.91-30.43s-39.11-8.16-57.95,37.24c0,0-9.6,20.45-2.91,55.74.16.83,1.24,1.05,1.72.36l2.51-3.64Z"/><polygon class="cls-4" points="186.6 322.69 186.6 352.4 193.19 354.34 192.83 327.38 186.6 322.69"/><path class="cls-4" d="m302.77,358.67l15.43,33.24s-1.71-10.63,6.44-13.35l-13.22-31.02-8.65,11.12Z"/></svg>