<?xml version="1.0" encoding="UTF-8"?><svg id="Layer_1" xmlns="http://www.w3.org/2000/svg" xmlns:xlink="http://www.w3.org/1999/xlink" viewBox="0 0 216 216"><defs><style>.cls-1{clip-path:url(#clippath);}.cls-2,.cls-3{fill:none;}.cls-2,.cls-4,.cls-5,.cls-6,.cls-7,.cls-8,.cls-9,.cls-10,.cls-11,.cls-12{stroke-width:0px;}.cls-13{fill:#fff;stroke:#3870b5;stroke-width:2px;}.cls-13,.cls-3{stroke-miterlimit:10;}.cls-14{clip-path:url(#clippath-1);}.cls-3{stroke:#fff;stroke-width:.75px;}.cls-4{fill:#9ac7f7;}.cls-5{fill:#3870b5;}.cls-6{fill:#5a3214;}.cls-7{fill:#84522d;}.cls-8{fill:#d90f03;}.cls-9{fill:#d2e9ff;}.cls-10{fill:#a30b02;}.cls-11{fill:#f2a479;}.cls-12{fill:#002555;}</style><clipPath id="clippath"><circle class="cls-2" cx="116.49" cy="333.42" r="78.31"/></clipPath><clipPath id="clippath-1"><circle class="cls-2" cx="107.94" cy="123.58" r="78.12"/></clipPath></defs><g class="cls-1"><g id="R"><path class="cls-4" d="m132.58,267.95c0-1.2-.05-2.38-.12-3.56l4.8-.62c.75-.1,1.29-.79,1.19-1.54l-.61-4.72c-.1-.75-.79-1.29-1.54-1.19l-4.79.62c-.97-4.94-2.57-9.66-4.73-14.06l4.18-2.4c.66-.38.89-1.22.51-1.88l-2.37-4.13c-.38-.66-1.22-.89-1.88-.51l-4.19,2.41c-2.76-4.13-6.05-7.88-9.76-11.16l2.96-3.84c.46-.6.35-1.47-.25-1.93l-3.77-2.91c-.6-.46-1.47-.35-1.93.25l-2.95,3.83c-4.08-2.74-8.53-4.95-13.27-6.57l1.27-4.7c.2-.73-.24-1.49-.97-1.69l-4.59-1.24c-.73-.2-1.49.24-1.69.97l-1.27,4.7c-3.63-.72-7.38-1.11-11.22-1.11-1.2,0-2.38.05-3.56.12l-.63-4.84c-.1-.75-.79-1.29-1.54-1.19l-4.72.61c-.75.1-1.29.79-1.19,1.54l.62,4.83c-4.94.97-9.65,2.57-14.05,4.73l-2.42-4.22c-.38-.66-1.22-.89-1.88-.51l-4.13,2.37c-.66.38-.89,1.22-.51,1.88l2.43,4.23c-4.14,2.76-7.89,6.05-11.17,9.76l-3.86-2.98c-.6-.46-1.47-.35-1.93.25l-2.91,3.77c-.46.6-.35,1.47.25,1.93l3.85,2.97c-2.74,4.08-4.96,8.54-6.58,13.27l-4.7-1.27c-.73-.2-1.49.24-1.69.97l-1.24,4.59c-.2.73.24,1.49.97,1.69l4.7,1.27c-.72,3.63-1.11,7.38-1.11,11.22,0,1.2.05,2.38.12,3.56l-4.84.63c-.75.1-1.29.79-1.19,1.54l.61,4.72c.1.75.79,1.29,1.54,1.19l4.83-.62c.97,4.94,2.57,9.65,4.72,14.04l-4.22,2.42c-.66.38-.89,1.22-.51,1.88l2.37,4.13c.38.66,1.22.89,1.88.51l4.22-2.42c2.75,4.13,6.04,7.88,9.75,11.15l-2.98,3.86c-.46.6-.35,1.47.25,1.93l3.77,2.91c.6.46,1.47.35,1.93-.25l2.97-3.85c4.09,2.75,8.55,4.97,13.29,6.59l-1.27,4.7c-.2.73.24,1.49.97,1.69l4.59,1.24c.73.2,1.49-.24,1.69-.97l1.27-4.69c3.63.73,7.38,1.11,11.23,1.11,1.2,0,2.38-.05,3.56-.12l.63,4.84c.1.75.79,1.29,1.54,1.19l4.72-.61c.75-.1,1.29-.79,1.19-1.54l-.62-4.83c4.94-.97,9.65-2.57,14.05-4.73l2.42,4.22c.38.66,1.22.89,1.88.51l4.13-2.37c.66-.38.89-1.22.51-1.88l-2.42-4.22c4.13-2.75,7.87-6.03,11.15-9.74l3.84,2.96c.6.46,1.47.35,1.93-.25l2.91-3.77c.46-.6.35-1.47-.25-1.93l-3.82-2.95c2.75-4.08,4.96-8.55,6.59-13.29l4.66,1.26c.73.2,1.49-.24,1.69-.97l1.24-4.59c.2-.73-.24-1.49-.97-1.69l-4.65-1.26c.73-3.63,1.11-7.39,1.11-11.23Z"/><path class="cls-5" d="m79.14,324.83l.63,4.84c.1.75.79,1.29,1.54,1.19l4.72-.61c.75-.1,1.29-.79,1.19-1.54l-.62-4.83c4.94-.97,9.65-2.57,14.05-4.73l2.42,4.22c.38.66,1.22.89,1.88.51l4.13-2.37c.66-.38.89-1.22.51-1.88l-2.42-4.22c4.13-2.75,7.87-6.03,11.15-9.74l3.84,2.96c.6.46,1.47.35,1.93-.25l2.91-3.77c.46-.6.35-1.47-.25-1.93l-3.82-2.95c2.75-4.08,4.96-8.55,6.59-13.29l4.66,1.26c.73.2,1.49-.24,1.69-.97l1.24-4.59c.2-.73-.24-1.49-.97-1.69l-4.65-1.26c.73-3.63,1.11-7.39,1.11-11.23,0-1.2-.05-2.38-.12-3.56l4.8-.62c.75-.1,1.29-.79,1.19-1.54l-.61-4.72c-.1-.75-.79-1.29-1.54-1.19l-4.79.62c-.97-4.94-2.57-9.66-4.73-14.06l4.18-2.4c.66-.38.89-1.22.51-1.88l-2.37-4.13c-.38-.66-1.22-.89-1.88-.51l-4.19,2.41c-2.76-4.13-6.05-7.88-9.76-11.16l2.96-3.84c.46-.6.35-1.47-.25-1.93l-3.77-2.91c-.6-.46-1.47-.35-1.93.25l-2.95,3.83c-4.08-2.74-8.53-4.95-13.27-6.57l1.27-4.7c.2-.73-.24-1.49-.97-1.69l-4.59-1.24c-.73-.2-1.49.24-1.69.97l-1.27,4.7c-3.63-.72-7.38-1.11-11.22-1.11v114c1.2,0,2.38-.05,3.56-.12Z"/></g></g><circle class="cls-13" cx="108" cy="123.53" r="79.18"/><g class="cls-14"><polygon class="cls-4" points="107.94 -5.1 68.94 136.08 146.95 136.08 107.94 -5.1"/><polyline class="cls-3" points="132 124.81 115.42 46.9 127.98 46.9 108.11 23.48 88.25 46.9 100.47 46.9 83.88 124.81"/><g id="character_1"><path class="cls-11" d="m147.33,117.08l-34.74,6.57-5.07,3.67,9.11-.15-24.26,25.07,28.49,16.57,22.16-11.92c2.56-1.38,4.86-3.18,6.82-5.33l24.38-14.44-12.83-24.39-14.06,4.36Z"/><path class="cls-7" d="m76.55,118.47l17.23-5.06c2.83-.83,5.79-1.14,8.74-.9l12.57,1.02c2.86.23,5.54,1.46,7.58,3.48l4.02,3.97-14.11,2.67,26.25,34.94h0l1.13,2.01c.66,2.63-3.54,3.83-6.1,4.73l-1.74,1.98c-1.37,1.55-2.07,1.9-4.13,2.04l-3.08.2-2.19,2.28c-1.13,1.18-2.7,1.84-4.34,1.83l-3.29-.02-.23.39c-1.07,1.83-2.77,3.22-4.78,3.91l-.09.03c-1.23.43-2.6.21-3.64-.58l-41.73-31.72,11.92-27.19Z"/><path class="cls-11" d="m114.12,125.76l-8.55,4.55c-1.09.58-2.01,1.42-2.7,2.44l-10.54,15.77c-.75,1.12-.35,2.64.85,3.25l.08.04c2.23,1.13,4.92.76,6.76-.92l10.8-9.91,23.87,2.41-7.97-13.98c-2.52-4.42-8.1-6.04-12.6-3.65Z"/><path class="cls-11" d="m82.06,164.26l-1.43-1.23c-1.12-.96-1.24-2.64-.29-3.75h0c1.3-1.51,3.57-1.68,5.08-.39h0c1.51,1.3,1.68,3.57.39,5.08h0c-.96,1.12-2.64,1.24-3.75.29Z"/><path class="cls-11" d="m89.76,169.47l-.18-.15c-1.34-1.15-1.49-3.17-.34-4.51l1.18-1.38c1.19-1.39,3.29-1.55,4.68-.36h0c1.39,1.19,1.55,3.29.36,4.68l-1.18,1.38c-1.15,1.34-3.17,1.49-4.51.34Z"/><path class="cls-11" d="m97.37,173.74l-.15-.12c-1.32-1.03-1.55-2.93-.52-4.25l.68-.87c1.06-1.36,3.02-1.6,4.38-.54h0c1.36,1.06,1.6,3.02.54,4.38l-.68.87c-1.03,1.32-2.93,1.55-4.25.52Z"/><path class="cls-11" d="m103.39,177.42h0c-1.24-.84-1.57-2.52-.74-3.76l1.07-1.58c.84-1.24,2.52-1.57,3.76-.74h0c1.24.84,1.57,2.52.74,3.76l-1.07,1.58c-.84,1.24-2.52,1.57-3.76.74Z"/><polygon class="cls-9" points="84.89 115.48 66.98 105.78 47.82 140.55 65.58 146.96 84.89 115.48"/><polygon class="cls-8" points="259.04 73.51 250.38 125.98 186.63 144.67 169.66 149.64 153.99 110.1 195.36 91.67 241.65 71.06 259.04 73.51"/></g><path class="cls-6" d="m114.1,175.1l-5.24-9.4,8,7.94s-1.49-.12-2.76,1.46Z"/><path class="cls-6" d="m123.86,170.64l-5.32-9.53,8.27,8.33s-1.89.1-2.94,1.19Z"/><path class="cls-6" d="m132.96,166.35l-5.71-9.32,8.12,7.78s-1.53.44-2.41,1.54Z"/><polygon class="cls-12" points="66.98 105.78 23.44 82.56 16.31 130.2 47.82 140.55 66.98 105.78"/><polygon class="cls-10" points="169.66 149.64 165.26 138.1 188.97 132.61 188.72 142.34 183.23 145.59 169.66 149.64"/></g><polygon class="cls-4" points="108.23 13.28 74.63 52.9 141.83 52.9 108.23 13.28"/><polyline class="cls-3" points="121.69 76.35 115.42 46.9 127.98 46.9 108.11 23.48 88.25 46.9 100.47 46.9 94.01 77.24"/><polygon class="cls-4" points="65.58 146.96 70.22 139.37 53.05 130.99 47.82 140.55 65.58 146.96"/></svg>