<?xml version="1.0" encoding="UTF-8"?><svg id="Layer_1" xmlns="http://www.w3.org/2000/svg" xmlns:xlink="http://www.w3.org/1999/xlink" viewBox="0 0 216 216"><defs><style>.cls-1{stroke-width:.75px;}.cls-1,.cls-2,.cls-3{fill:none;}.cls-1,.cls-3{stroke:#fff;stroke-linecap:round;stroke-linejoin:round;}.cls-2,.cls-4,.cls-5,.cls-6,.cls-7,.cls-8,.cls-9{stroke-width:0px;}.cls-10{fill:#fff;stroke:#3870b5;stroke-miterlimit:10;}.cls-10,.cls-3{stroke-width:2px;}.cls-11{clip-path:url(#clippath-1);}.cls-4{fill:#3870b5;}.cls-5{fill:#1f3e64;}.cls-6{fill:#d90f03;}.cls-7{fill:#ffab01;}.cls-8{fill:#ffc257;}.cls-9{fill:#f15a53;}</style><clipPath id="clippath-1"><circle class="cls-2" cx="108.11" cy="110.08" r="78.35"/></clipPath></defs><circle class="cls-10" cx="108" cy="110.24" r="79.18"/><circle class="cls-2" cx="108" cy="110.24" r="79.18"/><circle class="cls-6" cx="60.67" cy="51.86" r="16.27"/><polyline class="cls-6" points="76.93 51.86 76.82 47.79 75.55 47.78 75.55 50.24 76.45 52.45"/><polygon class="cls-6" points="44.38 46.79 44.31 48.54 44.43 52.7 46.82 50.03 44.38 46.79"/><polygon class="cls-9" points="174.34 48.32 157.64 26.61 157.64 26.58 157.61 26.58 157.61 26.58 157.61 26.58 78.24 26.58 94.25 48.37 78.24 70.06 157.64 70.06 157.64 70.03 174.34 48.32"/><line class="cls-3" x1="104.36" y1="43" x2="148.22" y2="43"/><line class="cls-3" x1="104.36" y1="53.63" x2="131.11" y2="53.63"/><circle class="cls-9" cx="60.57" cy="48.39" r="16.27"/><polyline class="cls-1" points="56.52 42.99 60.59 39.56 60.59 54.78"/><line class="cls-1" x1="56.64" y1="55.22" x2="64.62" y2="55.22"/><polygon class="cls-6" points="78.24 70.06 78.24 72.42 158.95 72.42 175.72 50.26 174.34 48.32 157.64 70.03 78.24 70.06"/><polygon class="cls-8" points="174.34 103.11 157.64 81.4 157.64 81.37 157.61 81.37 157.61 81.37 157.61 81.37 78.24 81.37 94.25 103.16 78.24 124.85 157.64 124.85 157.64 124.82 174.34 103.11"/><line class="cls-3" x1="104.36" y1="97.79" x2="148.22" y2="97.79"/><line class="cls-3" x1="104.36" y1="108.43" x2="131.11" y2="108.43"/><circle class="cls-7" cx="60.86" cy="106.35" r="16.27"/><polyline class="cls-7" points="77.11 106.36 77 102.29 75.73 102.28 75.73 104.73 76.63 106.94"/><polygon class="cls-7" points="44.57 101.28 44.49 103.04 44.61 107.19 47.01 104.53 44.57 101.28"/><circle class="cls-8" cx="60.78" cy="103.11" r="16.27"/><path class="cls-1" d="m55.96,96.68s5.77-3.8,8.34.45c1.01,1.67.84,3.79-.21,5.43-1.15,1.8-3.46,4.57-8.04,8.54h10.17"/><polygon class="cls-7" points="78.24 124.88 78.24 127.24 158.95 127.24 175.72 105.08 174.34 103.14 157.64 124.85 78.24 124.88"/><g class="cls-11"><polygon class="cls-4" points="174.34 158.04 157.64 136.32 157.64 136.3 157.61 136.3 157.61 136.3 157.61 136.3 78.24 136.3 94.25 158.09 78.24 179.78 157.64 179.78 157.64 179.75 174.34 158.04"/><line class="cls-3" x1="104.36" y1="152.72" x2="148.22" y2="152.72"/><line class="cls-3" x1="104.36" y1="163.35" x2="131.11" y2="163.35"/><circle class="cls-5" cx="60.67" cy="160.93" r="16.27"/><polyline class="cls-5" points="76.93 160.94 76.82 156.87 75.55 156.86 75.55 159.31 76.45 161.53"/><polygon class="cls-5" points="44.38 155.86 44.31 157.62 44.43 161.78 46.82 159.11 44.38 155.86"/><circle class="cls-4" cx="60.66" cy="158.04" r="16.27"/><path class="cls-1" d="m56.61,150.79s4.66-2.45,7.12-.02c1.46,1.44,1.39,3.89-.26,5.12-.92.69-2.43,1.27-4.86,1.44,0,0,6.52-.42,6.85,4.24.05.74-.07,1.49-.38,2.16-.74,1.61-2.93,3.99-9.24,1.73"/><polygon class="cls-5" points="78.24 179.77 78.24 182.13 158.95 182.13 175.72 159.97 174.34 158.03 157.64 179.74 78.24 179.77"/></g></svg>