<?xml version="1.0" encoding="UTF-8"?><svg id="Layer_1" xmlns="http://www.w3.org/2000/svg" xmlns:xlink="http://www.w3.org/1999/xlink" viewBox="0 0 216 216"><defs><style>.cls-1{fill:#ad695e;opacity:.36;}.cls-1,.cls-2,.cls-3,.cls-4,.cls-5,.cls-6,.cls-7,.cls-8,.cls-9,.cls-10,.cls-11,.cls-12,.cls-13,.cls-14,.cls-15,.cls-16,.cls-17,.cls-18,.cls-19,.cls-20,.cls-21,.cls-22,.cls-23,.cls-24{stroke-width:0px;}.cls-2,.cls-25{fill:none;}.cls-3{opacity:.7;}.cls-3,.cls-19{fill:#ffae9b;}.cls-26{fill:#fff;stroke:#3870b5;stroke-width:2px;}.cls-26,.cls-25{stroke-miterlimit:10;}.cls-27{clip-path:url(#clippath-3);}.cls-25{stroke:#2356a0;stroke-width:.75px;}.cls-4{fill:#202a3f;opacity:.15;}.cls-5{fill:#784829;}.cls-6{fill:#47478e;}.cls-7{fill:#a36c41;}.cls-8{fill:#3b1c0c;}.cls-9{fill:#3a3a7b;}.cls-10{fill:#3870b5;}.cls-11{fill:#5a5aad;}.cls-12{fill:#3e3e89;}.cls-13{fill:#2356a0;}.cls-14{fill:#d90f03;}.cls-15{fill:#30306e;}.cls-16{fill:#6d0802;}.cls-17{fill:#875433;}.cls-18{fill:#fed1bc;}.cls-20{fill:#ffab01;}.cls-21{fill:#ffc257;}.cls-22{fill:#f15a53;}.cls-23{fill:#002555;}.cls-24{fill:#6a3c20;}</style><clipPath id="clippath"><polygon class="cls-2" points="11.1 382.3 81.62 311.27 106.09 333.51 82.52 424.01 32.81 416.42 11.87 418.75 11.1 382.3"/></clipPath><clipPath id="clippath-3"><circle class="cls-2" cx="108.7" cy="118.97" r="78.2"/></clipPath></defs><circle class="cls-26" cx="108.48" cy="118.97" r="79.18"/><circle class="cls-2" cx="108.48" cy="118.97" r="79.18"/><circle class="cls-2" cx="108.48" cy="118.97" r="78.14"/><circle class="cls-2" cx="108.48" cy="118.97" r="78.14"/><g class="cls-27"><polygon class="cls-16" points="44.65 153.76 44.65 172.28 51.11 173.77 50.65 164.47 44.65 153.76"/><polygon class="cls-14" points="102.54 230.03 50.65 230.03 50.65 153.76 96.54 153.76 102.55 164.47 102.54 230.03"/><polygon class="cls-22" points="102.55 164.47 50.65 164.47 44.65 153.76 96.54 153.76 102.55 164.47"/><polygon class="cls-16" points="130.1 153.76 130.1 196.79 136.56 198.28 136.1 164.47 130.1 153.76"/><polygon class="cls-14" points="187.99 230.03 136.1 230.03 136.1 153.76 181.99 153.76 188 164.47 187.99 230.03"/><polygon class="cls-22" points="188 164.47 136.1 164.47 130.1 153.76 181.99 153.76 188 164.47"/></g><path class="cls-7" d="m136.18,62.22l3.41.07c.18,0,.35-.06.48-.18l.49-.42c.47-.41,1.08-.63,1.7-.61.87.03,2.04.14,2.47.58.55.56.66,1.67.8,2.4.1.54.17,1.08.25,1.63.03.25-.05.5-.23.67-.05.05-.11.08-.17.1-.33.1-.7-.2-.91-.42-.53-.56-.92-1.39-1.2-2.1,0,0-1.72,1.64-2.46,1.72-.74.08-4.61-3.45-4.61-3.45Z"/><path class="cls-7" d="m134.86,68.27l2.72-.29.89-.09s.34.31.8.7c.79.67,1.94,1.59,2.31,1.57.59-.03,3.3-.11,3.41-.43.11-.32,1.13-2.57.2-3.83-.93-1.26-3.72-3.7-3.72-3.7l-3.04.86-.71-.2-1.21-.58-.52.09-1.12,5.9Z"/><path class="cls-17" d="m142.34,69.83c.54.09,2.31.09,2.31.09.03.05-1.03.26-1.12.27-.59.02-1.25.29-1.8.17-.61-.14-.91-.32-1.43-.69-.52-.37-1.33-1.51-1.97-1.65-.25-.05-.5-.05-.76-.03,0,0-1.82.2-1.82.2-.68-1.06-.39-2.7-.41-3.96,0-.53.57-1.08.74-1.6l1.62.24c.36.9.56,2.02,1.57,2.45.51.21,1.15.28,1.68.17.22-.04.44-.1.65-.18.55-.23,1.17-.65,1.86-1.34,0,0,.68,2.44,1.88,2.51-.1,0-.23.06-.33.08-.14.02-.29.04-.44.03-.48-.01-.94-.25-1.29-.59-.27-.27-.69-.32-1.02-.13-.08.05-.16.09-.25.13-.72.34-1.49,1.87-1.36,2.66.03.19.1.4.21.62,0,0,.46.41,1.46.58Z"/><path class="cls-21" d="m135.99,68.36c-.07.25-.23.57-.27.81-1.45.21-1.08.17-2.91.39-1.88.23-4.99.91-7.23,1.38-.51.11-1.73.32-2.31.44,0,0-.03,0-.04,0,0,0-.04,0-.05.01-.28.05-.59.1-.87.13-.45.05-.95.11-1.4.14-.4.02-.89.06-1.23.05-.05,0-.1,0-.15,0-.72-.02-1.41-.07-2.1-.14-.1-.01-.2-.02-.3-.03-.37-.05-.74-.1-1.09-.17-.02,0-.03,0-.05,0-2.13-.41-4.08-1.25-5.88-2.97-3.14-3.01-5.1-9.01-5.9-13.25.1-.43.26-.78.4-1.17.75-2.09,1.07-4.23,1.92-6.31.33-.8.67-1.83.85-2.66.31-1.43.45-3.15.35-4.46-.17-2.1-.26-1.82-.5-3.84,2.07,1.43,1.63,2.26,3.04,4.38.16.24,1.43,1.47,1.49,1.75.66,3.31,2.24,15.47,6.53,16.53.44.11.7.18.86.22.66.17-.22-.09,2.64-.05,4.05.05,9.68.61,14.24,1.47.31.35.13,0,.21.53.3,2.11.37,4.65-.26,6.82Z"/><path class="cls-7" d="m74.55,148.15c-.93.67-1.28,1.07-2.38,1.82-1.09.75-2.68,2.29-3.69,3.38-1.48-1.25-2.77-2.67-4.14-4.02.75-1.06,1.62-2.27,2.36-3.26.73-.99.92-1.26,1.73-2.35.81-1.09,2.12-2.95,3.05-4.11.68,1.8,1.86,5.19,2.38,6.63.52,1.45.3.88.7,1.92Z"/><path class="cls-7" d="m74.53,148.13c-.74.62-1.49,1.24-2.28,1.79-2.23-.79-3.9-2.21-5.52-3.88.55-.75,1.1-1.5,1.65-2.25.45-.01.87-.04,1.33.05,1.45.3,2.61.97,3.69,1.98.2.19.37.41.55.62.2.56.4,1.13.6,1.69Z"/><path class="cls-23" d="m62.29,149.42c-.01.1-.02.2-.02.31.4.88.98,1.74,1.61,2.45.63.71,1.27,1.45,1.89,2.09.57.59.76.95,1.35,1.5.05.05.11.1.17.15.72.64,1.75,1.58,2.7,2.14.95.55,2.59,1.02,3.51,1.26.93.25,1.73.41,2.37.56.64.15.58.1,1.08.24,0,0,0,0,0,0,.06-.11.12-.23.17-.34.43-.99.35-1.96-.34-2.73-.11-.13-.25-.25-.4-.37-.33-.25-.63-.36-.94-.57-.28-.19-.53-.32-.79-.51,0,0,0,0,0,0-.02-.02-.04-.04-.07-.05-.09-.07-.17-.13-.25-.2-.06-.05-.13-.1-.19-.17-.11-.11-.21-.22-.3-.33-.12-.15-.23-.32-.32-.49-.07-.13-.14-.26-.2-.39-.04-.09-.08-.18-.12-.27-.02-.05-.04-.09-.05-.14-.04-.09-.07-.19-.1-.28-.02-.05-.03-.09-.05-.14,0,0,0,0,0-.01-.24-.85-.39-1.75-.46-2.61,0-.06,0-.04-.02-.04,0,0,0,0,0,0,0,0,0,0,0,0t0,0s0,0-.01,0h0s0,0,0,0c-.07-.02-.14,0-.21.01,0,0-.01,0-.02,0,0,0-.01,0-.02,0,0,0-.03,0-.04,0,0,0-.01,0-.01,0,0,0,0,0-.01,0-.09.03-.19.06-.28.09-.05.02-.1.04-.15.05-.02,0-.04.02-.06.02-.13.05-.26.1-.39.16,0,0-.02,0-.02.01-.17.08-.34.16-.51.26-.01,0-.02.01-.03.02-.25.14-.54.35-.77.56-.12.03-.23.07-.34.14-1.17-1.33-2.3-2.67-3.07-4.28-.22-.46.01-.9.06-1.36.01-.11.01-.21,0-.32-.78.06-1.56.51-2.13,1.04,0,.01.01.02.02.03-.93.61-2.04,1.33-2.2,2.48Z"/><path class="cls-23" d="m61.16,150.5c.24.57.84.96,1.21,1.45.37.49,1.99,2.04,2.23,2.45.03.06.07.11.11.17,2.31,3.6,8.06,5.57,10.6,6.02.32.06.65.12.97.14.14,0,.33.06.46-.02.09-.05.15-.24.2-.33.06-.12.1-.24.15-.36.03-.07.08-.17.03-.23,0,0,0,0-.01,0-.05-.03-.19-.04-.24-.05-.19-.04-.38-.08-.57-.11-.35-.07-.71-.12-1.06-.17-1.43-.22-2.83-.47-4.15-1.09-.96-.44-2.07-1.3-3.08-2.24-.81-.76-1.56-1.58-2.11-2.28-1.27-1.64-2.27-2.98-3.61-4.42-.03-.03-.05-.06-.08-.08,0,.02-.02.02-.02.03,0,0,0,0,0,0,0,0-.02.01-.02.02,0,0,0,0-.01.01,0,0-.02.02-.03.03,0,0,0,0-.01.01,0,0-.04.03-.05.04,0,0,0,0,0,0,0,0,0,0,0,0,0,0-.02.02-.04.04,0,0,0,0,0,0h0s-.02.03-.02.03c0,0-.02.01-.03.02-.14.14-.6.6-.75.85,0,0,0,.02,0,.03,0,0-.04.04-.04.04Z"/><path class="cls-23" d="m70.16,152.19s0,.01,0,.02c.13.39.23.6.45.99.9,1.57,1.94,3.6,4.03,2.39-.18-.15-.34-.25-.51-.42-.57-.56-.87-1.28-1.14-2.03,0,0,0,0,0,0-.29-.86-.4-1.72-.46-2.62,0-.02,0-.03-.02-.04-.01,0-.01,0-.02-.01-.07-.02-.14,0-.21.02,0,0-.03,0-.04,0,0,0-.03,0-.04,0,0,0-.01,0-.01,0-.15.04-.69.24-.76.27-.42.2-.71.37-1.03.59-.35.26-.32.44-.24.82Z"/><polygon class="cls-18" points="91.92 88.39 91.03 89.18 90.29 87.69 91.88 87.71 91.92 88.39"/><path class="cls-12" d="m74.95,149.94c.39.14-.41-.06,0,0h0Z"/><path class="cls-10" d="m115.81,90.21c-.45,1.32-.93,2.64-1.42,3.95-.09.25-.19.49-.28.74-1.02,2.67-2.11,5.32-3.29,7.93-.66,1.46-1.34,2.92-2.06,4.35-.32.64-.64,1.28-.97,1.91-.26.5-.52,1-.79,1.49-.05.09-.1.18-.15.28-.26.48-.52.95-.78,1.42-.08.14-.16.28-.23.42-.08.14-.16.29-.25.43-2.73,4.75-5.96,9.15-9.38,13.4-1.27,1.58-2.56,3.12-3.86,4.65-.02.02-.04.04-.06.07-.96,1.13-1.94,2.25-2.91,3.36-.01.01-.02.03-.04.04-.04.05-.08.09-.12.14-.39.44-.77.88-1.16,1.33-1.36,1.54-2.72,3.08-4.09,4.64,0,0,0,0-.01.01-2.65,3.02-5.56,6.78-9.01,9.18-.77-.65-1.54-1.3-2.31-1.94-.32-.27-.65-.55-.97-.82-.82-.7-1.65-1.39-2.47-2.09-.94-.8-1.46-1.07-.83-2.38,1.9-3.97,4.55-7.7,6.64-11.59,2.88-5.36,5.59-10.84,7.89-16.48.26-.63.51-1.25.75-1.88.05-.14.11-.28.16-.43.08-.21.16-.41.23-.62.13-.36.26-.71.38-1.07.04-.1.07-.2.1-.3.09-.26.17-.53.25-.79.1-.33.2-.67.3-.99.18-.62.34-1.24.47-1.85.13-.56.23-1.11.32-1.66.42-2.63,1.27-5.02,2.39-7.18.35-.67.72-1.32,1.12-1.94,3.15-4.98,7.68-8.58,11.35-10.91,3.51-2.23,6.25-3.3,6.25-3.3,1.69.54,3.38,1.07,5.07,1.61,1.18.37,2.36.75,3.53,1.12.26.08,1.09.2,1.26.41.72.93-.69,4.38-1.02,5.34Z"/><path class="cls-13" d="m108.77,107.18c-.32.64-.64,1.28-.97,1.91-.26.5-.52,1-.79,1.49-.05.09-.1.18-.15.28-.26.48-.52.95-.78,1.42-5.31,1.25-16.58,3.56-23.18,2.37.26-.63.51-1.25.75-1.88.05-.14.11-.28.16-.43.08-.21.16-.41.23-.62.13-.36.26-.71.38-1.07.04-.1.07-.2.1-.3.09-.26.17-.53.25-.79.1-.33.2-.67.3-.99.18-.62.34-1.24.47-1.85.13-.56.23-1.11.32-1.66.42-2.63,1.27-5.02,2.39-7.18.35-.67.72-1.32,1.12-1.94l18.99,4.31.12,2.07.28,4.86Z"/><path class="cls-23" d="m110.82,102.83l-1.33,2.86s-14.41,4.18-24.42,2.88c.18-.62.34-1.24.47-1.85.13-.56.23-1.11.32-1.66.42-2.63,1.27-5.02,2.39-7.18l20.23,4.43,2.34.51"/><path class="cls-15" d="m115.81,90.21c-.45,1.32-.93,2.64-1.42,3.95-.09.25-.19.49-.28.74-1.21.3-2.44.47-3.68.4-3.29-.16-6.45-2.03-8.18-4.82-1.01-1.63-1.52-3.54-1.52-5.45,3.51-2.23,6.25-3.3,6.25-3.3,1.69.54,3.38,1.07,5.07,1.61,1.18.37,2.36.75,3.53,1.12.26.08,1.09.2,1.26.41.72.93-.69,4.38-1.02,5.34Z"/><polygon class="cls-21" points="102.04 33.1 93.89 31.94 91.74 33.47 95.52 37.29 101.11 37.29 102.97 37.99 102.74 34.96 102.04 33.1"/><path class="cls-12" d="m147.56,121.72c.3.26.05-.01,0,0h0Z"/><path class="cls-15" d="m98.19,88.64c-.84,1.34-2.58,1.73-4.14,1.97-3.49.55-7,.96-10.52,1.25-1.55.13-4.3.72-6.83.86,0-.18,0-.35,0-.53.06-1.93.5-4.5,1.45-6.66,2.58-1.26,5.2-2.43,7.87-3.49,3.99,1.16,7.85,1.86,11.67,2.5.93,1.15,1.27,2.85.49,4.09Z"/><path class="cls-12" d="m146.28,124.12s-.02.02-.04.04c.02-.02.03-.03.04-.04Z"/><path class="cls-12" d="m146.15,124.29s.02-.03.04-.05c-.01.01-.02.03-.04.05,0,0,0,0,0,0Z"/><path class="cls-21" d="m108.63,43.86h0c-.63-1.25-1.26-2.5-1.89-3.74-.45-.89.12-.77-.33-1.65,0,0-.32-.64-.32-.64-.1-.19-1.1-1.67-1.2-1.87-.06-.13.06.13,0,0,0,0,.02.53.02.53,0,0-.02-.53-.02-.53-.11-.25-.2-.29-.34-.51-.2-.3-.47-.23-.76-.48-.01-.01-.03-.02-.04-.03-.36-.31-.74-.6-1.06-.93-.06.14-.11.29-.15.44h0c-.13.41-.22.83-.36,1.23-.03.09-.06.19-.1.28-.02.04-.03.08-.05.12-.07.16-.14.31-.23.46-.02.03-.04.06-.06.09-.02.03-.04.06-.06.09s-.04.06-.06.09c-.02.02-.04.05-.06.07-.03.03-.05.07-.08.1-.02.03-.05.05-.07.07-.02.03-.05.05-.08.07-.02.02-.03.03-.05.05-.02.02-.05.04-.07.06,0,0-.01.01-.02.02-.03.02-.06.04-.09.06,0,0,0,0,0,0-.04.02-.07.05-.11.07-.04.02-.07.04-.11.05-.04.02-.07.03-.11.05h0s0,0,0,0c-.57.2-1.19.07-1.77-.09-.1-.03-.2-.06-.3-.09-.15-.04-.29-.09-.44-.13-.1-.03-.19-.06-.29-.09-.08-.03-.16-.05-.24-.08-.35-.12-.7-.24-1.05-.36-.12-.04-.24-.08-.36-.12-.05-.02-.1-.03-.16-.05-.1-.03-.2-.06-.29-.09-.11-.04-.22-.07-.34-.1-.02,0-.05-.01-.07-.02-.08-.02-.16-.05-.25-.07-.14-.04-.29-.08-.43-.12-.02,0-.04,0-.06-.01-.05-.01-.1-.02-.15-.03-.05-.01-.11-.02-.16-.04-.03,0-.06-.01-.08-.02h0s0,0,0,0c-.07-.01-.13-.03-.2-.04-.07-.01-.13-.03-.2-.04-.22-.04-.44-.07-.67-.09-1.06-.1-2.15,0-3.12.43-.04.02-.07.03-.1.05-.09.04-.17.09-.24.14-.03.02-.06.04-.09.07-.01.01-.03.02-.04.03,0,0,0,0,0,0h0c-.63.5-.82,1.26-1.31,1.99-.11.17-.22.34-.34.51-.82,1.25-1.65,2.5-2.48,3.75l1.44,1.33h0s13.7,12.65,13.7,12.65l1.07.98.55.51,1.43-2.88h0s5.05-10.19,5.05-10.19c0,0,0,0,0,0l.27-.54c-.13-.25-.26-.51-.39-.76Z"/><path class="cls-21" d="m120.11,61.15c-.29,1.34-.85,2.66-1.74,3.62-.06.06-.11.12-.17.18l-1.2,1.29s-.04.04-.06.07c-.02.02-.08.07-.15.14-.17.16-.42.39-.42.47.02.31.13,1.35.27,2.68.03.27.06.54.09.82.04.38.09.77.13,1.16.3,2.7.63,5.64.66,6.21.02.59.12,1.46.2,2.43.04.5.07,1.03.08,1.56.04,2.04-.24,4.07-1.66,4.6-.74.27-1.55.08-2.3-.16-.75-.25-1.5-.55-2.28-.5-1.59.1-3.04,1.64-4.57,1.18-.03-.16-.05-.33-.08-.49-.26-1.56-.55-3.04-.72-4.63-.02-.14-.03-.29-.04-.43,0-.02,0-.03,0-.05,0,0,0-.02,0-.02,0-.06-.01-.13-.02-.19,0,0,0-.02,0-.02-.05-.46-.09-.91-.13-1.37-.05-.59-.11-1.19-.16-1.78-.12-1.39-.23-2.78-.33-4.17-.05-.7-.1-1.39-.15-2.09-.03-.47-.07-.94-.1-1.41l.1.09c-.17-2.35-.33-4.71-.49-7.06-.01-.21-.02-.43-.02-.64,0-.23,0-.46,0-.69,0-.84.02-1.68-.12-2.48-.13-.75-.22-1.46-.24-2.19,0-.1,0-.2.01-.3,0-.08,0-.17.01-.25.11-1.77.41-3.51.72-5.25.03-.14.05-.28.08-.42h0c.17-.94.35-1.88.5-2.83.29-1.84.41-3.7.45-5.57,0-.25.01-.5.01-.75.02-1.03-2.03-.19-2.07-1.23-.01-.35,1.31-1.22,1.27-1.56-.02-.16-2.14-.6-2.29-1.2-.19-.78-1.02-4.75-1.14-4.76.29.03,2.63,1.06,2.92,1.13.48.1,2.24.9,2.71,1.08.29.11.57.23.85.37,1.85.9,3.5,2.37,4.72,4.22.09.13.17.26.26.39,1.87,3.91,4.94,15.64,5.8,18.08.09.26.45,1.45.49,1.48.02.02-.03-.02,0,0l.32,1.3Z"/><path class="cls-21" d="m108.15,83.7c-.06-1.46,0-2.87.02-4.45,0-.7,0-1.4,0-2.09l-.16-5.04c-.03-.59-.06-1.18-.09-1.77-.02-.33-.04-.67-.06-1-.01-.23-.03-.47-.04-.7-.02-.28-.03-.57-.05-.85-.01-.19-.03-.39-.04-.58-.04-.66-.09-1.31-.14-1.97-.02-.28-.04-.56-.06-.84-.06-.77-.12-1.53-.19-2.3-.03-.3-.05-.6-.08-.9-.05-.52-.1-1.05-.15-1.58,0,0,0,0,0-.01-.03-.35-.07-.7-.1-1.05-.06-.61-.13-1.22-.19-1.83-.05-.47-.12-.94-.2-1.4-.09-.5-.19-.98-.32-1.46h0c-.12-.44-.25-.88-.39-1.3-.02-.05-.03-.09-.05-.14-.19-.54-.4-1.08-.64-1.6,0-.02-.02-.04-.03-.06-.03-.06-.06-.13-.09-.19-.04-.08-.08-.17-.12-.25-.22-.44-.46-.87-.72-1.29-.23-.38-.48-.74-.74-1.1,0,0,0,0,0,0-.07-.09-.13-.18-.2-.27-.11-.15-.23-.3-.35-.44-1.54-1.92-3.53-3.6-5.99-5.07-1.42-.84-2.93-1.6-4.09-2.7-.67-.63-1.2-1.38-1.4-2.21-.03-.15-.06-.3-.07-.45h0c0-.07,0-.14,0-.2,0-.39.09-.74.23-1.07.05-.12.1-.23.16-.34.24-.48.54-.94.73-1.46-.14,0-.29,0-.45.05-.94.22.52-.98-.18-.57-1.21.71-6.35,3.74-7.42,4.61-1.85,1.49-3.39,3.44-4.6,5.35-1.81,2.85-1.23,6.54-1.48,9.73-.32,4-.81,7.99-1,11.99-.11,2.39-.7,4.6-.91,6.92-.18,2.11-.36,4.22-.63,6.32,0,.04,0,.08-.02.12-.09.72-.19,1.44-.31,2.16l-.28-.13c-.1.9-.21,1.79-.34,2.69-.12.41-.21.82-.21,1.16-.23.86-.63,2.06-.45,2.69.32,1.11,2.88,2.03,3.89,2.41,1.88.72,3.91.98,5.91,1,.58,0,1.18.01,1.78,0,1.91-.01,3.88-.11,5.71-.34.21-.03.43-.05.64-.08l-.78-2.21c.76-.05,1.52-.11,2.26-.2.23-.03.47-.05.7-.08.86-.1,1.71-.19,2.57-.28,2.53-.27,5.07-.49,7.62-.59.68-.03,1.35-.04,2.03-.05.14,0,.27,0,.4,0,.11,0,.21,0,.32,0,.37,0,.75,0,1.12.01-.16-.95-.24-1.83-.27-2.7Z"/><path class="cls-6" d="m106.91,86.39c-.11,0-.22,0-.34,0-.68,0-1.35.02-2.03.05-.07-1.37-.16-3.21-.27-5.29.22-.02.45-.03.68-.05.39-.02.78-.05,1.17-.06,0,0,0,.02,0,.02,0,.06.01.13.02.19,0,0,0,.02,0,.02,0,.02,0,.04,0,.05.01.14.03.29.04.43.17,1.6.45,3.08.72,4.63Z"/><polygon class="cls-7" points="150.46 109.96 153.04 111.19 157.55 113.34 155.53 118.78 151.65 117.92 148.96 117.32 143.83 116.17 149.14 111.19 150.46 109.96"/><path class="cls-7" d="m150.46,109.96l2.58,1.23c.23,2.21-.5,4.62-1.39,6.73l-2.69-.6c-.21-.39-.38-.8-.49-1.22-.36-1.37-.19-2.84.33-4.16.1-.25.22-.5.36-.75l1.32-1.23Z"/><path class="cls-23" d="m154.47,121.29s0,0,0,0c.14,0,.22-.04.35-.09.76-.5,1.51-1.34,1.97-2.06.46-.71,1.18-1.7,1.51-2.18.09-.13.12-.17.13-.18,0,.01-.16.24.05-.05.31-.43.75-.83,1.24-1.51.48-.69,1.4-1.85,1.94-2.74.22-.36.46-.83.7-1.31.36-.72.71-1.48.98-1.98.45-.83.84-1.57,1.14-2.15.3-.58.22-.56.45-1.03,0,0,0,0,0,0-.09-.09-.17-.19-.28-.26h0c-1.15-.74-2.28-.69-3.33.2-.33.28-.6.61-.91.9-.31.29-.64.63-.95.92,0,0,0,0,0,0-.03.03-.06.06-.09.08-.07.06-.13.12-.2.19-.07.07-.14.13-.21.19-.03.03-.07.06-.1.09-.03.03-.07.06-.1.09-.07.06-.14.11-.22.17-1.05.77-2.49,1.35-3.49,1.78-.63.27-.97.25-1.29.47-.23.16-.1.46.12.75.24.33.58.66.62.79,0,.01.07.07.1.11.05.06.1.11.15.17.05.06.11.11.16.16.06.05.11.11.17.16.06.05.12.1.18.15,0,0,0,0,0,0,.05.11.11.22.18.31-1.11,1.43-2.16,2.88-3.56,4.04-.01,0-.02.02-.04.03-.31.23-.71.21-1.08.22h0c-.05,0-.11,0-.16,0-.16.01-.22,0-.36.05.16.54.52,1.04.94,1.44.15.15.32.29.48.41.01,0,.02-.01.03-.02.78.8,1.63,1.61,2.79,1.69Z"/><path class="cls-23" d="m155.72,122.08s.01-.02.02,0c.01,0,.04.01.04.04.56-.49.74-.79,1.19-1.5.45-.7,1.2-1.81,1.76-2.54.04-.06.08-.1.1-.13,2.11-2.66,3.95-5.72,5.46-8.76.32-.64.62-1.28.9-1.92.04-.08.06-.13.07-.16h0s0,0,0-.01c.08-.22.09-.25.11-.37.09-.4-.06-.64-.36-.88,0,0,0,0-.02-.01-.02-.01-.04-.02-.09-.05-.05-.03-.18-.09-.23-.15-.01.03-.02.04-.02.05,0-.02.03-.05-.02.06,0,0,0,.02,0,.03-.78,1.98-1.44,3.62-2.63,5.64-.04.06-.08.13-.12.2-.9,1.48-2.42,3.41-3.58,4.78-.17.2-.27.31-.42.48-1.19,1.41-2.32,2.95-3.4,4.4,0,0,0,0,0,.01-.01.02-.02.03-.02.03t0,0s0,0,0,0c-.02.03.03,0,.02.02,0,.01,0,0,0,0,0,0,.02.01.02.02,0,0,0,0,.02.01,0,0,.03.02.04.03,0,0,0,0,.01,0,.01,0,.04.03.05.04h0s0,0,0,0c.01,0,.06.02.07.04h0c.33.22.66.43,1.02.58Z"/><path class="cls-23" d="m165.02,107.84c.04-.11.07-.21.11-.32"/><path class="cls-23" d="m159.44,107.78c.25.21.42.38.34.73-.08.35-.22.72-.38,1.06-.33.69-.77,1.27-1.36,1.76-.48.4-1.03.7-1.57.99-.13.07-.24.12-.35.2-.11.07-.17.12-.27.21-.1.1-.21.24-.32.33-.02.02-.05.03-.08.05-.03.01-.08.03-.12.03-.04,0-.08,0-.11-.03-.24-.19-.47-.41-.66-.64-.03-.03-.09-.09-.1-.11-.08-.26-1.23-1.2-.73-1.55.31-.22.66-.2,1.29-.47,1.14-.48,2.86-1.18,3.91-2.12.17-.15.34-.31.5-.46Z"/><path class="cls-10" d="m151.19,110.57l-3,7.5c-.16.4-.46.7-.81.87-.46.22-1.02.23-1.51-.05-5.6-3.11-23.91-13.25-27.59-14.68-.77-.3-1.69-.38-2.65-.35-1.13.04-2.31.22-3.39.39-.54.08-1.06.16-1.52.21-4.21.44-8.42.93-12.65,1.12-.47.02-.95.04-1.44.06-.31,0-.62.02-.93.02-.61.01-1.24.02-1.86.02-.12,0-.23,0-.35,0h-.01c-.11,0-.23,0-.34,0-.11,0-.22,0-.33,0-.13,0-.25,0-.38-.01-.07,0-.14,0-.21,0-.18,0-.36-.01-.54-.02-.08,0-.16,0-.24-.01-.04,0-.08,0-.12,0-.13,0-.25-.02-.38-.02-.09,0-.18-.01-.27-.02-.2-.02-.41-.03-.61-.05-.05,0-.1,0-.15-.01-.19-.02-.38-.04-.57-.06-.06,0-.12-.01-.18-.02-.06,0-.12-.01-.18-.02-.06,0-.12-.02-.18-.02s-.12-.02-.18-.02c-.06,0-.12-.02-.18-.02-.18-.02-.35-.05-.53-.08-.06,0-.12-.02-.18-.03-.18-.03-.35-.06-.52-.09-.04,0-.09-.02-.13-.02-.07-.01-.15-.03-.22-.04-.06-.01-.12-.02-.17-.04-.11-.02-.22-.05-.33-.07-.14-.03-.28-.06-.42-.1-.07-.02-.14-.03-.21-.05-.05-.01-.1-.03-.15-.04-.08-.02-.17-.04-.25-.07,0,0,0,0,0,0-.1-.03-.2-.06-.29-.08-.02,0-.04-.01-.06-.02-.1-.03-.2-.06-.3-.09-.05-.02-.11-.03-.16-.05-.28-.09-.56-.19-.83-.29-.04-.02-.09-.03-.13-.05-.07-.03-.14-.06-.21-.08-.04-.02-.08-.03-.11-.05-.05-.02-.1-.04-.16-.07-.05-.02-.1-.05-.15-.07-.06-.03-.12-.05-.18-.08-.04-.02-.09-.04-.13-.06-.05-.02-.1-.05-.15-.07-.05-.02-.11-.05-.16-.08-.05-.02-.1-.05-.14-.07-.05-.03-.1-.05-.15-.08-.05-.03-.1-.05-.15-.08-.03-.01-.05-.03-.08-.04-.05-.03-.09-.05-.14-.08-.39-.22-.76-.46-1.12-.71-.04-.03-.08-.05-.12-.08-.06-.04-.11-.08-.17-.13-.03-.02-.06-.05-.09-.07-.04-.03-.09-.07-.13-.1-.08-.07-.17-.14-.25-.21-.04-.04-.08-.07-.12-.11-.04-.04-.08-.07-.12-.11-.04-.04-.08-.07-.12-.11-.08-.07-.16-.15-.24-.23-.04-.04-.08-.08-.12-.12-.12-.12-.23-.24-.34-.36-.08-.08-.15-.17-.22-.25,0,0,0,0,0,0-.07-.08-.14-.16-.21-.25-.07-.09-.14-.18-.21-.27-.07-.09-.13-.18-.2-.27-.04-.05-.07-.1-.11-.15-.03-.05-.06-.09-.1-.14-.03-.05-.06-.1-.1-.14-.06-.1-.12-.2-.19-.3-.03-.05-.06-.1-.09-.15-.03-.05-.06-.1-.09-.15-.06-.1-.12-.21-.17-.31-.06-.11-.11-.21-.16-.32-.03-.05-.05-.11-.08-.16-.03-.06-.05-.11-.08-.17-.08-.17-.15-.34-.22-.51-.11-.26-.2-.53-.3-.81,0,0,0,0,0,0-.03-.09-.06-.18-.09-.27,0,0,0,0,0-.01-.02-.07-.04-.14-.07-.22-.03-.1-.06-.2-.08-.3,0-.03-.02-.06-.02-.09-.02-.06-.03-.13-.05-.21-.04-.16-.08-.33-.12-.51,0,0,0-.02,0-.03-.38-1.76-.58-3.95-.33-5.95.35-2.82,1.59-5.26,4.45-5.57.23-.03.48-.04.74-.04,0,0,0,0,0,0,.45,0,.89,0,1.34,0,.14,0,.28,0,.42,0,.07,0,.13,0,.2,0,.1,0,.2,0,.29,0,.08,0,.17,0,.25,0,.38,0,.77-.02,1.15-.04.12,0,.25-.01.37-.02,0,0,.01,0,.02,0,.12,0,.25-.01.37-.02.25-.01.5-.03.75-.05.04,0,.08,0,.11,0,.06,0,.12,0,.18-.01.3-.02.61-.04.91-.07.19-.01.38-.03.57-.05.06,0,.12-.01.18-.02.22-.02.45-.04.67-.06.12-.01.24-.02.35-.03.2-.02.41-.04.61-.06.11-.01.21-.02.32-.03.18-.02.36-.04.54-.06.23-.02.45-.05.68-.08.04,0,.09,0,.13-.02.1-.01.19-.02.29-.03.12-.01.24-.03.36-.04.24-.03.48-.06.73-.09.48-.06.96-.12,1.44-.18.23-.03.46-.06.69-.09.87-.11,1.73-.22,2.6-.34.36-.05.72-.09,1.08-.14.25-.03.5-.06.76-.09.14-.02.28-.03.42-.05.14-.02.28-.03.43-.05.14-.02.28-.03.43-.05.14-.02.28-.03.43-.05.03,0,.06,0,.09-.01.25-.03.51-.05.76-.08.14-.01.29-.03.43-.04.11-.01.21-.02.32-.03.08,0,.16-.02.24-.02.12-.01.23-.02.35-.03.24-.02.49-.04.73-.06.11,0,.22-.02.33-.02.11,0,.22-.02.33-.02.24-.02.49-.03.74-.05,2.39-.15,4.83-.19,7.37-.03,3.46.21,6.56.51,9.51,2.4,0,0,0,0,.01,0,10.28,6.61,18.71,16.2,28.43,23.69,1.03.8,1.41,2.18.93,3.39Z"/><path class="cls-13" d="m115.67,103.83s-.03.02-.05.03c-1.13.04-2.31.22-3.39.39-.54.08-1.06.16-1.52.21-4.21.44-8.42.93-12.65,1.12-.47.02-.95.04-1.44.06-.31,0-.62.02-.93.02-.61.01-1.24.02-1.86.02-.12,0-.23,0-.35,0h-.01c-.11,0-.23,0-.34,0-.11,0-.22,0-.33,0-.13,0-.25,0-.38-.01-.07,0-.14,0-.21,0-.18,0-.36-.01-.54-.02-.08,0-.16,0-.24-.01-.04,0-.08,0-.12,0-.13,0-.25-.02-.38-.02-.09,0-.18-.01-.27-.02-.2-.02-.41-.03-.61-.05-.05,0-.1,0-.15-.01-.19-.02-.38-.04-.57-.06-.06,0-.12-.01-.18-.02-.06,0-.12-.01-.18-.02-.06,0-.12-.02-.18-.02s-.12-.02-.18-.02c-.06,0-.12-.02-.18-.02-.18-.02-.35-.05-.53-.08-.06,0-.12-.02-.18-.03-.18-.03-.35-.06-.52-.09-.04,0-.09-.02-.13-.02-.07-.01-.15-.03-.22-.04-.06-.01-.12-.02-.17-.04-.11-.02-.22-.05-.33-.07-.14-.03-.28-.06-.42-.1-.07-.02-.14-.03-.21-.05-.05-.01-.1-.03-.15-.04-.08-.02-.17-.04-.25-.07,0,0,0,0,0,0-.1-.03-.2-.05-.29-.08-.02,0-.04-.01-.06-.02-.1-.03-.2-.06-.3-.09-.05-.02-.11-.03-.16-.05-.28-.09-.56-.19-.83-.29-.04-.02-.09-.03-.13-.05-.07-.03-.14-.06-.21-.08-.04-.02-.08-.03-.11-.05-.05-.02-.1-.04-.16-.07-.05-.02-.1-.05-.15-.07-.06-.03-.12-.05-.18-.08-.04-.02-.09-.04-.13-.06-.05-.02-.1-.05-.15-.07-.05-.02-.11-.05-.16-.08-.05-.02-.1-.05-.14-.07-.05-.03-.1-.05-.15-.08-.05-.03-.1-.05-.15-.08-.03-.01-.05-.03-.08-.04-.05-.03-.09-.05-.14-.08-.39-.22-.76-.46-1.12-.71-.04-.03-.08-.05-.12-.08-.06-.04-.11-.08-.17-.13-.03-.02-.06-.05-.09-.07-.04-.03-.09-.07-.13-.1-.08-.07-.17-.14-.25-.21-.04-.04-.08-.07-.12-.11-.04-.04-.08-.07-.12-.11-.04-.04-.08-.07-.12-.11-.08-.07-.16-.15-.24-.23-.04-.04-.08-.08-.12-.12-.12-.12-.23-.24-.34-.36-.08-.08-.15-.17-.22-.25,0,0,0,0,0,0-.07-.08-.14-.16-.21-.25-.07-.09-.14-.18-.21-.27-.07-.09-.13-.18-.2-.27-.04-.05-.07-.1-.11-.15-.03-.05-.06-.09-.1-.14-.03-.05-.06-.1-.1-.14-.06-.1-.12-.2-.19-.3-.03-.05-.06-.1-.09-.15-.03-.05-.06-.1-.09-.15-.06-.1-.12-.21-.17-.31-.06-.11-.11-.21-.16-.32-.03-.05-.05-.11-.08-.16-.03-.06-.05-.11-.08-.17-.08-.17-.15-.34-.22-.51-.14-.35-.27-.72-.39-1.1-.02-.07-.04-.14-.07-.22-.03-.1-.06-.2-.08-.3,0-.03-.02-.06-.02-.09-.05-.18-.11-.42-.17-.72,0,0,0-.02,0-.03-.38-1.76-.58-3.95-.33-5.95.35-2.82,1.59-5.26,4.45-5.57.77.35,1.48.44,2.07-.03.14,0,.28,0,.42,0,.07,0,.13,0,.2,0,.1,0,.2,0,.29,0,.08,0,.17,0,.25,0,.38,0,.77-.02,1.15-.04.12,0,.25-.01.37-.02,0,0,.01,0,.02,0,.12,0,.25-.01.37-.02.25-.01.5-.03.75-.05.1,0,.19-.01.29-.02.3-.02.61-.04.91-.07.19-.02.38-.03.57-.05.06,0,.12-.01.18-.02.34-.03.68-.06,1.02-.09.2-.02.41-.04.61-.06.11-.01.21-.02.32-.03.18-.02.36-.04.54-.06.23-.02.45-.05.68-.08.04,0,.09,0,.13-.02.22-.02.43-.05.65-.08.24-.03.48-.06.73-.09.48-.06.96-.12,1.44-.18.23-.03.46-.06.69-.09.87-.11,1.73-.23,2.6-.34.36-.05.72-.09,1.08-.14.25-.03.5-.06.76-.09.14-.02.28-.03.42-.05.14-.02.28-.03.43-.05.14-.02.28-.03.43-.05.14-.02.28-.03.43-.05.03,0,.06,0,.09-.01.25-.03.51-.05.76-.08.14-.01.29-.03.43-.04.11-.01.21-.02.32-.03.08,0,.16-.02.24-.02.12-.01.23-.02.35-.03.24-.02.49-.04.73-.06.11,0,.22-.02.33-.02.11,0,.22-.02.33-.02.24-.02.49-.03.74-.05.13.82-.02,1.72-.19,2.56-.52,2.62-1.14,5.18-1.82,7.76-.56,2.11-1.53,4.67-.44,6.76.71,1.36,2.14,2.17,3.53,2.82,3.06,1.41,6.32,2.37,9.65,2.84Z"/><path class="cls-20" d="m83.27,86.18c.76-.58,1.44-1.31,1.77-2.2.11-.3.19-.63.09-.93-.1-.32-.37-.56-.63-.78-.36-.31-.73-.61-1.09-.92-.9-.75-1.82-1.52-2.91-1.97-1.78-.73-3.75-.22-4.94,1.31-.81,1.05-.82,2.49-1.05,3.75-.21,1.17-.7,2.24.35,2.96.71.5,2.12.53,2.96.54,1.94.02,3.9-.59,5.45-1.78Z"/><path class="cls-7" d="m106.32,25.55c-.01.08-.03.17-.05.25,0,.02,0,.03,0,.05-.53,2.2-2.7,3.82-4.89,4.35-.08.02-.16.04-.24.05-.31.06-.62.11-.93.12-2.67.15-5.98-1.49-7.58-3.66,0,0-.12.04-.33.08-.03,0-.06.01-.09.02-.02,0-.04,0-.06.01-.91.18-2.89.38-3.7-1.08-.49-.88-.69-1.6-.64-2.17.03-.4.2-.73.47-.98.18-.17.42-.3.7-.39.06-.02.12-.04.18-.05.02,0,.04,0,.06-.01.61-.11,1.09.19,1.39.5,0,0,.02.02.03.03.12.12.21.24.28.34.06.09.09.15.1.16l-.02-.06s.05.07.07.11l.1.04,1.07.39s-.01-.02-.03-.05c0-.01-.01-.02-.02-.04-.01-.02-.03-.05-.04-.08-.02-.03-.03-.07-.05-.1-.01-.03-.03-.05-.04-.08-.03-.06-.06-.12-.09-.19-.02-.03-.03-.07-.05-.11,0-.02-.02-.04-.03-.06-.02-.04-.03-.08-.05-.12-.03-.08-.07-.17-.11-.26-.02-.05-.04-.09-.06-.14-.02-.05-.04-.1-.06-.15-.04-.1-.07-.21-.11-.32-.02-.06-.04-.11-.05-.17-.05-.17-.11-.36-.15-.55-.02-.06-.03-.13-.05-.19-.14-.58-.23-1.23-.23-1.91,0-.09,0-.17,0-.26,0-.02,0-.03,0-.05,0-.05,0-.11,0-.16,0-.11.02-.21.03-.32,0-.04,0-.07.02-.11,0-.03,0-.06.01-.09,0-.05.02-.1.02-.15,0-.04.02-.09.02-.13,0-.05.02-.1.03-.15,0,0,0-.01,0-.02,0-.04.02-.08.03-.12,0-.02,0-.04.02-.06.01-.05.02-.09.04-.14.02-.05.03-.11.05-.16.02-.05.03-.11.05-.16.02-.05.04-.11.06-.16.02-.05.04-.11.07-.16.02-.05.05-.11.07-.16.01-.03.03-.07.05-.1,0,0,0-.01.02-.04,0,0,.01-.02.02-.03.01-.02.03-.05.04-.09,0,0,0-.02.01-.02,0-.02.02-.03.02-.05,0,0,0-.01.01-.02,0,0,0-.02.01-.02,0,0,0-.02.02-.03,0,0,0-.02.01-.02,0-.02.02-.03.02-.05,0,0,.01-.02.02-.03,0,0,0-.02.01-.02,0,0,0-.02.01-.03,0,0,0,0,0,0,0-.02.02-.03.03-.05,0-.01.01-.02.02-.03.01-.02.02-.04.03-.05,0-.01.01-.02.02-.03,0,0,0-.01,0-.02,0,0,0-.01.01-.02,0-.01.01-.02.02-.03,0-.02.02-.03.03-.05,0,0,.01-.02.02-.03,0,0,0-.01.01-.02.02-.03.03-.06.05-.09,0-.02.02-.03.03-.05.03-.04.05-.09.08-.13,0,0,0,0,0,0,0,0,0,0,0-.01.01-.02.02-.04.04-.06,0,0,.01-.02.02-.02.02-.03.04-.06.06-.09,0-.01.02-.02.03-.04,0,0,0-.01.01-.02.01-.02.03-.04.04-.06.01-.02.03-.04.04-.06,0,0,0,0,0,0,.02-.02.03-.04.05-.06.02-.02.03-.05.05-.07h0s0,0,0-.01c.01-.02.03-.04.04-.06.03-.04.07-.08.1-.12.02-.02.03-.03.05-.05.02-.02.04-.04.06-.06.02-.02.04-.05.06-.07.14-.15.29-.28.45-.37.05-.03.09-.05.14-.07.02-.01.04-.02.07-.03.01,0,.03-.01.04-.02.02,0,.04-.01.06-.02.02,0,.05-.01.07-.02,0,0,0,0,0,0,.02,0,.05,0,.07-.01.03,0,.07,0,.09-.01.05,0,.09-.02.12-.03,0,0,.01,0,.02,0,0,0,.01,0,.02,0,0,0,.01-.01.02-.02,0,0,0,0,0,0,.01-.01.02-.02.02-.04h0s0-.01,0-.02c0,0,0,0,0,0h0s0-.01,0-.02h0s0,0,0-.01c0,0,0,0,0,0,0,0,0,0-.01-.01,0,0,0,0,0,0h0s0,0,0,0c0,0-.01-.01-.02-.02h0s-.02-.01-.02-.02c0,0,0,0-.01-.01-.01-.01-.03-.02-.04-.03,0,0,0,0,0,0-.02-.01-.04-.02-.06-.04-.01,0-.02-.01-.04-.02-.03-.02-.07-.04-.11-.06-.02-.01-.05-.02-.07-.03-.02,0-.03-.02-.05-.02-.02,0-.03-.01-.05-.02-.03-.01-.05-.02-.08-.04-.01,0-.02,0-.03-.01,0,0-.01,0-.02,0-.02,0-.03-.01-.05-.02,0,0,0,0-.01,0-.02,0-.05-.02-.07-.03,0,0,0,0,0,0,0,0-.02,0-.02,0,0,0-.01,0-.02,0,0,0-.01,0-.02,0,0,0-.02,0-.02,0-.01,0-.02,0-.04-.01,0,0,0,0,0,0-.02,0-.03-.01-.04-.02h0s-.03-.01-.04-.02c0,0-.02,0-.02,0,0,0-.01,0-.02,0,0,0-.01,0-.02,0,0,0-.02,0-.02,0,0,0-.01,0-.02,0-.01,0-.03-.01-.04-.02-.01,0-.03,0-.04-.01,0,0,0,0-.01,0,0,0-.01,0-.02,0-.03-.01-.05-.02-.08-.03,0,0-.02,0-.02,0s-.01,0-.02,0c-.01,0-.02,0-.03-.01-.02,0-.04-.01-.05-.02-.03,0-.05-.02-.07-.02,0,0,0,0,0,0,0,0-.02,0-.02,0,0,0-.01,0-.02,0,0,0,0,0,0,0,0,0,0,0,0,0,0,0-.01,0-.01,0l-1.33.34,1.28-1.47c.82.11,1.65.22,2.47.34,1.75.24,3.5.48,5.26.71,1.45.2,3.17.18,4.57.62.43.14.47-.02.64.35,0,.02.02.04.03.07.07.17.08.41.06.69,0,.05,0,.09-.01.14-.01.14-.03.29-.05.43-.04.32-.09.63-.09.84,0,.78.15,1.49.33,2.18.04.16.08.32.13.49.13.48.26.96.36,1.46.18.89.32,1.84.36,2.78,0,.02,0,.04,0,.05,0,.15.01.31.01.46,0,.65-.04,1.29-.14,1.91Z"/><path class="cls-18" d="m94.01,13.97s-.12.03-.21.04c-1.07.11-2.14,2.46-2.14,2.46-1.59,3.28.59,7.09.64,7.17l-1.18-.43s-.05-.08-.07-.11l-2.12-7.01,2.26-2.6,1.33-.34s1.95.62,1.5.81Z"/><path class="cls-11" d="m89.65,36.42c.11-.34.4-.77.64-1.22l.05.04c-.2.45-.35.93-.35,1.48,0,.07,0,.14,0,.21-.26-.22-.38-.4-.34-.52Z"/><path class="cls-7" d="m102.08,35.94c-.26.66-.68,1.29-1.34,1.52-.57.2-1.09.36-1.14.96-.53,5.93-3.88-1.86-5.68-2.55-.21-.08-.44-.07-.67-.09l-1.86-1.57c1.86-2.91.69-7.98.69-7.98.25-.51,5.79,1.48,8.05,2.32.58.22.95.36.95.36v.09s.1,1.3.1,1.3l.18,2.32c.06.74.18,1.46.36,2.18.1.39.22.77.36,1.15Z"/><path class="cls-17" d="m102.08,35.94c-.26.66-.33,1.44-.99,1.67-.57.2-1.41,1.05-1.99.89-1.69-.47-1.92,0-3.65-.29-.22-.04-1.97-2.41-2.2-2.43l-1.86-1.57c1.47-2.3,1.05-5.96.81-7.39.29-.06.47-.12.47-.12,1.59,2.17,4.9,3.81,7.58,3.66.39-.02.78-.08,1.17-.17-.07.03-.15.07-.24.1-.81.28-2.51.89-5.48.21-.71-.16-1.43.26-1.63.96l-.32,1.15c-.19.67.26,2.17,1.26,3.24,1.42,1.51,5.37,2.32,5.74,2.12.49-.27,2.16-1.92,2.16-1.92l.19-.38c.1.39-1.16-.11-1.03.27Z"/><path class="cls-9" d="m103.7,81.97s-.06,0-.09,0c-.11-.02-.22-.04-.33-.06.14-.02.28-.04.42-.05,0,0,0,.02,0,.02,0,.03,0,.06.01.09Z"/><path class="cls-8" d="m94.01,13.97s-.12.03-.21.04c-.41.04-.81.4-1.16.84-.02.02-.04.05-.05.07-.54.7-.93,1.55-.93,1.55-.02.03-.03.07-.05.1-1.5,3.26.64,6.99.69,7.08-.27-.1-.58-.14-.84-.25-.29-.11-.49-.41-.7-.62-.49-.48-1.02-.81-1.73-.58-.28.09-.52.22-.7.39-.13-.24-.23-.51-.32-.74-.21-.5-.4-1.01-.59-1.53-.18-.5-.35-1-.55-1.49,0-.01,0-.02-.01-.03-.21-.49-.42-1-.45-1.55-.02-.29.01-.57.05-.86h0c.03-.17.04-.45.01-.62-.05-.34-.11-.68-.16-1.02l4.88-1.26,1.33-.34s1.09.35,1.45.6c.12.08.16.16.05.21Z"/><path class="cls-24" d="m105.47,14.81c-2.14,1.5-6.64.17-6.64.17-1.87-.51-3.47-.83-4.82-1.01-.58-.07-1.12-.12-1.62-.14-.55-.02-1.05-.02-1.5.01-3.35.24-4.16,1.91-4.2,3.4-.02.56.08,1.09.18,1.5.03.13.07.25.11.36,0,0,0,.01,0,.03.02.07.05.14.07.19,0,.01,0,.03.02.04.02.04.03.09.05.13,0,0,0,0,0,0,0,.02.01.03.02.05-.06-.17-.36-.38-.48-.52-.16-.19-.31-.39-.45-.59-.22-.33-.41-.69-.54-1.08-.22-.65-.22-1.34-.06-2.01.17-.7.48-1.37.79-2.01.7-1.46,1.28-2.85,2.68-3.8.97-.66,2.08-1.07,3.2-1.39.33-.09.66-.18.99-.26.32-.08.65-.42.91-.61.06-.05.12-.09.19-.13.49-.35.99-.7,1.52-1.01,1.6-.94,3.54-1.17,5.32-.66,1.6.45,3.09,1.33,4.06,2.71.15.21.29.44.41.67.49.93.76,1.96.88,2.99.17,1.48-.29,2.39-1.07,2.93Z"/><path class="cls-21" d="m103.84,41.68c-.08.2-.14.3-.17.26l-2.58-4.48c-.04-.14.03-.29.16-.35,1-.51.79-4.01.79-4.01.14.01,2.62,1.92,2.85,2.85,0,0,0,.02,0,.03.17.84-.65,4.66-1.05,5.71Z"/><path class="cls-21" d="m101.07,44.06s-9.3-4.77-10.9-6.98c-.27-.37-.59-.49-.54-.63.19-.51.62-1.22,1.02-1.91.43-.72.6-.83,1.23-1.36,0,0,1.73,3.39,3.87,4.08s4.78.22,6.17-1.77l-.87,8.56Z"/><path class="cls-3" d="m113.88,85.09s-.05-.05-.07-.08c.03.03.05.05.07.08Z"/><path class="cls-5" d="m105.47,14.81c-.01.18-.04.38-.06.57-1.19.59-2.97.78-3.67.79-1.51.04-3.03-.1-4.51-.4-.42-.09-.84-.19-1.24-.33-.48-.18-.98-.5-1.5-.52-.45-.01-.95.15-1.36.34-.61.29-1.15.75-1.53,1.32.01-.03.03-.07.05-.1,0,0,.41-.91.98-1.62.35-.44.75-.8,1.16-.84.1,0,.17-.02.21-.04,1.35.17,2.95.5,4.82,1.01,0,0,4.5,1.33,6.64-.17Z"/><path class="cls-1" d="m133.12,114.74v-.02s0,.02,0,.02Z"/><path class="cls-20" d="m106.12,81.04c-.39.02-.78.04-1.17.06-.23.01-.45.03-.68.05-.05-1.03-.11-2.12-.17-3.24.58,0,1.15,0,1.73-.02.05.59.1,1.19.16,1.78.04.46.09.91.13,1.37Z"/><path class="cls-20" d="m104.1,77.91c.06,1.12.12,2.21.17,3.24-.02,0-.04,0-.06,0-.11,0-.22.02-.33.02-.11,0-.22.02-.33.02-.24.02-.49.04-.73.06-.12,0-.23.02-.35.03-.08,0-.16.01-.24.02-.11,0-.21.02-.32.03-.14.01-.29.03-.43.04-.25.03-.51.05-.76.08-.03,0-.06,0-.09.01-.14.02-.28.03-.43.05-.14.02-.28.03-.43.05-.14.02-.28.03-.43.05-.14.02-.28.03-.42.05-.25.03-.5.06-.76.09-.36.04-.72.09-1.08.14-.87.11-1.73.22-2.6.34-.23.03-.46.06-.69.09-.48.06-.96.12-1.44.18-.24.03-.48.06-.73.09-.12.02-.24.03-.36.04-.1.01-.19.02-.29.03-.04,0-.09,0-.13.02-.22.03-.45.05-.68.08-.18.02-.36.04-.54.06-.11.01-.21.02-.32.03-.2.02-.41.04-.61.06-.12.01-.24.02-.35.03-1.34-.2-2.79-.12-3.62-1.29.35-.3.56-.55.57-.73.03-.42-1.21-3.3-2.67-6.59,0,0,0,0,0,0-.27-.62-.56-1.26-.84-1.9,0-.18-.02-.36-.03-.54-.26-2.81-2.51-5.27-2.28-8.09.1-1.25.69-2.39,1.46-3.4,1.15-1.14,2.51-2.5,3.81-3.94.63-.7,1.25-1.43,1.82-2.16-.13,1.22-.53,2.46-.84,3.6-.42,1.55-1.48,2.91-2.02,4.46-.76,2.18-.97,4.88-.58,7.16.49,2.84,3.2,5.45,5.65,6.73,2.75,1.44,5.96,1.48,9,1.51,2.11.02,4.22.12,6.32.13Z"/><path class="cls-20" d="m117.81,81.77c-1.74-.43-3.56-.58-5.49-.7-2.13-.13-4.18-.12-6.2-.03-.05-.46-.09-.91-.13-1.37-.05-.59-.11-1.19-.16-1.78.18,0,.36-.01.54-.02,1.77-.07,3.56-.18,5.32.08,2.15.31,4.16,1.15,6.04,2.26.04.5.07,1.03.08,1.56Z"/><path class="cls-20" d="m115.99,71.36c-.05-.67-.18-1.31-.28-1.99-.25-1.74-.53-3.45-.88-5.18-.8-3.97-1.59-7.96-2.65-11.87.16.58.35,1.2.57,1.8.21.59.45,1.17.7,1.7.56,1.17.75,2.33,1.03,3.61.27,1.24.68,2.37.82,3.62.17,1.57.69,3.01,1.08,4.51.02.09.05.18.07.28.23.88.6,2.32.98,3.72-.1-.01-.2-.02-.3-.03-.37-.05-.74-.1-1.09-.17"/><path class="cls-20" d="m116.04,71.37s-.03,0-.05,0"/><path class="cls-4" d="m64.71,154.57c2.31,3.6,8.06,5.57,10.6,6.02.32.06.65.12.97.14.14,0,.33.06.46-.02.09-.05.15-.24.2-.33.06-.12.1-.24.15-.36.03-.07.08-.17.03-.23,0,0,0,0-.01,0,.43-.99.35-1.96-.34-2.73-2.94.41-5.97.06-8.76-.94-.3-.11-.6-.22-.89-.34-.83-.34-1.63-.74-2.4-1.2Z"/><path class="cls-13" d="m89.22,134.78c-.39.44-.77.88-1.16,1.33-1.36,1.54-2.72,3.08-4.09,4.64,0,0,0,0-.01.01-2.65,3.02-5.56,6.78-9.01,9.18-.77-.65-1.54-1.3-2.31-1.94,3.36-2.01,10.86-8.29,16.58-13.22Z"/><circle class="cls-7" cx="90.69" cy="24.12" r="2.91"/><path class="cls-17" d="m90.3,22.46s.95.41.85,1.04c0,0-1.06.18-1.2,1.5,0,0,1.13-.99,1.59-.74.46.25.53.88.37,1.27,0,0,.74-1.39.04-2.45-.7-1.06-1.64-.62-1.64-.62Z"/><path class="cls-25" d="m82.15,86.49l6.58,6.79,25.04-.88c3.11-.11,6.17.8,8.71,2.6l27.22,19.19"/><path class="cls-7" d="m85.13,92.47c.99,1.19,2.25,2.16,3.72,2.68.01,0,.02,0,.03.01.14-.24.14-.46.08-.72,0-.03-.02-.06-.02-.08,0-.02,0-.01,0-.02,0-.01-.01-.03-.02-.05,0-.01-.01-.03-.02-.04-.04-.1-.1-.2-.16-.28,0,0,0,0,0,0-.23-.32-.49-.6-.76-.88-.05-.05-.11-.11-.16-.16-.16-.15-.31-.31-.4-.51,0-.01-.01-.03-.02-.04s0-.03,0-.04c.04.04.08.08.11.11.2.2.41.41.64.58.04.03.09.05.14.07.15.07.32.11.46.18.26.13.53.25.79.37.13.06.25.12.37.18.31.15.62.28.97.35,0,0,.01,0,.02,0,.06,0,.12.02.18.03.26.02.48.03.71-.14.12-.08.29-.23.37-.36.02-.03.03-.04.05-.04,0,0,0,0,.02,0,.11-.01.19-.03.28-.1.21-.15.42-.29.5-.54.02-.08.03-.19.09-.25,0,0,.01-.01.02-.02h0s.01-.01.02-.01c.07-.05.14-.05.2-.14.06-.1.11-.22.12-.36.03-.24,0-.5-.1-.67-.46-.83-1.47-1.43-2.28-1.95-.35-.22-.77-.71-.99-1.06s-.5-.7-.61-1.11c-.02-.09-.05-.28-.12-.38-.02-.02-.04-.04-.06-.05l.08.03.35-.42c.41-.48.71-.66,1.1-1.11-.49-.41-.88-.94-1.27-1.18-1.34-.81-2.45-.9-3.84-.91-.71,0-2.68-3.32-3.21-3.9-.52.64-.86,2.66-1.4,3.29.13.59-1.74.65-1.51,1.15.26.55,2.14,2.59,2.38,3.15.17.42.33.82.5,1.24.34.85.68,1.71,1.25,2.43l1.41,1.69Z"/><path class="cls-18" d="m93.56,92.1s-.02.06-.02.06c0,0,0,0,0,0,0,0,0,0,0,0,0-.02,0-.04.01-.05Z"/><path class="cls-19" d="m88.96,94.44s-.02-.05-.03-.08c0,.02.02.05.03.08Z"/><path class="cls-7" d="m90.83,85.5s1.18,1.26,1.66,2.43c.22.53-.5.98-.94.62-.85-.68-1.96-1.56-2.54-1.98l1.82-1.07Z"/><path class="cls-21" d="m68.18,67.44c1.5,4.75,3.51,9.45,6.46,13.49,1.27,1.73,2.73,3.34,4.42,4.68,0,0,.08-.04.22-.12.16-.08.4-.21.69-.37,1.26-.69,3.54-1.98,4.93-2.99.22-.16.42-.32.59-.46.23-.2.41-.38.5-.53.05-.07.07-.14.07-.2.03-.42-1.21-3.3-2.67-6.59,0,0,0,0,0,0-.27-.62-.56-1.26-.84-1.9-.2-.45-.4-.91-.6-1.36-1.6-3.6-3.07-6.93-3.11-7.45-.03-.38,1.2-1.58,2.86-3.22.53-.53,1.11-1.1,1.7-1.71.69-.71,1.41-1.46,2.11-2.24.63-.7,1.25-1.43,1.82-2.16,1.65-2.13,2.92-4.32,3.04-6.24.36-5.91-7.11-9.03-7.11-9.03-2.96,3.28-5.92,6.56-8.81,9.9-2.22,2.55-4.7,5.01-6.24,8.06-1.81,3.59-1.18,6.76-.02,10.43Z"/><path class="cls-7" d="m88.89,95.16s4.97.21,4.55-3.36l-4.81-.67-1.05.46-1.09.17,1.13,2.26,1.27,1.15Z"/><path class="cls-25" d="m97.3,109.17s-14.41,25.94-26.16,37.6"/></svg>