<?xml version="1.0" encoding="UTF-8"?><svg id="Layer_1" xmlns="http://www.w3.org/2000/svg" xmlns:xlink="http://www.w3.org/1999/xlink" viewBox="0 0 216 216"><defs><style>.cls-1{fill:none;}.cls-1,.cls-2,.cls-3,.cls-4,.cls-5,.cls-6,.cls-7,.cls-8,.cls-9,.cls-10,.cls-11,.cls-12,.cls-13,.cls-14{stroke-width:0px;}.cls-15{fill:#fff;stroke:#3870b5;stroke-miterlimit:10;stroke-width:2px;}.cls-16{clip-path:url(#clippath-1);}.cls-2{fill:#f8fdff;}.cls-3{fill:#2a5488;}.cls-4{fill:#9ac7f7;}.cls-5{fill:#3870b5;}.cls-6{fill:#232370;}.cls-7{fill:#1f3e64;}.cls-8{fill:#d90f03;}.cls-9{fill:#d2e9ff;}.cls-10{fill:#bf8001;}.cls-11{fill:#ffab01;}.cls-12{fill:#ffc257;}.cls-13{fill:#fafaff;}.cls-14{fill:#f15a53;}</style><clipPath id="clippath-1"><circle class="cls-1" cx="101.7" cy="108.34" r="78.15"/></clipPath></defs><circle class="cls-15" cx="101.71" cy="108.24" r="79.18"/><circle class="cls-1" cx="101.71" cy="108.24" r="79.18"/><g class="cls-16"><path class="cls-5" d="m102.8,97.06l-12.94-24.92c-10.77.24-20.82,2.67-29.41,5.81-16.95,6.2-28.24,15.18-28.16,15.59l17.43,32.51,14.19,26.47,1.2,2.24c3.42-2.84,15.44-7.92,27.45-12.59,13.93-5.42,27.85-10.27,28.25-10.41h0s-18.02-34.71-18.02-34.71Zm-47,3.95c-1.57.86-3.14,1.79-4.69,2.77l-4.57-8.09s4.71-3.21,11.74-6.53c7.19-3.41,16.81-6.94,26.27-7.29l4,7.46s-16.24,2.59-32.75,11.68Z"/><path class="cls-6" d="m88.55,89.33s-19.47,3.1-37.44,14.45l-4.57-8.09s19.31-13.14,38.01-13.82l4,7.46Z"/><path class="cls-4" d="m64.23,168.09c.16-.06.26-.13.29-.15-1.39,1.14-2.24.2-2.24.2-.9-.31-2.95-3.44-5.61-8.14-1.06-1.87-2.21-4-3.42-6.3-9.61-18.18-23.04-47.05-23.04-47.05,0,0-1.47-10.32-.06-12.42,0,0,0-.01.01-.02,1.44-2.06,2.12-.66,2.12-.66l25.88,48.27c-.56.09-1.07.48-1.54,1.07.91,1.72,1.79,3.37,2.62,4.93.39-.67.97-1.03,1.47-1.23l3.18,5.94,1.2,2.24s-.79-.79-1.61.65c-.04.06-.07.13-.11.21-.37.73-.73,1.94-1.03,3.88-.15,1-.26,1.9-.33,2.69-.57,6.47,1.42,6.23,2.19,5.91Z"/><path class="cls-3" d="m120.14,133.55c-36.38,12.03-51.66,20.37-55.07,22.38l.05-1.17c7.39-6.14,54.95-22.74,55.69-23h0s.54,1.39-.68,1.79Z"/><path class="cls-3" d="m64.53,167.93l.07-1.64c6.34-2.15,35.95-13.13,55.54-22.73,0,0,1.1-1.16,1.47.52.37,1.68-54.83,23.64-57.08,23.85Z"/><path class="cls-13" d="m120.14,143.56c-19.59,9.6-49.2,20.58-55.54,22.73l.46-10.36c3.42-2,18.69-10.35,55.07-22.38v1.24s0,.9,0,.9v1.35s0,.91,0,.91v1.35s0,.92,0,.92v1.59s0,.91,0,.91v.84Z"/><path class="cls-3" d="m65.12,154.76l-.59,13.17-.3.16c-.78.33-2.76.56-2.19-5.91.07-.79.18-1.68.33-2.69.32-2.14.73-3.38,1.14-4.09.82-1.43,1.61-.65,1.61-.65Z"/><path class="cls-5" d="m64.52,167.94c-1.39,1.14-2.24.2-2.24.2-.9-.31-2.95-3.44-5.61-8.14-1.06-1.87-2.19-4.01-3.42-6.3-13.5-24.97-19.39-36-21.81-40.58-1.05-1.99-1.67-4.18-1.79-6.43-.24-4.24-.45-11.04.51-12.47.82,2.12,2.22,4.96,4.56,8.72,3.67,5.89,14.08,25.23,21.92,39.95.91,1.72,1.79,3.37,2.62,4.93,1.6,3.01,3.01,5.68,4.14,7.8-.37.73-.73,1.94-1.03,3.88-.15,1-.26,1.9-.33,2.69-.57,6.47,1.42,6.23,2.19,5.91.16-.06.26-.13.29-.15Z"/><path class="cls-4" d="m88.55,89.33s-19.47,3.1-37.44,14.45l-4.57-8.09s19.31-13.14,38.01-13.82l4,7.46Z"/><path class="cls-4" d="m120.14,135.69c-7.78,3.05-43.86,17.26-55.14,21.71l.04-.89c9.96-3.95,41.14-16.46,55.1-21.72v.9Z"/><path class="cls-4" d="m120.14,137.96c-8.96,3.51-45,17.71-55.24,21.75l.04-.89c9.07-3.58,40.67-16.28,55.2-21.77v.91Z"/><path class="cls-4" d="m120.14,140.22c-10.01,3.93-46.24,18.2-55.35,21.79l.04-.88c8-3.15,40.16-16.08,55.31-21.82v.92Z"/><path class="cls-4" d="m120.14,142.72c-9.36,3.67-45.83,18.04-55.46,21.84l.04-.89c8.48-3.34,40.59-16.25,55.42-21.86v.91Z"/><path class="cls-4" d="m60.73,146.58c-.5.2-1.08.57-1.47,1.23-.83-1.56-1.71-3.21-2.62-4.93.46-.59.98-.98,1.54-1.07l2.56,4.77Z"/><path class="cls-3" d="m59.25,147.81c-.07.12-.13.24-.19.38-.49,1.18-1.65,7.54-2.39,11.8-1.06-1.87-2.21-4-3.42-6.3.6-3.68,1.68-8.64,3.38-10.81.91,1.72,1.79,3.37,2.62,4.93Z"/><path class="cls-10" d="m159.32,153.42c0,.22,0,.44,0,.66v.02c0,.19,0,.38-.02.57,0,.03,0,.07,0,.1,0,.2-.02.4-.03.6,0,.02,0,.05,0,.07-.01.2-.02.4-.04.6-.02.22-.03.43-.05.65-.02.22-.04.43-.06.64-.02.21-.05.43-.07.64-.02.15-.04.3-.06.45,0,.07-.02.15-.03.22-.03.19-.06.38-.09.57,0,.02,0,.04,0,.06-.03.2-.07.4-.1.6-.03.19-.07.38-.11.57,0,.04-.02.08-.02.12-.03.15-.06.29-.09.44-.05.21-.09.42-.14.63-.02.08-.04.16-.06.23-.05.19-.09.38-.14.56-.04.15-.08.31-.12.46,0,.02-.01.04-.02.07-.05.17-.09.34-.14.51-.04.15-.09.29-.13.44-.05.17-.11.34-.16.51,0,.01,0,.03-.01.04-.06.18-.12.36-.18.54,0,.03-.02.06-.03.09-.06.19-.13.38-.2.56-.06.17-.13.34-.19.51-.02.07-.05.14-.08.2-.04.09-.07.19-.11.28-.05.12-.1.24-.15.36-.03.08-.06.15-.1.23-.04.11-.09.21-.13.31-.04.09-.08.18-.12.27-.05.11-.09.22-.15.33-.04.1-.09.2-.14.3-.03.07-.06.14-.1.22-.05.1-.1.2-.15.31-.06.12-.12.24-.18.36,0,.02-.02.03-.02.05-.09.17-.17.35-.26.52-.09.17-.18.35-.27.52-.03.05-.05.1-.08.15-.07.12-.13.25-.2.37-.03.06-.07.13-.11.19-.06.12-.13.23-.2.35-.12.22-.25.43-.38.64-.09.15-.18.3-.28.45-.1.15-.19.3-.29.46-.11.16-.21.32-.32.48-.11.16-.22.31-.32.47,0,0,0,.01-.01.02-.12.17-.24.34-.36.51-.27.37-.55.74-.83,1.1-.04.05-.09.11-.13.16-.09.12-.18.23-.28.34-.06.07-.11.14-.17.21-.1.13-.21.25-.31.37-.18.22-.37.43-.56.65-.12.13-.24.26-.36.39-.06.06-.11.12-.17.18-.13.14-.26.28-.39.41-.16.17-.33.34-.49.5-.16.16-.31.31-.47.46,0,0-.02.02-.03.03-.17.16-.34.32-.51.48,0,0-.02.02-.02.02-.17.15-.33.3-.5.45-.16.15-.33.29-.49.43-.02.02-.04.04-.07.06-.17.15-.34.29-.51.43-.16.13-.33.27-.49.4-.03.02-.05.04-.08.06-.18.14-.36.28-.54.41-2.59,1.96-5.46,3.57-8.53,4.77-.4.16-.8.31-1.2.45-.13.05-.26.09-.4.14-3.59,1.21-7.43,1.86-11.42,1.86s-8.12-.7-11.82-2c-.51-.18-1.02-.37-1.52-.57-.04-.01-.07-.03-.1-.04-9.1-3.69-16.33-11.01-19.91-20.16-.18-.46-.35-.93-.52-1.4-.02-.07-.05-.15-.07-.22-1.21-3.59-1.86-7.43-1.86-11.42,0-8.5,2.96-16.31,7.91-22.45.03-.04.07-.08.1-.13.33-.41.67-.81,1.02-1.2,3.64-4.1,8.21-7.36,13.38-9.45.31-.12.62-.24.93-.36.16-.06.31-.11.47-.17.16-.06.31-.11.47-.16.14-.05.28-.09.42-.14.04-.01.07-.02.11-.04.14-.04.28-.09.41-.13,0,0,0,0,.02,0,.16-.05.31-.09.47-.14.16-.05.32-.09.48-.14.17-.05.33-.09.5-.14.19-.05.38-.1.57-.14.19-.05.38-.09.57-.14.5-.11,1.01-.22,1.52-.31.08-.02.17-.03.25-.04.1-.02.2-.04.31-.05.08-.02.17-.03.25-.04.08-.01.16-.03.25-.04.1-.02.19-.03.29-.04.35-.05.7-.1,1.06-.14.18-.02.37-.04.55-.06.17-.02.35-.03.53-.05.04,0,.09,0,.13-.01.17-.01.33-.02.5-.04.19-.01.37-.02.56-.03.02,0,.04,0,.06,0,.13,0,.26-.01.4-.02.07,0,.15,0,.22,0,.16,0,.33,0,.49-.01h.03c.19,0,.39,0,.59,0,.32,0,.64,0,.95.01.1,0,.19,0,.29,0,.24,0,.48.02.72.03.08,0,.17,0,.25.02.15,0,.3.02.44.03.13,0,.26.02.39.03h0c.15.01.31.03.46.04.03,0,.06,0,.09,0,.11,0,.21.02.32.03.06,0,.13.01.19.02.1.01.2.02.3.04.1.01.2.03.31.04.14.02.29.04.43.06.92.13,1.82.3,2.71.5.15.03.3.07.44.1.15.04.3.07.44.11.13.03.26.07.39.1.04,0,.08.02.11.03.1.03.2.05.31.08.14.04.27.07.41.11.1.03.19.06.29.09.04.01.09.03.13.04.09.03.18.06.28.08.1.03.2.06.3.09.14.04.27.09.41.13.14.05.29.1.43.15.14.05.28.1.42.15.28.1.56.21.84.32.14.06.28.11.42.17.14.06.28.11.41.17.14.06.28.12.41.18.17.07.34.15.51.22.17.08.34.15.5.23.17.08.35.17.52.25.02.01.04.02.06.03.12.06.24.12.36.18,1.11.57,2.19,1.19,3.24,1.87.26.17.52.34.77.52.39.27.78.54,1.16.83.25.19.5.38.75.58.12.1.25.2.37.3.12.1.24.2.37.3.12.1.24.2.36.31.24.2.48.41.71.62.12.11.23.21.35.32.12.11.23.22.35.32.24.23.47.46.71.69.1.1.2.2.3.31.22.22.43.45.64.67.11.12.22.24.33.36.11.12.21.24.31.35.12.14.24.28.37.43.08.09.16.19.24.28,0,0,.01.01.02.02.1.12.2.24.29.36.06.07.12.15.18.23.08.09.15.19.22.28.07.08.13.17.2.25.09.11.17.22.25.33.11.15.23.31.34.46.07.09.13.19.2.28.02.03.04.06.06.09.07.1.15.21.22.31.19.27.37.55.55.83.07.1.13.2.2.31.11.18.22.36.34.54.05.09.11.18.16.27.05.08.09.16.14.24.08.13.15.26.23.4,0,0,0,.01.01.02.07.13.15.26.22.39.07.13.15.27.22.4,0,.01.01.02.02.03.07.13.14.26.21.39.13.25.25.5.37.75.04.08.07.15.11.23.05.1.09.19.14.29.22.47.43.94.63,1.42.04.1.09.21.13.31.11.28.22.55.32.83.05.13.09.25.14.38.14.39.27.78.4,1.17.13.4.25.81.37,1.21,0,.02.01.05.02.07.06.2.11.39.16.59.04.13.07.26.1.39.03.1.05.2.07.3,0,.02,0,.03.01.05.03.13.06.27.09.4.01.06.03.11.04.17.03.13.06.27.09.4.03.15.07.31.1.46.02.11.04.21.06.32.02.08.03.16.04.24.02.11.04.21.06.32,0,.03.01.07.02.1.02.14.05.28.07.43.03.17.05.33.07.5.02.11.03.23.05.34.01.07.02.15.03.22.01.08.02.17.03.25.02.14.03.28.05.42,0,.04.01.09.01.13.02.14.03.27.04.41,0,.08.02.16.02.24.02.18.03.36.04.54.02.21.03.42.04.63.01.2.02.41.03.61,0,.02,0,.04,0,.07,0,.2.01.4.02.59,0,.21,0,.42,0,.64Z"/><path class="cls-12" d="m159.32,153.42c0,.22,0,.44,0,.66v.02c0,.19,0,.38-.02.57,0,.03,0,.07,0,.1,0,.2-.02.4-.03.6,0,.02,0,.05,0,.07-.01.2-.02.4-.04.6-.02.22-.03.43-.05.65-.02.22-.04.43-.06.64-.02.21-.05.43-.07.64-.02.15-.04.3-.06.45,0,.07-.02.15-.03.22-.03.19-.06.38-.09.57,0,.02,0,.04,0,.06-.03.2-.07.4-.1.6-.03.19-.07.38-.11.57,0,.04-.02.08-.02.12-.03.15-.06.29-.09.44-.05.21-.09.42-.14.63-.02.08-.04.16-.06.23-.05.19-.09.38-.14.56-.04.15-.08.31-.12.46,0,.02-.01.04-.02.07-.05.17-.09.34-.14.51-.04.15-.09.29-.13.44-.05.17-.11.34-.16.51,0,.01,0,.03-.01.04-.06.18-.12.36-.18.54,0,.03-.02.06-.03.09-.06.19-.13.38-.2.56-.06.17-.13.34-.19.51-.02.07-.05.14-.08.2-.04.09-.07.19-.11.28-.05.12-.1.24-.15.36-.03.08-.06.15-.1.23-.04.11-.09.21-.13.31-.04.09-.08.18-.12.27-.05.11-.09.22-.15.33-.04.1-.09.2-.14.3-.03.07-.06.14-.1.22-.05.1-.1.2-.15.31-.06.12-.12.24-.18.36,0,.02-.02.03-.02.05-.09.17-.17.35-.26.52-.09.17-.18.35-.27.52-.03.05-.05.1-.08.15-.07.12-.13.25-.2.37-.03.06-.07.13-.11.19-.06.12-.13.23-.2.35-.12.22-.25.43-.38.64-.09.15-.18.3-.28.45-.1.15-.19.3-.29.46-.11.16-.21.32-.32.48-.11.16-.22.31-.32.47,0,0,0,.01-.01.02-.12.17-.24.34-.36.51-.27.37-.55.74-.83,1.1-.04.05-.09.11-.13.16-.09.12-.18.23-.28.34-.06.07-.11.14-.17.21-.1.13-.21.25-.31.37-.18.22-.37.43-.56.65-.12.13-.24.26-.36.39-.06.06-.11.12-.17.18-.13.14-.26.28-.39.41-.16.17-.33.34-.49.5-.16.16-.31.31-.47.46,0,0-.02.02-.03.03-.17.16-.34.32-.51.48,0,0-.02.02-.02.02-.17.15-.33.3-.5.45-.16.15-.33.29-.49.43-.02.02-.04.04-.07.06-.17.15-.34.29-.51.43-.16.13-.33.27-.49.4-.03.02-.05.04-.08.06-.18.14-.36.28-.54.41-.53.21-1.06.41-1.59.6-2.37.83-4.85,1.41-7.41,1.73-.56.07-1.12.12-1.68.17-.9.07-1.81.1-2.73.1-4.72,0-9.22-.91-13.34-2.57-1.02-.41-2.02-.87-2.99-1.37-.5-.26-1-.53-1.48-.81-6-3.45-10.91-8.59-14.07-14.77-.27-.52-.52-1.05-.76-1.58-.45-1-.86-2.03-1.22-3.08-1.25-3.65-1.93-7.56-1.93-11.64,0-5.63,1.3-10.95,3.61-15.68.25-.51.51-1.01.78-1.5,1.05-1.91,2.26-3.71,3.62-5.39,1.83-2.26,3.94-4.28,6.26-6.04.31-.12.62-.24.93-.36.16-.06.31-.11.47-.17.16-.06.31-.11.47-.16.14-.05.28-.09.42-.14.04-.01.07-.02.11-.04.14-.04.28-.09.41-.13,0,0,0,0,.02,0,.16-.05.31-.09.47-.14.16-.05.32-.09.48-.14.17-.05.33-.09.5-.14.19-.05.38-.1.57-.14.19-.05.38-.09.57-.14.5-.11,1.01-.22,1.52-.31.08-.02.17-.03.25-.04.1-.02.2-.04.31-.05.08-.02.17-.03.25-.04.08-.01.16-.03.25-.04.1-.02.19-.03.29-.04.35-.05.7-.1,1.06-.14.18-.02.37-.04.55-.06.17-.02.35-.03.53-.05.04,0,.09,0,.13-.01.17-.01.33-.02.5-.04.19-.01.37-.02.56-.03.02,0,.04,0,.06,0,.13,0,.26-.01.4-.02.07,0,.15,0,.22,0,.16,0,.33,0,.49-.01h.03c.19,0,.39,0,.59,0,.32,0,.64,0,.95.01.1,0,.19,0,.29,0,.24,0,.48.02.72.03.08,0,.17,0,.25.02.15,0,.3.02.44.03.13,0,.26.02.39.03h0c.15.01.31.03.46.04.03,0,.06,0,.09,0,.11,0,.21.02.32.03.06,0,.13.01.19.02.1.01.2.02.3.04.1.01.2.03.31.04.14.02.29.04.43.06.92.13,1.82.3,2.71.5.15.03.3.07.44.1.15.04.3.07.44.11.13.03.26.07.39.1.04,0,.08.02.11.03.1.03.2.05.31.08.14.04.27.07.41.11.1.03.19.06.29.09.04.01.09.03.13.04.09.03.18.06.28.08.1.03.2.06.3.09.14.04.27.09.41.13.14.05.29.1.43.15.14.05.28.1.42.15.28.1.56.21.84.32.14.06.28.11.42.17.14.06.28.11.41.17.14.06.28.12.41.18.17.07.34.15.51.22.17.08.34.15.5.23.17.08.35.17.52.25.02.01.04.02.06.03.12.06.24.12.36.18,1.11.57,2.19,1.19,3.24,1.87.26.17.52.34.77.52.39.27.78.54,1.16.83.25.19.5.38.75.58.12.1.25.2.37.3.12.1.24.2.37.3.12.1.24.2.36.31.24.2.48.41.71.62.12.11.23.21.35.32.12.11.23.22.35.32.24.23.47.46.71.69.1.1.2.2.3.31.22.22.43.45.64.67.11.12.22.24.33.36.11.12.21.24.31.35.12.14.24.28.37.43.08.09.16.19.24.28,0,0,.01.01.02.02.1.12.2.24.29.36.06.07.12.15.18.23.08.09.15.19.22.28.07.08.13.17.2.25.09.11.17.22.25.33.11.15.23.31.34.46.07.09.13.19.2.28.02.03.04.06.06.09.07.1.15.21.22.31.19.27.37.55.55.83.07.1.13.2.2.31.11.18.22.36.34.54.05.09.11.18.16.27.05.08.09.16.14.24.08.13.15.26.23.4,0,0,0,.01.01.02.07.13.15.26.22.39.07.13.15.27.22.4,0,.01.01.02.02.03.07.13.14.26.21.39.13.25.25.5.37.75.04.08.07.15.11.23.05.1.09.19.14.29.22.47.43.94.63,1.42.04.1.09.21.13.31.11.28.22.55.32.83.05.13.09.25.14.38.14.39.27.78.4,1.17.13.4.25.81.37,1.21,0,.02.01.05.02.07.06.2.11.39.16.59.04.13.07.26.1.39.03.1.05.2.07.3,0,.02,0,.03.01.05.03.13.06.27.09.4.01.06.03.11.04.17.03.13.06.27.09.4.03.15.07.31.1.46.02.11.04.21.06.32.02.08.03.16.04.24.02.11.04.21.06.32,0,.03.01.07.02.1.02.14.05.28.07.43.03.17.05.33.07.5.02.11.03.23.05.34.01.07.02.15.03.22.01.08.02.17.03.25.02.14.03.28.05.42,0,.04.01.09.01.13.02.14.03.27.04.41,0,.08.02.16.02.24.02.18.03.36.04.54.02.21.03.42.04.63.01.2.02.41.03.61,0,.02,0,.04,0,.07,0,.2.01.4.02.59,0,.21,0,.42,0,.64Z"/><path class="cls-7" d="m138,155.43c7.92-2.95,14.77-6.32,20.41-10.05-.03-.13-.06-.27-.09-.4,0-.02,0-.03-.01-.05-.02-.1-.05-.2-.07-.3-.03-.13-.06-.26-.1-.39-.05-.2-.11-.4-.16-.59-5.65,3.8-12.57,7.23-20.64,10.23-1.84-4.51-2.78-9.29-2.78-14.22,0-6.48,1.65-12.79,4.78-18.39-.17-.09-.35-.17-.52-.25-.17-.08-.33-.16-.5-.23-.17-.08-.34-.15-.51-.22-3.24,5.82-4.93,12.37-4.93,19.1,0,5.13.97,10.1,2.88,14.8-2.17.78-4.44,1.53-6.77,2.25-4.74-15.64-10.11-29.82-13.45-38.22-.19.04-.38.09-.57.14-.19.05-.38.09-.57.14-.17.04-.33.09-.5.14,3.32,8.34,8.72,22.58,13.49,38.29-2.92.87-5.98,1.7-9.11,2.46-.91-6.79-3.58-13.23-7.76-18.68-2.86-3.72-6.34-6.89-10.27-9.37-1.13-.72-2.3-1.37-3.5-1.97-.35.39-.69.79-1.02,1.2-.03.04-.07.08-.1.13,1.33.64,2.61,1.36,3.85,2.15,3.71,2.36,7,5.37,9.71,8.89,4.04,5.27,6.61,11.49,7.46,18.05-6.32,1.5-12.33,2.62-17.62,3.46-3.5.55-6.69.99-9.44,1.32.02.07.05.15.07.22.16.47.33.94.52,1.4,2.82-.34,6.06-.79,9.61-1.36,5.14-.83,10.94-1.92,17.03-3.35.09,1.05.13,2.12.13,3.18,0,5.16-1.07,10.25-3.09,14.94-1.02,2.37-2.28,4.63-3.77,6.75.04.02.07.03.1.04.5.2,1.01.39,1.52.57,1.42-2.07,2.64-4.26,3.63-6.55,2.15-4.94,3.29-10.31,3.29-15.75,0-1.2-.06-2.4-.16-3.58,3.24-.79,6.39-1.64,9.41-2.54,2.77,9.27,4.96,17.89,6.52,25.7.19.96.38,1.92.55,2.86.13-.04.26-.09.4-.14.41-.14.81-.29,1.2-.45-.15-.8-.31-1.62-.47-2.44-1.58-7.91-3.79-16.63-6.6-26.02,2.39-.74,4.73-1.51,6.95-2.31,3.46,7.58,9.22,13.84,16.44,17.93.11-.16.22-.31.32-.47.11-.16.21-.32.32-.48.1-.15.2-.3.29-.46-6.93-3.89-12.46-9.87-15.79-17.11Z"/><path class="cls-11" d="m130.9,107.45c-7.4-10.87-30.68-36.65-56.54-44.86,0,0,16.95,31.26,52.71,49.41,2.79,1.41,5.59-1.97,3.83-4.55Z"/><rect class="cls-9" x="73.07" y="56.87" width="5.16" height="12.85" transform="translate(173.15 48.34) rotate(131.36)"/><rect class="cls-9" x="73.55" y="58.06" width="2.08" height="12.85" transform="translate(172.28 51.1) rotate(131.36)"/><path class="cls-12" d="m71.62,52.59l-1.3-1.21c-.25.57-.96.95-1.59,1.2-2.52.99-5.08,2.04-7.11,3.81-.23.2-.46.43-.66.67l3.48,3.24c2.13,1.98,5.46,1.87,7.45-.26,1.98-2.13,1.87-5.46-.26-7.45Z"/><path class="cls-14" d="m61.61,56.39c2.04-1.78,4.6-2.82,7.11-3.81.63-.25,1.34-.62,1.59-1.2l-5.32-4.96-1.7,1.82.62,1.96-2.12-.34.27.89-1.54.46-.5.54-2.22,2.38,3.15,2.93c.21-.24.43-.47.66-.67Z"/></g><path class="cls-14" d="m162.4,45.13c7.24,10.86,8.01,24.15,3.21,35.32-2.74,6.38-7.3,12.07-13.52,16.21-17.07,11.38-40.14,6.77-51.53-10.31-5.63-8.45-7.35-18.37-5.57-27.61,1.81-9.43,7.25-18.16,15.88-23.91,17.07-11.38,40.14-6.77,51.53,10.31Z"/><path class="cls-5" d="m149.72,84.97l14.68,22.03c-.44.11-.88.3-1.29.57l-3.27,2.18s-14.22-23.31-16.3-24.45l1.37-.91c1.68-1.12,3.85-.86,4.81.58Z"/><path class="cls-8" d="m167.92,108.16l25.09,37.63c.96,1.44.37,3.54-1.31,4.66l-5.17,3.44c-1.68,1.12-3.85.86-4.81-.58l-25.09-37.63c-.73-1.09-.57-2.56.28-3.69.27-.37.62-.7,1.03-.97l5.17-3.44c.41-.27.85-.47,1.29-.57,1.37-.35,2.79.07,3.52,1.16Z"/><path class="cls-3" d="m159.84,109.75l-1.9,1.27c-.41.27-.75.6-1.03.97l-14.68-22.03c-.15-.23-.27-.47-.34-.72l1.65-3.94c2.08,1.14,16.3,24.45,16.3,24.45Z"/><path class="cls-8" d="m159.84,109.75l-.11,3.27,27.11,40.67-.31.21c-1.68,1.12-3.85.86-4.81-.58l-25.09-37.63c-.73-1.09-.57-2.56.28-3.69.27-.37.62-.7,1.03-.97l1.9-1.27Z"/><path class="cls-8" d="m165.61,80.44c-2.74,6.38-7.3,12.07-13.52,16.21-17.07,11.38-40.14,6.77-51.53-10.31-5.63-8.45-7.35-18.37-5.57-27.61,1.5,2.21,4.03,4.73,7.25,3.52,5.38-2.02,56.2,13.04,56.2,13.04,0,0,2.05,5.04,7.16,5.15Z"/><path class="cls-9" d="m157.07,48.68c6.48,9.72,6.69,21.78,1.6,31.43-2.31,4.38-5.72,8.27-10.13,11.21-14.13,9.42-33.22,5.6-42.64-8.53-2.94-4.41-4.59-9.31-5.04-14.24h0c-.99-10.87,3.85-21.92,13.57-28.4,14.13-9.42,33.22-5.6,42.64,8.53Z"/><circle class="cls-2" cx="133.64" cy="47.82" r="5.4" transform="translate(21.02 134.21) rotate(-57.18)"/><path class="cls-2" d="m143.02,54.03c.96,1.42,2.8,1.91,4.12,3,1.48,1.21,2.22,3.09,2.82,4.9.44,1.33,1.07,2.9,2.45,3.15.93.17,1.88-.4,2.39-1.19.52-.79.68-1.76.73-2.7.19-3.57-2.1-6.9-4.58-9.48-7.5-7.77-11.23-2.59-7.92,2.31Z"/><path class="cls-4" d="m158.67,80.11c-2.31,4.38-5.72,8.27-10.13,11.21-14.13,9.42-33.22,5.6-42.64-8.53-2.94-4.41-4.59-9.31-5.04-14.24h0s26.62,37.02,57.81,11.56Z"/></svg>