<?xml version="1.0" encoding="UTF-8"?><svg id="Layer_1" xmlns="http://www.w3.org/2000/svg" xmlns:xlink="http://www.w3.org/1999/xlink" viewBox="0 0 216 216"><defs><style>.cls-1{fill:none;}.cls-1,.cls-2,.cls-3,.cls-4,.cls-5,.cls-6,.cls-7,.cls-8,.cls-9,.cls-10,.cls-11,.cls-12,.cls-13{stroke-width:0px;}.cls-14,.cls-10{fill:#f2a479;}.cls-15{stroke:#3870b5;stroke-miterlimit:10;stroke-width:2px;}.cls-15,.cls-12{fill:#fff;}.cls-16{clip-path:url(#clippath-1);}.cls-17{clip-path:url(#clippath-4);}.cls-18{clip-path:url(#clippath-3);}.cls-2{fill:#38302f;}.cls-3{fill:#3870b5;}.cls-4{fill:#221d23;}.cls-5{fill:#1f2525;}.cls-6{fill:#d90f03;}.cls-7{fill:#dc8c67;}.cls-8{fill:#d2e9ff;}.cls-9{fill:#fda345;}.cls-11{fill:#ffaf9d;}.cls-13{fill:#ff554d;}</style><clipPath id="clippath-1"><path class="cls-1" d="m185.25,115.95c0,43.19-35.01,78.21-78.21,78.21S28.84,159.14,28.84,115.95,63.85,37.74,107.05,37.74c12.77,0,24.82,3.06,35.46,8.48,2.33,1.19,16.56-26.74,18.75-25.33,3.64,2.34,23.22,27.07,26.41,29.97,3.9,3.54-20.66,14.6-17.54,18.86,9.51,12.95,15.12,28.94,15.12,46.23Z"/></clipPath><clipPath id="clippath-3"><circle class="cls-1" cx="112.08" cy="-110.91" r="78.27"/></clipPath><clipPath id="clippath-4"><polygon class="cls-1" points="38.84 -202.78 22.78 -156.56 29.84 -126.15 37.27 -88.13 46.82 -86.35 92.6 -82.88 124.96 -124.45 118.39 -160.45 85.3 -200.11 57.57 -209.35 38.84 -202.78"/></clipPath></defs><circle class="cls-15" cx="107.09" cy="115.98" r="79.18"/><polygon class="cls-8" points="136.71 80.6 135.15 80.47 136.55 81.79 136.71 80.6"/><polygon class="cls-8" points="108.08 80.82 109.41 80.94 108.14 81.67 108.08 80.82"/><g class="cls-16"><path class="cls-3" d="m144.25,60.83l1.36-1.36c.53-.53.67-1.31.39-2-.89-2.19-1.34-4.61-1.24-7.14.35-8.8,7.47-15.99,16.26-16.42,10.15-.5,18.49,7.85,17.97,18.01-.45,8.75-7.59,15.83-16.34,16.22-4.89.22-9.34-1.62-12.59-4.71-.33-.32-.78-.48-1.24-.48h-3.71c-1.1,0-1.65-1.33-.87-2.11Z"/><path class="cls-10" d="m110.73,122.44v7.73s0,.79,0,.79c0,.05,0,.11,0,.16,0,2.83-5.77,5.11-12.9,5.11s-12.8-2.25-12.89-5.04c0-.02,0-.05,0-.07v-21.21c.62,1.04,1.31,2.03,2.05,2.96,1.87,2.36,4.11,4.38,6.61,5.96,4.48,2.85,9.81,4.29,15.39,3.83.59-.05,1.17-.12,1.75-.21Z"/><path class="cls-12" d="m160.31,52.61c0-.33.06-.62.19-.89.13-.26.36-.56.68-.89l1.21-1.18c.49-.47.84-.91,1.05-1.33.21-.41.31-.86.31-1.33,0-.66-.22-1.19-.66-1.58-.44-.39-1.04-.58-1.79-.58-.87,0-1.53.23-2,.68-.47.46-.71,1.1-.71,1.94v.13c0,.66-.54,1.2-1.2,1.2h-.12c-.66,0-1.2-.54-1.2-1.2h0c0-1.66.43-2.91,1.3-3.73.87-.82,2.16-1.23,3.89-1.23,1.58,0,2.83.39,3.77,1.16.94.77,1.41,1.8,1.41,3.08,0,.74-.14,1.41-.43,2.02s-.76,1.24-1.43,1.89l-1.41,1.44c-.14.14-.24.27-.29.37-.05.1-.07.26-.07.47v.39c0,.69-.56,1.25-1.25,1.25h0c-.69,0-1.25-.56-1.25-1.25v-.84Zm1.21,3.46h.09c.81,0,1.47.66,1.47,1.47h0c0,.81-.66,1.47-1.47,1.47h-.09c-.81,0-1.47-.66-1.47-1.47h0c0-.81.66-1.47,1.47-1.47Z"/><path class="cls-7" d="m110.73,122.44v5.64c-11.41-.25-15.6-5.43-17.14-9.26,4.48,2.85,9.81,4.29,15.39,3.83.59-.05,1.17-.12,1.75-.21Z"/><path class="cls-10" d="m129.58,95.65c-.27-3.2-1.09-18.02-2.17-22.47.33-11.39-11.2-22.19-35.17-13.4-23.97,8.79-17.05,31.48-17.05,31.48-.01,0-.02.01-.04.02-1.57.73-3.23,2.34-2.72,5.91.85,5.83,5.45,7.92,9.55,5.89.69,2.44,1.69,4.74,2.95,6.83.62,1.04,1.31,2.03,2.05,2.96,5.24,6.59,13.31,10.51,22,9.79.59-.05,1.17-.12,1.75-.21.98-.15,1.95-.37,2.89-.63,11.77-3.32,17.59-6.75,15.96-26.16Z"/><path class="cls-7" d="m94.38,77.79s19.55,15.21,34.65,10.65l-.37-4.31-32.58-7.89h-2.63l.93,1.55Z"/><path class="cls-4" d="m139.15,81.62c-3.1,1.26-6.1,2.14-8.99,2.71-1.69.33-3.35.56-4.95.7-2.7.23-5.27.2-7.68-.02-13.42-1.19-22.06-8.1-22.06-8.1-1.87,8.91-10.47,10.81-10.47,10.81-.02,6.31-2.19,9.09-3.91,10.3l-.07-.14-2.6-5.43c-.58-1.21-2.03-1.77-3.25-1.21l-.04.02c-1.93-5.07-3.45-12.08-1.39-19.21,3.95-13.67,18.47-12.29,18.47-12.29,0,0,8.6-13.32,27.19-6.84,18.59,6.48,19.73,28.68,19.73,28.68Z"/><path class="cls-5" d="m120.69,83.37c-3.79.3-6.85,2.91-7.93,6.33-2.25-.66-4.4-.02-5.54.45-1.6-3.22-5.04-5.31-8.83-5.01-4.98.4-8.71,4.77-8.31,9.75.4,4.98,4.77,8.71,9.75,8.31,4.98-.4,8.71-4.77,8.31-9.75-.05-.64-.17-1.26-.34-1.85.93-.39,2.78-.96,4.63-.38-.08.62-.1,1.25-.05,1.9.4,4.98,4.77,8.71,9.75,8.31,4.98-.4,8.71-4.77,8.31-9.75-.4-4.98-4.77-8.71-9.75-8.31Zm-20.99,18.28c-4.13.33-7.74-2.75-8.07-6.88-.33-4.13,2.75-7.74,6.88-8.07s7.74,2.75,8.07,6.88c.33,4.13-2.75,7.74-6.88,8.07Zm22.3-1.77c-4.13.33-7.74-2.75-8.07-6.88-.33-4.13,2.75-7.74,6.88-8.07,4.13-.33,7.74,2.75,8.07,6.88.33,4.13-2.75,7.74-6.88,8.07Z"/><path class="cls-13" d="m148.94,189.44c-7.79-11.34-11.05-37.18-13.6-49.24-.12-.11-.24-.21-.36-.3-6.71-5.64-15.11-9.26-24.25-10.07v.34h0v.79c0,.05,0,.11,0,.16,0,2.83-5.77,5.11-12.9,5.11s-12.8-2.25-12.89-5.04c0-.02,0-.05,0-.07v-1.02c-17.83,2.53-32.74,15.5-37.43,33.3l-2.54,9.63-3.85,14.59c3.42-1.46,7.81-2.22,12.55-1.97,6.78.35,12.63,2.68,15.87,5.89l-2.09,7.62-6.74,24.09h66.68c2.9,0,5.55-1.64,6.84-4.24l5.29-10.63v-.11s-2.11-31.89-2.11-31.89l11.28,13.59.27-.54Z"/><polygon class="cls-6" points="137.39 176.4 136.56 168.47 143.24 174.98 154.58 182.34 153.36 189.08 145.39 187.55 137.39 176.4"/><path class="cls-11" d="m120.68,214.88l-2.51-2.46,1.17-1.09c1.44-1.35.49-3.76-1.48-3.76h-4.64c-.81-.79-1.76-1.41-2.79-1.83-1.03-.42-2.14-.64-3.27-.64h-36.83c-2.27,0-3.92-2.16-3.31-4.35l2.52-9.19c-3.24-3.21-9.09-5.54-15.87-5.89-4.74-.25-9.13.52-12.55,1.97,0,0-2.59,9.82-3.89,14.74-.69,2.6-1,5.28-.88,7.96.17,3.74,1,8.82,3.8,12.93,3.12,4.59,8.67,8.24,18.43,8.24,13.3,0,24.07-4.85,32.72-8.24,8.42-3.31,14.82-5.24,19.57,0l1.13,1.16c.74.76,1.98.83,2.73.09.35-.34.54-.79.56-1.25,0-.03,0-.06,0-.1,0-.43-.15-.87-.45-1.22-.04-.05-.09-.11-.14-.16.87.69,2.14.64,2.94-.18.43-.43.64-1,.64-1.56,0-.53-.18-1.06-.57-1.47.88.75,2.21.7,3.03-.16.47-.49.7-1.11.7-1.74s-.25-1.31-.75-1.8Z"/><path class="cls-5" d="m121.16,214.55l-7.53-7.39c-.24-.28-2.28-2.52-5.42-2.59-2.58-.06-9.92-.02-12.05,0-.32,0-.58.27-.58.59,0,.32.26.58.59.58,2.13-.01,9.45-.05,12.02,0,2.73.06,4.55,2.18,4.57,2.2l7.47,7.32c.97,1.47.37,2.39.33,2.44-.32.48-.7.76-1.11.82-.63.1-1.23-.3-1.35-.39-3.5-3.53-5.53-5.38-6.05-5.51-.86-.22-2.57-.53-3.47-.69-.32-.06-.62.16-.68.48h0c-.05.32.15.62.47.68.87.16,2.52.46,3.36.66.52.29,3.22,2.87,5.57,5.24l.05.05s.07.06.17.12c.44,1.1-.02,1.68-.03,1.7l-.03.04c-.44.58-.89.89-1.35.92-.62.05-1.09-.43-1.1-.43-3.52-3.54-5.56-5.41-6.08-5.54-.75-.19-1.65-.36-2.22-.47-.32-.06-.63.16-.68.48h0c-.05.32.16.62.47.67.55.1,1.41.27,2.11.44.52.29,3.22,2.87,5.57,5.23.02.02.23.23.59.43.19.44-.02.93-.07,1.02-.31.47-.67.73-1.06.8-.61.1-1.18-.29-1.3-.38-.18-.19-1.08-1.14-2.13-2.16-2.88-2.7-6.26-2.66-7.65-2.5-.35.04-.58.37-.5.71h0c.07.29.34.48.64.45,1.19-.13,4.2-.17,6.7,2.18,1.15,1.11,2.11,2.14,2.12,2.15l.06.05s.84.68,1.87.68c.12,0,.24,0,.36-.03.74-.11,1.38-.56,1.89-1.34l.02-.04s.31-.57.3-1.25c0,0,0,0,0,0,.05,0,.1,0,.15,0,.81-.05,1.56-.52,2.22-1.38.12-.15.61-.83.48-1.93.13.02.26.03.39.03.12,0,.25,0,.37-.03.75-.11,1.4-.56,1.9-1.31.05-.06,1.15-1.61-.35-3.83Z"/><path class="cls-5" d="m48.33,229.74c-.12.3-.47.45-.77.32-3.28-1.42-5.94-3.6-7.9-6.48-2.92-4.28-3.73-9.56-3.9-13.23-.12-2.5.13-5.04.75-7.56.08-.32.41-.51.72-.42h0c.31.08.49.4.42.71-.59,2.41-.83,4.84-.71,7.22.16,3.52.93,8.57,3.7,12.63,1.83,2.69,4.31,4.72,7.38,6.05.29.13.44.46.32.76h0Z"/><path class="cls-14" d="m180.17,176.54l-2.22-3.51h.03c-.43-.67-.96-1.48-1.56-2.42h0s0,0,0,0c-9.28-14.36-34.46-53.3-39.05-55.63-4.86-2.31-11.53-.77-11.53-.77-3.11.54-3.06,3.45-3.06,3.45-1.24.36-2.21,1.29-2.36,3.22v.21c-.79.2-1.41.69-1.69,1.61-1.17,3.91,4.23,11.4,6.02,10.1.82-.59.89-1.81.73-2.97,0,0,3.8,3.24,7.52,3.95.63.12,1.22,1.7,1.85,4.28.16.65.32,1.37.48,2.14,2.55,12.06,5.81,37.9,13.6,49.24,0,0,9.87,19.52,24.72,12.71,14.85-6.81,6.51-25.61,6.51-25.61Z"/><path class="cls-7" d="m151.68,133.37s14.56,25.91,15.4,33.47l4.06-4.2s-15.26-24.09-19.47-29.27Z"/><polygon class="cls-6" points="69.53 191.55 76.4 163.33 73.35 205.38 66.64 205.38 66.05 204.02 69.53 191.55"/><circle class="cls-10" cx="78.73" cy="96.88" r="6.92"/><path class="cls-7" d="m77.22,92.77s2.28.92,2.06,2.43c0,0-2.5.47-2.78,3.62,0,0,2.63-2.4,3.73-1.84,1.1.56,1.3,2.07.94,3,0,0,1.69-3.34-.03-5.82-1.73-2.48-3.92-1.39-3.92-1.39Z"/><path class="cls-4" d="m85.63,86.89s.43,3.94.28,7.18c-.04.92-1.26,1.22-1.71.42-1.19-2.13-3.18-4.87-5.79-5.53l4.01-2.81,3.21.74Z"/></g><path class="cls-2" d="m92.23,59.78s30.17-16.83,45.82,15.34c0,0-18.37-19.9-45.82-15.34Z"/><path class="cls-2" d="m92.23,59.78s11.57,7.59,26.99,11.88c0,0-7.07-9-21.32-13.05l-5.68,1.17Z"/><path class="cls-7" d="m125.41,131.55s-3.76-4.22-3.53-6.98c0,0,9.21,7.3,11.12,9.21,0,0-5.43-1.71-7.52-3.95,0,0,.13,1.2-.08,1.72Z"/><g class="cls-18"><path class="cls-9" d="m86.77,2.34l.66,6.67s10.09-.23,10.88,8.42h-30.76c-.61,0-1.11-.48-1.13-1.09l-.49-14h20.83Z"/><path class="cls-13" d="m84.78-96.92s6.37,40.41,4.98,91.76c0,0,2.92,2.26,2.72,5.31-.2,3.05-3.12,3.85-4.11,3.85l-25.35-.53s-2.19-1.06-2.45-3.38c-.27-2.32,1.86-3.85,1.86-3.85l-1.88-63.43s-4.22,22.82-7.51,30.59C49.75-28.85,29.9,1.67,29.9,1.67H1.75s23.32-41.21,24.52-45.72c1.19-4.51,11.68-59.1,11.68-59.1l47.24-8.1s-1.67,8.33-.4,14.33Z"/></g><g class="cls-17"><path class="cls-9" d="m86.16,4.27l.66,6.65s10.05-.23,10.84,8.4h-30.65c-.61,0-1.1-.48-1.13-1.09l-.49-13.96h20.76Z"/><path class="cls-13" d="m84.18-94.65s6.35,40.27,4.96,91.45c0,0,2.91,2.25,2.71,5.29-.2,3.04-3.11,3.84-4.1,3.84l-25.26-.53s-2.18-1.06-2.45-3.37c-.26-2.31,1.85-3.84,1.85-3.84l-1.87-63.21s-4.21,22.75-7.48,30.48C49.27-26.81,29.48,3.61,29.48,3.61H1.44s26.54-41.39,27.73-45.89c1.19-4.5,10.98-62.88,10.98-62.88l44.43-3.77s-1.24,7.11-.4,14.28Z"/></g></svg>