<?xml version="1.0" encoding="UTF-8"?><svg id="Layer_1" xmlns="http://www.w3.org/2000/svg" xmlns:xlink="http://www.w3.org/1999/xlink" viewBox="0 0 648 576"><defs><style>.cls-1,.cls-2,.cls-3,.cls-4,.cls-5,.cls-6,.cls-7,.cls-8,.cls-9,.cls-10,.cls-11,.cls-12,.cls-13,.cls-14,.cls-15,.cls-16,.cls-17,.cls-18,.cls-19,.cls-20,.cls-21,.cls-22,.cls-23,.cls-24,.cls-25,.cls-26,.cls-27,.cls-28,.cls-29,.cls-30,.cls-31,.cls-32,.cls-33,.cls-34,.cls-35,.cls-36,.cls-37{stroke-width:0px;}.cls-1,.cls-38{opacity:.22;}.cls-1,.cls-7{fill:#79523d;}.cls-39{clip-path:url(#clippath);}.cls-2{fill:none;}.cls-3{fill:url(#linear-gradient);}.cls-40{clip-path:url(#clippath-1);}.cls-41{clip-path:url(#clippath-2);}.cls-5{fill:#f4ae94;}.cls-6{fill:#601529;}.cls-8{fill:#34526c;}.cls-9{fill:#2a5488;}.cls-10{fill:#28374c;}.cls-11{fill:#9ac7f7;}.cls-12{fill:#3870b5;}.cls-13{fill:#3e0c18;}.cls-14{fill:#42210b;}.cls-15{fill:#211006;}.cls-16{fill:#1f3e64;}.cls-17{fill:#d87150;}.cls-18{fill:#d90f03;}.cls-19{fill:#dcddde;}.cls-20{fill:#db3333;}.cls-21{fill:#bf8f75;}.cls-22{fill:#bf8001;}.cls-23{fill:#a81e1e;}.cls-24{fill:#a30b02;}.cls-25{fill:#341d0e;}.cls-26{fill:#6d0802;}.cls-27{fill:#fc8aa8;}.cls-28{fill:#f2a479;}.cls-29{fill:#fff;}.cls-30{fill:#ffab01;}.cls-31{fill:#ffc257;}.cls-32{fill:#ffbe9c;}.cls-33{fill:#ff554d;}.cls-34{fill:#683a1b;}.cls-35{fill:#00132b;}.cls-36{fill:#001c40;}.cls-37{fill:#002555;}</style><clipPath id="clippath"><circle class="cls-2" cx="-119.51" cy="91.26" r="78.31"/></clipPath><linearGradient id="linear-gradient" x1="39.99" y1="248.85" x2="16.53" y2="226.51" gradientUnits="userSpaceOnUse"><stop offset="0" stop-color="#f5f7ff"/><stop offset="1" stop-color="#d3e3fd"/></linearGradient><clipPath id="clippath-1"><circle class="cls-2" cx="246.26" cy="301.29" r="228.28"/></clipPath><clipPath id="clippath-2"><rect class="cls-2" x="226.29" y="42.4" width="403.73" height="491.21"/></clipPath></defs><g class="cls-39"><g id="Boy"><path class="cls-5" d="m-.68,241.64l21.09.81c2.49.1,4.43,2.19,4.34,4.69-.09,2.32-1.94,4.17-4.2,4.33l-21.06,1.44c-3.11.21-5.8-2.14-6.02-5.25-.21-3.11,2.14-5.8,5.25-6.02.2-.01.41-.02.6,0Z"/><path class="cls-17" d="m5.81,252.48c-.81-3.47-3.72-7.4-4.93-10.73l-6.73,8.24c1.03,1.87,3.07,3.08,5.33,2.92l6.33-.43h0Z"/><path class="cls-3" d="m17.35,235.79l-.19-4.06s.22-.43,4.47,1.35c2.57,1.07,20.8,10.63,21.39,10.94.59.3,7.61,4.74,6.39,8.16l-32.06-16.39Z"/><path class="cls-20" d="m49.42,252.19c-1.43,2.8-8.38-3.65-27.37.78,0,0-.97-.62-.65-1.5.32-.88,1.22-2.46,1.05-2.88-.16-.42-1.25-2.23-3.37-3.57-3.75-2.38-7.02-1.86-7-3.22.01-.81.22-1.64.99-2.8.76-1.16,1.7-2.16,4.28-3.22,14.81,8.36,27.31,9.51,32.06,16.39Z"/><path class="cls-20" d="m13.03,242.55s-.08,0-.12,0c-2.94-.46-4.41-1.92-4.53-3.09-.07-.62.24-1.15.79-1.37,1.19-.47,2.98.73,4.78,3.18.25.33.17.8-.16,1.05-.12.09-.27.14-.41.15-.11.06-.23.09-.35.09Zm-3.05-3c.18.28.62.69,1.42,1.03-.64-.63-1.13-.92-1.42-1.03Z"/><path class="cls-23" d="m37.52,251.43h0c7.61.43,10.95,2.6,11.9.76-2.65-3.84-7.7-5.89-14.21-8.4-1.2,4.52,1.05,6.4,2.31,7.65Z"/><path class="cls-23" d="m22.43,249.01c-.17.65-.77,1.78-1.03,2.47-.32.88.65,1.5.65,1.5,4.78-1.12,8.77-1.54,12.16-1.6h0s-1.05-.86-1.35-2.17l-10.43-.19Z"/><path class="cls-29" d="m31.98,252.19c-.17,0-.34-.06-.48-.17-.05-.04-1.16-.97-1.25-2.82-.02-.41.3-.77.71-.79.4-.02.77.3.79.71.06,1.17.7,1.73.7,1.73.32.26.37.74.1,1.06-.15.18-.36.27-.58.27Z"/><path class="cls-29" d="m29.45,252.43c-.12,0-.24-.03-.35-.08-.92-.47-1.39-2.26-1.37-3.37,0-.41.34-.74.75-.74h.01c.42,0,.75.35.74.76-.01.89.37,1.86.58,2.03.37.19.5.63.31,1-.13.26-.4.4-.67.4Z"/><path class="cls-29" d="m26.49,252.84c-.22,0-.43-.09-.58-.27-.61-.74-1.17-2.23-.96-3.74.06-.41.44-.7.85-.64.41.06.7.44.64.85-.16,1.13.3,2.18.63,2.58.26.32.22.79-.1,1.06-.14.12-.31.17-.48.17Z"/><path class="cls-8" d="m-1.85,237.99l-41.22-2.76s13.62-34.06,14.62-46.39c.95-8.46-.41-14.06-2.05-16.22l-8.33-.25c-1.84-.77-3.84-1.23-5.93-1.32-9.42-.41-17.38,6.89-17.79,16.31l-2.38,54.75-.08,1.73c0,.13,0,.26,0,.38.02,4.97,4.05,8.98,9.02,8.97l53.66-.16c5.88-.92,2.21-8.63.48-15.02Z"/><path class="cls-10" d="m-6.33,235.51c1.95,6.13,2.24,17.01,0,17.52l4.91-.02c7.18.02,3-8.17,1.03-15.46l-5.94-2.04Z"/></g></g><path class="cls-29" d="m246.26,530.89c-61.33,0-118.99-23.88-162.35-67.25-43.37-43.37-67.25-101.02-67.25-162.35s23.88-118.99,67.25-162.35c43.37-43.37,101.02-67.25,162.35-67.25s118.99,23.88,162.35,67.25c43.37,43.37,67.25,101.02,67.25,162.35s-23.88,118.99-67.25,162.35c-43.37,43.37-101.02,67.25-162.35,67.25Z"/><path class="cls-12" d="m246.26,73c126.08,0,228.28,102.21,228.28,228.28s-102.21,228.28-228.28,228.28S17.98,427.36,17.98,301.29,120.18,73,246.26,73m0-2.63c-31.17,0-61.41,6.11-89.88,18.15-27.5,11.63-52.19,28.28-73.4,49.49-21.21,21.21-37.86,45.9-49.49,73.4-12.04,28.47-18.15,58.71-18.15,89.88s6.11,61.41,18.15,89.88c11.63,27.5,28.28,52.19,49.49,73.4,21.21,21.21,45.9,37.86,73.4,49.49,28.47,12.04,58.71,18.15,89.88,18.15s61.41-6.11,89.88-18.15c27.5-11.63,52.19-28.28,73.4-49.49,21.21-21.21,37.86-45.9,49.49-73.4,12.04-28.47,18.15-58.71,18.15-89.88s-6.11-61.41-18.15-89.88c-11.63-27.5-28.28-52.19-49.49-73.4-21.21-21.21-45.9-37.86-73.4-49.49-28.47-12.04-58.71-18.15-89.88-18.15h0Z"/><g class="cls-40"><path class="cls-18" d="m166.02,427.17v37.78c0,5.17,4.19,9.37,9.37,9.37h335.25v-6.22h-3.77v-42.35h3.77v-7.95H175.38c-5.18,0-9.37,4.19-9.37,9.37Z"/><path class="cls-24" d="m342.18,435.54v21.03c0,8.53,5.86,15.72,13.77,17.74h154.68v-6.22h-3.77v-42.35h3.77v-7.95h-154.68c-7.91,2.02-13.78,9.21-13.78,17.74Z"/><path class="cls-29" d="m352.27,436.38v21.03c0,5.86,4.75,10.61,10.6,10.61h143.99v-42.24h-143.99c-5.85,0-10.6,4.75-10.6,10.6Z"/><path class="cls-19" d="m505.83,433.71h-136.94c-.72,0-1.3.58-1.3,1.3s.58,1.3,1.3,1.3h136.94c.72,0,1.3-.58,1.3-1.3s-.58-1.3-1.3-1.3Z"/><path class="cls-19" d="m505.83,441.82h-74c-.72,0-1.3.58-1.3,1.3s.58,1.3,1.3,1.3h74c.72,0,1.3-.58,1.3-1.3s-.58-1.3-1.3-1.3Z"/><path class="cls-19" d="m505.83,449.93h-111.19c-.72,0-1.3.58-1.3,1.3s.58,1.3,1.3,1.3h111.19c.72,0,1.3-.58,1.3-1.3s-.58-1.3-1.3-1.3Z"/><path class="cls-19" d="m505.83,458.04h-132.64c-.72,0-1.3.58-1.3,1.3s.58,1.3,1.3,1.3h132.64c.72,0,1.3-.58,1.3-1.3s-.58-1.3-1.3-1.3Z"/><path class="cls-33" d="m190.43,425.5h2.96c3.99,0,7.23,3.24,7.23,7.23v28c0,3.99-3.24,7.23-7.23,7.23h-2.96c-3.99,0-7.23-3.24-7.23-7.23v-28c0-3.99,3.24-7.23,7.23-7.23Z"/><path class="cls-12" d="m69.26,483.68v37.78c0,5.17,4.19,9.37,9.37,9.37h335.25v-6.22h-3.77v-42.35h3.77v-7.95H78.62c-5.18,0-9.37,4.19-9.37,9.37Z"/><path class="cls-9" d="m247.8,491.56v21.03c0,7.61,4.66,14.14,11.27,16.9h154.8v-6.22h-3.77v-42.35h3.77v-6.62h-153.89c-7.09,2.52-12.18,9.3-12.18,17.25Z"/><path class="cls-29" d="m255.51,492.9v21.03c0,5.86,4.75,10.61,10.6,10.61h143.99v-42.24h-143.99c-5.85,0-10.6,4.75-10.6,10.6Z"/><path class="cls-19" d="m409.07,490.22h-136.94c-.72,0-1.3.58-1.3,1.3s.58,1.3,1.3,1.3h136.94c.72,0,1.3-.58,1.3-1.3s-.58-1.3-1.3-1.3Z"/><path class="cls-19" d="m409.07,498.33h-74.01c-.72,0-1.3.58-1.3,1.3s.58,1.3,1.3,1.3h74.01c.72,0,1.3-.58,1.3-1.3s-.58-1.3-1.3-1.3Z"/><path class="cls-19" d="m409.07,506.45h-111.19c-.72,0-1.3.58-1.3,1.3s.58,1.3,1.3,1.3h111.19c.72,0,1.3-.58,1.3-1.3s-.58-1.3-1.3-1.3Z"/><path class="cls-19" d="m409.07,514.56h-132.64c-.72,0-1.3.58-1.3,1.3s.58,1.3,1.3,1.3h132.64c.72,0,1.3-.58,1.3-1.3s-.58-1.3-1.3-1.3Z"/><rect class="cls-11" x="86.45" y="482.02" width="17.41" height="42.45" rx="7.23" ry="7.23"/><path class="cls-30" d="m275.3,371.08v37.78c0,5.17,4.19,9.37,9.37,9.37h335.25v-6.22h-3.77v-42.35h3.77v-7.95h-335.25c-5.17,0-9.37,4.19-9.37,9.37Z"/><path class="cls-22" d="m451.47,379.45v21.03c0,8.53,5.86,15.72,13.77,17.74h154.68v-6.22h-3.77v-42.35h3.77v-7.95h-154.68c-7.91,2.02-13.78,9.21-13.78,17.74Z"/><path class="cls-29" d="m461.56,380.29v21.03c0,5.86,4.75,10.61,10.6,10.61h143.99v-42.24h-143.99c-5.85,0-10.6,4.75-10.6,10.6Z"/><path class="cls-19" d="m615.11,377.62h-136.94c-.72,0-1.3.58-1.3,1.3s.58,1.3,1.3,1.3h136.94c.72,0,1.3-.58,1.3-1.3s-.58-1.3-1.3-1.3Z"/><path class="cls-19" d="m615.11,385.73h-74.01c-.72,0-1.3.58-1.3,1.3s.58,1.3,1.3,1.3h74.01c.72,0,1.3-.58,1.3-1.3s-.58-1.3-1.3-1.3Z"/><path class="cls-19" d="m615.11,393.84h-111.19c-.72,0-1.3.58-1.3,1.3s.58,1.3,1.3,1.3h111.19c.72,0,1.3-.58,1.3-1.3s-.58-1.3-1.3-1.3Z"/><path class="cls-19" d="m615.11,401.96h-132.64c-.72,0-1.3.58-1.3,1.3s.58,1.3,1.3,1.3h132.64c.72,0,1.3-.58,1.3-1.3s-.58-1.3-1.3-1.3Z"/><path class="cls-31" d="m299.72,369.42h2.96c3.99,0,7.23,3.24,7.23,7.23v28c0,3.99-3.24,7.23-7.23,7.23h-2.96c-3.99,0-7.23-3.24-7.23-7.23v-28c0-3.99,3.24-7.23,7.23-7.23Z"/><g id="_3"><path class="cls-32" d="m375.37,173.95c-2.41,1.53-4.88,2.96-7.43,4.24-.05,0-2.09.47-4.37.48.64-1.06,3.07-2.54,2.25-3.8-.17-.16-.41-.18-.71-.09-1.89.59-6.04,5.62-7.57,6.82-1.01,1.29-.55,5.94,1.1,6.2,5.04.78,8.04-.45,11.13-1.43,3.32-1.06,5.55-3.18,6.79-5.36,1.95-3.45,1.42-7.08-1.18-7.06Z"/><path class="cls-32" d="m186.15,221.1c-2.57,0-11.72,1.46-11.47,3.15.4,1.01,1.93.59,3.25.43,0,0,0,0,0,0,.49-.06.96-.07,1.31.04-1.34,1.87-3.09,3.16-3.09,3.18-2.53,1.33-5.12,2.53-7.76,3.61-.58.8-.56,1.66-.09,2.45,1.54,2.59,7.94,4.32,13.47.17,2.59-1.94,5.33-3.68,7.61-8.25.75-1.49-1.59-4.78-3.23-4.78Z"/><path class="cls-32" d="m357.48,181.32c-3.05,1.1-6.15,2.15-9.25,3.08-7.45,2.22-15.24,4.09-22.99,4.22-13.26-.84-25.6-7.18-37.47-12.71-10.04-5.07-17.66,9.82-7.73,15.01,6.27,3.15,12.75,5.72,19.46,7.83,8.61,2.61,17.56,4.69,26.74,3.78,12.53-1.76,24.4-7.18,34.78-14.26,3.75-2.4.64-8.58-3.55-6.94Z"/><path class="cls-12" d="m356.45,181.69c-1.02.29-2.02.56-3.01.81-27.04,7.08-41.24.17-50.55-4.87-8.82-4.77-16.93-8.36-20.91-10.05-1.36-.58-2.24-.93-2.49-1.03-.02,0-.03-.02-.04-.02,0,0-.02,0-.03,0h0c.07.07,1.09,1.2,2.18,3.6,2.1,4.61,4.48,13.92,1,29.55,0,0,1.87.73,5.23,1.68.95.27,2,.55,3.18.84,1.33.33,2.8.67,4.39,1,.8.17,1.63.33,2.5.49,5.79,1.07,12.96,1.95,21.07,2.04,16.74.17,32.4-10.19,38.44-14.72,1.69-1.27,2.63-2.08,2.63-2.08-4.14-3.02-3.6-7.24-3.6-7.24Z"/><path class="cls-9" d="m302.89,177.64c21.76,20.39,50.55,4.87,50.55,4.87-27.04,7.08-41.24.17-50.55-4.87Z"/><path class="cls-32" d="m362.68,354.84h0c-.26-.07-.53-.13-.8-.19-2.09-.46-5-.78-7.87-1.38-4.03-.85-6.81-4.56-6.44-8.67l.99-11.1.68-7.65c.12-1.39-1-2.57-2.4-2.52l-12.89.47c-1.38.05-2.41,1.28-2.22,2.64l2.84,20.41c.16,1.17.28,2.35.34,3.53.13,2.46.05,4.94-.29,7.38-.12.87-.17,1.63-.18,2.27-.02,1.33,1.07,2.41,2.41,2.36l2.18-.08,27.03-.97c1.87-.07,2.89-2.2,1.79-3.7-1.1-1.5-2.95-2.26-5.16-2.8Z"/><path class="cls-21" d="m346.83,323.32l-12.89.47c-1.38.05-2.41,1.28-2.22,2.64l2.84,20.41c.16,1.17.28,2.35.34,3.53.13,2.46.05,4.94-.29,7.38-.12.87-.17,1.63-.18,2.27-.02,1.33,1.07,2.41,2.41,2.36l2.18-.08c3.63-1.51,6.38-3.36,6.58-4.09.49-1.87-4.93-5.77-6.65-8.32-1.73-2.55-3.08-13.96,0-13.96,2.26,0,7.15-1.59,9.6-2.44l.68-7.65c.12-1.39-1-2.57-2.4-2.52Z"/><path class="cls-37" d="m348.44,349.9c-2.05.27-6.71,1.14-13.53.47,0,0-2.2,3.74-1.34,9.11.13,1.43.9,3.03,2.56,2.94,0,0,30.29-1.09,30.29-1.09,1.57-.05,2.62-1.66,2.01-3.1-1.29-3.26-5.65-8.03-19.99-8.32Z"/><path class="cls-37" d="m368.43,358.22l-34.86,1.26c.17,1.06.5,2.08,1.06,2.99l31.78-1.15c1.54-.06,2.6-1.62,2.03-3.05,0-.02-.01-.03-.02-.05Z"/><path class="cls-33" d="m355.41,315.14c-.79-11.97-2.7-30.01-7.34-43.9h0c-2.1-6.28-4.76-11.71-8.12-15.36-11.85-12.85-30.24-16.57-40.66-19.16l-40.47,3.37s-17.5,2.31-16.12,4.75c9.33,16.54,21.09,27.35,36.11,28.22.27.02.55.03.83.04,10.02.48,26.26-.38,35.02,5.91,7.04,5.36,7.18,23.23,8.6,37.4.29,2.85.62,5.55,1.08,7.97.32,1.69.64,3.23.98,4.6,0,.01,0,.02,0,.03.91.35,1.83.64,2.75.89,12.26,3.3,27.9-1.9,27.9-1.9,0,0-.01-1.92-.14-5.15-.08-2.08-.21-4.71-.4-7.72Z"/><path class="cls-33" d="m299.28,236.72s15.11,6.79,25.32,13.44c11.65,7.59,23.29,20.88,23.46,21.08-2.1-6.28-4.76-11.71-8.12-15.36-11.85-12.85-30.24-16.57-40.66-19.16Z"/><path class="cls-18" d="m282.89,266.03l-3.26,7.07c10.02.48,26.26-.38,35.02,5.91,9.44,7.19,7.41,36.94,10.66,50.01.91.35,1.83.64,2.75.88h0s.64-39.14-8.51-51.35c-9.15-12.22-36.66-12.53-36.66-12.53Z"/><path class="cls-32" d="m271.32,411.64h0c-.28-.08-.57-.16-.86-.24-2.26-.58-5.43-1.04-8.54-1.82-4.37-1.09-3.48-.12-5.39-3.86l1.76-8.51,2.53-12.24c.16-1.32-14.12-2.69-17.69-3.01-.51-.05-.8-.07-.8-.07,0,.06.01.16.01.29,0,2.87-1.17,22.26-1.15,23.49.05,2.7-.14,5.39-.6,8.05-.16.94-.25,1.77-.28,2.48-.07,1.45,1.08,2.68,2.54,2.68h31.92c2.04,0,3.25-2.29,2.1-3.98-1.15-1.68-3.13-2.58-5.53-3.26Z"/><path class="cls-21" d="m243.11,381.96c-.27.07-.53.15-.79.22,0,2.87-1.17,22.26-1.15,23.49.05,2.7-.14,5.39-.6,8.05-.16.94-.25,1.77-.28,2.48-.07,1.45,1.08,2.68,2.54,2.68h1.51c.65-1.76.81-3.86,1.58-4.45,1.5-1.14,1.03-5.79-1.12-7.56-2.15-1.78-1.5-8.5,1.03-9.15l12.46-.5,2.53-12.24c.16-1.32-14.12-2.69-17.69-3.01Z"/><path class="cls-37" d="m255.96,405.69c-2.25.22-7.37.99-14.79-.02,0,0-2.54,4-1.82,9.9.09,1.56.86,3.35,2.68,3.31,0,0,33.12,0,33.12,0,1.71,0,2.92-1.71,2.32-3.31-1.29-3.61-5.85-8.99-21.5-9.87Z"/><path class="cls-37" d="m277.47,415.56h-38.11c.14,1.17.46,2.3,1.05,3.32h34.75c1.69,0,2.9-1.67,2.34-3.26,0-.02-.01-.04-.02-.06Z"/><path class="cls-33" d="m242.69,244.83c-1.57,17.89.74,30.36.44,61.28-.12,12.25-.65,27.4-1.99,46.92-.18,2.59-.37,5.26-.58,8.01-.06.83-.23,2.71-.45,5.02-.16,1.73-.53,4.23-.97,6.97-1.21,7.42-3,16.57-3,16.57,1.68,1.06,3.58,1.91,5.6,2.59,12.04,4.06,28.31,2.04,28.31,2.03,0-.02,1.75-10.29,2.98-19.49.38-2.85.71-5.6.93-7.91,1.65-17.46,4.13-43.39,5.2-52.01,2.06-16.68,4.88-52.5,3.9-78.03l-40.37,8.04Z"/><path class="cls-12" d="m295.4,203.21s0,0,0-.02c-.27-1.66-.47-3.22-.56-4.63-.04-.68-.09-1.35-.14-2.01-.31-3.78-.81-7.24-1.52-10.36-2-8.8-5.65-14.94-11.19-18.34-.79-.49-1.62-.91-2.49-1.29-.02,0-.03-.02-.04-.02,0,0-.02,0-.03,0h0c.04.13.7,2.47-1.11,3.78-2.16,1.57-8.43-.8-8.43-4.42,0,0-1.05.2-2.73.75-5.49,1.79-17.69,7.33-21.6,21.94-.39,1.45-.96,11.65-1.48,22.98h0c-.06,1.24-.11,2.48-.17,3.73-.65,14.53-1.2,29.54-1.2,29.54,41.05,6.86,56.59-8.11,56.59-8.11-.46-1.54-.83-3.05-1.15-4.53-2.27-10.66-1.24-19.85-2.73-28.98Z"/><path class="cls-32" d="m242.06,186.51c-9.27,9.34-18.59,15.01-27.03,20.13-6.63,4.02-13.3,8.28-20.48,11.27-2.99,1.24-6.06,2.38-9.11,3.46-4.28,1.39-2.78,8.13,1.64,7.62,12.52-1.08,25.76-3.74,36.51-10.42,8.63-5.36,19.2-11.02,25.48-17.46,5.91-6.05,11.63-15.73,14.5-22.13,4.41-10.31-12.43-6.23-21.51,7.54Z"/><path class="cls-12" d="m266.97,165.97c-28.15,1.74-46.4,31.6-53.14,38.27-5.46,5.4-18.48,12.37-23.88,15.15-1.5.77-2.41,1.21-2.41,1.21,3.26,3.06,2.16,8.12,2.16,8.12,1,.04,2.01.06,3.01.04,15.78-.2,37.13-5.56,51.36-17.21,3.69-3.02,6.9-6.47,9.41-10.36,8.98-13.92,13.44-25.69,15.3-31.47.79-2.46,1.11-3.84,1.11-3.84-.8,0-1.6,0-2.39.05-.17,0-.35.02-.52.03Z"/><path class="cls-18" d="m355.41,315.14c-10.76,5.09-26.08,2.58-32.16,1.28.29,2.85.62,5.55,1.08,7.97.32,1.69.64,3.24.98,4.6,0,.01,0,.02,0,.03.91.35,1.83.64,2.75.88,12.26,3.3,27.9-1.9,27.9-1.9,0,0-.01-1.92-.14-5.15-.08-2.08-.21-4.71-.41-7.72Z"/><path class="cls-9" d="m189.95,219.39c-1.5.77-2.41,1.21-2.41,1.21,3.26,3.06,2.16,8.12,2.16,8.12,1,.04,2.01.06,3.01.04.01-.11.76-6.41-2.76-9.38Z"/><path class="cls-12" d="m356.45,181.69c-1.02.29-2.02.56-3,.81v.12s-.86,4.78,3.97,8.39h0c1.69-1.27,2.63-2.08,2.63-2.08-4.14-3.02-3.6-7.24-3.6-7.24Z"/><path class="cls-12" d="m244.06,211.56c-.06,1.23-.11,2.48-.17,3.73,8.78-8.43,15.18-23.37,15.39-23.87-6.05,10.52-15.22,20.14-15.22,20.14,0,0,0,0,0,0Z"/><path class="cls-12" d="m293.17,186.19h0c.67,3.9,1.17,7.49,1.52,10.36v.02c.47,3.83.69,6.36.71,6.63,0,.02,0,.02,0,.02.8.17,1.63.33,2.5.49-2.47-10.07-4.74-17.57-4.74-17.57v.06Z"/><path class="cls-9" d="m279.45,166.54s-.02,0-.03,0c0,0,0,0,0,0,.04.13.7,2.47-1.11,3.78-2.17,1.57-8.44-.8-8.44-4.43-.8,0-1.6,0-2.39.05l-.52.03h0s-.94,13.66,8.59,16.07c9.65,2.44,14.16-10.26,14.17-10.99,0-.09-7.75-3.37-7.75-3.45-1.46-.62-2.36-.98-2.54-1.05Z"/><path class="cls-21" d="m375.37,173.95c-2.41,1.53-4.88,2.96-7.43,4.24-.05,0-2.09.47-4.37.48.64-1.06,3.07-2.54,2.25-3.8-.17-.16-.41-.18-.71-.09,0,.11-.03.24-.07.39-.33,1.28-2.28,2.94-2.33,3.62-.04.65,8.06,1.53,13.85,2.21,1.95-3.45,1.42-7.08-1.18-7.06Z"/><path class="cls-27" d="m177.94,224.68c.49-.06.95-.07,1.3.04-.23-.17-.62-.23-1.3-.04Z"/><path class="cls-21" d="m179.25,224.73c-1.34,1.87-3.09,3.16-3.09,3.18-2.53,1.33-5.12,2.53-7.76,3.61-.58.8,2.15,3.69,2.62,4.47,2.23-.55,6.96-4.83,8.39-9.96,0,0,.33-.92-.15-1.3Z"/><path class="cls-27" d="m179.24,224.72s0,0,0,0c0,0,0,0,0,0,0,0,0,0-.01,0Z"/><path class="cls-18" d="m241.15,353.04c-.18,2.59-.37,5.26-.58,8.01-.06.83-.23,2.71-.45,5.02-.16,1.73-.53,4.23-.97,6.97-1.21,7.42-3,16.57-3,16.57,1.68,1.06,3.58,1.91,5.6,2.59,11.34-34.59,1.39-86.07,1.39-86.07-.12,12.25-.65,27.4-1.99,46.92Z"/></g><path class="cls-18" d="m239.15,373.03c-1.21,7.42-3,16.57-3,16.57,11.74,7.39,33.91,4.63,33.91,4.62,0-.02,1.75-10.29,2.98-19.49-10.66.74-26.39-.79-33.88-1.71Z"/><g id="_2"><path class="cls-28" d="m168.69,227.49c-4.06,3.37-6.7,8.97-6.7,8.97,0,0,4.57.98,4.98,3.25,0,0,5.34-4.45,7.2-7.45,1.86-3,5.23-7.73,5.23-7.73,0,0-6.65-.4-10.71,2.97Z"/><path class="cls-28" d="m166.97,232.02c-.06.08-2.84.77-2.84.94-.89,1.29-1.83,2.55-2.81,3.77-7.44,9.09-16.81,17.26-27.49,22.13-7.54,3.44-15.73,5.25-24.37,4.58-3.11-.06-6.24-.3-9.33-.7-12.67-1.36-15.09,17.47-2.45,19.33,14.43,1.59,29.84-.25,42.45-7.98,1.08-.72,2.14-1.47,3.19-2.25,12.32-9.11,22.38-21.72,27.12-36.35.71-2.06-1.43-4.18-3.47-3.48Z"/><path class="cls-1" d="m133.83,258.87c-7.54,3.44-15.73,5.25-24.37,4.58-3.11-.06-6.24-.3-9.33-.7-12.67-1.36-15.09,17.47-2.45,19.33,14.43,1.59,29.84-.25,42.45-7.98,1.08-.72,2.14-1.47,3.19-2.25-3.7-1.94-7.91-9.82-9.49-12.99Z"/><path class="cls-31" d="m130.11,257.51c-5.57,2.23-9.05,5.4-15.62,4.44-6.43-.45-13.04-1.94-16.88-1.48.7,5.44,4.96,18.73,5.68,24.22,1.4.21,2.86.37,4.35.47,1.16.08,2.35-.02,3.53.13,17.03,2.17,29.16-9.67,29.16-9.67-8.33-4.08-10.22-18.1-10.22-18.1Z"/><path class="cls-28" d="m18.75,396.18c-7.85,2.23-17.53,3.68-17.53,3.68-3.79,7.95,2.04,12.61,2.04,12.61l3.61.18,14.72.74-2.01-12.18-.83-5.03Z"/><g class="cls-38"><path class="cls-7" d="m19.58,401.21l-.83-5.03c-7.85,2.23-17.53,3.68-17.53,3.68-3.79,7.95,2.04,12.61,2.04,12.61l3.61.18c-1.15-2.75-3.62-7.67-3.27-8.38.37-.75,12.01-2.48,15.98-3.05Z"/></g><path class="cls-28" d="m83.38,444.4l-3.51,18.2c1.12,1.02,2.25,1.7,3.35,2.14,5.57,2.19,10.5-1.98,10.5-1.98.76-2.57,1.8-5.77,2.8-8.76,1.41-4.21,2.75-8.01,3.14-9.11.08-.21.11-.32.11-.32h-.26s-16.13-.15-16.13-.15Z"/><path class="cls-1" d="m83.38,444.4l-3.51,18.2c1.12,1.02,2.25,1.7,3.35,2.14.79-2.5,1.16-10.9,2.6-10.76,1.37.13,8.53.04,10.7.01,1.41-4.21,2.75-8.01,3.14-9.11-.05-.11-.09-.21-.15-.32l-16.13-.15Z"/><path class="cls-18" d="m1.22,399.86s-4.88-1.36-8.93-.19c-1,.29-1.94.73-2.75,1.39l4.93,30.4c.24,1.48,1.87,2.31,3.18,1.6.02,0,.03-.02.05-.03,3-1.65,7.11-6.48,5.56-20.56,0,0-2.19-4.54-2.05-12.6Z"/><path class="cls-18" d="m114.68,472.52c-1.21-3.52-5.6-8.81-20.95-9.76,0,0-5.26,1.5-13.85-.15,0,0-2.36,4.97-1.86,9.51.12,1.12.42,2.21.97,3.2l33.41.37c1.62.02,2.82-1.57,2.3-3.11,0-.02-.01-.04-.02-.05Z"/><path class="cls-26" d="m114.68,472.52l-36.66-.4c.12,1.12.42,2.21.97,3.2l33.41.37c1.62.02,2.82-1.57,2.3-3.11l-.02-.05Z"/><path class="cls-37" d="m77.23,306.91c-8.14,2.74-14.57,10.21-12.79,21.23v-.05c3.12,8.93,3.75,17.24,2.36,24.8-3.64,19.73-21.4,32.36-44.48,39.3-2.58.78-5.22,1.48-7.92,2.12-1.45.34-2.92.66-4.4.94,0,0-.77,18.56,3.09,24.93.34.07,5.53-.59,12.97-1.92,17.17-3.07,46.3-9.71,55.1-19.15h0c1.72-1.8,3.32-3.68,4.78-5.63,11.13-14.74,15.29-33.49,16.68-52.23.48-6.5.63-12.99.63-19.31-2.44-14.34-15.62-18.54-26.01-15.04Z"/><path class="cls-35" d="m82.38,317.95l18.92,30.73.65-.36c.29-2.53.53-5.12.71-7.76.13-1.74.23-3.52.31-5.31.18-3.86.27-7.83.27-11.91l-6.48-1.82-14.38-3.57Z"/><path class="cls-35" d="m66.68,342.83c.21,5.3,1.13,7.61-1.09,14.95,0,0,13.63,11.64,13.03,43.68,0,0,4.87-4.1,7.31-7.97,6.92-10.96,7.28-11.81,11.12-24.46l-4.45-24.55-25.93-1.65Z"/><path class="cls-37" d="m89.25,315.62c-3.78-4.63-7.94-7.42-12.03-8.72-13.51-4.29-27.11,9.52-24,25.24.21,1.08.51,2.17.88,3.26,1.1,3.18,2.91,6.4,5.57,9.51,1.9,2.23,3.9,4.25,5.73,6.33.48.54.94,1.09,1.39,1.64,10.64,13.1,16.58,26.61,19.13,40.59,2.64,14.39-2.8,28.36-6.88,43.62-.53,1.99-1.04,4-1.5,6.03-.32,1.39-.65,2.77-.99,4.16,0,0,18.86,5.37,24.35,2.92.58-1.23.95-3.32,1.51-4.53.35-.77.7-1.53,1.03-2.29,7.78-17.5,11.98-33.2,11.98-49.55s-4.07-32.86-12.81-52.6c-3.54-8-7.96-16.49-13.36-25.63Z"/><path class="cls-31" d="m107.25,279.94c-1.66-5.4-9.58-19.28-11.2-19.88-4.15-1.71-9.25-2.37-14.19-1.69-7.41,1.02-14.45,5.06-17.32,13.15-2.37,3.83-4.85,13.45-6.83,23.19-.13.64-.26,1.28-.39,1.92-.15.75-.29,1.5-.43,2.24-.26,1.39-.51,2.76-.75,4.1-.81,4.62-1.46,8.87-1.87,12.07-.14,1.07-.25,2.02-.33,2.83-.2,1.97-.22,3.1-.03,3.03,0,0,17.4,8.95,49.31,2.54,0,0,0-1.2-.18-3.69-.17-2.4-.52-6-1.19-10.88-.06-.46-.13-.92-.2-1.4-.09-.87-.12-1.71-.09-2.53.28-10.04,8.27-16.58,5.68-25.01Z"/><path class="cls-30" d="m64.54,271.52c-2.37,3.83-4.85,13.45-6.83,23.19-.13.64-.26,1.28-.39,1.92-.15.75-.29,1.5-.43,2.24-.26,1.39-.51,2.76-.75,4.1,5.27-4.37,15.57-13.14,22.37-20.37,7.18-7.63,4.88-19.1,3.35-24.23-7.41,1.02-14.45,5.06-17.32,13.15Z"/><path class="cls-28" d="m31.26,333.54c-.61-1.64-6.78-3.25-8.37-2.45-4.99,2.5-5.99,8.2-6.07,9.07-.6.95-4.59,12.05-.79,9.41,1-2.2,1.47-4.47,2.85-6.45,0,0,0,0,0,0,0,0,0,0,0,0-.53,1.1-3.77,13.86-.17,10.51.7-2.96,1.72-5.84,3.07-8.56.01,0,0,0,.02,0-.15,1.19-3.02,13.85.23,10.24.49-3.15,1.25-6.25,2.17-9.3.02,0,.02,0,.05,0,.19,1.06.16,11.32,2.02,9.35.28-.29.41-.69.41-1.09-.03-2.88.06-5.75.3-8.61.02,0,.69-2.49,1.97-4.59.91,1.06.71,4.68,2.23,4.51,1.56-.98.98-5.07.55-6.61-.09-.8.11-3.9-.46-5.43Z"/><path class="cls-36" d="m77.55,443.14c-.32,1.39-.65,2.77-.99,4.16,0,0,18.86,5.37,24.35,2.92.58-1.23.95-3.32,1.51-4.53.35-.77.69-1.53,1.03-2.29-6.26-.76-16.69-2.51-24.39-6.3-.53,1.99-1.04,4-1.5,6.03Z"/><path class="cls-36" d="m14.39,394.32c-1.45.34-2.92.66-4.4.94,0,0-.77,18.56,3.09,24.93.34.07,5.53-.59,12.97-1.92-1.48-6.54-3.74-17.9-3.73-26.07-2.58.78-5.22,1.48-7.92,2.12Z"/><path class="cls-28" d="m70.56,260.79c-12.45,6.86-23.64,16.53-30.97,28.85-.64,1.15-1.27,2.31-1.89,3.47-6.57,12.34-11.67,25.33-15.01,38.89-1.33,4.91,6.18,7.43,8.08,2.69,2.64-6.21,5.64-12.34,8.85-18.27,2.87-5.46,5.63-10.24,8.56-14.49,7.43-10.79,16-18.24,30.48-25.04,10.91-5.4,2.72-21.63-8.1-16.1Z"/><path class="cls-1" d="m70.56,260.79c-12.45,6.86-23.64,16.53-30.97,28.85-.64,1.15-1.27,2.31-1.89,3.47,2.66,2.43,7.63,6.85,10.47,8.82,7.43-10.79,16-18.24,30.48-25.04,10.91-5.4,2.72-21.63-8.1-16.1Z"/><path class="cls-31" d="m57.48,263.15c-15.41,9.18-22.46,21.72-22.46,21.72,0,0,4.68,3.58,5.94,4.82,0,0,5.48,5.23,12.38,10.64,0,0,3.79-4.03,5.23-5.03,4.15-2.89,9.6-11.38,16.03-12.99,6.43-1.61,13.46-13.07,7.68-24,0,0-11.56-3.05-24.79,4.83Z"/><path class="cls-30" d="m77.95,258.94s11.97,17.06,22.43,2.99c8.47-11.38-22.43-2.99-22.43-2.99Z"/><path class="cls-30" d="m107.64,285.15c1.16.08,2.34.12,3.53.13-1.1-3.18-3.27-8.26-7-12.37.1.15,3.21,5.16,3.47,12.24Z"/></g><g id="_1"><path class="cls-25" d="m437.46,152.6c-3.81,10.13-5.46,11.79-16.28,15.79-12.23,3.83-25.63,3.83-38.38,3.25-5.34-.04-5,7.08.2,7.28,14.19,2.86,28.93,4.42,43.23.96,15-4.8,11.58-9.23,16.68-23.06,2.96-9.39-2.51-13.59-5.45-4.23Z"/><path class="cls-18" d="m451.74,146.39c4.6-13.97-6.21-11.57-6.21-11.57,0,0-1.08.28-2.63,1.45-1.26.95-2.9,2.48-4.68,4.88-.14.19-.28.38-.42.57-1.36,1.92-2.79,4.34-4.19,7.41-.62,1.36-1.29,2.62-2,3.78h0c-5.75,9.42-14,12.44-19.54,13.68-4.85,1.09-16.85,1.55-23.24,3.31-1.79.49-3.14,1.09-3.77,1.84,0,0-1.93,3.56-1.07,7.35.2.9,1.41,1.89,3.31,2.87,6.11,3.17,19.35,6.29,28.84,6.1,8.42-.17,18.52-3.12,26.25-9.95.11-.1.22-.2.33-.29.37-.33.74-.68,1.09-1.03,1.9-1.87,3.62-3.99,5.11-6.39.92-1.48,1.75-3.07,2.47-4.77,2.69-6.32,2.29-12.5.83-17.65-.15-.54-.67-1.08-.49-1.6Z"/><path class="cls-18" d="m412.08,166.6c-4.85,1.09-16.85,1.55-23.24,3.31,0,0,19.45,2.83,28.29-1.72,8.84-4.54,13.2-8.62,14.48-15.27-5.75,9.42-14,12.44-19.54,13.68Z"/><path class="cls-24" d="m442.41,178.12c.11-.1.22-.2.33-.29.37-.33.74-.68,1.09-1.03,1.9-1.87,3.62-3.99,5.11-6.39.92-1.48,1.75-3.07,2.47-4.77,2.69-6.32,2.29-12.5.83-17.65-.15-.54-.32-1.08-.49-1.6-.68-2.04-.43-3.48.27-4.5-1.85,2.03-3.67,4.12-4.49,5.23-8.19.38-10.69,20.88-5.12,30.99Z"/><path class="cls-18" d="m457.03,136.75c-.6.45-2.38,2.28-4.27,4.33,1.94-1.63,5.16-1.66,5.16-1.66,0,0,.66-3.84-.89-2.67Z"/><path class="cls-18" d="m452.02,141.89c.25-.28.5-.55.75-.82-.28.24-.54.51-.75.82Z"/><path class="cls-34" d="m559.18,331.86c-.74-.94-8.55-10-9.21-11.01l-10.19-14.49-12.33,12.33,15.51,14.68,4.21,3.98c2.05,1.94,2.42,5.06.91,7.44-3.13,5.46-8.97,8.88-9,14.83.21,1.82,2.38,2.67,3.79,1.51l24.65-20.25s-.02-.04-.02-.06c-.77-1.71-6.76-6.59-8.31-8.96Z"/><path class="cls-25" d="m559.18,331.86c-.74-.94-8.55-10-9.21-11.01l-10.19-14.49-12.33,12.33,15.51,14.68c1.99-.93,5.52-2.61,6.74-3.46,1.59-1.1,6.74,9.26,17.79,10.91-.77-1.71-6.76-6.59-8.31-8.96Z"/><path class="cls-16" d="m559.18,331.86c-5.46,6.43-10.32,8.48-10.32,8.48-10.98,10.03-11.08,16.59-9.84,20.04.54,1.47,2.39,1.94,3.6.95l24.89-20.45c-.18-1.07-.62-2.07-1.2-2.99-2.36-3.72-7.14-6.03-7.14-6.03Z"/><path class="cls-37" d="m539,360.33c.51,1.5,2.39,2.01,3.62,1l24.89-20.45c-.18-1.07-.62-2.07-1.2-2.99l-27.31,22.44Z"/><path class="cls-34" d="m471.16,348.26c.12-2.34.36-6.24.46-7.13l.34-19.35-16.2,1.72,2.49,20.09.37,2.96c.34,2.73-1.31,5.32-3.93,6.17-5.75,2.18-12.28,1.12-16,5.59-.97,1.51.13,3.49,1.92,3.49l31.17.05c.53-1.66-.99-9.2-.69-11.98,0-.28.03-.87.07-1.62Z"/><path class="cls-25" d="m458.25,343.59c3.16,1.48,8.86,4.32,12.91,4.67.12-2.34.36-6.24.46-7.13l.34-19.35-16.2,1.72,2.49,20.09Z"/><path class="cls-16" d="m458.04,349.86c-14.51.74-18.66,5.62-19.86,8.99-.51,1.44.6,2.95,2.13,2.95l31.47.05c.53-.92.82-1.95.95-3,.53-4.27-1.64-8.98-1.64-8.98-8.12,1.46-13.05-.02-13.05-.02Z"/><path class="cls-37" d="m440.3,361.8l31.47.05c.53-.92.82-1.95.95-3l-34.53-.05c-.55,1.45.56,3,2.11,3Z"/><path class="cls-37" d="m546.33,293.22c-5.31-8.72-11.98-22.04-17.82-37.72-16.41-44.09-24.22-56.88-24.22-56.88,0,0-44.75-17.35-52.92-1.11-4.42,13.95-6.99,31.19-8.22,48.79-1.7,24.29-.84,49.27,1.22,67.29.31,2.67.64,5.18.99,7.52,0,.02,0,.04,0,.07.38,2.8.63,4.36.64,4.42,0,0,1.63,12.47,1.63,12.47,3.35,1.11,7.06,1.95,10.87,2.45.03,0,.05,0,.08.01,6.58.86,13.44.72,19.15-.7,1.21-.3,2.37-.66,3.46-1.08-1.07-3.69-3.55-20.74-4.22-25.92-.01-.1-.03-.21-.04-.32-.01-.08-.02-.16-.03-.24-1.47-11.67-2.01-24.78-1.86-37.08.18-16.5,1.58-31.54,3.57-39.68,0-.02.01-.05.02-.07.55-2.26,1.16-3.98,1.79-5.05,0,0,0-.01.01-.02,0,0,0-.02.01-.02,0,0,0,0,0,0s0,0,0,0c0,0,0,0,0,0,.25.68,16.56,44.24,34.04,80.14,1.29,2.66,2.59,5.22,3.89,7.64.8,1.5,9.78,17.69,10.58,19.07,0,0,6.79-3.06,14.28-6.48.89-.4,1.78-.82,2.67-1.22,5.88-2.69,10.85-9.08,15.41-16.95,0,0-8.96-10.45-10.83-12.98-1.25-1.69-2.67-3.82-4.2-6.33Z"/><path class="cls-35" d="m444.37,313.58c.31,2.67.64,5.18.99,7.52,0,.02,0,.04,0,.07.38,2.8.63,4.36.64,4.42,0,0,1.63,12.47,1.63,12.47,3.35,1.11,7.06,1.95,10.87,2.45-6.57-16.54-13.71-72.4-15.36-94.21-1.7,24.29-.84,49.27,1.22,67.29Z"/><path class="cls-18" d="m497.75,173.96c-.32-1.36-.95-2.69-1.67-3.97-.49-.86-1.03-1.7-1.56-2.5-.81-1.66-1.65-3.32-2.51-4.95-9.28-17.6-21.15-32.53-34.09-32.85-.19,0-.38,0-.57,0-.87,0-1.76.08-2.64.22-1.33,4.39-6.77,14.55-9.18,4.91-.39,1.55-1.64,3.7-1.76,6.27-.1,2.19-4.87,14.88.05,35.69.74,3.15,3.32,14.57,5.02,22.13.91,4.04,1.57,6.98,1.57,6.98,16.61,1.26,42.35,2.28,53.87-7.29.75-1.37-3.82-15.83-5.74-22-.43-1.38-.73-2.34-.8-2.65Z"/><path class="cls-24" d="m497.75,173.96c-.32-1.36-.95-2.69-1.67-3.97,0,0,.96,12.26.16,18.08-.8,5.82-6.84,8.06-24.55,10.88-10.53,1.67-18.27.88-22.83-.03.91,4.04,1.57,6.98,1.57,6.98,16.61,1.26,42.35,2.28,53.87-7.29.75-1.37-3.82-15.83-5.74-22-.43-1.38-.73-2.34-.8-2.65Z"/><path class="cls-18" d="m463.84,130.46c.19,0-.19,0,0,0h0Z"/><path class="cls-24" d="m496.08,169.99c-.49-.86-1.03-1.7-1.56-2.5-.81-1.66-1.65-3.32-2.51-4.95-9.28-17.6-15.23-31.77-28.17-32.09-.6,3.35-5.6,11.59.64,19.49,7.16,9.06,21.15,11.72,27.89,20.2,1.23,1.54,3.51,4.67,6.19,6.46-.43-1.38-.73-2.34-.8-2.65-.32-1.36-.95-2.69-1.67-3.97Z"/><path class="cls-35" d="m476.95,312.5c-.01-.08-.02-.16-.03-.24-1.47-11.67-2.01-24.78-1.86-37.08,0-1.4,0-2.78,0-4.15.14-19.09,2.05-29.92,3.56-35.53,0-.02.01-.05.02-.07.89-3.27,1.63-4.75,1.79-5.05,0,0,0-.01.01-.02,0-.01,0-.02.01-.02,0,0,0,0,0,0,0,0,0,0,0,0,0,0-4.73-1.62-7.5-3.44,0,0-6.11,62.01,4.78,112.93,1.21-.3,2.37-.66,3.46-1.08-1.07-3.69-3.55-20.74-4.22-25.92-.01-.1-.03-.21-.04-.32Z"/><path class="cls-25" d="m504.05,154.92c-8.96-8.71-19.22-15.97-29.55-22.92-8.23-5.2-16.05,6.99-7.94,12.31,6.09,3.84,12.71,8.07,18.7,12.06,3.1,2.09,6.69,4.56,9.65,6.81,4.54,3.62,8.46,8.28,12.05,12.98,2.62,3.49,5.14,7.14,7.5,10.84,1.63,2.33,2.98,6.63,6.63,5.3,5.36-2.64-.46-9.34-1.55-13.2-4.08-8.65-8.85-17.14-15.48-24.19Z"/><path class="cls-34" d="m522.91,186.73s-2.09,1.85-2.92,2.24c-.86.4-3.83.89-3.83.89,0,0-.63,3.33-.75,4.06-.48,1.23-2.49,5.6-.81,6.15,1.45.31,1.59-3.28,2.51-4.23,1.36,1.85,2.06,4.09,2.08,4.09.23,2.75.28,5.53.18,8.31-.06.89,1.61.94,1.75.03.5-2.71.86-5.43,1.05-8.15.02,0,.03,0,.05,0,.96,2.74,1.74,5.53,2.23,8.38,3.45,3.33.57-8.39.41-9.36,0,0,.01,0,.02-.01,1.44,2.42,2.51,5,3.23,7.67,3.87,3-.2-8.53-.77-9.43,0,0,.02-.02.03-.02,1.47,1.74,2.66,3.65,3.72,5.61,4.07,2.29-1.05-6.94-1.65-7.74-.32-1.02-6.54-8.48-6.54-8.48Z"/><path class="cls-18" d="m485.2,132.41c-11.89-5.7-22.29-4.56-27.3-3.42-2.04.46-.1,2.47-.1,2.47.38,5.28,1.96,6.25,3.49,9.59,3.86,8.4,8.54,11.77,19.34,16.6,7.66,3.42,11.8,8.86,15.45,12.34,3.55,3.4,5.76,6.6,7.77,9.17,2.7,3.47,5.92,5.9,8.26,7.32,1.56.95,2.73,1.45,3.08,1.51,3.65.66,6.66-4.02,6.66-4.02.7-1.54.81-3.52.43-5.79-2.31-13.85-22.72-38.89-37.08-45.78Z"/><path class="cls-24" d="m385.08,171.75s-1.93,3.56-1.07,7.35c.2.9,1.41,1.89,3.31,2.87-2.03-5.83,1.53-12.05,1.53-12.05-1.79.49-3.14,1.09-3.77,1.84Z"/><path class="cls-24" d="m512.1,186.49c1.56.95,2.73,1.45,3.08,1.51,3.65.66,6.66-4.02,6.66-4.02.7-1.54.81-3.52.43-5.79-4.02,6.74-9.74,7.84-10.17,8.29Z"/><path class="cls-34" d="m371.93,171.85c-5.09,1.36-8.62,7.02-8.62,7.02,0,0,5.81-.01,9.33.21,3.52.22,10.12-.17,10.12-.17-.75-5.52,1.24-7.2,1.24-7.2,0,0-6.97-1.22-12.07.14Z"/></g><path class="cls-32" d="m282.07,123.78c-7.35-.72-11.11,2.71-11.83,6.26,0,0-9.97,2.87-10.43,10.67,0,0-.03,6.59,5.26,11.05,0,0-.7,7.13,5.26,8.71l-1.3,6.77s2.77,10.43,12.41,9.77c0,0,.75-.1,1.71-.7,1.15-.72,2.61-2.18,3.46-5.06.34-1.17.59-2.58.66-4.26,0,0,8.46,1.32,12.12-8.89,0,0,2.44-7.2.85-14.42,0,0,4.13-3.96,4.01-7.37-.12-3.41-14.82-11.8-22.17-12.52Z"/><path class="cls-21" d="m275.99,162.09c.08.19,2.45,5.78,10.63,9.15.34-1.17.59-2.58.66-4.26,0,0-7.69-.3-11.29-4.88Z"/><path class="cls-21" d="m269.08,151.7s1.56.66,1.38,1.7c0,0-1.73.29-1.96,2.45,0,0,1.85-1.61,2.6-1.21.75.4.87,1.44.61,2.08,0,0,1.21-2.28.06-4.01-1.15-1.73-2.68-1.01-2.68-1.01Z"/><path class="cls-13" d="m282.08,123.78c-7.36-.72-11.11,2.71-11.83,6.26,0,0-9.97,2.87-10.43,10.67,0,0-.03,6.6,5.26,11.05,0,0,4.74-6.73,8.91-.25,0,0,4.63-2.04,3.49-10.99,0,0,7.52,6.85,14.36,5.24,0,0-.5-3.08-2.03-4.58,0,0,5.15,2.69,9.68,1.11,0,0,.08,1.02.75,1.38,0,0,2.67-2.56,3.65-5.33.24-.68.38-1.37.36-2.04-.12-3.41-14.82-11.8-22.17-12.52Z"/><path class="cls-6" d="m282.08,123.78c-7.36-.72-11.11,2.71-11.83,6.26,0,0-9.97,2.87-10.43,10.67,0,0-.03,6.6,5.26,11.05,0,0,.75-9.7,6.27-12.56,0,0-3.71-.38-3.54-3.21.17-2.83,5.37-1.95,5.37-1.95,0,0,1.76-6.51,6.65-6.21,0,0-1.97,3.28-1.67,4.69,0,0,6.54-2.95,9.8-.65,2.9,2.05,12.02,5.88,15.94,6.48.24-.68.38-1.37.36-2.04-.12-3.41-14.82-11.8-22.17-12.52Z"/><path class="cls-36" d="m84.8,344.8c-7.48-11.4-14.23-19.68-14.3-19.76l-.78.63c.07.08,6.79,8.32,14.24,19.68,12.44,18.97,17.31,31.9,19.2,39.41,4.13,16.37-8.04,56.48-8.16,56.88l.96.29c.03-.1,3.13-10.27,5.68-22.36,3.43-16.27,4.27-28.06,2.5-35.06-1.91-7.59-6.82-20.64-19.34-39.73Z"/><path class="cls-36" d="m82.69,325.79l-.84.54s1.45,2.29,2.09,5.31c.85,3.97,0,7.31-2.53,9.92l.72.7c2.75-2.83,3.71-6.59,2.79-10.86-.69-3.19-2.16-5.51-2.22-5.61Z"/><path class="cls-36" d="m62.26,335.22c-2.09.93-5.72.88-8.15.19,1.1,3.18,2.91,6.4,5.57,9.51,1.9,2.23,3.9,4.25,5.73,6.33,0,0,0,0,0,0,3.15-2.23,2.63-5.91,2.63-5.91l-5.78-10.12Z"/><path class="cls-36" d="m25.21,407.55l.25.97c.13-.03,12.84-3.26,26.12-8.22,17.92-6.7,28.29-13.21,30.8-19.35l-.93-.38c-5.76,14.09-55.73,26.85-56.23,26.98Z"/><path class="cls-30" d="m101.87,308.88c-.06-.45-.13-.92-.2-1.4-.09-.87-.12-1.71-.1-2.53-.38-.4-.6-.63-.6-.63,0,0-2.38,9.53-24.2,12.1-15.23,1.79-20.36-.08-22.51-1.37-.14,1.07-.25,2.02-.33,2.83-.2,1.97-.22,3.1-.03,3.03,0,0,17.4,8.95,49.31,2.54,0,0,0-1.2-.18-3.69-.17-2.4-.52-6-1.19-10.88Z"/><path class="cls-12" d="m298.13,232.19c-5.5,6.58-35.8,11.36-41.37,9.04-5.57-2.32,5.25-.88,8.65-4.43,3.4-3.56-7.03-2.89-13.84-2.73-6.81.16-7.69-18.77-7.69-18.77-.65,14.53-1.2,29.54-1.2,29.54,41.05,6.86,56.59-8.11,56.59-8.11-.46-1.54-.83-3.05-1.15-4.53h0Z"/><path class="cls-18" d="m258.89,246.53c-.03.12-3.07,12.05-2.54,26.4.46,12.49.99,81.12-3.64,101.16l.78.18c4.64-20.12,4.12-88.86,3.66-101.37-.53-14.23,2.49-26.05,2.52-26.17l-.78-.2Z"/><path class="cls-18" d="m288.55,243.53c.04.78.09,5.8-.59,10.78-.83,6.11-2.44,9.92-4.66,11.11.07-2.56.31-12.38-.02-19.63l-.8.04c.38,8.32,0,20.08,0,20.19l-.02.57.54-.18c6.93-2.27,6.35-22.72,6.34-22.92l-.8.04Z"/><path class="cls-35" d="m475.92,206.59l3.93,23.13c-9.33-1.88-9.25-22.81-9.24-23.02h-1s-.04,5.75,1.23,11.52c1.71,7.79,5.02,12.14,9.58,12.6l.65.07-4.16-24.46-.99.17Z"/><path class="cls-35" d="m536.68,287.05c-8.75-16.59-16.35-33.36-18.91-41.74-5.3-17.37-17.48-43.71-17.6-43.98l-.91.42c.12.26,12.27,26.55,17.55,43.85,5.23,17.12,31.98,69.74,39.69,73.54l.44-.9c-3.18-1.57-10.94-13.52-20.27-31.2Z"/><path class="cls-35" d="m480.47,230.33c.25.68,16.56,44.24,34.04,80.14,1.29,2.66,2.59,5.22,3.89,7.64.8,1.5,9.78,17.69,10.58,19.07,0,0,6.79-3.06,14.28-6.48-5.49-8.46-12.77-18.73-17.36-24.09-6.4-7.48-44.99-75.38-45.44-76.29Z"/><path class="cls-18" d="m469.04,134.82c22.1,6.12,35.33,23.99,35.33,23.99-14.78-25.06-35.33-23.99-35.33-23.99Z"/><path class="cls-18" d="m263.45,256.18c-3.06,1.45-6,1.47-6.03,1.47v.8c.13,0,3.12-.02,6.34-1.53,2.99-1.41,6.72-4.42,7.52-10.78l-.8-.1c-.6,4.81-2.97,8.22-7.04,10.14Z"/><path class="cls-34" d="m466.67,108.51c-.02.09-.04.16-.05.18-.22.74-.48,1.43-.73,2.04-.12.31-.25.6-.37.86-.34.74-.65,1.32-.85,1.69-.03.05-.06.1-.08.14-.13.22-.2.33-.2.33,0,.01.01.01.01.02.25.32.45.65.62.97,1.28,2.46.08,4.4.08,4.4-2.35,4.08-6.73,3.84-6.73,3.84,0,0,1.13,4.04,1.23,5.13.01.12.02.3,0,.54,0,.31-.03.7-.11,1.15-.17,1.08-.57,2.48-1.45,3.81-1.06,1.62-2.84,3.12-5.77,3.77-.15.05-.32.08-.48.11-.47.08-.91.15-1.33.2-1.61.21-2.84.19-3.79.04-.87-.13-1.49-.37-1.95-.64-.87-.51-1.09-1.12-1.14-1.28-.01-.03-.01-.04-.01-.04l-.94-5.83h-.01c-.2,0-6.55.04-8.9-5.17-.28-.6-.53-1.26-.76-1.95-.55-1.66-.98-3.51-1.31-5.27-.48-2.55-.75-4.93-.89-6.31-.07-.77-.11-1.23-.11-1.23-.18-.54-.44-1.35-.75-2.34-.32-1.03-.89-2.93-1.06-3.6-.82-3.35.93-7.03,1.17-7.52.48-.99,1.06-1.83,1.69-2.56.8-.95,1.67-1.69,2.5-2.27.01,0,.01,0,.02,0,.85-.43,1.79-.84,2.82-1.25,2.84-1.12,5.45-1.48,7.75-1.4.08,0,.16,0,.24.01.1.01.19.01.28.02.11,0,.23.02.35.03.3.03.62.06.94.1.17.02.34.06.51.09.11.02.22.04.33.06.46.09.91.18,1.33.3,0,.01,0,.01.02,0,.63.17,1.21.37,1.76.58.2.08.39.15.58.23.85.36,1.59.74,2.2,1.1.19.11.36.22.52.32.67.43,1.12.78,1.34.96.02.02.04.03.05.05.07.05.1.08.1.08,0,0,10.06,2.15,11.73,7.87.06.19.1.38.14.58.03.19.07.38.09.58.01.13.03.25.04.38.22,2.17-.13,4.3-.67,6.12Z"/><path class="cls-25" d="m466.67,108.51c-.02.09-.04.16-.05.18-.22.74-.48,1.43-.73,2.04-.12.31-.25.6-.37.86-.34.74-.65,1.32-.85,1.69-.03.05-.06.1-.08.14-.13.22-.2.33-.2.33,0,.01.01.01.01.02,0,.12-1.37-.13-2.96-.07-.25.01-1.32-.12-2.68-.47,0,.01,0,0,0,0-.35-.09-.73-.2-1.11-.32-.27-.09-.54-.18-.81-.28-3.1-1.15-3.79-2.53-6.02-3.8-5.51-3.13-12.38-.97-14.29-.37-2.62.83-4.58,1.98-5.76,2.78-.07-.77-.11-1.23-.11-1.23-.18-.54-.44-1.35-.75-2.34-.32-1.03-.89-2.93-1.06-3.6-.82-3.35.93-7.03,1.17-7.52.48-.99,1.06-1.83,1.69-2.56,2-2.03,4.32-3.07,5.34-3.53,3.18-1.43,6.1-1.49,7.75-1.4.08,0,.16,0,.24.01.1.01.19.01.28.02.11,0,.23.02.35.03,1.12.09,2.16.29,3.11.54,0,.01,0,.01.02,0,.62.18,1.21.37,1.76.58.2.08.39.15.58.23.85.36,1.59.74,2.2,1.1.19.11.36.22.52.32.67.43,1.12.78,1.34.96.02.02.04.03.05.05.07.05.1.08.1.08,0,0,10.06,2.15,11.73,7.87.06.19.1.38.14.58.03.19.07.38.09.58.01.13.03.25.04.38.22,2.17-.13,4.3-.67,6.12Z"/><path class="cls-25" d="m442.63,129.94l.95,5.83c2.55-1.29,6.43-4.02,7.76-9.04,0,0-2.18,2.63-8.71,3.21Z"/><path class="cls-25" d="m462.13,115.31c-4.39-1.01-4.68,4-4.68,4,0,0,.52-.92,1.73-1.83,1.21-.9,2.06,1.27,2.06,1.27.22-1.86-1.46-2.18-1.46-2.18.56-1.05,2.36-1.26,2.36-1.26Z"/><path class="cls-4" d="m466.67,108.51c-.02.09-.04.16-.05.18-.22.74-.48,1.43-.73,2.04-.12.31-.25.6-.37.86-.34.74-.65,1.32-.85,1.69-.03.05-.06.1-.08.14-.13.22-.2.33-.2.33,0,0-1.64-1.32-5.63-.52,0,.01,0,0,0,0-.28.06-.57.13-.88.21-.06-.16-.14-.34-.23-.53-.72-1.66-2.22-4.28-5.11-5.78-.84-.44-1.77-.77-6.22-1.1-11.39-.86-13.37.69-14.18,1.53-.84.86-1.25,1.81-1.48,2.45-.18-.54-.44-1.35-.75-2.34-.32-1.03-.89-2.93-1.06-3.6-.82-3.35.93-7.03,1.17-7.52.48-.99,1.06-1.83,1.69-2.56.8-.95,1.67-1.69,2.5-2.27.01,0,.01,0,.02,0,1.25-.87,2.39-1.37,2.99-1.61,1.43-.61,3.7-1.29,7.58-1.04.08,0,.16,0,.24.01.09.01.19.01.28.02.11,0,.23.02.35.03.3.03.62.06.94.1,7.01.84,17.96,4.3,20.27,11.06.08.19.15.38.2.57.06.19.1.38.14.58.03.19.07.38.09.58.01.13.03.25.04.38.2,2.53-.47,5.37-.67,6.12Z"/><path class="cls-14" d="m105.08,249.31l-11.6-1.37-7.12,12.6,12.29,2.88c.91.21,1.86.17,2.73-.17,5.47-2.15,3.48-13.51,3.69-13.94Z"/><path class="cls-14" d="m91.08,217.97c-1.98-.34-4.01-.58-6.02-.5-1.08.04-2.15.18-3.21.44-11.8,2.88-15.82,10.71-18.5,20.22-2.02,7.18-3.27,15.31-6.5,22.98.09-.04.15-.06.16-.06-.07.23-5.88,19.48,10.46,26.92,1.51.01,3.13-.01,4.87-.09.03,0,.06,0,.1,0,6.15-.28,4.6-4.28,5.51-10.37,1.11-7.45-.21-16.02,1.5-16.45l18.47-11.44,11.34-13.4c1.01-2.04-.9-8.47-2.32-10.18-3.9-4.69-9.89-7.03-15.85-8.06Z"/><path class="cls-14" d="m83.79,237.4s-6.2-3.81-10.99,3.45c-1.74,2.63-2.53,5.78-2.31,8.93.26,3.78.15,9.77-2.91,10.86-5.56,1.98-3.58,20.64,4.77,27.23.03,0,.06,0,.1,0,6.15-.28,4.6-5.78,5.51-11.87,1.11-7.45,2.79-16.02,4.49-16.45l15.48-9.94c-3.97-6.21-9.12-11.31-14.13-12.21Z"/><path class="cls-28" d="m106.58,229.4c-.15.23-.72.44-2.71-.13-3.15-.9-5.52-4.31-9.12-.78-.08.08-.16.16-.25.24-1.14,1.09-2.1,2.34-2.86,3.73-.62,1.13-1.27,2.23-2.08,3.22-.63.76-1.38,1.46-2.32,1.77-.95.31-3.24.04-3.46-.04-1.14-.41-3.99-1.07-5.47,1.91-1.49,3.01,2.53,5.07,4.23,5.78.49.21.88.6,1.08,1.11.63,1.55,3.34,5.4,1.81,8.55-1.03,2.1-2.1,3.84-2.93,5.22-1.56,2.58,13.41,5.74,13.6,3.08.27-3.85.88-9.15,2.21-9.46,4.82-1.13,8.4-1.07,10.02-6.35.35-1.13.6-2.52.76-4.21.08-.91.14-1.91.17-3.01.1-4.07-.64-7.01-1.76-9.14-.28-.54-.59-1.03-.92-1.47Z"/><path class="cls-1" d="m103.87,229.27c-3.15-.9-5.52-4.31-9.12-.78-.08.08-.16.16-.25.24-1.14,1.09-2.1,2.34-2.86,3.73-.62,1.13-1.27,2.23-2.08,3.22-.63.76-1.38,1.46-2.32,1.77-.95.31-3.24.04-3.46-.04,7.15,2.85,8.24-5.24,12.54-8.31,1.74-1.24,4.22.41,7.31,1.38,1.94.61,3.17.73,3.87.41-.28-.54-.59-1.03-.92-1.47-.15.23-.72.44-2.71-.13Z"/><path class="cls-1" d="m79.8,239.66s1.46-.31,1.83.08c.37.39-.66.34-.75,1.2,0,0,.6-.65,1.37-.47.7.17,1.01,1.87,1.01,1.87-.39-5.84-3.46-2.67-3.46-2.67Z"/><g class="cls-38"><path class="cls-7" d="m91.96,252.52c-1.63-1.08,4.6,8.4,4.72,6.45.13-2.26,1.56-5.02,1.56-5.02l.07-.37s-4.72.02-6.35-1.06Z"/></g><path class="cls-15" d="m87.26,227c-1.33,4.03-6.3,6.22-6.3,6.22,4.66.95,7.97-2.63,10.55-7.11,2.58-4.48,7.3-2.47,7.3-2.47-5.66-4.7-10.57.37-11.55,3.35Z"/><path class="cls-15" d="m63.36,238.13c6.44-16.67,19.99-19.8,21.71-20.65-1.08.04-2.15.18-3.21.44-11.8,2.88-15.82,10.71-18.5,20.22Z"/></g><g class="cls-41"><path class="cls-18" d="m166.02,427.17v37.78c0,5.17,4.19,9.37,9.37,9.37h335.25v-6.22h-3.77v-42.35h3.77v-7.95H175.38c-5.18,0-9.37,4.19-9.37,9.37Z"/><path class="cls-24" d="m342.18,435.54v21.03c0,8.53,5.86,15.72,13.77,17.74h154.68v-6.22h-3.77v-42.35h3.77v-7.95h-154.68c-7.91,2.02-13.78,9.21-13.78,17.74Z"/><path class="cls-29" d="m352.27,436.38v21.03c0,5.86,4.75,10.61,10.6,10.61h143.99v-42.24h-143.99c-5.85,0-10.6,4.75-10.6,10.6Z"/><path class="cls-19" d="m505.83,433.71h-136.94c-.72,0-1.3.58-1.3,1.3s.58,1.3,1.3,1.3h136.94c.72,0,1.3-.58,1.3-1.3s-.58-1.3-1.3-1.3Z"/><path class="cls-19" d="m505.83,441.82h-74c-.72,0-1.3.58-1.3,1.3s.58,1.3,1.3,1.3h74c.72,0,1.3-.58,1.3-1.3s-.58-1.3-1.3-1.3Z"/><path class="cls-19" d="m505.83,449.93h-111.19c-.72,0-1.3.58-1.3,1.3s.58,1.3,1.3,1.3h111.19c.72,0,1.3-.58,1.3-1.3s-.58-1.3-1.3-1.3Z"/><path class="cls-19" d="m505.83,458.04h-132.64c-.72,0-1.3.58-1.3,1.3s.58,1.3,1.3,1.3h132.64c.72,0,1.3-.58,1.3-1.3s-.58-1.3-1.3-1.3Z"/><path class="cls-33" d="m190.43,425.5h2.96c3.99,0,7.23,3.24,7.23,7.23v28c0,3.99-3.24,7.23-7.23,7.23h-2.96c-3.99,0-7.23-3.24-7.23-7.23v-28c0-3.99,3.24-7.23,7.23-7.23Z"/><path class="cls-12" d="m69.26,483.68v37.78c0,5.17,4.19,9.37,9.37,9.37h335.25v-6.22h-3.77v-42.35h3.77v-7.95H78.62c-5.18,0-9.37,4.19-9.37,9.37Z"/><path class="cls-9" d="m247.8,491.56v21.03c0,7.61,4.66,14.14,11.27,16.9h154.8v-6.22h-3.77v-42.35h3.77v-6.62h-153.89c-7.09,2.52-12.18,9.3-12.18,17.25Z"/><path class="cls-29" d="m255.51,492.9v21.03c0,5.86,4.75,10.61,10.6,10.61h143.99v-42.24h-143.99c-5.85,0-10.6,4.75-10.6,10.6Z"/><path class="cls-19" d="m409.07,490.22h-136.94c-.72,0-1.3.58-1.3,1.3s.58,1.3,1.3,1.3h136.94c.72,0,1.3-.58,1.3-1.3s-.58-1.3-1.3-1.3Z"/><path class="cls-19" d="m409.07,498.33h-74.01c-.72,0-1.3.58-1.3,1.3s.58,1.3,1.3,1.3h74.01c.72,0,1.3-.58,1.3-1.3s-.58-1.3-1.3-1.3Z"/><path class="cls-19" d="m409.07,506.45h-111.19c-.72,0-1.3.58-1.3,1.3s.58,1.3,1.3,1.3h111.19c.72,0,1.3-.58,1.3-1.3s-.58-1.3-1.3-1.3Z"/><path class="cls-19" d="m409.07,514.56h-132.64c-.72,0-1.3.58-1.3,1.3s.58,1.3,1.3,1.3h132.64c.72,0,1.3-.58,1.3-1.3s-.58-1.3-1.3-1.3Z"/><rect class="cls-11" x="86.45" y="482.02" width="17.41" height="42.45" rx="7.23" ry="7.23"/><path class="cls-30" d="m275.3,371.08v37.78c0,5.17,4.19,9.37,9.37,9.37h335.25v-6.22h-3.77v-42.35h3.77v-7.95h-335.25c-5.17,0-9.37,4.19-9.37,9.37Z"/><path class="cls-22" d="m451.47,379.45v21.03c0,8.53,5.86,15.72,13.77,17.74h154.68v-6.22h-3.77v-42.35h3.77v-7.95h-154.68c-7.91,2.02-13.78,9.21-13.78,17.74Z"/><path class="cls-29" d="m461.56,380.29v21.03c0,5.86,4.75,10.61,10.6,10.61h143.99v-42.24h-143.99c-5.85,0-10.6,4.75-10.6,10.6Z"/><path class="cls-19" d="m615.11,377.62h-136.94c-.72,0-1.3.58-1.3,1.3s.58,1.3,1.3,1.3h136.94c.72,0,1.3-.58,1.3-1.3s-.58-1.3-1.3-1.3Z"/><path class="cls-19" d="m615.11,385.73h-74.01c-.72,0-1.3.58-1.3,1.3s.58,1.3,1.3,1.3h74.01c.72,0,1.3-.58,1.3-1.3s-.58-1.3-1.3-1.3Z"/><path class="cls-19" d="m615.11,393.84h-111.19c-.72,0-1.3.58-1.3,1.3s.58,1.3,1.3,1.3h111.19c.72,0,1.3-.58,1.3-1.3s-.58-1.3-1.3-1.3Z"/><path class="cls-19" d="m615.11,401.96h-132.64c-.72,0-1.3.58-1.3,1.3s.58,1.3,1.3,1.3h132.64c.72,0,1.3-.58,1.3-1.3s-.58-1.3-1.3-1.3Z"/><path class="cls-31" d="m299.72,369.42h2.96c3.99,0,7.23,3.24,7.23,7.23v28c0,3.99-3.24,7.23-7.23,7.23h-2.96c-3.99,0-7.23-3.24-7.23-7.23v-28c0-3.99,3.24-7.23,7.23-7.23Z"/><g id="_3-2"><path class="cls-32" d="m375.37,173.95c-2.41,1.53-4.88,2.96-7.43,4.24-.05,0-2.09.47-4.37.48.64-1.06,3.07-2.54,2.25-3.8-.17-.16-.41-.18-.71-.09-1.89.59-6.04,5.62-7.57,6.82-1.01,1.29-.55,5.94,1.1,6.2,5.04.78,8.04-.45,11.13-1.43,3.32-1.06,5.55-3.18,6.79-5.36,1.95-3.45,1.42-7.08-1.18-7.06Z"/><path class="cls-32" d="m186.15,221.1c-2.57,0-11.72,1.46-11.47,3.15.4,1.01,1.93.59,3.25.43,0,0,0,0,0,0,.49-.06.96-.07,1.31.04-1.34,1.87-3.09,3.16-3.09,3.18-2.53,1.33-5.12,2.53-7.76,3.61-.58.8-.56,1.66-.09,2.45,1.54,2.59,7.94,4.32,13.47.17,2.59-1.94,5.33-3.68,7.61-8.25.75-1.49-1.59-4.78-3.23-4.78Z"/><path class="cls-32" d="m357.48,181.32c-3.05,1.1-6.15,2.15-9.25,3.08-7.45,2.22-15.24,4.09-22.99,4.22-13.26-.84-25.6-7.18-37.47-12.71-10.04-5.07-17.66,9.82-7.73,15.01,6.27,3.15,12.75,5.72,19.46,7.83,8.61,2.61,17.56,4.69,26.74,3.78,12.53-1.76,24.4-7.18,34.78-14.26,3.75-2.4.64-8.58-3.55-6.94Z"/><path class="cls-12" d="m356.45,181.69c-1.02.29-2.02.56-3.01.81-27.04,7.08-41.24.17-50.55-4.87-8.82-4.77-16.93-8.36-20.91-10.05-1.36-.58-2.24-.93-2.49-1.03-.02,0-.03-.02-.04-.02,0,0-.02,0-.03,0h0c.07.07,1.09,1.2,2.18,3.6,2.1,4.61,4.48,13.92,1,29.55,0,0,1.87.73,5.23,1.68.95.27,2,.55,3.18.84,1.33.33,2.8.67,4.39,1,.8.17,1.63.33,2.5.49,5.79,1.07,12.96,1.95,21.07,2.04,16.74.17,32.4-10.19,38.44-14.72,1.69-1.27,2.63-2.08,2.63-2.08-4.14-3.02-3.6-7.24-3.6-7.24Z"/><path class="cls-9" d="m302.89,177.64c21.76,20.39,50.55,4.87,50.55,4.87-27.04,7.08-41.24.17-50.55-4.87Z"/><path class="cls-32" d="m362.68,354.84h0c-.26-.07-.53-.13-.8-.19-2.09-.46-5-.78-7.87-1.38-4.03-.85-6.81-4.56-6.44-8.67l.99-11.1.68-7.65c.12-1.39-1-2.57-2.4-2.52l-12.89.47c-1.38.05-2.41,1.28-2.22,2.64l2.84,20.41c.16,1.17.28,2.35.34,3.53.13,2.46.05,4.94-.29,7.38-.12.87-.17,1.63-.18,2.27-.02,1.33,1.07,2.41,2.41,2.36l2.18-.08,27.03-.97c1.87-.07,2.89-2.2,1.79-3.7-1.1-1.5-2.95-2.26-5.16-2.8Z"/><path class="cls-21" d="m346.83,323.32l-12.89.47c-1.38.05-2.41,1.28-2.22,2.64l2.84,20.41c.16,1.17.28,2.35.34,3.53.13,2.46.05,4.94-.29,7.38-.12.87-.17,1.63-.18,2.27-.02,1.33,1.07,2.41,2.41,2.36l2.18-.08c3.63-1.51,6.38-3.36,6.58-4.09.49-1.87-4.93-5.77-6.65-8.32-1.73-2.55-3.08-13.96,0-13.96,2.26,0,7.15-1.59,9.6-2.44l.68-7.65c.12-1.39-1-2.57-2.4-2.52Z"/><path class="cls-37" d="m348.44,349.9c-2.05.27-6.71,1.14-13.53.47,0,0-2.2,3.74-1.34,9.11.13,1.43.9,3.03,2.56,2.94,0,0,30.29-1.09,30.29-1.09,1.57-.05,2.62-1.66,2.01-3.1-1.29-3.26-5.65-8.03-19.99-8.32Z"/><path class="cls-37" d="m368.43,358.22l-34.86,1.26c.17,1.06.5,2.08,1.06,2.99l31.78-1.15c1.54-.06,2.6-1.62,2.03-3.05,0-.02-.01-.03-.02-.05Z"/><path class="cls-33" d="m355.41,315.14c-.79-11.97-2.7-30.01-7.34-43.9h0c-2.1-6.28-4.76-11.71-8.12-15.36-11.85-12.85-30.24-16.57-40.66-19.16l-40.47,3.37s-17.5,2.31-16.12,4.75c9.33,16.54,21.09,27.35,36.11,28.22.27.02.55.03.83.04,10.02.48,26.26-.38,35.02,5.91,7.04,5.36,7.18,23.23,8.6,37.4.29,2.85.62,5.55,1.08,7.97.32,1.69.64,3.23.98,4.6,0,.01,0,.02,0,.03.91.35,1.83.64,2.75.89,12.26,3.3,27.9-1.9,27.9-1.9,0,0-.01-1.92-.14-5.15-.08-2.08-.21-4.71-.4-7.72Z"/><path class="cls-33" d="m299.28,236.72s15.11,6.79,25.32,13.44c11.65,7.59,23.29,20.88,23.46,21.08-2.1-6.28-4.76-11.71-8.12-15.36-11.85-12.85-30.24-16.57-40.66-19.16Z"/><path class="cls-18" d="m282.89,266.03l-3.26,7.07c10.02.48,26.26-.38,35.02,5.91,9.44,7.19,7.41,36.94,10.66,50.01.91.35,1.83.64,2.75.88h0s.64-39.14-8.51-51.35c-9.15-12.22-36.66-12.53-36.66-12.53Z"/><path class="cls-32" d="m271.32,411.64h0c-.28-.08-.57-.16-.86-.24-2.26-.58-5.43-1.04-8.54-1.82-4.37-1.09-3.48-.12-5.39-3.86l1.76-8.51,2.53-12.24c.16-1.32-14.12-2.69-17.69-3.01-.51-.05-.8-.07-.8-.07,0,.06.01.16.01.29,0,2.87-1.17,22.26-1.15,23.49.05,2.7-.14,5.39-.6,8.05-.16.94-.25,1.77-.28,2.48-.07,1.45,1.08,2.68,2.54,2.68h31.92c2.04,0,3.25-2.29,2.1-3.98-1.15-1.68-3.13-2.58-5.53-3.26Z"/><path class="cls-21" d="m243.11,381.96c-.27.07-.53.15-.79.22,0,2.87-1.17,22.26-1.15,23.49.05,2.7-.14,5.39-.6,8.05-.16.94-.25,1.77-.28,2.48-.07,1.45,1.08,2.68,2.54,2.68h1.51c.65-1.76.81-3.86,1.58-4.45,1.5-1.14,1.03-5.79-1.12-7.56-2.15-1.78-1.5-8.5,1.03-9.15l12.46-.5,2.53-12.24c.16-1.32-14.12-2.69-17.69-3.01Z"/><path class="cls-37" d="m255.96,405.69c-2.25.22-7.37.99-14.79-.02,0,0-2.54,4-1.82,9.9.09,1.56.86,3.35,2.68,3.31,0,0,33.12,0,33.12,0,1.71,0,2.92-1.71,2.32-3.31-1.29-3.61-5.85-8.99-21.5-9.87Z"/><path class="cls-37" d="m277.47,415.56h-38.11c.14,1.17.46,2.3,1.05,3.32h34.75c1.69,0,2.9-1.67,2.34-3.26,0-.02-.01-.04-.02-.06Z"/><path class="cls-33" d="m242.69,244.83c-1.57,17.89.74,30.36.44,61.28-.12,12.25-.65,27.4-1.99,46.92-.18,2.59-.37,5.26-.58,8.01-.06.83-.23,2.71-.45,5.02-.16,1.73-.53,4.23-.97,6.97-1.21,7.42-3,16.57-3,16.57,1.68,1.06,3.58,1.91,5.6,2.59,12.04,4.06,28.31,2.04,28.31,2.03,0-.02,1.75-10.29,2.98-19.49.38-2.85.71-5.6.93-7.91,1.65-17.46,4.13-43.39,5.2-52.01,2.06-16.68,4.88-52.5,3.9-78.03l-40.37,8.04Z"/><path class="cls-12" d="m295.4,203.21s0,0,0-.02c-.27-1.66-.47-3.22-.56-4.63-.04-.68-.09-1.35-.14-2.01-.31-3.78-.81-7.24-1.52-10.36-2-8.8-5.65-14.94-11.19-18.34-.79-.49-1.62-.91-2.49-1.29-.02,0-.03-.02-.04-.02,0,0-.02,0-.03,0h0c.04.13.7,2.47-1.11,3.78-2.16,1.57-8.43-.8-8.43-4.42,0,0-1.05.2-2.73.75-5.49,1.79-17.69,7.33-21.6,21.94-.39,1.45-.96,11.65-1.48,22.98h0c-.06,1.24-.11,2.48-.17,3.73-.65,14.53-1.2,29.54-1.2,29.54,41.05,6.86,56.59-8.11,56.59-8.11-.46-1.54-.83-3.05-1.15-4.53-2.27-10.66-1.24-19.85-2.73-28.98Z"/><path class="cls-32" d="m242.06,186.51c-9.27,9.34-18.59,15.01-27.03,20.13-6.63,4.02-13.3,8.28-20.48,11.27-2.99,1.24-6.06,2.38-9.11,3.46-4.28,1.39-2.78,8.13,1.64,7.62,12.52-1.08,25.76-3.74,36.51-10.42,8.63-5.36,19.2-11.02,25.48-17.46,5.91-6.05,11.63-15.73,14.5-22.13,4.41-10.31-12.43-6.23-21.51,7.54Z"/><path class="cls-12" d="m266.97,165.97c-28.15,1.74-46.4,31.6-53.14,38.27-5.46,5.4-18.48,12.37-23.88,15.15-1.5.77-2.41,1.21-2.41,1.21,3.26,3.06,2.16,8.12,2.16,8.12,1,.04,2.01.06,3.01.04,15.78-.2,37.13-5.56,51.36-17.21,3.69-3.02,6.9-6.47,9.41-10.36,8.98-13.92,13.44-25.69,15.3-31.47.79-2.46,1.11-3.84,1.11-3.84-.8,0-1.6,0-2.39.05-.17,0-.35.02-.52.03Z"/><path class="cls-18" d="m355.41,315.14c-10.76,5.09-26.08,2.58-32.16,1.28.29,2.85.62,5.55,1.08,7.97.32,1.69.64,3.24.98,4.6,0,.01,0,.02,0,.03.91.35,1.83.64,2.75.88,12.26,3.3,27.9-1.9,27.9-1.9,0,0-.01-1.92-.14-5.15-.08-2.08-.21-4.71-.41-7.72Z"/><path class="cls-9" d="m189.95,219.39c-1.5.77-2.41,1.21-2.41,1.21,3.26,3.06,2.16,8.12,2.16,8.12,1,.04,2.01.06,3.01.04.01-.11.76-6.41-2.76-9.38Z"/><path class="cls-12" d="m356.45,181.69c-1.02.29-2.02.56-3,.81v.12s-.86,4.78,3.97,8.39h0c1.69-1.27,2.63-2.08,2.63-2.08-4.14-3.02-3.6-7.24-3.6-7.24Z"/><path class="cls-12" d="m244.06,211.56c-.06,1.23-.11,2.48-.17,3.73,8.78-8.43,15.18-23.37,15.39-23.87-6.05,10.52-15.22,20.14-15.22,20.14,0,0,0,0,0,0Z"/><path class="cls-12" d="m293.17,186.19h0c.67,3.9,1.17,7.49,1.52,10.36v.02c.47,3.83.69,6.36.71,6.63,0,.02,0,.02,0,.02.8.17,1.63.33,2.5.49-2.47-10.07-4.74-17.57-4.74-17.57v.06Z"/><path class="cls-9" d="m279.45,166.54s-.02,0-.03,0c0,0,0,0,0,0,.04.13.7,2.47-1.11,3.78-2.17,1.57-8.44-.8-8.44-4.43-.8,0-1.6,0-2.39.05l-.52.03h0s-.94,13.66,8.59,16.07c9.65,2.44,14.16-10.26,14.17-10.99,0-.09-7.75-3.37-7.75-3.45-1.46-.62-2.36-.98-2.54-1.05Z"/><path class="cls-21" d="m375.37,173.95c-2.41,1.53-4.88,2.96-7.43,4.24-.05,0-2.09.47-4.37.48.64-1.06,3.07-2.54,2.25-3.8-.17-.16-.41-.18-.71-.09,0,.11-.03.24-.07.39-.33,1.28-2.28,2.94-2.33,3.62-.04.65,8.06,1.53,13.85,2.21,1.95-3.45,1.42-7.08-1.18-7.06Z"/><path class="cls-27" d="m177.94,224.68c.49-.06.95-.07,1.3.04-.23-.17-.62-.23-1.3-.04Z"/><path class="cls-21" d="m179.25,224.73c-1.34,1.87-3.09,3.16-3.09,3.18-2.53,1.33-5.12,2.53-7.76,3.61-.58.8,2.15,3.69,2.62,4.47,2.23-.55,6.96-4.83,8.39-9.96,0,0,.33-.92-.15-1.3Z"/><path class="cls-27" d="m179.24,224.72s0,0,0,0c0,0,0,0,0,0,0,0,0,0-.01,0Z"/><path class="cls-18" d="m241.15,353.04c-.18,2.59-.37,5.26-.58,8.01-.06.83-.23,2.71-.45,5.02-.16,1.73-.53,4.23-.97,6.97-1.21,7.42-3,16.57-3,16.57,1.68,1.06,3.58,1.91,5.6,2.59,11.34-34.59,1.39-86.07,1.39-86.07-.12,12.25-.65,27.4-1.99,46.92Z"/></g><path class="cls-18" d="m239.15,373.03c-1.21,7.42-3,16.57-3,16.57,11.74,7.39,33.91,4.63,33.91,4.62,0-.02,1.75-10.29,2.98-19.49-10.66.74-26.39-.79-33.88-1.71Z"/><g id="_2-2"><path class="cls-28" d="m168.69,227.49c-4.06,3.37-6.7,8.97-6.7,8.97,0,0,4.57.98,4.98,3.25,0,0,5.34-4.45,7.2-7.45,1.86-3,5.23-7.73,5.23-7.73,0,0-6.65-.4-10.71,2.97Z"/><path class="cls-28" d="m166.97,232.02c-.06.08-2.84.77-2.84.94-.89,1.29-1.83,2.55-2.81,3.77-7.44,9.09-16.81,17.26-27.49,22.13-7.54,3.44-15.73,5.25-24.37,4.58-3.11-.06-6.24-.3-9.33-.7-12.67-1.36-15.09,17.47-2.45,19.33,14.43,1.59,29.84-.25,42.45-7.98,1.08-.72,2.14-1.47,3.19-2.25,12.32-9.11,22.38-21.72,27.12-36.35.71-2.06-1.43-4.18-3.47-3.48Z"/><path class="cls-1" d="m133.83,258.87c-7.54,3.44-15.73,5.25-24.37,4.58-3.11-.06-6.24-.3-9.33-.7-12.67-1.36-15.09,17.47-2.45,19.33,14.43,1.59,29.84-.25,42.45-7.98,1.08-.72,2.14-1.47,3.19-2.25-3.7-1.94-7.91-9.82-9.49-12.99Z"/><path class="cls-31" d="m130.11,257.51c-5.57,2.23-9.05,5.4-15.62,4.44-6.43-.45-13.04-1.94-16.88-1.48.7,5.44,4.96,18.73,5.68,24.22,1.4.21,2.86.37,4.35.47,1.16.08,2.35-.02,3.53.13,17.03,2.17,29.16-9.67,29.16-9.67-8.33-4.08-10.22-18.1-10.22-18.1Z"/><path class="cls-28" d="m18.75,396.18c-7.85,2.23-17.53,3.68-17.53,3.68-3.79,7.95,2.04,12.61,2.04,12.61l3.61.18,14.72.74-2.01-12.18-.83-5.03Z"/><g class="cls-38"><path class="cls-7" d="m19.58,401.21l-.83-5.03c-7.85,2.23-17.53,3.68-17.53,3.68-3.79,7.95,2.04,12.61,2.04,12.61l3.61.18c-1.15-2.75-3.62-7.67-3.27-8.38.37-.75,12.01-2.48,15.98-3.05Z"/></g><path class="cls-28" d="m83.38,444.4l-3.51,18.2c1.12,1.02,2.25,1.7,3.35,2.14,5.57,2.19,10.5-1.98,10.5-1.98.76-2.57,1.8-5.77,2.8-8.76,1.41-4.21,2.75-8.01,3.14-9.11.08-.21.11-.32.11-.32h-.26s-16.13-.15-16.13-.15Z"/><path class="cls-1" d="m83.38,444.4l-3.51,18.2c1.12,1.02,2.25,1.7,3.35,2.14.79-2.5,1.16-10.9,2.6-10.76,1.37.13,8.53.04,10.7.01,1.41-4.21,2.75-8.01,3.14-9.11-.05-.11-.09-.21-.15-.32l-16.13-.15Z"/><path class="cls-18" d="m1.22,399.86s-4.88-1.36-8.93-.19c-1,.29-1.94.73-2.75,1.39l4.93,30.4c.24,1.48,1.87,2.31,3.18,1.6.02,0,.03-.02.05-.03,3-1.65,7.11-6.48,5.56-20.56,0,0-2.19-4.54-2.05-12.6Z"/><path class="cls-18" d="m114.68,472.52c-1.21-3.52-5.6-8.81-20.95-9.76,0,0-5.26,1.5-13.85-.15,0,0-2.36,4.97-1.86,9.51.12,1.12.42,2.21.97,3.2l33.41.37c1.62.02,2.82-1.57,2.3-3.11,0-.02-.01-.04-.02-.05Z"/><path class="cls-26" d="m114.68,472.52l-36.66-.4c.12,1.12.42,2.21.97,3.2l33.41.37c1.62.02,2.82-1.57,2.3-3.11l-.02-.05Z"/><path class="cls-37" d="m77.23,306.91c-8.14,2.74-14.57,10.21-12.79,21.23v-.05c3.12,8.93,3.75,17.24,2.36,24.8-3.64,19.73-21.4,32.36-44.48,39.3-2.58.78-5.22,1.48-7.92,2.12-1.45.34-2.92.66-4.4.94,0,0-.77,18.56,3.09,24.93.34.07,5.53-.59,12.97-1.92,17.17-3.07,46.3-9.71,55.1-19.15h0c1.72-1.8,3.32-3.68,4.78-5.63,11.13-14.74,15.29-33.49,16.68-52.23.48-6.5.63-12.99.63-19.31-2.44-14.34-15.62-18.54-26.01-15.04Z"/><path class="cls-35" d="m82.38,317.95l18.92,30.73.65-.36c.29-2.53.53-5.12.71-7.76.13-1.74.23-3.52.31-5.31.18-3.86.27-7.83.27-11.91l-6.48-1.82-14.38-3.57Z"/><path class="cls-35" d="m66.68,342.83c.21,5.3,1.13,7.61-1.09,14.95,0,0,13.63,11.64,13.03,43.68,0,0,4.87-4.1,7.31-7.97,6.92-10.96,7.28-11.81,11.12-24.46l-4.45-24.55-25.93-1.65Z"/><path class="cls-37" d="m89.25,315.62c-3.78-4.63-7.94-7.42-12.03-8.72-13.51-4.29-27.11,9.52-24,25.24.21,1.08.51,2.17.88,3.26,1.1,3.18,2.91,6.4,5.57,9.51,1.9,2.23,3.9,4.25,5.73,6.33.48.54.94,1.09,1.39,1.64,10.64,13.1,16.58,26.61,19.13,40.59,2.64,14.39-2.8,28.36-6.88,43.62-.53,1.99-1.04,4-1.5,6.03-.32,1.39-.65,2.77-.99,4.16,0,0,18.86,5.37,24.35,2.92.58-1.23.95-3.32,1.51-4.53.35-.77.7-1.53,1.03-2.29,7.78-17.5,11.98-33.2,11.98-49.55s-4.07-32.86-12.81-52.6c-3.54-8-7.96-16.49-13.36-25.63Z"/><path class="cls-31" d="m107.25,279.94c-1.66-5.4-9.58-19.28-11.2-19.88-4.15-1.71-9.25-2.37-14.19-1.69-7.41,1.02-14.45,5.06-17.32,13.15-2.37,3.83-4.85,13.45-6.83,23.19-.13.64-.26,1.28-.39,1.92-.15.75-.29,1.5-.43,2.24-.26,1.39-.51,2.76-.75,4.1-.81,4.62-1.46,8.87-1.87,12.07-.14,1.07-.25,2.02-.33,2.83-.2,1.97-.22,3.1-.03,3.03,0,0,17.4,8.95,49.31,2.54,0,0,0-1.2-.18-3.69-.17-2.4-.52-6-1.19-10.88-.06-.46-.13-.92-.2-1.4-.09-.87-.12-1.71-.09-2.53.28-10.04,8.27-16.58,5.68-25.01Z"/><path class="cls-30" d="m64.54,271.52c-2.37,3.83-4.85,13.45-6.83,23.19-.13.64-.26,1.28-.39,1.92-.15.75-.29,1.5-.43,2.24-.26,1.39-.51,2.76-.75,4.1,5.27-4.37,15.57-13.14,22.37-20.37,7.18-7.63,4.88-19.1,3.35-24.23-7.41,1.02-14.45,5.06-17.32,13.15Z"/><path class="cls-28" d="m31.26,333.54c-.61-1.64-6.78-3.25-8.37-2.45-4.99,2.5-5.99,8.2-6.07,9.07-.6.95-4.59,12.05-.79,9.41,1-2.2,1.47-4.47,2.85-6.45,0,0,0,0,0,0,0,0,0,0,0,0-.53,1.1-3.77,13.86-.17,10.51.7-2.96,1.72-5.84,3.07-8.56.01,0,0,0,.02,0-.15,1.19-3.02,13.85.23,10.24.49-3.15,1.25-6.25,2.17-9.3.02,0,.02,0,.05,0,.19,1.06.16,11.32,2.02,9.35.28-.29.41-.69.41-1.09-.03-2.88.06-5.75.3-8.61.02,0,.69-2.49,1.97-4.59.91,1.06.71,4.68,2.23,4.51,1.56-.98.98-5.07.55-6.61-.09-.8.11-3.9-.46-5.43Z"/><path class="cls-36" d="m77.55,443.14c-.32,1.39-.65,2.77-.99,4.16,0,0,18.86,5.37,24.35,2.92.58-1.23.95-3.32,1.51-4.53.35-.77.69-1.53,1.03-2.29-6.26-.76-16.69-2.51-24.39-6.3-.53,1.99-1.04,4-1.5,6.03Z"/><path class="cls-36" d="m14.39,394.32c-1.45.34-2.92.66-4.4.94,0,0-.77,18.56,3.09,24.93.34.07,5.53-.59,12.97-1.92-1.48-6.54-3.74-17.9-3.73-26.07-2.58.78-5.22,1.48-7.92,2.12Z"/><path class="cls-28" d="m70.56,260.79c-12.45,6.86-23.64,16.53-30.97,28.85-.64,1.15-1.27,2.31-1.89,3.47-6.57,12.34-11.67,25.33-15.01,38.89-1.33,4.91,6.18,7.43,8.08,2.69,2.64-6.21,5.64-12.34,8.85-18.27,2.87-5.46,5.63-10.24,8.56-14.49,7.43-10.79,16-18.24,30.48-25.04,10.91-5.4,2.72-21.63-8.1-16.1Z"/><path class="cls-1" d="m70.56,260.79c-12.45,6.86-23.64,16.53-30.97,28.85-.64,1.15-1.27,2.31-1.89,3.47,2.66,2.43,7.63,6.85,10.47,8.82,7.43-10.79,16-18.24,30.48-25.04,10.91-5.4,2.72-21.63-8.1-16.1Z"/><path class="cls-31" d="m57.48,263.15c-15.41,9.18-22.46,21.72-22.46,21.72,0,0,4.68,3.58,5.94,4.82,0,0,5.48,5.23,12.38,10.64,0,0,3.79-4.03,5.23-5.03,4.15-2.89,9.6-11.38,16.03-12.99,6.43-1.61,13.46-13.07,7.68-24,0,0-11.56-3.05-24.79,4.83Z"/><path class="cls-30" d="m77.95,258.94s11.97,17.06,22.43,2.99c8.47-11.38-22.43-2.99-22.43-2.99Z"/><path class="cls-30" d="m107.64,285.15c1.16.08,2.34.12,3.53.13-1.1-3.18-3.27-8.26-7-12.37.1.15,3.21,5.16,3.47,12.24Z"/></g><g id="_1-2"><path class="cls-25" d="m437.46,152.6c-3.81,10.13-5.46,11.79-16.28,15.79-12.23,3.83-25.63,3.83-38.38,3.25-5.34-.04-5,7.08.2,7.28,14.19,2.86,28.93,4.42,43.23.96,15-4.8,11.58-9.23,16.68-23.06,2.96-9.39-2.51-13.59-5.45-4.23Z"/><path class="cls-18" d="m451.74,146.39c4.6-13.97-6.21-11.57-6.21-11.57,0,0-1.08.28-2.63,1.45-1.26.95-2.9,2.48-4.68,4.88-.14.19-.28.38-.42.57-1.36,1.92-2.79,4.34-4.19,7.41-.62,1.36-1.29,2.62-2,3.78h0c-5.75,9.42-14,12.44-19.54,13.68-4.85,1.09-16.85,1.55-23.24,3.31-1.79.49-3.14,1.09-3.77,1.84,0,0-1.93,3.56-1.07,7.35.2.9,1.41,1.89,3.31,2.87,6.11,3.17,19.35,6.29,28.84,6.1,8.42-.17,18.52-3.12,26.25-9.95.11-.1.22-.2.33-.29.37-.33.74-.68,1.09-1.03,1.9-1.87,3.62-3.99,5.11-6.39.92-1.48,1.75-3.07,2.47-4.77,2.69-6.32,2.29-12.5.83-17.65-.15-.54-.67-1.08-.49-1.6Z"/><path class="cls-18" d="m412.08,166.6c-4.85,1.09-16.85,1.55-23.24,3.31,0,0,19.45,2.83,28.29-1.72,8.84-4.54,13.2-8.62,14.48-15.27-5.75,9.42-14,12.44-19.54,13.68Z"/><path class="cls-24" d="m442.41,178.12c.11-.1.22-.2.33-.29.37-.33.74-.68,1.09-1.03,1.9-1.87,3.62-3.99,5.11-6.39.92-1.48,1.75-3.07,2.47-4.77,2.69-6.32,2.29-12.5.83-17.65-.15-.54-.32-1.08-.49-1.6-.68-2.04-.43-3.48.27-4.5-1.85,2.03-3.67,4.12-4.49,5.23-8.19.38-10.69,20.88-5.12,30.99Z"/><path class="cls-18" d="m457.03,136.75c-.6.45-2.38,2.28-4.27,4.33,1.94-1.63,5.16-1.66,5.16-1.66,0,0,.66-3.84-.89-2.67Z"/><path class="cls-18" d="m452.02,141.89c.25-.28.5-.55.75-.82-.28.24-.54.51-.75.82Z"/><path class="cls-34" d="m559.18,331.86c-.74-.94-8.55-10-9.21-11.01l-10.19-14.49-12.33,12.33,15.51,14.68,4.21,3.98c2.05,1.94,2.42,5.06.91,7.44-3.13,5.46-8.97,8.88-9,14.83.21,1.82,2.38,2.67,3.79,1.51l24.65-20.25s-.02-.04-.02-.06c-.77-1.71-6.76-6.59-8.31-8.96Z"/><path class="cls-25" d="m559.18,331.86c-.74-.94-8.55-10-9.21-11.01l-10.19-14.49-12.33,12.33,15.51,14.68c1.99-.93,5.52-2.61,6.74-3.46,1.59-1.1,6.74,9.26,17.79,10.91-.77-1.71-6.76-6.59-8.31-8.96Z"/><path class="cls-16" d="m559.18,331.86c-5.46,6.43-10.32,8.48-10.32,8.48-10.98,10.03-11.08,16.59-9.84,20.04.54,1.47,2.39,1.94,3.6.95l24.89-20.45c-.18-1.07-.62-2.07-1.2-2.99-2.36-3.72-7.14-6.03-7.14-6.03Z"/><path class="cls-37" d="m539,360.33c.51,1.5,2.39,2.01,3.62,1l24.89-20.45c-.18-1.07-.62-2.07-1.2-2.99l-27.31,22.44Z"/><path class="cls-34" d="m471.16,348.26c.12-2.34.36-6.24.46-7.13l.34-19.35-16.2,1.72,2.49,20.09.37,2.96c.34,2.73-1.31,5.32-3.93,6.17-5.75,2.18-12.28,1.12-16,5.59-.97,1.51.13,3.49,1.92,3.49l31.17.05c.53-1.66-.99-9.2-.69-11.98,0-.28.03-.87.07-1.62Z"/><path class="cls-25" d="m458.25,343.59c3.16,1.48,8.86,4.32,12.91,4.67.12-2.34.36-6.24.46-7.13l.34-19.35-16.2,1.72,2.49,20.09Z"/><path class="cls-16" d="m458.04,349.86c-14.51.74-18.66,5.62-19.86,8.99-.51,1.44.6,2.95,2.13,2.95l31.47.05c.53-.92.82-1.95.95-3,.53-4.27-1.64-8.98-1.64-8.98-8.12,1.46-13.05-.02-13.05-.02Z"/><path class="cls-37" d="m440.3,361.8l31.47.05c.53-.92.82-1.95.95-3l-34.53-.05c-.55,1.45.56,3,2.11,3Z"/><path class="cls-37" d="m546.33,293.22c-5.31-8.72-11.98-22.04-17.82-37.72-16.41-44.09-24.22-56.88-24.22-56.88,0,0-44.75-17.35-52.92-1.11-4.42,13.95-6.99,31.19-8.22,48.79-1.7,24.29-.84,49.27,1.22,67.29.31,2.67.64,5.18.99,7.52,0,.02,0,.04,0,.07.38,2.8.63,4.36.64,4.42,0,0,1.63,12.47,1.63,12.47,3.35,1.11,7.06,1.95,10.87,2.45.03,0,.05,0,.08.01,6.58.86,13.44.72,19.15-.7,1.21-.3,2.37-.66,3.46-1.08-1.07-3.69-3.55-20.74-4.22-25.92-.01-.1-.03-.21-.04-.32-.01-.08-.02-.16-.03-.24-1.47-11.67-2.01-24.78-1.86-37.08.18-16.5,1.58-31.54,3.57-39.68,0-.02.01-.05.02-.07.55-2.26,1.16-3.98,1.79-5.05,0,0,0-.01.01-.02,0,0,0-.02.01-.02,0,0,0,0,0,0s0,0,0,0c0,0,0,0,0,0,.25.68,16.56,44.24,34.04,80.14,1.29,2.66,2.59,5.22,3.89,7.64.8,1.5,9.78,17.69,10.58,19.07,0,0,6.79-3.06,14.28-6.48.89-.4,1.78-.82,2.67-1.22,5.88-2.69,10.85-9.08,15.41-16.95,0,0-8.96-10.45-10.83-12.98-1.25-1.69-2.67-3.82-4.2-6.33Z"/><path class="cls-35" d="m444.37,313.58c.31,2.67.64,5.18.99,7.52,0,.02,0,.04,0,.07.38,2.8.63,4.36.64,4.42,0,0,1.63,12.47,1.63,12.47,3.35,1.11,7.06,1.95,10.87,2.45-6.57-16.54-13.71-72.4-15.36-94.21-1.7,24.29-.84,49.27,1.22,67.29Z"/><path class="cls-18" d="m497.75,173.96c-.32-1.36-.95-2.69-1.67-3.97-.49-.86-1.03-1.7-1.56-2.5-.81-1.66-1.65-3.32-2.51-4.95-9.28-17.6-21.15-32.53-34.09-32.85-.19,0-.38,0-.57,0-.87,0-1.76.08-2.64.22-1.33,4.39-6.77,14.55-9.18,4.91-.39,1.55-1.64,3.7-1.76,6.27-.1,2.19-4.87,14.88.05,35.69.74,3.15,3.32,14.57,5.02,22.13.91,4.04,1.57,6.98,1.57,6.98,16.61,1.26,42.35,2.28,53.87-7.29.75-1.37-3.82-15.83-5.74-22-.43-1.38-.73-2.34-.8-2.65Z"/><path class="cls-24" d="m497.75,173.96c-.32-1.36-.95-2.69-1.67-3.97,0,0,.96,12.26.16,18.08-.8,5.82-6.84,8.06-24.55,10.88-10.53,1.67-18.27.88-22.83-.03.91,4.04,1.57,6.98,1.57,6.98,16.61,1.26,42.35,2.28,53.87-7.29.75-1.37-3.82-15.83-5.74-22-.43-1.38-.73-2.34-.8-2.65Z"/><path class="cls-18" d="m463.84,130.46c.19,0-.19,0,0,0h0Z"/><path class="cls-24" d="m496.08,169.99c-.49-.86-1.03-1.7-1.56-2.5-.81-1.66-1.65-3.32-2.51-4.95-9.28-17.6-15.23-31.77-28.17-32.09-.6,3.35-5.6,11.59.64,19.49,7.16,9.06,21.15,11.72,27.89,20.2,1.23,1.54,3.51,4.67,6.19,6.46-.43-1.38-.73-2.34-.8-2.65-.32-1.36-.95-2.69-1.67-3.97Z"/><path class="cls-35" d="m476.95,312.5c-.01-.08-.02-.16-.03-.24-1.47-11.67-2.01-24.78-1.86-37.08,0-1.4,0-2.78,0-4.15.14-19.09,2.05-29.92,3.56-35.53,0-.02.01-.05.02-.07.89-3.27,1.63-4.75,1.79-5.05,0,0,0-.01.01-.02,0-.01,0-.02.01-.02,0,0,0,0,0,0,0,0,0,0,0,0,0,0-4.73-1.62-7.5-3.44,0,0-6.11,62.01,4.78,112.93,1.21-.3,2.37-.66,3.46-1.08-1.07-3.69-3.55-20.74-4.22-25.92-.01-.1-.03-.21-.04-.32Z"/><path class="cls-25" d="m504.05,154.92c-8.96-8.71-19.22-15.97-29.55-22.92-8.23-5.2-16.05,6.99-7.94,12.31,6.09,3.84,12.71,8.07,18.7,12.06,3.1,2.09,6.69,4.56,9.65,6.81,4.54,3.62,8.46,8.28,12.05,12.98,2.62,3.49,5.14,7.14,7.5,10.84,1.63,2.33,2.98,6.63,6.63,5.3,5.36-2.64-.46-9.34-1.55-13.2-4.08-8.65-8.85-17.14-15.48-24.19Z"/><path class="cls-34" d="m522.91,186.73s-2.09,1.85-2.92,2.24c-.86.4-3.83.89-3.83.89,0,0-.63,3.33-.75,4.06-.48,1.23-2.49,5.6-.81,6.15,1.45.31,1.59-3.28,2.51-4.23,1.36,1.85,2.06,4.09,2.08,4.09.23,2.75.28,5.53.18,8.31-.06.89,1.61.94,1.75.03.5-2.71.86-5.43,1.05-8.15.02,0,.03,0,.05,0,.96,2.74,1.74,5.53,2.23,8.38,3.45,3.33.57-8.39.41-9.36,0,0,.01,0,.02-.01,1.44,2.42,2.51,5,3.23,7.67,3.87,3-.2-8.53-.77-9.43,0,0,.02-.02.03-.02,1.47,1.74,2.66,3.65,3.72,5.61,4.07,2.29-1.05-6.94-1.65-7.74-.32-1.02-6.54-8.48-6.54-8.48Z"/><path class="cls-18" d="m485.2,132.41c-11.89-5.7-22.29-4.56-27.3-3.42-2.04.46-.1,2.47-.1,2.47.38,5.28,1.96,6.25,3.49,9.59,3.86,8.4,8.54,11.77,19.34,16.6,7.66,3.42,11.8,8.86,15.45,12.34,3.55,3.4,5.76,6.6,7.77,9.17,2.7,3.47,5.92,5.9,8.26,7.32,1.56.95,2.73,1.45,3.08,1.51,3.65.66,6.66-4.02,6.66-4.02.7-1.54.81-3.52.43-5.79-2.31-13.85-22.72-38.89-37.08-45.78Z"/><path class="cls-24" d="m385.08,171.75s-1.93,3.56-1.07,7.35c.2.9,1.41,1.89,3.31,2.87-2.03-5.83,1.53-12.05,1.53-12.05-1.79.49-3.14,1.09-3.77,1.84Z"/><path class="cls-24" d="m512.1,186.49c1.56.95,2.73,1.45,3.08,1.51,3.65.66,6.66-4.02,6.66-4.02.7-1.54.81-3.52.43-5.79-4.02,6.74-9.74,7.84-10.17,8.29Z"/><path class="cls-34" d="m371.93,171.85c-5.09,1.36-8.62,7.02-8.62,7.02,0,0,5.81-.01,9.33.21,3.52.22,10.12-.17,10.12-.17-.75-5.52,1.24-7.2,1.24-7.2,0,0-6.97-1.22-12.07.14Z"/></g><path class="cls-32" d="m282.07,123.78c-7.35-.72-11.11,2.71-11.83,6.26,0,0-9.97,2.87-10.43,10.67,0,0-.03,6.59,5.26,11.05,0,0-.7,7.13,5.26,8.71l-1.3,6.77s2.77,10.43,12.41,9.77c0,0,.75-.1,1.71-.7,1.15-.72,2.61-2.18,3.46-5.06.34-1.17.59-2.58.66-4.26,0,0,8.46,1.32,12.12-8.89,0,0,2.44-7.2.85-14.42,0,0,4.13-3.96,4.01-7.37-.12-3.41-14.82-11.8-22.17-12.52Z"/><path class="cls-21" d="m275.99,162.09c.08.19,2.45,5.78,10.63,9.15.34-1.17.59-2.58.66-4.26,0,0-7.69-.3-11.29-4.88Z"/><path class="cls-21" d="m269.08,151.7s1.56.66,1.38,1.7c0,0-1.73.29-1.96,2.45,0,0,1.85-1.61,2.6-1.21.75.4.87,1.44.61,2.08,0,0,1.21-2.28.06-4.01-1.15-1.73-2.68-1.01-2.68-1.01Z"/><path class="cls-13" d="m282.08,123.78c-7.36-.72-11.11,2.71-11.83,6.26,0,0-9.97,2.87-10.43,10.67,0,0-.03,6.6,5.26,11.05,0,0,4.74-6.73,8.91-.25,0,0,4.63-2.04,3.49-10.99,0,0,7.52,6.85,14.36,5.24,0,0-.5-3.08-2.03-4.58,0,0,5.15,2.69,9.68,1.11,0,0,.08,1.02.75,1.38,0,0,2.67-2.56,3.65-5.33.24-.68.38-1.37.36-2.04-.12-3.41-14.82-11.8-22.17-12.52Z"/><path class="cls-6" d="m282.08,123.78c-7.36-.72-11.11,2.71-11.83,6.26,0,0-9.97,2.87-10.43,10.67,0,0-.03,6.6,5.26,11.05,0,0,.75-9.7,6.27-12.56,0,0-3.71-.38-3.54-3.21.17-2.83,5.37-1.95,5.37-1.95,0,0,1.76-6.51,6.65-6.21,0,0-1.97,3.28-1.67,4.69,0,0,6.54-2.95,9.8-.65,2.9,2.05,12.02,5.88,15.94,6.48.24-.68.38-1.37.36-2.04-.12-3.41-14.82-11.8-22.17-12.52Z"/><path class="cls-36" d="m84.8,344.8c-7.48-11.4-14.23-19.68-14.3-19.76l-.78.63c.07.08,6.79,8.32,14.24,19.68,12.44,18.97,17.31,31.9,19.2,39.41,4.13,16.37-8.04,56.48-8.16,56.88l.96.29c.03-.1,3.13-10.27,5.68-22.36,3.43-16.27,4.27-28.06,2.5-35.06-1.91-7.59-6.82-20.64-19.34-39.73Z"/><path class="cls-36" d="m82.69,325.79l-.84.54s1.45,2.29,2.09,5.31c.85,3.97,0,7.31-2.53,9.92l.72.7c2.75-2.83,3.71-6.59,2.79-10.86-.69-3.19-2.16-5.51-2.22-5.61Z"/><path class="cls-36" d="m62.26,335.22c-2.09.93-5.72.88-8.15.19,1.1,3.18,2.91,6.4,5.57,9.51,1.9,2.23,3.9,4.25,5.73,6.33,0,0,0,0,0,0,3.15-2.23,2.63-5.91,2.63-5.91l-5.78-10.12Z"/><path class="cls-36" d="m25.21,407.55l.25.97c.13-.03,12.84-3.26,26.12-8.22,17.92-6.7,28.29-13.21,30.8-19.35l-.93-.38c-5.76,14.09-55.73,26.85-56.23,26.98Z"/><path class="cls-30" d="m101.87,308.88c-.06-.45-.13-.92-.2-1.4-.09-.87-.12-1.71-.1-2.53-.38-.4-.6-.63-.6-.63,0,0-2.38,9.53-24.2,12.1-15.23,1.79-20.36-.08-22.51-1.37-.14,1.07-.25,2.02-.33,2.83-.2,1.97-.22,3.1-.03,3.03,0,0,17.4,8.95,49.31,2.54,0,0,0-1.2-.18-3.69-.17-2.4-.52-6-1.19-10.88Z"/><path class="cls-12" d="m298.13,232.19c-5.5,6.58-35.8,11.36-41.37,9.04-5.57-2.32,5.25-.88,8.65-4.43,3.4-3.56-7.03-2.89-13.84-2.73-6.81.16-7.69-18.77-7.69-18.77-.65,14.53-1.2,29.54-1.2,29.54,41.05,6.86,56.59-8.11,56.59-8.11-.46-1.54-.83-3.05-1.15-4.53h0Z"/><path class="cls-18" d="m258.89,246.53c-.03.12-3.07,12.05-2.54,26.4.46,12.49.99,81.12-3.64,101.16l.78.18c4.64-20.12,4.12-88.86,3.66-101.37-.53-14.23,2.49-26.05,2.52-26.17l-.78-.2Z"/><path class="cls-18" d="m288.55,243.53c.04.78.09,5.8-.59,10.78-.83,6.11-2.44,9.92-4.66,11.11.07-2.56.31-12.38-.02-19.63l-.8.04c.38,8.32,0,20.08,0,20.19l-.02.57.54-.18c6.93-2.27,6.35-22.72,6.34-22.92l-.8.04Z"/><path class="cls-35" d="m475.92,206.59l3.93,23.13c-9.33-1.88-9.25-22.81-9.24-23.02h-1s-.04,5.75,1.23,11.52c1.71,7.79,5.02,12.14,9.58,12.6l.65.07-4.16-24.46-.99.17Z"/><path class="cls-35" d="m536.68,287.05c-8.75-16.59-16.35-33.36-18.91-41.74-5.3-17.37-17.48-43.71-17.6-43.98l-.91.42c.12.26,12.27,26.55,17.55,43.85,5.23,17.12,31.98,69.74,39.69,73.54l.44-.9c-3.18-1.57-10.94-13.52-20.27-31.2Z"/><path class="cls-35" d="m480.47,230.33c.25.68,16.56,44.24,34.04,80.14,1.29,2.66,2.59,5.22,3.89,7.64.8,1.5,9.78,17.69,10.58,19.07,0,0,6.79-3.06,14.28-6.48-5.49-8.46-12.77-18.73-17.36-24.09-6.4-7.48-44.99-75.38-45.44-76.29Z"/><path class="cls-18" d="m469.04,134.82c22.1,6.12,35.33,23.99,35.33,23.99-14.78-25.06-35.33-23.99-35.33-23.99Z"/><path class="cls-18" d="m263.45,256.18c-3.06,1.45-6,1.47-6.03,1.47v.8c.13,0,3.12-.02,6.34-1.53,2.99-1.41,6.72-4.42,7.52-10.78l-.8-.1c-.6,4.81-2.97,8.22-7.04,10.14Z"/><path class="cls-34" d="m466.67,108.51c-.02.09-.04.16-.05.18-.22.74-.48,1.43-.73,2.04-.12.31-.25.6-.37.86-.34.74-.65,1.32-.85,1.69-.03.05-.06.1-.08.14-.13.22-.2.33-.2.33,0,.01.01.01.01.02.25.32.45.65.62.97,1.28,2.46.08,4.4.08,4.4-2.35,4.08-6.73,3.84-6.73,3.84,0,0,1.13,4.04,1.23,5.13.01.12.02.3,0,.54,0,.31-.03.7-.11,1.15-.17,1.08-.57,2.48-1.45,3.81-1.06,1.62-2.84,3.12-5.77,3.77-.15.05-.32.08-.48.11-.47.08-.91.15-1.33.2-1.61.21-2.84.19-3.79.04-.87-.13-1.49-.37-1.95-.64-.87-.51-1.09-1.12-1.14-1.28-.01-.03-.01-.04-.01-.04l-.94-5.83h-.01c-.2,0-6.55.04-8.9-5.17-.28-.6-.53-1.26-.76-1.95-.55-1.66-.98-3.51-1.31-5.27-.48-2.55-.75-4.93-.89-6.31-.07-.77-.11-1.23-.11-1.23-.18-.54-.44-1.35-.75-2.34-.32-1.03-.89-2.93-1.06-3.6-.82-3.35.93-7.03,1.17-7.52.48-.99,1.06-1.83,1.69-2.56.8-.95,1.67-1.69,2.5-2.27.01,0,.01,0,.02,0,.85-.43,1.79-.84,2.82-1.25,2.84-1.12,5.45-1.48,7.75-1.4.08,0,.16,0,.24.01.1.01.19.01.28.02.11,0,.23.02.35.03.3.03.62.06.94.1.17.02.34.06.51.09.11.02.22.04.33.06.46.09.91.18,1.33.3,0,.01,0,.01.02,0,.63.17,1.21.37,1.76.58.2.08.39.15.58.23.85.36,1.59.74,2.2,1.1.19.11.36.22.52.32.67.43,1.12.78,1.34.96.02.02.04.03.05.05.07.05.1.08.1.08,0,0,10.06,2.15,11.73,7.87.06.19.1.38.14.58.03.19.07.38.09.58.01.13.03.25.04.38.22,2.17-.13,4.3-.67,6.12Z"/><path class="cls-25" d="m466.67,108.51c-.02.09-.04.16-.05.18-.22.74-.48,1.43-.73,2.04-.12.31-.25.6-.37.86-.34.74-.65,1.32-.85,1.69-.03.05-.06.1-.08.14-.13.22-.2.33-.2.33,0,.01.01.01.01.02,0,.12-1.37-.13-2.96-.07-.25.01-1.32-.12-2.68-.47,0,.01,0,0,0,0-.35-.09-.73-.2-1.11-.32-.27-.09-.54-.18-.81-.28-3.1-1.15-3.79-2.53-6.02-3.8-5.51-3.13-12.38-.97-14.29-.37-2.62.83-4.58,1.98-5.76,2.78-.07-.77-.11-1.23-.11-1.23-.18-.54-.44-1.35-.75-2.34-.32-1.03-.89-2.93-1.06-3.6-.82-3.35.93-7.03,1.17-7.52.48-.99,1.06-1.83,1.69-2.56,2-2.03,4.32-3.07,5.34-3.53,3.18-1.43,6.1-1.49,7.75-1.4.08,0,.16,0,.24.01.1.01.19.01.28.02.11,0,.23.02.35.03,1.12.09,2.16.29,3.11.54,0,.01,0,.01.02,0,.62.18,1.21.37,1.76.58.2.08.39.15.58.23.85.36,1.59.74,2.2,1.1.19.11.36.22.52.32.67.43,1.12.78,1.34.96.02.02.04.03.05.05.07.05.1.08.1.08,0,0,10.06,2.15,11.73,7.87.06.19.1.38.14.58.03.19.07.38.09.58.01.13.03.25.04.38.22,2.17-.13,4.3-.67,6.12Z"/><path class="cls-25" d="m442.63,129.94l.95,5.83c2.55-1.29,6.43-4.02,7.76-9.04,0,0-2.18,2.63-8.71,3.21Z"/><path class="cls-25" d="m462.13,115.31c-4.39-1.01-4.68,4-4.68,4,0,0,.52-.92,1.73-1.83,1.21-.9,2.06,1.27,2.06,1.27.22-1.86-1.46-2.18-1.46-2.18.56-1.05,2.36-1.26,2.36-1.26Z"/><path class="cls-4" d="m466.67,108.51c-.02.09-.04.16-.05.18-.22.74-.48,1.43-.73,2.04-.12.31-.25.6-.37.86-.34.74-.65,1.32-.85,1.69-.03.05-.06.1-.08.14-.13.22-.2.33-.2.33,0,0-1.64-1.32-5.63-.52,0,.01,0,0,0,0-.28.06-.57.13-.88.21-.06-.16-.14-.34-.23-.53-.72-1.66-2.22-4.28-5.11-5.78-.84-.44-1.77-.77-6.22-1.1-11.39-.86-13.37.69-14.18,1.53-.84.86-1.25,1.81-1.48,2.45-.18-.54-.44-1.35-.75-2.34-.32-1.03-.89-2.93-1.06-3.6-.82-3.35.93-7.03,1.17-7.52.48-.99,1.06-1.83,1.69-2.56.8-.95,1.67-1.69,2.5-2.27.01,0,.01,0,.02,0,1.25-.87,2.39-1.37,2.99-1.61,1.43-.61,3.7-1.29,7.58-1.04.08,0,.16,0,.24.01.09.01.19.01.28.02.11,0,.23.02.35.03.3.03.62.06.94.1,7.01.84,17.96,4.3,20.27,11.06.08.19.15.38.2.57.06.19.1.38.14.58.03.19.07.38.09.58.01.13.03.25.04.38.2,2.53-.47,5.37-.67,6.12Z"/><path class="cls-14" d="m105.08,249.31l-11.6-1.37-7.12,12.6,12.29,2.88c.91.21,1.86.17,2.73-.17,5.47-2.15,3.48-13.51,3.69-13.94Z"/><path class="cls-14" d="m91.08,217.97c-1.98-.34-4.01-.58-6.02-.5-1.08.04-2.15.18-3.21.44-11.8,2.88-15.82,10.71-18.5,20.22-2.02,7.18-3.27,15.31-6.5,22.98.09-.04.15-.06.16-.06-.07.23-5.88,19.48,10.46,26.92,1.51.01,3.13-.01,4.87-.09.03,0,.06,0,.1,0,6.15-.28,4.6-4.28,5.51-10.37,1.11-7.45-.21-16.02,1.5-16.45l18.47-11.44,11.34-13.4c1.01-2.04-.9-8.47-2.32-10.18-3.9-4.69-9.89-7.03-15.85-8.06Z"/><path class="cls-14" d="m83.79,237.4s-6.2-3.81-10.99,3.45c-1.74,2.63-2.53,5.78-2.31,8.93.26,3.78.15,9.77-2.91,10.86-5.56,1.98-3.58,20.64,4.77,27.23.03,0,.06,0,.1,0,6.15-.28,4.6-5.78,5.51-11.87,1.11-7.45,2.79-16.02,4.49-16.45l15.48-9.94c-3.97-6.21-9.12-11.31-14.13-12.21Z"/><path class="cls-28" d="m106.58,229.4c-.15.23-.72.44-2.71-.13-3.15-.9-5.52-4.31-9.12-.78-.08.08-.16.16-.25.24-1.14,1.09-2.1,2.34-2.86,3.73-.62,1.13-1.27,2.23-2.08,3.22-.63.76-1.38,1.46-2.32,1.77-.95.31-3.24.04-3.46-.04-1.14-.41-3.99-1.07-5.47,1.91-1.49,3.01,2.53,5.07,4.23,5.78.49.21.88.6,1.08,1.11.63,1.55,3.34,5.4,1.81,8.55-1.03,2.1-2.1,3.84-2.93,5.22-1.56,2.58,13.41,5.74,13.6,3.08.27-3.85.88-9.15,2.21-9.46,4.82-1.13,8.4-1.07,10.02-6.35.35-1.13.6-2.52.76-4.21.08-.91.14-1.91.17-3.01.1-4.07-.64-7.01-1.76-9.14-.28-.54-.59-1.03-.92-1.47Z"/><path class="cls-1" d="m103.87,229.27c-3.15-.9-5.52-4.31-9.12-.78-.08.08-.16.16-.25.24-1.14,1.09-2.1,2.34-2.86,3.73-.62,1.13-1.27,2.23-2.08,3.22-.63.76-1.38,1.46-2.32,1.77-.95.31-3.24.04-3.46-.04,7.15,2.85,8.24-5.24,12.54-8.31,1.74-1.24,4.22.41,7.31,1.38,1.94.61,3.17.73,3.87.41-.28-.54-.59-1.03-.92-1.47-.15.23-.72.44-2.71-.13Z"/><path class="cls-1" d="m79.8,239.66s1.46-.31,1.83.08c.37.39-.66.34-.75,1.2,0,0,.6-.65,1.37-.47.7.17,1.01,1.87,1.01,1.87-.39-5.84-3.46-2.67-3.46-2.67Z"/><g class="cls-38"><path class="cls-7" d="m91.96,252.52c-1.63-1.08,4.6,8.4,4.72,6.45.13-2.26,1.56-5.02,1.56-5.02l.07-.37s-4.72.02-6.35-1.06Z"/></g><path class="cls-15" d="m87.26,227c-1.33,4.03-6.3,6.22-6.3,6.22,4.66.95,7.97-2.63,10.55-7.11,2.58-4.48,7.3-2.47,7.3-2.47-5.66-4.7-10.57.37-11.55,3.35Z"/><path class="cls-15" d="m63.36,238.13c6.44-16.67,19.99-19.8,21.71-20.65-1.08.04-2.15.18-3.21.44-11.8,2.88-15.82,10.71-18.5,20.22Z"/></g></svg>