<?xml version="1.0" encoding="UTF-8"?><svg id="Layer_1" xmlns="http://www.w3.org/2000/svg" xmlns:xlink="http://www.w3.org/1999/xlink" viewBox="0 0 216 216"><defs><style>.cls-1,.cls-2{fill:none;}.cls-1,.cls-3,.cls-4,.cls-5,.cls-6,.cls-7,.cls-8,.cls-9,.cls-10{stroke-width:0px;}.cls-2{stroke:#002555;stroke-dasharray:0 5;}.cls-2,.cls-11,.cls-12{stroke-miterlimit:10;}.cls-11{fill:#fff;stroke:#3870b5;stroke-width:2px;}.cls-13{clip-path:url(#clippath-1);}.cls-3{fill:#230300;}.cls-3,.cls-4,.cls-5,.cls-6,.cls-10{fill-rule:evenodd;}.cls-4{fill:#4a210a;}.cls-5{fill:#ffc257;}.cls-6{fill:#f78f2a;}.cls-12{fill:#9dc5e9;stroke:#9dc5e9;stroke-width:3px;}.cls-7{fill:#9ac7f7;}.cls-8{fill:#3870b5;}.cls-9{fill:#d2e9ff;}</style><clipPath id="clippath-1"><circle class="cls-1" cx="115.45" cy="116.81" r="78.19"/></clipPath><clipPath id="clippath-2"><circle class="cls-1" cx="352.49" cy="333.42" r="78.31"/></clipPath></defs><circle class="cls-11" cx="115.45" cy="116.81" r="79.18"/><polygon class="cls-9" points="145.07 81.43 143.51 81.3 144.92 82.62 145.07 81.43"/><polygon class="cls-9" points="116.44 81.66 117.77 81.77 116.5 82.5 116.44 81.66"/><g class="cls-13"><line class="cls-2" x1="83.73" y1="58.25" x2="107.54" y2="84.43"/><line class="cls-2" x1="56.18" y1="100.86" x2="103.66" y2="110.53"/><line class="cls-2" x1="66.92" y1="154.43" x2="103.62" y2="136.47"/><path class="cls-12" d="m130.5,340.73c-7.46,0-15.41-1.06-17.92-2.38-2.6-1.36-2.96-3.55-2.99-4.43-.23-6.24-.71-10.96-1.17-15.52-.48-4.73-.93-9.2-.99-14.54-.03-2.5.05-5.22.14-8.38.13-4.27.28-9.29.2-15.52-.4.92-.84,1.85-1.27,2.77-.41.88-.97,2.08-1.29,2.88.27.69.6,1.5.99,2.43.25.6.52,1.26.81,1.97.88,2.17.59,4.5-.78,6.22-1.07,1.34-2.66,2.11-4.3,2.11-.03,0-.07,0-.1,0-.59,1.52-1.59,2.73-2.91,3.47-1.39,2.26-3.95,3.45-6.42,2.95-1.21-.25-2.25-.86-3.03-1.74-2.42-.68-4.12-2.95-4.25-5.81-.02-.26-.12-.81-.25-1.44-.39-.09-.77-.22-1.13-.39-2.4-1.12-3.61-3.73-2.92-6.36.38-1.48.53-3.81.64-5.68.13-2.16.23-3.73.66-4.98.4-1.15,1.25-2.53,3.22-5.63.55-.86,1.29-2.02,1.81-2.88-.29-.72-.42-1.5-.4-2.3.11-3.73.39-6.25.66-8.69.34-3.08.67-5.99.6-11.36l-.04-2.63c-.06-3.71-.13-7.55.04-11.66.1-2.37.48-5.43.85-8.4.31-2.5.63-5.08.72-6.8.38-7.43.75-13.32,1.1-17.51.02-1.1.11-2.13.26-3.15,1.63-10.92,5.32-29.35,8.93-42.76-1.25-1.83-1.91-4.13-1.88-6.74.02-2.14.53-4.28,1.56-6.57.99-2.21.54-3.69.19-4.38-.62-1.21-1.4-2.84-1.88-4.72-.28-1.11-.47-2.21-.54-3.27-.57-4.04.69-8.44,3.31-11.52.88-1.04,1.25-2.76.92-3.45-1.47-3.15-1.77-5.19-1.72-6.44,0-2.29.66-4.77,1.97-7.35.47-.93.65-2,.53-3.09-.12-1.09-.29-2.06-.4-2.64l-.03-.15c-.03-.19-.06-.37-.07-.56-.4-2.78.37-8.29,4.27-12.39,1.89-1.98,3.46-2.84,4.5-3.42.53-.29.65-.36.73-.44.07-.24.16-.78.23-1.19.33-2.05.89-5.47,4.24-8.38,3.19-2.76,6.19-2.9,7.99-2.99.29-.01.66-.03.87-.06.16-.18.39-.49.57-.74,1.13-1.51,3.22-4.32,7.58-4.7,3.12-.27,4.76.13,6.43.64.53.16.89.27,1.39.34.26-.04.84-.25,1.27-.4,1.91-.68,5.11-1.81,8.91-.25,3.24,1.33,4.63,3.31,5.45,4.5.13.19.3.43.4.54.73.33,1.64.66,2.6,1.01,2.09.75,4.46,1.6,6.79,3.1,3.02,1.95,3.81,5.03,4.33,7.08.11.43.27,1.06.38,1.32.17.17.6.48.92.72,1.31.95,3.28,2.38,4.57,5.22,1.93,4.26.35,7.45-.61,9.14.97.78,2.32,1.95,3.54,4.12,1.9,3.38.83,7.67-.46,10.76-.14.48-.22.95-.25,1.37,0,.09-.02.26.22.53,3.16,3.51,4.25,8.1,3.01,12.6-.17.61-.39,1.13-.55,1.51-.21.47-1.19,2.87-.45,4.85.1.28.3.6.58.93,1.42,1.71,2.81,5.92,2.75,10.07,1.91,1.29,3.78,3.03,4.55,4.81.12.28.22.56.29.85.11.14.23.29.33.43.26.32.51.67.74,1.04.91,1.36,1.66,2.84,2.24,4.4.26.5.54,1.02.82,1.56,1.8,3.39,4.03,7.61,5.76,12.28.82,2.22.95,4.32,1.06,6.17.08,1.41.15,2.62.5,3.69.79,2.41,2.3,5.35,3.75,8.2,1.33,2.61,2.71,5.3,3.62,7.74,1.76,4.75,2.52,8.66,3.13,11.8.33,1.69.61,3.15.98,4.36h0c2.07,6.83.38,11.55-1.42,14.31-1.57,2.42-3.88,4.29-6.6,5.43.92,11.35,1.44,22.95,1.54,34.55.46.84.77,1.76.92,2.73,2.48,16.17,3.03,26.37,1.62,30.33-.42,1.18-1.21,2.21-2.5,3.22.74,4.39,1.41,8.58,1.01,14.54-.39,5.77-6.7,9.18-12.72,11.34.46,3.92.85,8.02.91,11.54.1,5.29-6.43,5.68-12.18,6.03-4.79.29-10.62.32-15.23.09-5.54-.28-11.82-.59-12.32-5.58-.17-1.65-.47-2.29-.97-3.34-.19-.4-.4-.84-.61-1.34-2.04.04-4.14-.01-6.12-.33-.24,1.54-.42,2.93-.38,3.61.09,2-.91,3.82-2.74,4.98-2.49,1.59-7.88,2.2-13.55,2.2Zm-12.03-9.89c4.63.9,15.11,1.25,19.45.44.21-2.02.67-4.69,1.34-8.25l1.47-7.85,5.95,5.33c.36.27,1.83.92,7.3.74.28,0,1.01-.06,2.21-.17l4.16-.39.7,4.12c.23,1.35.53,1.98.98,2.92.43.91.94,1.96,1.32,3.48,4.79.64,16.56.62,22.11,0-.24-3.5-.7-7.38-1.14-10.9l-.47-3.77,3.64-1.1c7.86-2.37,9.66-4.32,9.96-4.73.31-4.94-.26-8.31-.97-12.56-.14-.86-.29-1.74-.44-2.65l-.5-3.15,2.81-1.51c.58-.31.96-.55,1.21-.72.43-2.82-.05-11.4-2.15-25.12l-.46-.51-3.85-.12c-1.58-.05-3.24,0-4.84.06l-9.31.29.5-5.1c.71-7.21-.41-11.83-1.48-16.3l-.1-.42c-1.01-4.2-.35-7.02.35-10.01.37-1.59.76-3.24,1.02-5.49.19-1.63.25-5.42.29-9.27l.07-7.04,6.36,3.02c1.53.72,3.02,1.41,4.34,2.02,1.02.47,1.94.89,2.71,1.25l2.31,1.09.03.27,3.12-.39c1.95-.24,3.51-1.14,4.41-2.52,1.08-1.65,1.2-4,.35-6.79h0c-.5-1.65-.84-3.4-1.2-5.26-.57-2.97-1.23-6.33-2.73-10.39-.72-1.95-1.92-4.29-3.19-6.77-1.61-3.15-3.28-6.41-4.29-9.49-.71-2.18-.83-4.19-.94-5.97-.08-1.4-.16-2.62-.51-3.58-1.53-4.12-3.52-7.88-5.28-11.2-.34-.65-.68-1.28-.99-1.87l-.25-.58c-.36-1.01-.81-1.92-1.39-2.78l-.12-.19s-.06-.09-.09-.13l-.15-.18c-.22-.3-.46-.59-.72-.87l-.64-.72-.33-1.04c-.02-.07-.04-.14-.06-.2l-.11-.33c-.61-.58-1.78-1.42-2.55-1.7l-3.9-1.43,1.11-4c.54-1.93-.21-4.86-.67-5.8-.84-1.06-1.49-2.17-1.92-3.32-1.87-4.98-.17-9.81.65-11.66.04-.09.08-.18.11-.27.42-1.53.08-2.94-1.03-4.17-1.8-2-2.69-4.55-2.51-7.19.08-1.17.31-2.37.69-3.58l.17-.45c.64-1.48.88-2.75.86-3.27-.41-.67-.81-.98-1.42-1.47-1.04-.83-2.77-2.21-3.41-5-.62-2.72.58-4.8,1.3-6.05.18-.31.44-.77.5-.95,0,0-.03-.1-.11-.27-.29-.65-.7-.95-1.66-1.65-.88-.64-1.97-1.43-2.9-2.68-1.08-1.45-1.5-3.1-1.84-4.42-.14-.56-.38-1.47-.56-1.78-1.45-.92-3.19-1.54-4.87-2.15-1.14-.41-2.31-.83-3.42-1.35-2.17-1.01-3.22-2.52-3.92-3.52-.55-.78-.69-.99-1.49-1.32-.54-.22-.99-.12-2.48.41-1.41.5-3.16,1.12-5.26.87-1.34-.16-2.31-.46-3.03-.67-.93-.28-1.39-.42-3.02-.28-.28.02-.34.03-1.15,1.12-.75,1-1.77,2.37-3.48,3.29-1.8.97-3.51,1.05-4.76,1.11-1.26.06-1.69.08-2.52.8-.85.74-.99,1.42-1.25,3.02-.22,1.39-.5,3.11-1.62,4.74-1.32,1.93-2.8,2.74-3.88,3.33-.78.43-1.39.76-2.32,1.73-1.48,1.56-1.85,3.62-1.9,4.51l.12.26-.02.72c.12.67.31,1.77.45,3.04.32,2.84-.18,5.66-1.44,8.15-.65,1.29-1.02,2.51-1,3.35v.17c.04.23.22,1.01.87,2.4,2.18,4.65.37,10.05-2.22,13.1-.99,1.16-1.48,2.96-1.24,4.5l.05.45c.03.55.13,1.15.29,1.77.2.8.56,1.67,1.16,2.84.88,1.71,2.65,6.33.02,12.19-.5,1.12-.76,2.12-.77,2.98,0,.32.02,1.4.44,1.7l2.65,1.83-.87,3.1c-3.71,13.19-7.68,32.79-9.37,44.11-.1.68-.16,1.37-.17,2.13v.31c-.36,4.04-.73,10.04-1.11,17.35-.1,2.05-.43,4.67-.77,7.45-.34,2.79-.7,5.67-.79,7.68-.16,3.84-.1,7.38-.04,11.13l.04,2.67c.08,5.93-.29,9.26-.65,12.48-.22,1.94-.42,3.78-.54,6.24l1.98,1.2-1.19,3.44c-.17.48-.34.94-.51,1.39-.06.16-.13.32-.21.49l.22,5.23,1.62,2.24c.17-.37.35-.76.54-1.17.89-1.91,2-4.29,2.31-5.62l.19-.79c-.06-.38-.25-.91-.45-1.48l-1.25-3.57,1.95-1.44c.2-1.13.53-2.52.99-4.45.63-2.64,1.49-6.25,2.42-11.03l6.85-35.17,2.06,35.78c.19,3.25-.03,6.62-.21,9.6-.07,1.14-.14,2.24-.17,3.16.16.1.39.24.7.39l2.52,1.22.03,4.34c0,.35.04.66.13.95l.15.53.02.55c.4,10.29.18,17.81,0,23.85-.09,3.06-.17,5.7-.14,8,.06,4.95.47,9.03.95,13.76.39,3.83.82,8.1,1.08,13.34Zm81.5-41.03h0Zm-108.94-9.05l.5,2.49,1.48-5.66c-.62.97-1.48,2.31-1.98,3.17Zm96.51-48.28c-.19.92-.38,1.73-.55,2.46-.6,2.56-.87,3.72-.36,5.85l.1.42c.74,3.07,1.6,6.62,1.87,11.14-.19-6.45-.54-13.08-1.05-19.86Zm-13.19-97.8s.04.05.06.08c-.02-.03-.04-.05-.06-.08Zm-63.55-42.31h0Zm.59-14.86h0Z"/><path class="cls-10" d="m174.85,104.71s-.77,1.71-.91,3.7c-.1,1.44.4,2.79,1.36,3.86,1.19,1.32,3.16,4.26,2.02,8.39-.08.3-.2.6-.33.88-.5,1.14-1.86,4.75-.55,8.25.3.81.77,1.55,1.33,2.22.89,1.08,2.63,6.51,1.16,10.37l-25.38-3.3-8.3-20.07,5.02-14.18,12.8-1.38,11.78,1.26Z"/><path class="cls-10" d="m105.32,120.57s-5.07,3.06-3.13,10.62c.34,1.32.9,2.57,1.52,3.78.67,1.31,1.7,4.3-.08,8.28-.68,1.51-1.15,3.12-1.16,4.78-.02,1.96.47,4.24,2.53,5.56l15.31-13.17-3.38-10.04-11.61-9.8Z"/><path class="cls-10" d="m105.6,112.16c1.2,2.57.26,6.12-1.57,8.27-2.05,2.41-2.83,5.89-2.15,8.77l8.87,7.3,14.81.45,15.94-2.69v-20.42l-10.55-13.47-9.88-8.3-13.43-.15c-.85.07-1.47.86-1.32,1.7.1.59.31,1.73.46,3.07.22,1.93-.11,3.89-.99,5.62-.72,1.43-1.52,3.47-1.49,5.45,0,0-.17,1.28,1.29,4.4Z"/><path class="cls-5" d="m106.54,147.91c-3.97,11.97-9.12,36.45-11.17,50.23-2.71,18.19,19.06,21.28,21.75,2.96,2.2-14.98,10.62-31.74,12.95-43.39,3.36-16.84-16.7-30.39-23.52-9.81Z"/><path class="cls-5" d="m95.37,198.43c-.44,4.33-.9,11.63-1.33,19.94-.2,3.94-1.38,10.98-1.56,15.16-.21,4.92-.06,9.41,0,14.04.13,9.86-1.02,11.94-1.26,20.25-.1,3.56,13.73,3.9,14.07,0,.23-2.67,2.53-9.55,4.86-23.83.62-3.8,2.68-11.64,3.03-15.52.98-10.77,3.23-21.7,3.78-26.06,2.36-18.64-19.82-21.39-21.6-3.99Z"/><path class="cls-10" d="m177.61,142.04c.51,3.29,15.58,61.19,15.56,121.82,0,.9,7.63.96,7.63,0-.18-70.98-15.83-115.79-16.32-117.54-.49-1.76-7.11-5.86-6.87-4.28Z"/><path class="cls-5" d="m126.9,132.62c-5.66-.92-16.93,4.08-18.5,13.7-1.58,9.62.11,44.48,0,51.33-.11,6.85,1.31,26.22,1.35,31.94.04,5.71-2.41,13.39-1.35,18.55,1.06,5.16.03,12.58,0,16.67-.09,11.33,73.66,9,75.22-2.71,1.24-9.32-.26-15.11-1.47-20.13-1.21-5.01.68-7.11,1.47-13.93.79-6.82-.45-40.03,2.62-51.48,3.92-14.68,6.27-27.74-9.24-35.16-9.28-4.44-46.84-8.24-50.09-8.77Z"/><path class="cls-6" d="m136.52,156.62c-13.06-11.73-17.47-17.82-19.47-21.97,0,0-.33-3.43,2.31-5.01,1.01-.61,3.48,0,3.48,0,0,0,.94-3.29,4.53-4.51,2.79-.95,10.24,2.23,18.15,3.04,8.77.89,18.01-.45,20.22,1.47,2.4,2.09,3.23,5.01,3.23,5.01,0,0,5,.71,6.2,1.88,1.2,1.17,2.07,4.66,2.07,4.66-10.33.69-26.07,14.46-40.72,15.43Z"/><path class="cls-4" d="m133.45,103.7c.05,8.38-.03,25.93,0,28.79-1.91,2.62-5.74,2.35-5.74,2.35.81,5.06,4.35,12.27,9.27,20.54,9.52-4.31,18.14-10.3,25.97-17.77,0,0-10.04-1.09-10.52-8.42-.48-7.33-.19-18.16,0-27,.31-14.34-19.07-12.65-18.98,1.51Z"/><path class="cls-3" d="m133.45,126.45c4.37,1.35,16.79-3.23,18.77-13.5.05-3.67.14-7.36.21-10.76.31-14.34-19.07-12.93-18.98,1.23.04,5.9,0,16.37,0,23.03Z"/><path class="cls-10" d="m184.42,146.36c-3.36-2.47-35.49,17.94-41.34,27.75-3.81,6.38,3.05,98.96,3.65,103.61.13,1.02-8.59,2.26-8.76,1.11-1.01-6.55-7.04-99.73-3.76-107.48,3.63-8.58,27.7-24.35,43.17-29.86,2.11-.75,7.86,3.92,7.05,4.86Z"/><path class="cls-5" d="m186.55,149.62c1.72,3.86,5.43,9.75,7.95,16.52,1.15,3.11.42,6.39,1.5,9.7,1.66,5.07,5.65,11.32,7.42,16.1,2.59,6.98,2.84,12.04,4.02,15.9,5.26,17.33-18.67,21.95-25.83,2.6-1.95-5.26-1.52-8.47-2.92-12.99-2.31-7.47-6.48-13.94-8.24-21.61-2.26-9.86,11.05-37.5,16.09-26.23Z"/><path class="cls-5" d="m153.91,178.84c-1.94-.03-9.51,11.2-7.67,12.85.32.28,1.37,2.32,3.18,3.65,2.74,2.02,8.05,4.64,12.8,7.8,3.9,2.59,7.66,5.9,11.62,9.41,3.36,2.97,13.33,7.19,17.53,9.2,11.79,5.64,23.83-11.32,9.68-21.35-4.96-3.52-12.82-8.52-20.09-11.68-4.15-1.8-7.64-1.87-11.48-3.58-2.66-1.19-7.81-5.51-9.99-6.29-2.1-.76-2.91.04-5.6,0Z"/><path class="cls-4" d="m125.56,79.47c-2.81,3.01-3.68,26.61-3.53,31.01.4,11.57,17.97,17.97,29.75,2.64,8.88,3.61,11.22-10.73,2.23-8.02,0,0,2.67-17.97-.15-22.5-2.83-4.52-24.34-7.4-28.3-3.14Z"/><path class="cls-10" d="m137.93,81.87c.81.05,4.81-1.24,7.89.71,3.38,2.15,1.91,4.86,1.79,7.44-.16,3.49,4.52,3.26,5.86,6.25,1.02,2.27.39,5.61-.33,8.23-.99,3.6,2.73,5.69,6.94,5.67,3.49-.02,4.36-1.86,6.55-2.31,4.94-1.02,7.68.07,7.37-1.08.72-1.36,2.48-5.7,1.21-7.96-1.84-3.27-3.94-3.04-4.5-5.49-.56-2.44,3.25-4.04,1.4-8.12-1.31-2.89-3.72-3.38-5.04-5.16-1.38-1.86-.95-5.61-3.49-7.25-2.98-1.92-6.37-2.65-8.91-3.84-2.43-1.13-1.98-3.44-5.61-4.93-3.67-1.51-6.28,1.29-8.91.97-2.63-.32-3.08-1.31-6.98-.97-3.78.33-4.17,3.75-6.37,4.93-2.3,1.24-4.78-.4-8.08,2.47-3.42,2.96-2.19,6.5-3.64,8.62-1.44,2.1-2.97,1.6-5.74,4.5-3.25,3.41-3.31,8.02-3.06,8.78.26.77,4.59.52,7.02,2.95,1.37,1.36,1.07,3.34,3.5,4.21,2.72.97,3.76-.37,4.87-.35,1.05-1.35.52-5.37,1.6-7.53,1.08-2.16,3.84-2.66,5.19-4.69,1.34-2.03-.09-4.78,2.62-6.48,1.73-1.09,6.02.39,6.84.44Z"/><path class="cls-4" d="m157.78,183.46c-1.86-1.53-4.97-3.43-5.78-4.68-1.25-1.94-2.61-8.62-3.99-11.41-1.34-2.7-3.79-2.11-8.47-6.97-.74-.77-2.02.21-1.92,1.61,0,0-.9-.83-2.24-2.04-2.06-1.86-4.35,1.27-3.16,3.09-1.88-.66-3.56,2.14-2.04,4.14-1.69-.48-3.04,2.31-.95,4.62-1.6-.18-2.69,2.22-.49,4.61,1.95,2.12,13.54,9.63,17.21,11.1,1.5.6,3.34,2.73,5.98,4.59,5.98,4.22,12.13-3.48,5.84-8.66Z"/><polygon class="cls-6" points="169.57 176.73 169.7 166.6 164.04 180.73 169.57 176.73"/><polygon class="cls-6" points="110.88 196.39 115.61 167.34 113.97 198.28 110.88 196.39"/></g><path class="cls-7" d="m53.73,96.66c0-8.94-7.24-16.18-16.18-16.18s-16.18,7.24-16.18,16.18c0,5.39,2.64,10.17,6.7,13.11v-2.25c0-4.83,3.91-8.74,8.74-8.74h1.48c4.83,0,8.74,3.91,8.74,8.74v2.25c4.06-2.94,6.7-7.71,6.7-13.11Z"/><path class="cls-8" d="m38.28,98.78h-1.48c-4.83,0-8.74,3.91-8.74,8.74v2.25c2.66,1.93,5.94,3.07,9.48,3.07s6.81-1.14,9.48-3.07v-2.25c0-4.83-3.91-8.74-8.74-8.74Z"/><circle class="cls-8" cx="37.55" cy="90.04" r="5.91"/><path class="cls-7" d="m65.77,161.09c0-8.94-7.24-16.18-16.18-16.18s-16.18,7.24-16.18,16.18c0,5.39,2.64,10.17,6.7,13.11v-2.25c0-4.83,3.91-8.74,8.74-8.74h1.48c4.83,0,8.74,3.91,8.74,8.74v2.25c4.06-2.94,6.7-7.71,6.7-13.11Z"/><path class="cls-8" d="m50.33,163.21h-1.48c-4.83,0-8.74,3.91-8.74,8.74v2.25c2.66,1.93,5.94,3.07,9.48,3.07s6.81-1.14,9.48-3.07v-2.25c0-4.83-3.91-8.74-8.74-8.74Z"/><circle class="cls-8" cx="49.59" cy="154.46" r="5.91"/><path class="cls-7" d="m96.6,42.22c0-12.27-9.95-22.21-22.21-22.21s-22.22,9.95-22.22,22.21c0,7.41,3.63,13.96,9.2,18v-3.09c0-6.63,5.37-12,12-12h2.03c6.63,0,12,5.37,12,12v3.09c5.57-4.04,9.2-10.59,9.2-18Z"/><path class="cls-8" d="m75.39,45.13h-2.03c-6.63,0-12,5.37-12,12v3.09c3.66,2.65,8.15,4.22,13.02,4.22s9.36-1.57,13.02-4.22v-3.09c0-6.63-5.37-12-12-12Z"/><circle class="cls-8" cx="74.38" cy="33.13" r="8.11"/></svg>