<?xml version="1.0" encoding="UTF-8"?><svg id="Layer_1" xmlns="http://www.w3.org/2000/svg" xmlns:xlink="http://www.w3.org/1999/xlink" viewBox="0 0 216 216"><defs><style>.cls-1,.cls-2,.cls-3,.cls-4{fill:none;}.cls-1,.cls-5,.cls-6,.cls-7,.cls-8,.cls-9,.cls-10,.cls-11,.cls-12,.cls-13,.cls-14{stroke-width:0px;}.cls-2{stroke:#002555;stroke-dasharray:0 5;}.cls-2,.cls-15,.cls-3,.cls-4{stroke-miterlimit:10;}.cls-15{stroke:#3870b5;stroke-width:2px;}.cls-15,.cls-12{fill:#fff;}.cls-16{clip-path:url(#clippath-1);}.cls-3{stroke:#011859;}.cls-3,.cls-4{stroke-width:.75px;}.cls-4{stroke:#fff;}.cls-5{fill:#011859;opacity:.15;}.cls-6{fill:#2a5488;}.cls-7{fill:#9ac7f7;}.cls-8{fill:#3870b5;}.cls-9{fill:#443200;}.cls-10{fill:#d2825e;}.cls-11{fill:#f2a479;}.cls-13{fill:#ffab01;}.cls-14{fill:#ffc257;}</style><clipPath id="clippath-1"><circle class="cls-1" cx="112.88" cy="106.48" r="78.15"/></clipPath></defs><circle class="cls-15" cx="112.87" cy="106.48" r="79.18"/><circle class="cls-1" cx="112.87" cy="106.48" r="79.18"/><g class="cls-16"><path class="cls-7" d="m58.19,106.13c0-8.94-7.24-16.18-16.18-16.18s-16.18,7.24-16.18,16.18c0,5.39,2.64,10.17,6.7,13.11v-2.25c0-4.83,3.91-8.74,8.74-8.74h1.48c4.83,0,8.74,3.91,8.74,8.74v2.25c4.06-2.94,6.7-7.71,6.7-13.11Z"/><path class="cls-8" d="m42.75,108.24h-1.48c-4.83,0-8.74,3.91-8.74,8.74v2.25c2.66,1.93,5.94,3.07,9.48,3.07s6.81-1.14,9.48-3.07v-2.25c0-4.83-3.91-8.74-8.74-8.74Z"/><circle class="cls-8" cx="42.01" cy="99.5" r="5.91"/><rect class="cls-12" x="77.32" y="29.36" width="31.09" height="174.96" transform="translate(98.86 -32.29) rotate(40.78)"/><rect class="cls-8" x="77.32" y="29.36" width="31.09" height="174.96" transform="translate(98.86 -32.29) rotate(40.78)"/><line class="cls-4" x1="133.14" y1="52.01" x2="135.93" y2="54.42"/><line class="cls-4" x1="120.63" y1="66.52" x2="123.42" y2="68.93"/><line class="cls-4" x1="108.11" y1="81.04" x2="110.9" y2="83.44"/><line class="cls-4" x1="95.6" y1="95.55" x2="98.38" y2="97.95"/><line class="cls-4" x1="83.08" y1="110.06" x2="85.87" y2="112.47"/><line class="cls-4" x1="70.56" y1="124.58" x2="73.35" y2="126.98"/><line class="cls-4" x1="58.05" y1="139.09" x2="60.84" y2="141.49"/><line class="cls-4" x1="45.53" y1="153.6" x2="48.32" y2="156.01"/><line class="cls-4" x1="33.02" y1="168.11" x2="35.8" y2="170.52"/><line class="cls-4" x1="137.32" y1="47.17" x2="138.71" y2="48.38"/><line class="cls-4" x1="128.97" y1="56.85" x2="130.37" y2="58.05"/><line class="cls-4" x1="124.8" y1="61.69" x2="126.19" y2="62.89"/><line class="cls-4" x1="116.46" y1="71.36" x2="117.85" y2="72.56"/><line class="cls-4" x1="112.28" y1="76.2" x2="113.68" y2="77.4"/><line class="cls-4" x1="103.94" y1="85.87" x2="105.33" y2="87.08"/><line class="cls-4" x1="99.77" y1="90.71" x2="101.16" y2="91.92"/><line class="cls-4" x1="91.42" y1="100.39" x2="92.82" y2="101.59"/><line class="cls-4" x1="87.25" y1="105.23" x2="88.65" y2="106.43"/><line class="cls-4" x1="78.91" y1="114.9" x2="80.3" y2="116.1"/><line class="cls-4" x1="74.74" y1="119.74" x2="76.13" y2="120.94"/><line class="cls-4" x1="66.39" y1="129.41" x2="67.79" y2="130.62"/><line class="cls-4" x1="62.22" y1="134.25" x2="63.61" y2="135.45"/><line class="cls-4" x1="53.88" y1="143.93" x2="55.27" y2="145.13"/><line class="cls-4" x1="49.7" y1="148.76" x2="51.1" y2="149.97"/><line class="cls-4" x1="41.36" y1="158.44" x2="42.75" y2="159.64"/><line class="cls-4" x1="37.19" y1="163.28" x2="38.58" y2="164.48"/><line class="cls-4" x1="28.84" y1="172.95" x2="30.24" y2="174.15"/><path class="cls-9" d="m120.21,108.39c-2.27-2.34-3.62-9.98.6-14.75,3.66-4.14,6.91.9,6.91.9,1.24-2.81,6.07-3.63,6.8.67,0,0,3.82-1.85,8.26.34,4.44,2.19,6.05,12.61,5.5,16.95-.03.22,2.09,5.41,2.09,5.41l-17.13,7.02-13.01-16.54Z"/><path class="cls-11" d="m154.6,87.49c-.38.01-.8-.03-1.26-.13-1.86-.4-3.38-.71-4.75-.91-3.9-.58-6.55-.31-12.29,1.21-7.75,2.04-7.53,3.95-9.06,3-1.54-.95.95-4.54,2.99-5.71,2.28-1.29,3.8-2.35,3.66-2.99-.43-2.05-7.89-4.61-12.28-6.29-4.39-1.68-3.8-3.22-2.49-3.29,1.32-.07,11.78,3.07,11.63,2.04-.14-1.02-8.7-3.95-11.26-5.45-2.56-1.5.03-2.61,2.93-1.38,2.12.89,9.42,4.2,9.64,3.4.22-.81-7.38-4.61-8.84-6.14-1.46-1.54,1.17-1.61,2.63-.81,1.47.81,8.85,5.34,9.51,4.94.66-.4-6.87-5.59-7.24-6.76-.37-1.17,1.46-1.68,4.75.36,2.8,1.74,13.66,8.79,20.62,12.56.94.51,1.8.95,2.57,1.32.23.12.45.22.66.31,0,0,3.32,10.61-2.1,10.73Z"/><path class="cls-10" d="m156.05,76.45l-1.45,11.04c-.38.01-.8-.03-1.26-.13-1.86-.4-3.38-.71-4.75-.91,1.54-3.58,4-9.32,4.89-11.32.94.51,1.8.95,2.57,1.32Z"/><path class="cls-11" d="m162.76,116.43l-8.71,21.13c-.24-3.14-3.53-6.03-6.4-7.98-2.27-1.53-4.27-2.48-4.27-2.48,0,0-.98,1.63-2.94,3.13-1.59,1.23-3.82,2.37-6.71,2.5-6.44.29-10.09-7.31-10.09-7.31-1.53.3-3.43-.81-3.43-.81.59-1.17,1.38-4.42,1.38-4.42-1.4-5.27-1.38-11.8-1.38-11.8,0,0,2.26-1.61,3.8.51,1.53,2.12,5.92-2.84,5.92-2.84,0,0,.88,3.43,1.17,3.79.3.37,1.98-1.39,1.98-1.39-.08,2.7,2.49,6.37,2.49,6.37.22-1.38,2.49-5.42,4.89-1.94,2.41,3.47-1.16,6.11-1.16,6.11,9.94,1.53,9.04-8.55,9.04-8.55,1.86,4.91,8.74,7.56,14.43,5.99Z"/><path class="cls-11" d="m91.49,159.94s-.61.93-1.47,2.26c-2.11,3.26-5.75,8.89-5.8,9.06-.02.09-.5-.62-1.16-1.6-1.24-1.81-3.11-4.54-3.96-5.01-.17-.09-.38-.23-.63-.42-1.63-1.21-4.68-4.2-6.23-5.96-1.78-2.02-6.13-5.84-7.98-7.45-1.85-1.61-2.27-3.45-1.05-3.59,1.21-.13,8.62,5.62,9.1,5.38.48-.24-5.66-5.25-7.98-8.05-2.33-2.8-.48-3.63.72-2.86,1.19.77,8.76,8.22,9.36,8.05.59-.18-5.72-7.75-7.69-10.25-1.97-2.5-.59-3.45.48-3.45s8.76,10.85,9.95,11.19c1.19.35-4.17-7.37-5.72-9.7-1.55-2.33-.42-3.52.95-2.8,1.37.72,8.4,11.08,9.89,12.34,1.49,1.25,2.8,1.73,3.34-.95.53-2.69.35-3.88,2.14-5.43,1.79-1.55,3.52-1.13,2.72.83-.81,1.97-1.11,14.36-1.05,15.02.04.33.17.72.5,1.26.32.53.82,1.22,1.59,2.14Z"/><path class="cls-10" d="m91.49,159.94s-.61.93-1.47,2.26c-2.06,2.24-5.37,5.76-6.96,7.46-1.24-1.81-3.11-4.54-3.96-5.01-.17-.09-.38-.23-.63-.42,4.07-2.28,9.6-5.38,11.43-6.43.32.53.82,1.22,1.59,2.14Z"/><path class="cls-6" d="m280.82,263.63s-59.66,10.39-74.73,7.67c-15.08-2.73-14.82-15.72-13.13-24.05,1.17-5.77,4.28-24.63,6.69-40.46,1.05-6.97,1.98-13.35,2.54-17.76l20.69-10.64,19.72-10.14c-.61,6.76-9.86,36.67-14.29,52.3-.5,1.78-.94,3.37-1.3,4.73-2.64,9.99,2.91,13.63,9.47,14.03,2.14.14,4.39-.07,6.5-.52,8.55-1.81,35.38-8.41,35.38-8.41l2.47,33.24Z"/><path class="cls-5" d="m199.66,206.79c1.05-6.97,1.98-13.35,2.54-17.76l20.69-10.64c1.74.69,2.93,2.03,3.25,4.22,1.52,10.2-18.43,20.47-26.48,24.18Z"/><path class="cls-14" d="m220.95,131.53c-3.31,10.37-12.86,28.02-14.3,30.65-.12.22-.18.33-.18.33,0,0-.23-.12-.66-.32-1.29.01-2.57.01-3.67-.01-3.65-1.42-17.1-6.39-31.7-8.66-1.99,1.87-4.45,6.3-6.87,11.42-3.19,6.79-6.29,14.79-8.14,19.72-9.77,4.38-17.49,7.99-19.1,9.18h0c-5.07,3.72-15.31,6.31-26.93.76-11.63-5.55-29.02-24.32-29.02-24.32l11.2-11.73c7.36,7.9,17.28,16.53,24.32,19.63.7.3,1.43.54,2.18.7,6.81,1.5,15.34-2.57,18.52-6.89,2.04-2.78,4.52-8.49,6.24-12.8,1.24-3.12,2.1-5.5,2.1-5.5,0,0,6.68-23.27,13.13-35.93,6.45-12.66,8.89-14.23,19.03-16.28,3.71-.75,7.16-1.37,10.01-1.99,4.94-1.06,8.07-2.1,7.67-3.75-.29-1.19-6.42-2.81-14.78-4-8.01-1.13-18.07-1.86-27-1.38-.51-6.92,1.34-12.18,2.87-15.24,6.76-.06,17.88.29,31.99,2.42,23.8,3.6,35.15,12.04,31.89,20.89-3.25,8.86-29.47,16.4-29.47,16.4,0,0,16.82,7.85,30.67,16.71Z"/><path class="cls-5" d="m189.19,192.51c-7.37-.15-15.28.57-19.01,4.73-2.41,2.69-4.59,6.95-6.56,13.03-.83-12.01,2.51-21.7,13.93-21.32,5.45.18,9.18,1.83,11.63,3.57Z"/><path class="cls-3" d="m234.83,182.62c-9.89,8.02-25.74,11.48-33.83,10.93"/><path class="cls-3" d="m212.38,162.04s-2.75.11-5.73.14c-.28,0-.56.01-.84.01-1.29.01-2.57.01-3.67-.01"/><path class="cls-10" d="m147.65,129.58c-2.27-1.53-4.27-2.48-4.27-2.48.82-1.39,1.51-3.61,1.9-5.01.09.22,1.99,4.78,2.37,7.49Z"/><path class="cls-3" d="m160.38,206.25c5.18-7.76,15.33-11.15,23.69-9.36"/><path class="cls-3" d="m208.33,159.05s10.67-20.66,13.34-29.69"/><path class="cls-13" d="m200.52,97.53c-.7,2.88-7.9,2.6-13.42,1.95,4.94-1.06,8.07-2.1,7.67-3.75-.29-1.19-6.42-2.81-14.78-4,12.82-1,21.68,1.08,20.53,5.8Z"/><path class="cls-13" d="m142.83,159.18c-1.24,6.65-4.66,21.56-10.39,23.43-5.29,1.73-9.99-.02-14.36-3.74,6.81,1.5,15.34-2.57,18.52-6.89,2.04-2.78,4.52-8.49,6.24-12.8Z"/></g><rect class="cls-8" x="29.25" y="153.43" width="37.25" height="31.09" transform="translate(-111.34 94.86) rotate(-49.22)"/><line class="cls-4" x1="45.53" y1="153.6" x2="48.32" y2="156.01"/><line class="cls-4" x1="33.02" y1="168.11" x2="35.8" y2="170.52"/><line class="cls-4" x1="49.7" y1="148.76" x2="51.1" y2="149.97"/><line class="cls-4" x1="41.36" y1="158.44" x2="42.75" y2="159.64"/><line class="cls-4" x1="37.19" y1="163.28" x2="38.58" y2="164.48"/><line class="cls-4" x1="28.84" y1="172.95" x2="30.24" y2="174.15"/><path class="cls-14" d="m170.44,153.52c-1.99,1.87-4.45,6.3-6.87,11.42-.14.3-.28.61-.43.92-5.34,11.58-14.34,21.04-25.52,27.19-.59.32-1.03.59-1.3.79h0c-5.07,3.72-15.31,6.31-26.93.76-11.63-5.55-29.02-24.32-29.02-24.32l11.2-11.73c7.36,7.9,17.28,16.53,24.32,19.63.7.3,1.43.54,2.18.7,6.81,1.5,15.34-2.57,18.52-6.89,2.04-2.78,4.52-8.49,6.24-12.8,1.24-3.12,2.1-5.5,2.1-5.5l25.51-.17Z"/><path class="cls-14" d="m106.63,193.1s33.74,22.15,56.51-27.24l-11.56,1.11-24.36,23.25-20.6,2.88Z"/><line class="cls-2" x1="54.04" y1="95.19" x2="104.24" y2="41.69"/><path class="cls-7" d="m124.97,34.13c0-8.94-7.24-16.18-16.18-16.18s-16.18,7.24-16.18,16.18c0,5.39,2.64,10.17,6.7,13.11v-2.25c0-4.83,3.91-8.74,8.74-8.74h1.48c4.83,0,8.74,3.91,8.74,8.74v2.25c4.06-2.94,6.7-7.71,6.7-13.11Z"/><path class="cls-8" d="m109.53,36.25h-1.48c-4.83,0-8.74,3.91-8.74,8.74v2.25c2.66,1.93,5.94,3.07,9.48,3.07s6.81-1.14,9.48-3.07v-2.25c0-4.83-3.91-8.74-8.74-8.74Z"/><circle class="cls-8" cx="108.79" cy="27.5" r="5.91"/><path class="cls-7" d="m92.69,68.49c0-8.94-7.24-16.18-16.18-16.18s-16.18,7.24-16.18,16.18c0,5.39,2.64,10.17,6.7,13.11v-2.25c0-4.83,3.91-8.74,8.74-8.74h1.48c4.83,0,8.74,3.91,8.74,8.74v2.25c4.06-2.94,6.7-7.71,6.7-13.11Z"/><path class="cls-8" d="m77.25,70.6h-1.48c-4.83,0-8.74,3.91-8.74,8.74v2.25c2.66,1.93,5.94,3.07,9.48,3.07s6.81-1.14,9.48-3.07v-2.25c0-4.83-3.91-8.74-8.74-8.74Z"/><circle class="cls-8" cx="76.51" cy="61.86" r="5.91"/><circle class="cls-11" cx="138.45" cy="115.24" r="3.83"/><path class="cls-10" d="m138.97,113.05s-1.25.53-1.11,1.37c0,0,1.39.23,1.58,1.97,0,0-1.49-1.3-2.09-.98-.6.33-.7,1.16-.49,1.67,0,0-.98-1.83-.05-3.23.93-1.39,2.16-.81,2.16-.81Z"/></svg>