<?xml version="1.0" encoding="UTF-8"?><svg xmlns="http://www.w3.org/2000/svg" xmlns:xlink="http://www.w3.org/1999/xlink" viewBox="0 0 216 216"><defs><style>.cls-1,.cls-2,.cls-3,.cls-4,.cls-5,.cls-6,.cls-7,.cls-8,.cls-9,.cls-10,.cls-11,.cls-12,.cls-13,.cls-14,.cls-15,.cls-16,.cls-17,.cls-18,.cls-19,.cls-20,.cls-21,.cls-22,.cls-23,.cls-24,.cls-25,.cls-26,.cls-27,.cls-28,.cls-29,.cls-30,.cls-31,.cls-32{stroke-width:0px;}.cls-1,.cls-8{mix-blend-mode:multiply;}.cls-1,.cls-22{fill:#b7d604;}.cls-33{clip-path:url(#clippath);}.cls-2{fill:none;}.cls-3{fill:url(#linear-gradient);}.cls-34{stroke:#3870b5;stroke-miterlimit:10;stroke-width:2px;}.cls-34,.cls-25{fill:#fff;}.cls-35{clip-path:url(#clippath-1);}.cls-4{fill:url(#linear-gradient-4);}.cls-5{fill:url(#linear-gradient-2);}.cls-6{fill:url(#linear-gradient-3);}.cls-7{fill:url(#linear-gradient-5);}.cls-8{opacity:.3;}.cls-8,.cls-9{fill:#f54e62;}.cls-36{isolation:isolate;}.cls-10{fill:#4e70a0;}.cls-11{fill:#34526c;}.cls-12{fill:#28374c;}.cls-13{fill:#894b3c;}.cls-14{fill:#9ac7f7;}.cls-15{fill:#3870b5;}.cls-16{fill:#2356a0;}.cls-17{fill:#d87150;}.cls-18{fill:#e2a700;}.cls-19{fill:#d90f03;}.cls-20{fill:#a9bf02;}.cls-21{fill:#abe0d3;}.cls-23{fill:#fe7682;}.cls-24{fill:#ffad94;}.cls-26{fill:#ffab01;}.cls-27{fill:#ffc257;}.cls-28{fill:#ed3a58;}.cls-29{fill:#fdd41a;}.cls-30{fill:#ff554d;}.cls-31{fill:#003051;}.cls-32{fill:#002555;}</style><clipPath id="clippath"><circle class="cls-2" cx="116.49" cy="97.42" r="78.31"/></clipPath><linearGradient id="linear-gradient" x1="-24.53" y1="162.2" x2="103.56" y2="162.2" gradientUnits="userSpaceOnUse"><stop offset="0" stop-color="#4e70a0"/><stop offset="1" stop-color="#abe0d3"/></linearGradient><linearGradient id="linear-gradient-2" x1="131.98" y1="193.84" x2="139.26" y2="193.84" gradientUnits="userSpaceOnUse"><stop offset="0" stop-color="#28374c"/><stop offset="1" stop-color="#34526c"/></linearGradient><linearGradient id="linear-gradient-3" x1="132.73" y1="198.29" x2="135.82" y2="198.29" xlink:href="#linear-gradient-2"/><linearGradient id="linear-gradient-4" x1="128.43" y1="219.11" x2="136.87" y2="219.11" gradientUnits="userSpaceOnUse"><stop offset="0" stop-color="#28374c"/><stop offset=".21" stop-color="#2b3f56"/><stop offset=".66" stop-color="#314d66"/><stop offset="1" stop-color="#34526c"/></linearGradient><linearGradient id="linear-gradient-5" x1="175.47" y1="157.97" x2="163.22" y2="158.7" gradientUnits="userSpaceOnUse"><stop offset="0" stop-color="#e7b100"/><stop offset="1" stop-color="#fdd41a"/></linearGradient><clipPath id="clippath-1"><polygon class="cls-2" points="37.08 93.49 49.22 110.33 54.24 145 74.06 163 133.03 168.58 134.81 187.6 90.43 197.87 36.69 177.57 20.16 113.31 31.81 94.9 37.08 93.49"/></clipPath></defs><g class="cls-36"><g id="Layer_1"><circle class="cls-34" cx="116.66" cy="97.31" r="79.18"/><g class="cls-33"><path class="cls-17" d="m122.16,70.18c-1.86-1.72-4.48-5.41-4.63-6.23l7.9-8,.26,8.12-3.54,6.11Z"/><g id="R"><path class="cls-14" d="m132.58,31.95c0-1.2-.05-2.38-.12-3.56l4.8-.62c.75-.1,1.29-.79,1.19-1.54l-.61-4.72c-.1-.75-.79-1.29-1.54-1.19l-4.79.62c-.97-4.94-2.57-9.66-4.73-14.06l4.18-2.4c.66-.38.89-1.22.51-1.88l-2.37-4.13c-.38-.66-1.22-.89-1.88-.51l-4.19,2.41c-2.76-4.13-6.05-7.88-9.76-11.16l2.96-3.84c.46-.6.35-1.47-.25-1.93l-3.77-2.91c-.6-.46-1.47-.35-1.93.25l-2.95,3.83c-4.08-2.74-8.53-4.95-13.27-6.57l1.27-4.7c.2-.73-.24-1.49-.97-1.69l-4.59-1.24c-.73-.2-1.49.24-1.69.97l-1.27,4.7c-3.63-.72-7.38-1.11-11.22-1.11-1.2,0-2.38.05-3.56.12l-.63-4.84c-.1-.75-.79-1.29-1.54-1.19l-4.72.61c-.75.1-1.29.79-1.19,1.54l.62,4.83c-4.94.97-9.65,2.57-14.05,4.73l-2.42-4.22c-.38-.66-1.22-.89-1.88-.51l-4.13,2.37c-.66.38-.89,1.22-.51,1.88l2.43,4.23c-4.14,2.76-7.89,6.05-11.17,9.76l-3.86-2.98c-.6-.46-1.47-.35-1.93.25l-2.91,3.77c-.46.6-.35,1.47.25,1.93L28.23.21c-2.74,4.08-4.96,8.54-6.58,13.27l-4.7-1.27c-.73-.2-1.49.24-1.69.97l-1.24,4.59c-.2.73.24,1.49.97,1.69l4.7,1.27c-.72,3.63-1.11,7.38-1.11,11.22,0,1.2.05,2.38.12,3.56l-4.84.63c-.75.1-1.29.79-1.19,1.54l.61,4.72c.1.75.79,1.29,1.54,1.19l4.83-.62c.97,4.94,2.57,9.65,4.72,14.04l-4.22,2.42c-.66.38-.89,1.22-.51,1.88l2.37,4.13c.38.66,1.22.89,1.88.51l4.22-2.42c2.75,4.13,6.04,7.88,9.75,11.15l-2.98,3.86c-.46.6-.35,1.47.25,1.93l3.77,2.91c.6.46,1.47.35,1.93-.25l2.97-3.85c4.09,2.75,8.55,4.97,13.29,6.59l-1.27,4.7c-.2.73.24,1.49.97,1.69l4.59,1.24c.73.2,1.49-.24,1.69-.97l1.27-4.69c3.63.73,7.38,1.11,11.23,1.11,1.2,0,2.38-.05,3.56-.12l.63,4.84c.1.75.79,1.29,1.54,1.19l4.72-.61c.75-.1,1.29-.79,1.19-1.54l-.62-4.83c4.94-.97,9.65-2.57,14.05-4.73l2.42,4.22c.38.66,1.22.89,1.88.51l4.13-2.37c.66-.38.89-1.22.51-1.88l-2.42-4.22c4.13-2.75,7.87-6.03,11.15-9.74l3.84,2.96c.6.46,1.47.35,1.93-.25l2.91-3.77c.46-.6.35-1.47-.25-1.93l-3.82-2.95c2.75-4.08,4.96-8.55,6.59-13.29l4.66,1.26c.73.2,1.49-.24,1.69-.97l1.24-4.59c.2-.73-.24-1.49-.97-1.69l-4.65-1.26c.73-3.63,1.11-7.39,1.11-11.23Z"/><path class="cls-15" d="m79.14,88.83l.63,4.84c.1.75.79,1.29,1.54,1.19l4.72-.61c.75-.1,1.29-.79,1.19-1.54l-.62-4.83c4.94-.97,9.65-2.57,14.05-4.73l2.42,4.22c.38.66,1.22.89,1.88.51l4.13-2.37c.66-.38.89-1.22.51-1.88l-2.42-4.22c4.13-2.75,7.87-6.03,11.15-9.74l3.84,2.96c.6.46,1.47.35,1.93-.25l2.91-3.77c.46-.6.35-1.47-.25-1.93l-3.82-2.95c2.75-4.08,4.96-8.55,6.59-13.29l4.66,1.26c.73.2,1.49-.24,1.69-.97l1.24-4.59c.2-.73-.24-1.49-.97-1.69l-4.65-1.26c.73-3.63,1.11-7.39,1.11-11.23,0-1.2-.05-2.38-.12-3.56l4.8-.62c.75-.1,1.29-.79,1.19-1.54l-.61-4.72c-.1-.75-.79-1.29-1.54-1.19l-4.79.62c-.97-4.94-2.57-9.66-4.73-14.06l4.18-2.4c.66-.38.89-1.22.51-1.88l-2.37-4.13c-.38-.66-1.22-.89-1.88-.51l-4.19,2.41c-2.76-4.13-6.05-7.88-9.76-11.16l2.96-3.84c.46-.6.35-1.47-.25-1.93l-3.77-2.91c-.6-.46-1.47-.35-1.93.25l-2.95,3.83c-4.08-2.74-8.53-4.95-13.27-6.57l1.27-4.7c.2-.73-.24-1.49-.97-1.69l-4.59-1.24c-.73-.2-1.49.24-1.69.97l-1.27,4.7c-3.63-.72-7.38-1.11-11.22-1.11v114c1.2,0,2.38-.05,3.56-.12Z"/><path class="cls-15" d="m75.58,17.26c-8.12,0-14.7,6.58-14.7,14.7s6.58,14.7,14.7,14.7,14.7-6.58,14.7-14.7-6.58-14.7-14.7-14.7Zm0,21.96c-4.01,0-7.26-3.25-7.26-7.26s3.25-7.26,7.26-7.26,7.26,3.25,7.26,7.26-3.25,7.26-7.26,7.26Z"/><path class="cls-16" d="m75.58,17.26s-.01,0-.02,0v7.43s.01,0,.02,0c4.01,0,7.26,3.25,7.26,7.26s-3.25,7.26-7.26,7.26c0,0-.01,0-.02,0v7.43s.01,0,.02,0c8.12,0,14.7-6.58,14.7-14.7s-6.58-14.7-14.7-14.7Z"/><polygon class="cls-32" points="60.68 26.92 58.69 27.04 61.27 90.03 63.3 90.5 60.68 26.92"/><path class="cls-32" d="m88.08,23.02l20.23,55.23c.59-.38,1.17-.78,1.75-1.18l-20.91-56.85-1.07,2.79Z"/></g><path class="cls-24" d="m125.37,83.09l-5.01-13.36c-.83-2.21.29-4.68,2.5-5.51,2.07-.78,4.37.17,5.34,2.11l6.05,12.23-8.88,4.53Z"/><path class="cls-25" d="m122.01,75.74c6.04-2.13,8.62-5.57,8.62-5.57l2.77,5.83-9.09,5.74-2.3-6Z"/><path class="cls-26" d="m177.66,121.17l-38.12-7.06-.67-.14c-2.01-.42-3.56-1.87-4.25-3.65l-11.02-30.51s3.85.34,9.55-5.42c1.59,2.21,12.88,25.7,12.88,25.7l34.2,4.18c4.71.45,8.16,4.63,7.71,9.34-.45,4.71-4.63,8.16-9.34,7.71-.32-.03-.64-.08-.94-.14Z"/><path class="cls-24" d="m130.75,50.72s-.05.06-.14.16c-.05.05-.11.12-.17.2-.08.08-.09.13-.14.21-.08.12-.22.36-.34.61-.12.26-.24.55-.34.91-.21.69-.32,1.6-.38,2.64-.05,1.04-.04,2.21-.03,3.44,0,1.23,0,2.52-.14,3.8-.12,1.28-.36,2.54-.72,3.64-.18.55-.38,1.06-.59,1.5-.21.45-.41.83-.6,1.14-.17.32-.35.55-.46.71-.11.16-.17.25-.17.25l-.02.03c-1.07,1.57-3.21,1.98-4.78.9-1.57-1.07-1.98-3.21-.9-4.78.14-.21.32-.41.5-.58,0,0,.03-.03.1-.09.06-.06.17-.14.28-.27.12-.12.26-.28.42-.47.15-.2.32-.44.49-.72.35-.57.69-1.35,1-2.3.31-.95.56-2.06.81-3.24.25-1.18.49-2.42.81-3.62.32-1.2.72-2.36,1.25-3.33.25-.48.55-.91.83-1.27.29-.37.54-.65.83-.91.13-.12.27-.25.34-.31.08-.06.15-.11.21-.16.11-.08.18-.13.18-.13.62-.46,1.49-.33,1.95.29.4.54.35,1.27-.08,1.75Z"/><g id="R-2"><path class="cls-30" d="m154.19,136.29v-13.73c0-1.4-1.13-2.53-2.53-2.53h-9.02c-.51-2.81-1.24-5.55-2.18-8.19l7.81-4.51c1.21-.7,1.63-2.25.93-3.46l-6.86-11.89c-.7-1.21-2.25-1.63-3.46-.93l-7.83,4.52c-1.83-2.16-3.84-4.16-6-6l4.51-7.82c.7-1.21.28-2.76-.93-3.46l-11.89-6.86c-1.21-.7-2.76-.28-3.46.93l-4.51,7.8c-2.64-.94-5.37-1.67-8.18-2.18v-9.04c0-1.4-1.13-2.53-2.53-2.53h-13.73c-1.4,0-2.53,1.13-2.53,2.53v9.04c-2.82.51-5.56,1.24-8.2,2.18l-4.51-7.81c-.7-1.21-2.25-1.63-3.46-.93l-11.89,6.86c-1.21.7-1.63,2.25-.93,3.46l4.52,7.83c-2.15,1.83-4.15,3.83-5.98,5.98l-7.83-4.52c-1.21-.7-2.76-.28-3.46.93l-6.86,11.89c-.7,1.21-.28,2.76.93,3.46l7.82,4.51c-.94,2.64-1.67,5.38-2.18,8.19h-9.04c-1.4,0-2.53,1.13-2.53,2.53v13.73c0,1.4,1.13,2.53,2.53,2.53h9.04c.51,2.81,1.24,5.55,2.18,8.19l-7.81,4.51c-1.21.7-1.63,2.25-.93,3.46l6.86,11.89c.7,1.21,2.25,1.63,3.46.93l7.83-4.52c1.83,2.15,3.83,4.15,5.98,5.98l-4.52,7.83c-.7,1.21-.28,2.76.93,3.46l11.89,6.86c1.21.7,2.76.28,3.46-.93l4.51-7.81c2.64.94,5.38,1.67,8.2,2.18v9.04c0,1.4,1.13,2.53,2.53,2.53h13.73c1.4,0,2.53-1.13,2.53-2.53v-9.04c2.81-.51,5.55-1.24,8.18-2.18l4.51,7.8c.7,1.21,2.25,1.63,3.46.93l11.89-6.86c1.21-.7,1.63-2.25.93-3.46l-4.51-7.82c2.16-1.83,4.16-3.84,6-6l7.83,4.52c1.21.7,2.76.28,3.46-.93l6.86-11.89c.7-1.21.28-2.76-.93-3.46l-7.81-4.51c.94-2.64,1.67-5.38,2.18-8.19h9.02c1.4,0,2.53-1.13,2.53-2.53Zm-41.23-6.86c0,12.01-9.74,21.75-21.75,21.75s-21.75-9.74-21.75-21.75,9.74-21.75,21.75-21.75,21.75,9.74,21.75,21.75Z"/><path class="cls-19" d="m151.66,120.03h-9.02c-.51-2.81-1.24-5.55-2.18-8.19l7.81-4.51c1.21-.7,1.63-2.25.93-3.46l-6.86-11.89c-.7-1.21-2.25-1.63-3.46-.93l-7.83,4.52c-1.83-2.16-3.84-4.16-6-6l4.51-7.82c.7-1.21.28-2.76-.93-3.46l-11.89-6.86c-1.21-.7-2.76-.28-3.46.93l-4.51,7.8c-2.64-.94-5.37-1.67-8.18-2.18v-9.04c0-1.4-1.13-2.53-2.53-2.53h-6.87v41.25s0,0,0,0c12.01,0,21.75,9.74,21.75,21.75s-9.74,21.75-21.75,21.75c0,0,0,0,0,0v41.25h6.87c1.4,0,2.53-1.13,2.53-2.53v-9.04c2.81-.51,5.55-1.24,8.18-2.18l4.51,7.8c.7,1.21,2.25,1.63,3.46.93l11.89-6.86c1.21-.7,1.63-2.25.93-3.46l-4.51-7.82c2.16-1.83,4.16-3.84,6-6l7.83,4.52c1.21.7,2.76.28,3.46-.93l6.86-11.89c.7-1.21.28-2.76-.93-3.46l-7.81-4.51c.94-2.64,1.67-5.38,2.18-8.19h9.02c1.4,0,2.53-1.13,2.53-2.53v-13.73c0-1.4-1.13-2.53-2.53-2.53Z"/><circle class="cls-30" cx="91.21" cy="129.43" r="16.71" transform="translate(-63.53 162.99) rotate(-67.06)"/><circle class="cls-31" cx="91.2" cy="129.43" r="1.44"/><path class="cls-32" d="m91.21,146.89c-9.63,0-17.46-7.83-17.46-17.46s7.83-17.46,17.46-17.46,17.46,7.83,17.46,17.46-7.83,17.46-17.46,17.46Zm0-33.42c-8.8,0-15.96,7.16-15.96,15.96s7.16,15.96,15.96,15.96,15.96-7.16,15.96-15.96-7.16-15.96-15.96-15.96Z"/></g><path class="cls-17" d="m86.14,114.5c-.95-1.78,2.39-4.7,3.8-5.75,0,0,4.72.27,4.91,2.06,0,0-7.4,6.14-8.71,3.69Z"/><g id="R-3"><path class="cls-23" d="m17.63,80.9l.77-6.93c.11-.97-.59-1.84-1.56-1.95l-5.2-.58c-.11-2.27-.46-4.5-1.01-6.64l4.79-2.1c.89-.39,1.3-1.43.91-2.32l-2.8-6.38c-.39-.89-1.43-1.3-2.32-.91l-4.8,2.1c-1.22-1.89-2.62-3.64-4.2-5.24l3.1-4.22c.58-.78.41-1.89-.38-2.46l-5.61-4.13c-.78-.58-1.89-.41-2.46.38l-3.1,4.22c-1.97-1.01-4.06-1.84-6.26-2.44l.58-5.2c.11-.97-.59-1.84-1.56-1.95l-6.93-.77c-.97-.11-1.84.59-1.95,1.56l-.58,5.2c-2.27.11-4.5.46-6.64,1.01l-2.1-4.79c-.39-.89-1.43-1.3-2.32-.91l-6.38,2.8c-.89.39-1.3,1.43-.91,2.32l2.1,4.8c-1.89,1.22-3.64,2.63-5.25,4.2l-4.22-3.1c-.78-.58-1.89-.41-2.46.38l-4.13,5.61c-.58.78-.41,1.89.38,2.46l4.22,3.1c-1.01,1.97-1.84,4.06-2.44,6.26l-5.2-.58c-.97-.11-1.84.59-1.95,1.56l-.77,6.93c-.11.97.59,1.84,1.56,1.95l5.2.58c.11,2.27.46,4.5,1.01,6.64l-4.79,2.1c-.89.39-1.3,1.43-.91,2.32l2.8,6.38c.39.89,1.43,1.3,2.32.91l4.8-2.1c1.22,1.89,2.63,3.64,4.2,5.25l-3.1,4.22c-.58.78-.41,1.89.38,2.46l5.61,4.13c.78.58,1.89.41,2.46-.38l3.1-4.22c1.97,1.01,4.06,1.84,6.26,2.44l-.58,5.2c-.11.97.59,1.84,1.56,1.95l6.93.77c.97.11,1.84-.59,1.95-1.56l.58-5.2c2.27-.11,4.5-.46,6.64-1.01l2.1,4.79c.39.89,1.43,1.3,2.32.91l6.38-2.8c.89-.39,1.3-1.43.91-2.32l-2.1-4.8c1.89-1.22,3.64-2.62,5.24-4.2l4.22,3.1c.78.58,1.89.41,2.46-.38l4.13-5.61c.58-.78.41-1.89-.38-2.46l-4.22-3.1c1.01-1.97,1.84-4.07,2.44-6.26l5.2.58c.97.11,1.84-.59,1.95-1.56Zm-63.03-10.49c1.48-13.3,13.46-22.89,26.76-21.42,13.3,1.47,22.89,13.46,21.42,26.76-1.48,13.3-13.46,22.89-26.76,21.42-13.3-1.47-22.89-13.46-21.42-26.76Z"/><path class="cls-9" d="m16.84,72.03l-5.2-.58c-.11-2.27-.46-4.5-1.01-6.64l4.79-2.1c.89-.39,1.3-1.43.91-2.32l-2.8-6.38c-.39-.89-1.43-1.3-2.32-.91l-4.8,2.1c-1.22-1.89-2.62-3.64-4.2-5.24l3.1-4.22c.58-.78.41-1.89-.38-2.46l-5.61-4.13c-.78-.58-1.89-.41-2.46.38l-3.1,4.22c-1.97-1.01-4.06-1.84-6.26-2.44l.58-5.2c.11-.97-.59-1.84-1.56-1.95l-6.93-.77c-.32-.04-.62.02-.9.14v15.32c.88,0,1.77.05,2.67.15,13.3,1.47,22.89,13.46,21.42,26.76-1.38,12.41-11.89,21.58-24.09,21.57v15.32c.56-.24.98-.77,1.05-1.41l.58-5.2c2.27-.11,4.5-.46,6.64-1.01l2.1,4.79c.39.89,1.43,1.3,2.32.91l6.38-2.8c.89-.39,1.3-1.43.91-2.32l-2.1-4.8c1.89-1.22,3.64-2.62,5.24-4.2l4.22,3.1c.78.58,1.89.41,2.46-.38l4.13-5.61c.58-.78.41-1.89-.38-2.46l-4.22-3.1c1.01-1.97,1.84-4.07,2.44-6.26l5.2.58c.97.11,1.84-.59,1.95-1.56l.77-6.93c.11-.97-.59-1.84-1.56-1.95Z"/><path class="cls-28" d="m-21.31,103.89v-3.76c14.92,0,27.06-12.14,27.06-27.06s-12.14-27.06-27.06-27.06v-3.76c16.99,0,30.82,13.82,30.82,30.82s-13.82,30.82-30.82,30.82Z"/><path class="cls-8" d="m-21.31,47.32c14.69,0,26.63,11.75,26.96,26.36,0-.2.02-.4.02-.61,0-14.9-12.08-26.97-26.97-26.97s-26.97,12.08-26.97,26.97c0,.2.01.41.02.61.32-14.61,12.26-26.36,26.96-26.36Z"/></g><g id="R-4"><path class="cls-3" d="m-9.16,183.7c-6.43,0-11.73-.68-15.37-2.09l.54-1.4c10.13,3.91,33.73,2,58.73-4.77,28.97-7.84,53.66-20.5,67.75-34.72l1.07,1.06c-14.27,14.41-39.21,27.2-68.43,35.11-16.44,4.45-32.34,6.81-44.3,6.81Z"/><path class="cls-32" d="m92.81,112.79c-.16-.06-16.16-5.76-35.93-17.27-18.26-10.63-43.59-28.55-60.54-53.51l1.24-.84c16.79,24.72,41.91,42.48,60.03,53.04,19.66,11.45,35.55,17.11,35.7,17.17l-.5,1.42Z"/><rect class="cls-10" x="-77.43" y="18.73" width="143.44" height="1.5"/></g><g id="Boy"><path class="cls-24" d="m87.08,102.91c3.24,4.09,8.21,3.13,10.44,4.2,1.2.57,4.61,1.34,8.27,3.28,3.16,1.68,5.98,5.12,8.8,8.11l-4.17,6.85s-3.56-5.21-5.3-4.22c-1.75.99-8.08,4.42-11.17,2.32-.91-.62-1.49-2.01-2.58-3.16-.42-.45-1.49-.31-1.9-1.04-.54-.95.04-1.59-.43-2.31-.82-1.27-2.44-.86-2.91-2.45-.44-1.52,7.2-4.88,7.2-4.88,0,0-6.07-.81-6.9-3.69-.52-1.8.64-3.01.64-3.01Z"/><path class="cls-18" d="m115.37,113.52c-.23-.31-2.49,1.1-3.62,3.96-1.13,2.86,3.38,3.87,3.38,3.87l.23-7.83Z"/><polygon class="cls-25" points="109.88 126.36 105.84 121.35 110.8 113.21 115.75 117.53 109.88 126.36"/><path class="cls-11" d="m234.15,244.15l-41.22-2.76s13.62-34.06,14.62-46.39c.95-8.46-.41-14.06-2.05-16.22l-8.33-.25c-1.84-.77-3.84-1.23-5.93-1.32-9.42-.41-17.38,6.89-17.79,16.31l-2.38,54.75-.08,1.73c0,.13,0,.26,0,.38.02,4.97,4.05,8.98,9.02,8.97l53.66-.16c5.88-.92,2.21-8.63.48-15.02Z"/><path class="cls-12" d="m186.65,255.14c-2.64,0-5.19-1.07-7.03-2.94-1.81-1.84-2.77-4.25-2.72-6.79.13-6.4,8.52-50.43,8.88-52.3.08-.41.47-.67.88-.6.41.08.68.47.6.88-.09.46-8.73,45.78-8.85,52.05-.04,2.13.77,4.16,2.29,5.71,1.56,1.58,3.73,2.49,5.95,2.49h.03l47.99-.94h.02c.41,0,.74.33.75.74,0,.42-.32.76-.74.77l-48,.94h-.03Z"/><path class="cls-12" d="m201.14,193.3l-26.46-5.47c-.72,1.76-1.15,3.68-1.24,5.69l-1.58,36.35c23.16-5.35,29.52-29.17,29.28-36.57Z"/><path class="cls-11" d="m120.07,232.43l-3.19-49.2c-.32-4.96,3.53-3.36,8.49-3.68.34-.02.67-.02,1-.01l1.67.08,56.85-3.21c9.41.44,16.68,8.43,16.24,17.84-.44,9.41-8.26,16.99-18.06,15.83-22.31-2.64-47.56-14.35-47.56-14.35l-.41,36.3c-2.5,7.11-10.02,4.06-15.02.4Z"/><path class="cls-12" d="m128.44,237.01c-.39,0-.72-.3-.75-.7l-2.92-44.99c-.17-2.6.68-5.11,2.4-7.07,1.72-1.96,4.1-3.13,6.7-3.3.36-.02.72-.03,1.08-.01l1.67.08s.04,0,.06,0l34.4,4.26c.41.05.7.43.65.84-.05.41-.43.7-.84.65l-34.38-4.26-1.64-.08c-.3-.01-.61-.01-.91,0-2.2.14-4.21,1.13-5.66,2.79-1.45,1.66-2.18,3.78-2.03,5.98l2.92,44.99c.03.41-.29.77-.7.8-.02,0-.03,0-.05,0Z"/><path class="cls-11" d="m135.27,198.21c1.05.72,3.77,2.07,2.87-1.3-.91-3.37-4.25-4.23-4.25-4.23l1.38,5.53Z"/><path class="cls-11" d="m135.68,197.48c.83,1.34,1.44,3.87,0,3.6-1.44-.26,0-3.6,0-3.6Z"/><path class="cls-5" d="m137.69,197.95s-.04-.02-.11-.06c-.09-.05-.19-.12-.32-.2-.24-.17-.58-.41-.93-.75-.18-.16-.36-.35-.55-.55-.18-.21-.38-.41-.55-.66-.18-.23-.36-.48-.52-.74-.18-.25-.31-.53-.46-.8-.15-.27-.26-.56-.38-.83-.11-.28-.2-.56-.29-.83-.08-.27-.14-.54-.2-.79-.07-.25-.08-.49-.12-.71-.03-.22-.07-.42-.08-.6-.01-.18-.02-.33-.03-.46-.02-.25-.02-.4-.02-.4,0,0,.04.14.12.38.04.12.08.27.14.44.04.17.13.35.21.55.09.2.16.42.28.63.12.22.23.45.36.67.15.22.29.45.44.68.17.21.33.44.51.64.19.2.36.41.56.59.19.19.39.35.59.51.19.16.4.29.58.42.2.11.37.24.55.32.34.19.64.31.83.38.1.04.18.06.21.07.05.01.08.02.08.02.6.17.95.8.78,1.4-.17.6-.8.95-1.4.78-.09-.03-.18-.06-.25-.11h-.01Z"/><path class="cls-6" d="m133.16,195.18s0,.03-.01.07c0,.05-.01.12-.01.21,0,.18.02.43.06.73.09.6.27,1.4.58,2.14.15.37.32.73.53,1.04.09.16.2.29.3.43.1.14.21.24.31.34.09.11.2.17.29.25.08.08.17.12.24.16.13.08.21.13.21.13l.05.03c.18.11.23.34.13.52-.11.18-.34.23-.52.13-.01,0-.02-.01-.03-.02,0,0-.09-.07-.25-.19-.08-.06-.18-.13-.27-.24-.09-.1-.21-.2-.31-.34-.09-.14-.21-.27-.31-.43-.09-.16-.2-.33-.28-.51-.18-.36-.32-.76-.43-1.16-.23-.81-.32-1.63-.34-2.25,0-.31,0-.57.02-.75,0-.09.02-.16.04-.21.01-.05.02-.07.02-.07Z"/><path class="cls-4" d="m129.55,204.99s0,.11.02.31c.01.21.03.51.09.88.04.38.13.84.25,1.35.12.52.27,1.1.46,1.72.75,2.51,2.17,5.7,3.51,8.96.67,1.63,1.31,3.28,1.81,4.89.49,1.61.85,3.17.97,4.57.03.35.06.69.05,1.01.01.32,0,.63-.02.93,0,.29-.04.57-.08.82-.03.26-.07.49-.12.7-.08.42-.19.75-.26.98-.07.22-.11.34-.11.34-.19.59-.83.92-1.42.73-.59-.19-.92-.83-.73-1.42,0-.03.02-.05.03-.08l.04-.09s.04-.09.1-.25c.07-.16.17-.4.26-.72.06-.16.1-.34.14-.54.05-.2.09-.42.12-.66.04-.24.07-.49.08-.77.03-.27.02-.57.02-.87,0-1.23-.21-2.7-.56-4.27-.35-1.57-.84-3.24-1.38-4.9-1.07-3.32-2.24-6.66-2.8-9.26-.14-.65-.25-1.24-.33-1.78-.07-.53-.13-1-.14-1.38-.03-.39-.03-.69-.02-.89,0-.21,0-.32,0-.32Z"/><path class="cls-18" d="m211.63,181.31c-1.14,1.1-4.74.86-8.78-.03l-.69-4.09,9.47,4.12Z"/><path class="cls-12" d="m170.99,186.79c-.09,0-.18-.02-.27-.05-.39-.15-.58-.58-.43-.97.04-.1,3.81-9.52,15.2-6.85.4.09.65.5.56.9-.09.4-.5.65-.9.56-10.13-2.38-13.33,5.59-13.46,5.93-.11.3-.4.48-.7.48Z"/><path class="cls-12" d="m207.31,183.48c-.36-3.53-.84-3.44-1.81-4.71l-8.33-.25c-1.84-.77-3.84-1.23-5.93-1.32-5.13-.22-10.56,1.53-13.84,4.98,7.43,3.12,21.01,5.64,29.91,1.3Z"/><path class="cls-13" d="m146.43,75.66h0c-2.68-.15-5.1-1.93-5.9-4.65-1.02-3.45.94-7.07,4.39-8.09.2-.06.4-.11.6-.15-.17-.33-.32-.68-.42-1.05-.94-3.18.87-6.52,4.05-7.46,3.15-.94,6.46.84,7.43,3.96.53-.68,1.27-1.2,2.16-1.47,2.29-.68,4.69.62,5.37,2.91.16.53.21,1.07.16,1.6h0c1.14-1.15,6.1-.63,8.59,3.4,1.71,2.77,3.81,11.01-3.57,19.65l-22.86-8.65Z"/><path class="cls-24" d="m158.79,110.4s-1.69-8.54-3.9-11.09l10.07-13.81c1.64,9.13,9.55,19.64,13.63,22.72l-19.79,2.18Z"/><path class="cls-17" d="m165.55,88.07c-.24,2.27-.62,12.96-7.56,18.89-1.1-4.04-2.15-6.57-3.1-7.65l9.3-13.41c.48.62.93,1.36,1.36,2.17Z"/><path class="cls-24" d="m166.05,87.18c-2.02,3.79-9.18,15.72-13.98,14.51-4.8-1.21-6.09-11.33-6.09-11.33l-3.46.05c-.72,0-1.13-.82-.69-1.38,2.82-3.68,4.65-5.09,4.65-5.09,0,0-1.72-9.23,2.1-12.69,3.82-3.46,14.73-8.86,21.48.1,6.75,8.96-4.01,15.84-4.01,15.84Z"/><path class="cls-13" d="m148.58,68.44c3.82-3.46,15.33-6.11,22.08,2.85,6.75,8.96-4.61,15.88-4.61,15.88-.06.12-.13.24-.2.38-1.01.26-4.02.69-6.98-2.1-3.63-3.43-1.79-9.33-.99-11.3-7.05,2.63-11.46,1.5-11.46,1.5.34-1.73.99-6.14,2.17-7.21Z"/><path class="cls-32" d="m168.5,86.19c-.42,0-.75-.34-.75-.75,0-1.91-1.55-3.46-3.46-3.46-.42,0-.75-.34-.75-.75s.34-.75.75-.75c2.74,0,4.96,2.23,4.96,4.96,0,.42-.34.75-.75.75Z"/><path class="cls-32" d="m145,83.02c-.4,0-.73-.31-.75-.71-.02-.41.3-.77.71-.79l19.28-1.04c.41-.02.77.3.79.71.02.41-.3.77-.71.79l-19.28,1.04s-.03,0-.04,0Z"/><path class="cls-24" d="m159.1,83.12c.88-2.15,3.33-3.19,5.49-2.32,2.15.88,3.19,3.33,2.32,5.49-.88,2.15-3.33,3.19-5.49,2.32-2.15-.88-3.19-3.33-2.32-5.49Z"/><path class="cls-24" d="m146.48,83.93s-1.83,1.41-4.65,5.09c-.44.57-.03,1.39.69,1.38l3.46-.05c-.15-3.6.51-6.43.51-6.43Z"/><path class="cls-32" d="m145.26,87c-.39,0-.72-.3-.75-.7l-.52-7.56c-.03-.41.28-.77.7-.8.41-.03.77.28.8.7l.52,7.56c.03.41-.28.77-.7.8-.02,0-.03,0-.05,0Z"/><path class="cls-25" d="m154.3,110.63l.59-3.66s8.5-9.95,17.4-9.93c2.75,2.75,5.92,4.95,5.92,4.95l-23.9,8.64Z"/><path class="cls-25" d="m187.9,182.44c5.15,1.03,19,5.38,21.86-1.75-10.18-10.18-21.86,1.75-21.86,1.75Z"/><path class="cls-27" d="m165.13,175.25c15.74,15.83,33.52.81,46.51,6.06,5.15-1.83,4.86-76.99-35.81-79.56-11.28-.71-22.41,7.85-25.69,13.48,0,0,18.96,23.76,18.64,45.86-.07,4.96-6.06,7.12-3.64,14.17Z"/><path class="cls-27" d="m146.84,154.13c-.23.22-.56.5-.96.8l-.36.26-.18.13-.23.15c-.19.12-.37.23-.57.33l-.29.15c-.15.08-.31.15-.47.22-.33.14-.62.25-.99.36-.53.15-1.09.26-1.64.31-.54,0,.62.04-1.31.01h-.03s-.06-.01-.06-.01h-.06s-.28-.04-.28-.04l-.33-.05c-.44-.07-.87-.18-1.29-.32l-.3-.1-.1-.04-.21-.09c-.27-.11-.59-.26-.73-.34l-.52-.29-.39-.24c-.26-.17-.44-.29-.66-.45-.37-.27-.7-.53-1.01-.77-1.19-.97-20.2-20.01-23.99-25.31-2.28-3.66,4.71-11.55,5.49-15.28,0,0,22.52,23.6,22.78,23.79,0,0,8.79-16.51,9.57-17.99.79-1.48,1.57-2.83,2.41-4.09.43-.63.88-1.25,1.37-1.85.51-.62,1.06-1.21,1.71-1.78.13-.12.36-.3.52-.43.09-.07.17-.14.25-.2l.12-.09.18-.13c.31-.21.6-.4.87-.56.23-.13.44-.25.63-.36.12-.08.18-.13.18-.13,5.27-3.72,12.56-2.46,16.28,2.81,3.72,5.27,1.17,11.2-2.81,16.28-2.69,3.44-22.07,24.89-22.58,25.36Z"/><path class="cls-7" d="m163.98,171.4s0-.11.01-.33c0-.17.04-.62.13-1.1.1-.46.24-1,.49-1.57.23-.57.55-1.18.92-1.79.74-1.24,1.7-2.53,2.66-3.93.96-1.4,1.92-2.91,2.71-4.52.39-.81.76-1.62,1.05-2.46.31-.83.56-1.66.78-2.48.09-.41.19-.82.28-1.21.07-.4.14-.79.21-1.18.05-.39.1-.76.15-1.12.03-.37.07-.72.1-1.06.05-.68.08-1.3.09-1.86,0-.55.01-1.04,0-1.44-.03-.8-.05-1.25-.05-1.25,0,0,.05.45.15,1.25.05.4.07.88.12,1.44.03.56.05,1.19.06,1.88,0,.34,0,.7-.01,1.08-.02.37-.04.76-.07,1.15-.04.39-.08.8-.12,1.21-.06.41-.12.84-.19,1.26-.16.85-.34,1.74-.6,2.61-.24.88-.56,1.76-.9,2.63-.69,1.73-1.57,3.39-2.44,4.88-.87,1.5-1.72,2.85-2.29,4.02-.29.58-.52,1.12-.67,1.59-.16.47-.23.88-.28,1.21-.02.31-.04.49-.03.75,0,.21.01.33.01.33.02.62-.46,1.15-1.08,1.17-.62.02-1.15-.46-1.17-1.08,0-.03,0-.06,0-.09Z"/><path class="cls-29" d="m165.37,175.49c-1.06-.39-2.19-2.31-.64-2.97,1.55-.66.64,2.97.64,2.97Z"/><path class="cls-29" d="m135.78,136.53c.06-1.61,2.33-3.71,4.83-.43,2.5,3.28-4.83.43-4.83.43Z"/></g></g><g class="cls-35"><g id="R-5"><path class="cls-30" d="m154.19,136.29v-13.73c0-1.4-1.13-2.53-2.53-2.53h-9.02c-.51-2.81-1.24-5.55-2.18-8.19l7.81-4.51c1.21-.7,1.63-2.25.93-3.46l-6.86-11.89c-.7-1.21-2.25-1.63-3.46-.93l-7.83,4.52c-1.83-2.16-3.84-4.16-6-6l4.51-7.82c.7-1.21.28-2.76-.93-3.46l-11.89-6.86c-1.21-.7-2.76-.28-3.46.93l-4.51,7.8c-2.64-.94-5.37-1.67-8.18-2.18v-9.04c0-1.4-1.13-2.53-2.53-2.53h-13.73c-1.4,0-2.53,1.13-2.53,2.53v9.04c-2.82.51-5.56,1.24-8.2,2.18l-4.51-7.81c-.7-1.21-2.25-1.63-3.46-.93l-11.89,6.86c-1.21.7-1.63,2.25-.93,3.46l4.52,7.83c-2.15,1.83-4.15,3.83-5.98,5.98l-7.83-4.52c-1.21-.7-2.76-.28-3.46.93l-6.86,11.89c-.7,1.21-.28,2.76.93,3.46l7.82,4.51c-.94,2.64-1.67,5.38-2.18,8.19h-9.04c-1.4,0-2.53,1.13-2.53,2.53v13.73c0,1.4,1.13,2.53,2.53,2.53h9.04c.51,2.81,1.24,5.55,2.18,8.19l-7.81,4.51c-1.21.7-1.63,2.25-.93,3.46l6.86,11.89c.7,1.21,2.25,1.63,3.46.93l7.83-4.52c1.83,2.15,3.83,4.15,5.98,5.98l-4.52,7.83c-.7,1.21-.28,2.76.93,3.46l11.89,6.86c1.21.7,2.76.28,3.46-.93l4.51-7.81c2.64.94,5.38,1.67,8.2,2.18v9.04c0,1.4,1.13,2.53,2.53,2.53h13.73c1.4,0,2.53-1.13,2.53-2.53v-9.04c2.81-.51,5.55-1.24,8.18-2.18l4.51,7.8c.7,1.21,2.25,1.63,3.46.93l11.89-6.86c1.21-.7,1.63-2.25.93-3.46l-4.51-7.82c2.16-1.83,4.16-3.84,6-6l7.83,4.52c1.21.7,2.76.28,3.46-.93l6.86-11.89c.7-1.21.28-2.76-.93-3.46l-7.81-4.51c.94-2.64,1.67-5.38,2.18-8.19h9.02c1.4,0,2.53-1.13,2.53-2.53Zm-41.23-6.86c0,12.01-9.74,21.75-21.75,21.75s-21.75-9.74-21.75-21.75,9.74-21.75,21.75-21.75,21.75,9.74,21.75,21.75Z"/><path class="cls-19" d="m151.66,120.03h-9.02c-.51-2.81-1.24-5.55-2.18-8.19l7.81-4.51c1.21-.7,1.63-2.25.93-3.46l-6.86-11.89c-.7-1.21-2.25-1.63-3.46-.93l-7.83,4.52c-1.83-2.16-3.84-4.16-6-6l4.51-7.82c.7-1.21.28-2.76-.93-3.46l-11.89-6.86c-1.21-.7-2.76-.28-3.46.93l-4.51,7.8c-2.64-.94-5.37-1.67-8.18-2.18v-9.04c0-1.4-1.13-2.53-2.53-2.53h-6.87v41.25s0,0,0,0c12.01,0,21.75,9.74,21.75,21.75s-9.74,21.75-21.75,21.75c0,0,0,0,0,0v41.25h6.87c1.4,0,2.53-1.13,2.53-2.53v-9.04c2.81-.51,5.55-1.24,8.18-2.18l4.51,7.8c.7,1.21,2.25,1.63,3.46.93l11.89-6.86c1.21-.7,1.63-2.25.93-3.46l-4.51-7.82c2.16-1.83,4.16-3.84,6-6l7.83,4.52c1.21.7,2.76.28,3.46-.93l6.86-11.89c.7-1.21.28-2.76-.93-3.46l-7.81-4.51c.94-2.64,1.67-5.38,2.18-8.19h9.02c1.4,0,2.53-1.13,2.53-2.53v-13.73c0-1.4-1.13-2.53-2.53-2.53Z"/><path class="cls-1" d="m91.21,161.82c-17.56,0-31.85-13.98-32.37-31.41,0,.33-.02.66-.02.99,0,17.89,14.5,32.4,32.4,32.4s32.4-14.5,32.4-32.4c0-.33-.02-.66-.02-.99-.52,17.43-14.81,31.41-32.37,31.41Z"/><path class="cls-10" d="m70.96,56.92c-10.71,0-19.43-8.71-19.43-19.43s8.71-19.43,19.43-19.43,19.43,8.71,19.43,19.43-8.71,19.43-19.43,19.43Zm0-37.35c-9.88,0-17.92,8.04-17.92,17.92s8.04,17.92,17.92,17.92,17.92-8.04,17.92-17.92-8.04-17.92-17.92-17.92Z"/><rect class="cls-10" x="103.73" y="28.02" width="1.5" height="90.53" transform="translate(-19.18 41.76) rotate(-20.75)"/><circle class="cls-22" cx="91.21" cy="129.43" r="16.71" transform="translate(-63.53 162.99) rotate(-67.06)"/><path class="cls-20" d="m107.92,129.43c0-9.23-7.48-16.71-16.71-16.71v33.42c9.23,0,16.71-7.48,16.71-16.71Z"/><circle class="cls-31" cx="91.2" cy="129.43" r="1.44"/><path class="cls-21" d="m91.21,146.89c-9.63,0-17.46-7.83-17.46-17.46s7.83-17.46,17.46-17.46,17.46,7.83,17.46,17.46-7.83,17.46-17.46,17.46Zm0-33.42c-8.8,0-15.96,7.16-15.96,15.96s7.16,15.96,15.96,15.96,15.96-7.16,15.96-15.96-7.16-15.96-15.96-15.96Z"/><path class="cls-20" d="m91.21,159.05c-16.33,0-29.62-13.29-29.62-29.62s13.29-29.62,29.62-29.62v1.5c-15.51,0-28.12,12.61-28.12,28.12s12.61,28.12,28.12,28.12v1.5Z"/><path class="cls-20" d="m91.2,155.17c-14.2,0-25.75-11.55-25.75-25.75s11.55-25.75,25.75-25.75v1.5c-13.37,0-24.25,10.88-24.25,24.25s10.88,24.25,24.25,24.25v1.5Z"/><path class="cls-22" d="m91.2,159.05v-1.5c15.51,0,28.12-12.62,28.12-28.12s-12.61-28.12-28.12-28.12v-1.5c16.33,0,29.62,13.29,29.62,29.62s-13.29,29.62-29.62,29.62Z"/><path class="cls-22" d="m91.21,155.17v-1.5c13.37,0,24.25-10.88,24.25-24.25s-10.88-24.25-24.25-24.25v-1.5c14.2,0,25.75,11.55,25.75,25.75s-11.55,25.75-25.75,25.75Z"/><rect class="cls-10" x="54.8" y="37.38" width="1.5" height="93.16" transform="translate(-5.75 4.1) rotate(-4.02)"/><path class="cls-10" d="m91.21,162.57c-18.28,0-33.15-14.87-33.15-33.15s14.87-33.15,33.15-33.15,33.15,14.87,33.15,33.15-14.87,33.15-33.15,33.15Zm0-64.79c-17.45,0-31.64,14.2-31.64,31.64s14.2,31.64,31.64,31.64,31.64-14.2,31.64-31.64-14.2-31.64-31.64-31.64Z"/></g></g><path class="cls-32" d="m41.91,174.94c26.28-7.98,48.5-19.89,61.65-33.17l-1.07-1.06c-13,13.12-35.02,24.91-61.1,32.81l.52,1.41Z"/><path class="cls-17" d="m162.97,82.4s-1.16.82-.83,1.64c0,0,1.47-.07,2.05,1.66,0,0-1.8-1-2.35-.53-.54.46-.45,1.34-.13,1.81,0,0-1.4-1.65-.76-3.28.64-1.63,2.02-1.31,2.02-1.31Z"/></g></g></svg>