<?xml version="1.0" encoding="UTF-8"?><svg xmlns="http://www.w3.org/2000/svg" xmlns:xlink="http://www.w3.org/1999/xlink" viewBox="0 0 216 216"><defs><style>.cls-1,.cls-2,.cls-3,.cls-4,.cls-5,.cls-6,.cls-7,.cls-8,.cls-9,.cls-10,.cls-11,.cls-12,.cls-13,.cls-14,.cls-15,.cls-16,.cls-17,.cls-18,.cls-19,.cls-20{stroke-width:0px;}.cls-1,.cls-21{mix-blend-mode:multiply;opacity:.33;}.cls-1,.cls-15{fill:#f4807d;}.cls-2,.cls-22,.cls-23{fill:none;}.cls-24{stroke:#3870b5;stroke-width:2px;}.cls-24,.cls-22,.cls-23{stroke-miterlimit:10;}.cls-24,.cls-13{fill:#fff;}.cls-25{clip-path:url(#clippath-1);}.cls-26{clip-path:url(#clippath-3);}.cls-27{clip-path:url(#clippath-2);}.cls-22{stroke:#d90f03;stroke-width:.75px;}.cls-23{stroke:#00132b;}.cls-3,.cls-4,.cls-5{fill-rule:evenodd;}.cls-3,.cls-18{fill:#683a1b;}.cls-4,.cls-8{fill:#84522d;}.cls-5,.cls-17{fill:#f6861f;}.cls-28{isolation:isolate;}.cls-7{fill:#9ac7f7;}.cls-9{fill:#d90f03;}.cls-10{fill:#e08e65;}.cls-11{fill:#9e6b5f;}.cls-12{fill:#82524a;}.cls-14{fill:#ffab01;}.cls-16{fill:#ff554d;}.cls-19{fill:#00132b;}.cls-20{fill:#002555;}</style><clipPath id="clippath-1"><circle class="cls-2" cx="112.08" cy="125.09" r="78.27"/></clipPath><clipPath id="clippath-2"><polygon class="cls-2" points="38.84 33.22 22.78 79.44 29.84 109.85 37.27 147.87 46.82 149.65 92.6 153.12 124.96 111.55 118.39 75.55 85.3 35.89 57.57 26.65 38.84 33.22"/></clipPath><clipPath id="clippath-3"><polygon class="cls-2" points="199.26 131.5 179.89 128.05 174.04 138.23 142.08 134.79 108.49 133.75 113.69 28.82 145.69 11.85 176.51 18.09 199.26 131.5"/></clipPath></defs><g class="cls-28"><g id="Layer_1"><circle class="cls-24" cx="112.03" cy="124.96" r="79.18"/><rect class="cls-13" x="26.03" y="105.36" width="18.96" height="30.58"/><path class="cls-7" d="m87.68,71.6l5.27-4.54v-11.84c0-.85.69-1.54,1.54-1.54h30.28c.85,0,1.54.69,1.54,1.54v19.58c0,.85-.69,1.54-1.54,1.54h-30.28c-.85,0-1.54-.69-1.54-1.54v-3.21s-5.27,0-5.27,0Z"/><path class="cls-13" d="m116.45,65.02c0-.76.62-1.38,1.38-1.38s1.38.62,1.38,1.38c0,.76-.62,1.38-1.38,1.38s-1.38-.62-1.38-1.38Z"/><path class="cls-13" d="m107.62,65.02c0-.76.62-1.38,1.38-1.38s1.38.62,1.38,1.38c0,.76-.62,1.38-1.38,1.38s-1.38-.62-1.38-1.38Z"/><path class="cls-13" d="m99.15,64.99c0-.76.62-1.38,1.38-1.38s1.38.62,1.38,1.38-.62,1.38-1.38,1.38-1.38-.62-1.38-1.38Z"/><g class="cls-25"><path class="cls-11" d="m34.8,113.4c-.75-8.17,4.4-22.28,5.16-32.79.87-12.1,1.87-26.84,7.91-34.45,6.69-8.43,13.35-8.58,23.01-5.66,9.66,2.92,18.07,13.48,15.45,33.68-1.76,13.6,1.22,22.82-2.11,36.61-3.33,13.8-47.79,20.3-49.42,2.61Z"/><path class="cls-16" d="m84.78,139.08s6.37,40.41,4.98,91.76c0,0,2.92,2.26,2.72,5.31-.2,3.05-3.12,3.85-4.11,3.85l-25.35-.53s-2.19-1.06-2.45-3.38c-.27-2.32,1.86-3.85,1.86-3.85l-1.88-63.43s-4.22,22.82-7.51,30.59c-3.28,7.76-23.14,38.28-23.14,38.28H1.75s23.32-41.21,24.52-45.72c1.19-4.51,11.68-59.1,11.68-59.1l47.24-8.1s-1.67,8.33-.4,14.33Z"/><path class="cls-10" d="m79.56,46.86s3.94,7.24,2.43,19.17c-1.17,9.26-9.94,8.81-9.94,8.81l-1.07,5.69s-2.43,1.76-6.74,1.47c-4.31-.29-7.54-2.63-7.54-2.63l.83-7.45-2.79-6.73s-6.59,2.35-6.43-6c0,0-1.61-7.25,5.36-10.67,6.97-3.42,11.03-7.63,11.03-7.63l14.86,5.97Z"/><path class="cls-1" d="m72.05,74.83s-4.28.74-8.67-1.05c0,0,1.07,3.17,8.03,4.46l.64-3.41Z"/><path class="cls-11" d="m72.23,46.83s-8.04,13.26-24.12,18.25l1.74-11.3,16.08-9.56,6.3,2.61Z"/><polygon class="cls-20" points="134.42 151.36 133.93 204.99 169.08 198.33 202 160.97 191.27 147.66 134.42 151.36"/><path class="cls-6" d="m179.22,42.56c.2,5.7-5.53,14.13-7.96,17.82h-.01c-.56-.89-1.65-1.63-3.36-1.96,1.14-2.43,3.25-9.58,3.89-12.54-6.6-6.82-23.98-9.52-25.23-7.55-.26.39-.49.79-.73,1.19-7.73-3.69-7.42-17.8-3.89-19.8,1.56-.89,3.5-.47,5.33,1.37.08-1.3,1.4-3.71,3.49-3.88,2.36-.21,4.32,1.62,5.67,4.61-.28-2.32,1.81-5.41,5.16-4.55,2.17.55,4.83,6.6,7.84,10.15,3.02,3.57,9.62,10.08,9.81,15.15Z"/><path class="cls-8" d="m145.82,39.52c-4.76,8.08-6.07,17.44-5.37,21.52.93,5.47,5.99,8.9,10.85,8.9.09,2.25-.08,5.96-.08,5.96,0,0-2.58.52-5.75,1.43-1.02,18.76,20.5,20.06,27.57,1.67-4.65-2.11-8.42-3.03-8.42-3.03,0,0-.22-7.33.6-10.98,4.81,2.4,8.43-2.88,6.62-5.65-.56-.9-1.65-1.64-3.36-1.97,1.14-2.43,2.67-8.53,3.32-11.49-6.6-6.82-23.98-9.52-25.23-7.55-.26.39-.49.79-.73,1.19Z"/><path class="cls-14" d="m186.42,154.21c-11.51,3.38-40.8,6.92-52.49,2.43l.05-47.35-13.12-5.28s7.21-17.5,14.91-22.75c2.38-1.63,6.37-3,9.7-3.94-1.02,18.76,20.5,20.06,27.57,1.67,0,0,12.57,3.55,13.89,8.37,8.92,32.66-.49,66.85-.49,66.85Z"/><path class="cls-4" d="m183,103.59s-2.32-6.46-5.98-7.19c-3.77-.75-8.92,2.43-12.93,5.59-3.3-7.18-6.94-16.65-6.99-20.11,2.14-5.04-.04-9.24,5.27-14.08,2.46-2.24-1.09-5.56-4.41-1.78-2.52,2.87-6.7,2.81-8.99,2.34-4.56-.93-7.08-4.24-8.03-5.55-3.05.34-2.4,3.67-1.67,5.11-1.46.42-2.12,2.02-1.16,3.62-1.17.87-1.69,1.13-.29,3.59-1.13,1.1-.7,2.3.54,3.39,0,0,3.62,2.49,6.08,3.56.44,3.7,2.08,16.96,5.02,27.09-7.11,1.24-15.44,2.17-15.44,2.17l-.03-2-12.25-4.96c-3.17,7.5-4.8,21.85,2.33,24.85,6.28,2.64,17.83.99,30.44-6.55,3.11,6.29,6.97,10.78,11.63,10.79,7.59,0,12.57-7.27,12.57-7.27,1.38-4.14.74-8.23-1.96-11.28,0-.03,0-.06-.02-.08,1.55.55,3.81-.97,3.19-2.6,1.35.38,2.51-1.41,2.35-4.05,1-1.01,1.24-2.53.71-4.59Z"/><path class="cls-3" d="m176.82,114.73c-.13-2.43-1.22-4.53-2.75-6.48,0,0,2.28,4.58,1.72,7.09l1.03-.62Z"/><path class="cls-3" d="m180.95,112.05c-.54-3.11-2.93-5.65-5.08-7.68,0,0,4.17,6.68,3.99,9.14l1.09-1.47Z"/><path class="cls-3" d="m182.66,107.72c-.74-3.12-2.51-5.3-4.82-7.34,0,0,4.25,6.52,4.39,8.91l.43-1.57Z"/><path class="cls-3" d="m161.94,64.45c1.31.49,1.82,2.09.44,3.35-5.31,4.84-3.14,9.04-5.27,14.08.06,5.42,9,25.67,11.56,28.62l1.93,3.45s-12.18-14.38-15.76-31.23c0,0,1.57-3.55,2.44-9.32.21-1.4.99-2.64,2.1-3.52.97-.77,2.44-2.06,2.95-3.41.19-.5.09-.87-.02-1.4l-.37-.62Z"/><path class="cls-3" d="m140.8,62.96s8.59,10.11,17.83,2.37c.67-.56,1.54-.85,2.41-.85,0,0,.02,0,.03,0,0,0-1.48.69-2.56,1.9-.62.69-1.64,1.58-2.95,2.1-4.03,1.59-10.18,1.25-15.88-5.24l1.12-.28Z"/><polygon class="cls-18" points="154.52 122.67 149.47 109.16 151.48 124.23 154.52 122.67"/><polygon class="cls-19" points="160.31 165.31 159.67 187.95 163.53 184.26 160.31 165.31"/></g><g class="cls-27"><path class="cls-11" d="m32.6,107.77c-.77-8.36,4.51-22.82,5.29-33.59.89-12.4,1.92-27.5,8.1-35.29,6.85-8.63,13.68-8.79,23.57-5.8,9.89,2.99,18.51,13.81,15.83,34.5-1.8,13.94,1.25,23.37-2.16,37.51-3.42,14.13-48.95,20.79-50.62,2.67Z"/><path class="cls-16" d="m84.18,141.35s6.35,40.27,4.96,91.45c0,0,2.91,2.25,2.71,5.29-.2,3.04-3.11,3.84-4.1,3.84l-25.26-.53s-2.18-1.06-2.45-3.37c-.26-2.31,1.85-3.84,1.85-3.84l-1.87-63.21s-4.21,22.75-7.48,30.48c-3.27,7.74-23.06,38.15-23.06,38.15H1.44s26.54-41.39,27.73-45.89c1.19-4.5,10.98-62.88,10.98-62.88l44.43-3.77s-1.24,7.11-.4,14.28Z"/><path class="cls-20" d="m94.3,103.33l-2.05,2.05-10.65,20-.5,6.35.27,5.07c.16,1.83,2.66,2.5,4.4,1.9,2.29-.78,4.94-.94,7.72-4.03,5.26-5.85,8.61-18.31,8.61-18.31,0,0,2.71-7.98-7.8-13.03Z"/><path class="cls-20" d="m84.73,84.44s1.86,1.24,2.29,2.59c.43,1.36,5.22,18.35,5.22,18.35l-10.65,20-.98-.6,4.11-40.35Z"/><path class="cls-20" d="m69.92,78.28l14.19,5.82c1.16.48,1.92,1.6,1.92,2.86v6.88s-3.5,37-3.5,37c0,0,2.08,1.96,1.59,4.44-.5,2.48-3.17,2.94-3.17,2.94l-40.96-.89s-1.7-.2-1.76-2.84c-.07-2.64,0,0,0,0l2.51-12.17c.69-2.59-.26-16.98-.49-19.65l4.17-22.14s7.23-2.67,14.17-3.47l11.33,1.23Z"/><path class="cls-20" d="m58.59,77.05l11.33,1.23,5.24,2.15c-1.02,4.16-4.12,14.96-9.82,20.03,0,0-7.98-15.27-14.13-22.12,2.66-.56,5.29-1.05,7.38-1.29Z"/><path class="cls-10" d="m94.3,104s5.61-8.17,8.77-10.68c3.16-2.51,5.67-4.47,6.35-4.47s1.7,1.91,0,3.43c-1.7,1.52-2.28,2.06-2.19,2.95,0,0,10.15-1.16,11.54-1.43,0,0,1.52,1.39-.67,3.13,0,0,1.3,1.74-.58,2.91,0,0,.58,1.92-1.03,2.95,0,0,1.54,1.46-5.33,2.97,0,0-3.13.83-7.35,1.57l-2.47,8.43s-4.98-4.24-7.04-11.76Z"/><path class="cls-10" d="m78.97,45.35s3.93,7.22,2.42,19.1c-1.17,9.23-9.9,8.78-9.9,8.78l-1.07,5.67s-2.42,1.76-6.72,1.47c-4.29-.29-7.51-2.62-7.51-2.62l.82-7.42-2.78-6.71s-6.56,2.34-6.41-5.98c0,0-1.6-7.23,5.34-10.63,6.95-3.41,10.99-7.61,10.99-7.61l14.81,5.95Z"/><path class="cls-1" d="m71.49,73.23s-4.27.74-8.64-1.05c0,0,1.07,3.16,8,4.44l.64-3.39Z"/><path class="cls-11" d="m70.94,39.57s-8.24,13.58-24.71,18.7l1.78-11.58,16.47-9.79,6.46,2.67Z"/></g><path class="cls-12" d="m70.16,41.14s-8.13,11.42-23.93,17.14c0,0,.55,14.39,3.46,20.65l-5.92,1.81s-2.72-17.91-.39-23.88c0,0,22.41-10.33,26.78-15.72Z"/><path class="cls-12" d="m47.83,57.64s-.92,7.51,6.41,5.98l2.78,6.71-.82,7.42-12.43,3.07.35-9.27v-12.23l2.62-2.47,1.1.79Z"/><path class="cls-12" d="m71.49,73.23l-1.07,5.67,7.38,2.61-.1-10.16s-2.49,2.07-6.21,1.88Z"/><path class="cls-22" d="m60.05,142.53l.33,14.07s6.54-3.45,6.16-14.07"/><path class="cls-9" d="m60.08,156.87s3.16,10.57,6.4,31.88l-5.48-4.26-.21-6.11-.72-21.52Z"/><path class="cls-22" d="m77.9,142.56s-1.07,7.65,7.11,7.83"/><line class="cls-22" x1="40.69" y1="140.85" x2="84.14" y2="141.37"/><g class="cls-26"><path class="cls-6" d="m179.22,42.56c.2,5.7-5.53,14.13-7.96,17.82h-.01c-.56-.89-1.65-1.63-3.36-1.96,1.14-2.43,3.25-9.58,3.89-12.54-6.6-6.82-23.98-9.52-25.23-7.55-.26.39-.49.79-.73,1.19-7.73-3.69-7.42-17.8-3.89-19.8,1.56-.89,3.5-.47,5.33,1.37.08-1.3,1.4-3.71,3.49-3.88,2.36-.21,4.32,1.62,5.67,4.61-.28-2.32,1.81-5.41,5.16-4.55,2.17.55,4.83,6.6,7.84,10.15,3.02,3.57,9.62,10.08,9.81,15.15Z"/><path class="cls-8" d="m145.82,39.52c-4.76,8.08-6.07,17.44-5.37,21.52.93,5.47,5.99,8.9,10.85,8.9.09,2.25-.08,5.96-.08,5.96,0,0-2.58.52-5.75,1.43-1.02,18.76,20.5,20.06,27.57,1.67-4.65-2.11-8.42-3.03-8.42-3.03,0,0-.22-7.33.6-10.98,4.81,2.4,8.43-2.88,6.62-5.65-.56-.9-1.65-1.64-3.36-1.97,1.14-2.43,2.67-8.53,3.32-11.49-6.6-6.82-23.98-9.52-25.23-7.55-.26.39-.49.79-.73,1.19Z"/><path class="cls-14" d="m186.53,149.72c-11.51,3.38-40.41,6.12-52.11,1.64l-.44-42.07-13.12-5.28s7.21-17.5,14.91-22.75c2.38-1.63,6.37-3,9.7-3.94-1.02,18.76,20.5,20.06,27.57,1.67,0,0,11.1,3.59,12.61,8.76,9.48,32.5.9,61.96.9,61.96Z"/><path class="cls-5" d="m178.76,118.32s11.41-7.16,4.24-14.74l-6.03,7.24-.14,3.9,1.93,3.6Z"/><path class="cls-4" d="m183,103.59s-2.32-6.46-5.98-7.19c-3.77-.75-8.92,2.43-12.93,5.59-3.3-7.18-6.94-16.65-6.99-20.11,2.14-5.04-.04-9.24,5.27-14.08,2.46-2.24-1.09-5.56-4.41-1.78-2.52,2.87-6.7,2.81-8.99,2.34-4.56-.93-7.08-4.24-8.03-5.55-3.05.34-2.4,3.67-1.67,5.11-1.46.42-2.12,2.02-1.16,3.62-1.17.87-1.69,1.13-.29,3.59-1.13,1.1-.7,2.3.54,3.39,0,0,3.62,2.49,6.08,3.56.44,3.7,2.08,16.96,5.02,27.09-7.11,1.24-15.44,2.17-15.44,2.17l-.03-2-12.25-4.96c-3.17,7.5-4.8,21.85,2.33,24.85,6.28,2.64,17.83.99,30.44-6.55,3.11,6.29,6.97,10.78,11.63,10.79,7.59,0,12.57-7.27,12.57-7.27,1.38-4.14.74-8.23-1.96-11.28,0-.03,0-.06-.02-.08,1.55.55,3.81-.97,3.19-2.6,1.35.38,2.51-1.41,2.35-4.05,1-1.01,1.24-2.53.71-4.59Z"/><path class="cls-3" d="m176.82,114.73c-.13-2.43-1.22-4.53-2.75-6.48,0,0,2.28,4.58,1.72,7.09l1.03-.62Z"/><path class="cls-3" d="m180.95,112.05c-.54-3.11-2.93-5.65-5.08-7.68,0,0,4.17,6.68,3.99,9.14l1.09-1.47Z"/><path class="cls-3" d="m182.66,107.72c-.74-3.12-2.51-5.3-4.82-7.34,0,0,4.25,6.52,4.39,8.91l.43-1.57Z"/><path class="cls-3" d="m161.94,64.45c1.31.49,1.82,2.09.44,3.35-5.31,4.84-3.14,9.04-5.27,14.08.06,5.42,9,25.67,11.56,28.62l1.93,3.45s-12.18-14.38-15.76-31.23c0,0,1.57-3.55,2.44-9.32.21-1.4.99-2.64,2.1-3.52.97-.77,2.44-2.06,2.95-3.41.19-.5.09-.87-.02-1.4l-.37-.62Z"/><path class="cls-3" d="m140.8,62.96s8.59,10.11,17.83,2.37c.67-.56,1.54-.85,2.41-.85,0,0,.02,0,.03,0,0,0-1.48.69-2.56,1.9-.62.69-1.64,1.58-2.95,2.1-4.03,1.59-10.18,1.25-15.88-5.24l1.12-.28Z"/><polygon class="cls-18" points="154.52 122.67 149.47 109.16 151.48 124.23 154.52 122.67"/></g><path class="cls-22" d="m48.92,142.33s1.07,7.65-7.11,7.83"/><path class="cls-23" d="m134.57,168.86s11.02,1.59,11.32-9.41"/><path class="cls-23" d="m159.79,159.11l.39,7.19s-3.79-1.57-3.79-6.92"/><polygon class="cls-17" points="134 109.33 136.31 95.43 130.7 107.71 134 109.33"/><path class="cls-5" d="m178.72,126.19s-.8,1.68-1.58,3.35c-1.01,2.14-3.04,3.65-5.39,3.93-1.1.13-2.3.12-3.47-.19,0,0,7.45-2.29,10.44-7.08Z"/><path class="cls-14" d="m176.31,131.36l12.21-8.56s.12-32.13-4.46-37.77l-2.29,4.05,5.81,17.62-3.52,11.45-7.75,13.21Z"/><path class="cls-5" d="m190.47,123.7s-.04-2.73-.25-5.64l-.32-4.41s.74,9.03-11.17,12.53c0,0-2.23,5.32-6,7.06,0,0,10.84-1.06,17.74-9.55Z"/><path class="cls-5" d="m181.58,114.86s3.15,7.35.12,12.96l-3.85.12s3.03-7,.58-10.51l3.15-2.57Z"/><polygon class="cls-5" points="120.86 104.01 134 109.33 133.24 106.29 120.86 104.01"/><path class="cls-5" d="m136.94,129.92s1.95,26.54,2.44,28.12l-5.47-1.14-.02-26.62,3.05-.37Z"/><path class="cls-19" d="m102.27,112.78l-.95,3.09.75.6s.56-2.11.21-3.69Z"/><polygon class="cls-19" points="92.2 105.34 89.05 111.3 90.68 100.21 92.2 105.34"/><polygon class="cls-19" points="82.78 138.08 79.27 138.22 79.9 113.39 84.22 105.88 82.78 138.08"/><path class="cls-10" d="m34.5,131.74l4.98-2.15s5.57-2.5,14.53-.7c.45.09.57.95.14,1.11-.94.35-2.78.82-6.32,1.13,0,0,5.51,2.16,7.59,4.07.53.49.21,1.38-.51,1.42-.84.05-2.3-.26-4.88-1.53l3.13,2.22c.59.42.42,1.35-.28,1.51-.4.09-.95.13-1.7.05,0,0,.44,1.94-4.75.18,0,0-3.66-.74-5.07-.65,0,0-1.92,6.24-8.2,3.97l-2.09-1.36-3.78-2.47,3.41-8.21,3.82,1.4Z"/><path class="cls-20" d="m36.89,130.78s-5.48.94-6.14,11.83h0c-2.26-2.08-4.26-4.43-5.97-6.98l-5.33-7.97c-4.44-8.19-3.28-19.08,2.6-26.61l1.49-2.03c3.24-4.42,6.88-8.53,10.87-12.29l2.63-2.47c1.52-1.62,6.18-3.1,7.62-3.75h0l-.55,22.81-10.48,8.88c-2.56,2.17-3.07,4.9-1.59,7.91l4.87,10.66Z"/><path class="cls-18" d="m169.33,59.19s-1.46.04-1.65.93c0,0,1.3.78.8,2.59,0,0-.97-1.88-1.7-1.79-.73.09-1.15.89-1.14,1.48,0,0-.25-2.21,1.22-3.24,1.47-1.03,2.47.04,2.47.04Z"/><g class="cls-21"><path class="cls-15" d="m50.22,56.93s1.46.04,1.65.93c0,0-1.3.78-.8,2.59,0,0,.97-1.88,1.7-1.79.73.09,1.15.89,1.14,1.48,0,0,.25-2.21-1.22-3.24-1.47-1.03-2.47.04-2.47.04Z"/></g><path class="cls-20" d="m30.75,142.62s.61-.09,1.38-.86c0,0,.32.2-1.2-.87,0,0,.11-1.96-.17,1.73Z"/><polygon class="cls-12" points="43.75 80.47 43.77 80.82 56.2 77.75 43.75 80.47"/></g></g></svg>