<?xml version="1.0" encoding="UTF-8"?><svg id="Layer_1" xmlns="http://www.w3.org/2000/svg" xmlns:xlink="http://www.w3.org/1999/xlink" viewBox="0 0 216 216"><defs><style>.cls-1{clip-path:url(#clippath);}.cls-2,.cls-3,.cls-4,.cls-5,.cls-6,.cls-7,.cls-8,.cls-9,.cls-10,.cls-11,.cls-12,.cls-13,.cls-14,.cls-15{stroke-width:0px;}.cls-2,.cls-16{fill:none;}.cls-17{stroke:#3870b5;stroke-width:2px;}.cls-17,.cls-18,.cls-12{fill:#fff;}.cls-17,.cls-18,.cls-16{stroke-miterlimit:10;}.cls-18{stroke:#ffc257;stroke-width:4px;}.cls-19{clip-path:url(#clippath-3);}.cls-3{fill:#2a5488;}.cls-4{fill:#6f7de2;}.cls-5{fill:#9ac7f7;}.cls-6{fill:#3870b5;}.cls-7{fill:#84522d;}.cls-8{fill:#203133;}.cls-9{fill:#e08e65;}.cls-10{fill:#ba6644;}.cls-11{fill:#739dd2;}.cls-13{fill:#ffab01;}.cls-14{fill:#683a1b;}.cls-15{fill:#002555;}.cls-16{stroke:#002555;stroke-width:.5px;}</style><clipPath id="clippath"><circle class="cls-2" cx="-123.12" cy="106.48" r="78.15"/></clipPath><clipPath id="clippath-3"><circle class="cls-2" cx="124.86" cy="107.81" r="78.03"/></clipPath></defs><g class="cls-1"><path class="cls-3" d="m44.82,263.63s-59.66,10.39-74.73,7.67c-15.08-2.73-14.82-15.72-13.13-24.05,1.17-5.77,4.28-24.63,6.69-40.46,1.05-6.97,1.98-13.35,2.54-17.76l20.69-10.64,19.72-10.14c-.61,6.76-9.86,36.67-14.29,52.3-.5,1.78-.94,3.37-1.3,4.73-2.64,9.99,2.91,13.63,9.47,14.03,2.14.14,4.39-.07,6.5-.52,8.55-1.81,35.38-8.41,35.38-8.41l2.47,33.24Z"/></g><circle class="cls-17" cx="124.61" cy="108" r="79.18"/><circle class="cls-2" cx="124.61" cy="108" r="79.18"/><circle class="cls-2" cx="124.61" cy="108" r="78.14"/><circle class="cls-2" cx="124.61" cy="108" r="78.14"/><g class="cls-19"><rect class="cls-15" x="17.21" y="36.93" width="108.64" height="88.44" rx="5.74" ry="5.74"/><rect class="cls-12" x="22.91" y="41.26" width="97.25" height="79.44"/><path class="cls-5" d="m197.7,148.87c-3.1,29.31-8.17,58.34-8.17,59.18s-60.88,0-60.88,0l-.11-3.04-.02-.46v-.24s-.01-.11-.01-.11v-.04c-.74-.02-1.53-.21-2.35-.56-.09-.04-.18-.08-.28-.12-9.57-4.36-24.25-28.5-30.17-38.77-.06-.1-.11-.2-.17-.29-.1-.18-.2-.35-.3-.52-.06-.1-.11-.2-.17-.29-1.25-2.2-1.97-3.52-1.97-3.52.43-2.51,1.44-4.75,2.76-6.72.02-.03.04-.06.06-.09,0,0,0,0,0,0,0,0,0,0,0-.01,0,0,0-.01.01-.02,0,0,.01-.02.02-.03,0-.01.01-.02.02-.03,1.79-2.62,4.11-4.74,6.29-6.36,0,0,0,0,0,0,0,0,.01-.01.02-.02,0,0,0,0,0,0,1.09-.81,2.14-1.49,3.07-2.05.04-.02.08-.05.11-.07,2-1.19,3.42-1.78,3.42-1.78l2.65,2.94.11.12.43.48.11.12,8.63,9.59.14.16.06.07.47.52s0-.02.01-.05c0,0,0,0,0-.01.06-.27.31-1.39.72-3.08h0c.74-3.14,1.98-8.25,3.41-13.6-.03-.04-.06-.09-.09-.13,0-.01-.02-.03-.03-.04h0c-.17-.24-.34-.5-.52-.76,0-.01-.02-.03-.03-.04-6.31-9.62-14.48-33.24-18.39-45.14,0-.03-.02-.05-.02-.07-.08-.24-.15-.47-.23-.69,0-.03-.02-.05-.02-.07-1.25-3.83-2-6.25-2-6.25l2.98-1.12.14-.05.41-.15,10.35-3.9.07-.03,1.91-.72c.5.96,1.5,2.64,2.85,4.8,0,0,0,0,0,0,.14.22.28.45.42.68,0,0,0,0,0,0,4.42,7.07,11.96,18.53,17.17,26.38.1.15.2.3.3.45.04.07.09.13.13.2.04-.02.09-.04.13-.06.58-.28,1.16-.55,1.74-.81,2.38-1.05,4.76-1.87,6.75-2.48h0s.04-.01.07-.02c.61-.19,1.18-.35,1.7-.5.14-.04.27-.07.4-.11h0s0,0,0,0c.02,0,.03-.02.05-.04.11-.11.24-.43.4-.86,0-.02.02-.05.03-.07h0s.01-.04.02-.06c.16-.47.34-1.04.5-1.61.45-1.57,1.73-2.77,3.34-3.12l1.52-.34,19.17-4.25,4.55-1.01.19,4.13v.05s.03.47.03.47c0,0,.1.08.27.25.01.01.03.03.05.04,2.48,2.34,18.61,18.7,15.75,45.77Z"/><path class="cls-18" d="m80.7,140.7l-17.14,2.31c-.82.11-1.6-.35-1.9-1.12l-16.52-42.47c-.43-1.1.31-2.3,1.48-2.42l39.89-4.09c.8-.08,1.56.38,1.85,1.13l15.52,40.44c.4,1.05-.25,2.2-1.36,2.39l-21.83,3.82Z"/><line class="cls-16" x1="54.33" y1="103.58" x2="83.36" y2="99.7"/><line class="cls-16" x1="56.03" y1="107.83" x2="72.69" y2="105.6"/><line class="cls-16" x1="57.39" y1="112.17" x2="82.89" y2="108.76"/><line class="cls-16" x1="59.64" y1="116.78" x2="76.3" y2="114.55"/><path class="cls-9" d="m105.54,144.87s.14-4.35-3.17-6.1l-6.17.97s-7.12-7.41-15.21-6.31c0,0-4.78-7.17-7.54-5.61-2.76,1.56-2.11,6.44,8.68,14.24l-7.72.92,9.47,6.72c2.15,1.57,4.66,2.6,7.3,2.99l4.98.73s3.61-5.22,9.39-8.55Z"/><path class="cls-8" d="m146.31,121.59s.04,0,0,0h0Zm-.59,0s.01,0,0,0h0Z"/><path class="cls-14" d="m176.23,88.6l-.25-12c7.06.86,8.52,3.02,4.28-.78-1.44-1.29.11-.95-1.28-.47-.8.28-2.19-1.44-2.88-.9-.11.08-.09.65-.19.74-.05-.03-.22-.56-.26-.59-.36-.26-.68-.53-.94-.82-2.51-2.71-.84-9.6-.84-9.6,0,0-21.09,3.75-30.94-.87-.1-.05-.2-.09-.29-.14-7.17-3.52-5.41-14.2,2.51-15.25,8.78-1.16,20.37-3.23,27.45-3.73,8.47-.6,11.26,7.38,11.26,7.38,19.84,14.17-7.61,37.01-7.61,37.01Z"/><path class="cls-9" d="m176.44,78.78l-.21,9.82.26,10.58-19.02,4.25.23-4.85s-10.73,2.46-17.14-3.69c-6.41-6.15,2.36-31.57,2.36-31.57,9.84,4.62,30.94.87,30.94.87,0,0-1.78,7.59,2.24,10.27,1.93-1.62-.24-1.27,2.16.88,4.24,3.8,5.25,4.3-1.81,3.44Z"/><path class="cls-15" d="m174.73,70.68l-7.74,2.5c-.5-3.34-3.38-5.9-6.86-5.9s-6.42,2.62-6.87,6.01c-1.16-.56-2.3-.43-3.05-.21,0-.1,0-.19,0-.29,0-3.82-3.11-6.93-6.93-6.93s-6.93,3.11-6.93,6.93,3.11,6.93,6.93,6.93c3.32,0,6.1-2.34,6.78-5.46.51-.21,1.86-.63,3.14.23.15,3.7,3.2,6.66,6.93,6.66s6.9-3.08,6.93-6.87l8.6-2.78c-.36-.26-.68-.53-.94-.82Zm-31.44,7.98c-3.24,0-5.87-2.63-5.87-5.87s2.63-5.87,5.87-5.87,5.87,2.63,5.87,5.87-2.63,5.87-5.87,5.87Zm16.84,1.42c-3.24,0-5.87-2.63-5.87-5.87s2.63-5.87,5.87-5.87,5.87,2.63,5.87,5.87-2.63,5.87-5.87,5.87Z"/><path class="cls-10" d="m157.69,98.58l-.15,3.19c7.42-3.22,11.41-8.99,11.41-8.99-.99.74-10.53,5.61-11.11,5.76-.09.02-.14.04-.14.04Z"/><path class="cls-8" d="m88.35,65.35l-3.12,2.69c-.12.11-.18.27-.16.43h0c.03.24.25.42.49.41l4.04-.13-1.25-3.4Z"/><path class="cls-4" d="m103.85,63.1l-2.79,1.11-5.59,2.23c-2.08-1.73-3.94-2.44-5.34-.87-.38.43-.06,1.45.63,2.74l-.74.29c-.98.39-2.08-.11-2.43-1.11-.07-.2-.1-.4-.1-.61,0-.73.44-1.42,1.16-1.71l4.69-1.89,9.11-3.67c.93-.37,1.98.06,2.38.97l.02.04c.42.96-.04,2.07-1.01,2.46Z"/><path class="cls-9" d="m118.27,81.71l-10.81,4.11-1.66-3.19-3.09-1.58c-2.74-1.4-5.15-3.37-7.07-5.78-1.74-2.19-3.78-4.91-4.87-6.95-.7-1.3-1.01-2.32-.63-2.74,1.4-1.57,3.25-.86,5.34.87.24.2.49.41.73.64,2.38,2.17,4.27,4.76,4.27,4.76l.59-7.63,2.79-1.11c.97-.39,1.43-1.5,1.01-2.46l-.02-.04c-.4-.91-1.46-1.34-2.38-.97l-9.11,3.67c-.21-.83-.01-1.56-.01-1.56,0,0,5.82-6.27,7.38-6.35,1.23-.07,2.77.91,3.36,1.32.16.11.25.18.25.18,0,0,.35.07.95.2.93.21,2.46.56,4.1,1.03.31.09.63.18.95.28,1.18.36,2.37.77,3.4,1.22h0c.34.15.66.3.97.46.99.52,1.73,1.07,2.02,1.65,1.31,2.68.74,17.97.74,17.97l.82,2.01Z"/><path class="cls-14" d="m183.85,51.59s14.17,6.98,8.27,39.56c0,0-1.34,5.79,2.67,9.13,0,0-11.2,6.94-18.3-1.1l-.26-10.58.73-2.73,2.17-.99,1.17-.81,2.47-2.02,1.7-3.15,1.07-3.85-1.17-3.34-3.16-12,2.64-8.11Z"/><circle class="cls-9" cx="177.87" cy="77.76" r="5.75"/><path class="cls-10" d="m178.65,74.48s-1.88.8-1.67,2.05c0,0,2.09.35,2.37,2.96,0,0-2.23-1.95-3.13-1.46-.91.49-1.04,1.74-.73,2.51,0,0-1.46-2.75-.07-4.84,1.39-2.09,3.24-1.22,3.24-1.22Z"/><path class="cls-14" d="m138.11,56.08v6.9s10.36,2.53,15.66,2.53l-15.66-9.43Z"/><polyline class="cls-6" points="30.52 84.58 30.52 72.22 39.18 72.22 39.18 84.58"/><polyline class="cls-6" points="43.53 84.58 43.53 63.65 42.19 63.65 42.19 84.58"/><polyline class="cls-6" points="46.53 84.58 46.53 54.37 55.2 54.37 55.2 84.58"/><polyline class="cls-6" points="59.54 84.58 59.54 48.06 68.21 48.06 68.21 84.58"/><polygon class="cls-13" points="32.66 90.26 34.07 93.12 37.22 93.57 34.94 95.79 35.48 98.93 32.66 97.45 29.85 98.93 30.38 95.79 28.11 93.57 31.25 93.12 32.66 90.26"/><line class="cls-16" x1="25.21" y1="84.88" x2="94.54" y2="84.88"/><line class="cls-16" x1="29.53" y1="104.23" x2="49.22" y2="104.23"/><line class="cls-16" x1="29.53" y1="110.4" x2="47.19" y2="110.4"/></g><rect class="cls-15" x="12.21" y="36.93" width="113.65" height="88.44" rx="5.74" ry="5.74"/><rect class="cls-12" x="17.9" y="41.26" width="102.26" height="79.44"/><path class="cls-5" d="m181.95,103.11s-.03-.03-.05-.04c-.18-.17-.27-.25-.27-.25l-.02-.47v-.05s-.2-4.13-.2-4.13l-4.55,1.01-19.17,4.25-1.52.34c-1.61.35-2.88,1.55-3.34,3.12-.16.57-.34,1.14-.5,1.61,0,.02-.01.04-.02.06h0s-.02.05-.03.08c-.15.43-.29.75-.4.86-.02.02-.03.03-.05.04,0,0,0,0,0,0h0c-.13.04-.26.07-.4.11-.52.15-1.09.31-1.7.5-.02,0-.04.01-.07.02h0c-1.99.61-4.36,1.43-6.75,2.48-.58.26-1.16.53-1.74.81-.04.02-.09.04-.13.06-.04-.07-.09-.13-.13-.2-.1-.15-.2-.3-.3-.45-5.21-7.85-12.75-19.31-17.17-26.38,0,0,0,0,0,0-.15-.23-.29-.46-.42-.68,0,0,0,0,0,0-1.34-2.16-2.35-3.85-2.85-4.8l-1.91.72-.07.03-10.35,3.9-.41.15-.14.05-2.98,1.12s.74,2.42,2,6.25c0,.02.02.05.02.07.07.23.15.46.23.69,0,.02.02.05.02.07,3.9,11.9,12.07,35.52,18.39,45.14,0,.01.02.03.03.04.18.27.35.52.52.76h0s.02.03.03.04c.03.04.06.09.09.13-1.43,5.36-2.67,10.46-3.41,13.6h0c-.4,1.7-.65,2.81-.72,3.09,0,0,0,0,0,.01,0,.04-.01.05-.01.05l-.47-.52-.06-.07-.14-.16-8.63-9.59-.11-.12-.43-.48-.11-.12-2.65-2.94s-1.42.6-3.42,1.78c-.04.02-.08.05-.11.07-.93.56-1.99,1.24-3.07,2.05,0,0,0,0,0,0,0,0-.01.01-.02.02,0,0,0,0,0,0-2.18,1.62-4.5,3.75-6.29,6.36,0,.01-.02.02-.02.03,0,0-.01.02-.02.03,0,0,0,.01-.01.02,0,0,0,0,0,.01,0,0,0,0,0,0-.02.03-.04.06-.06.09-1.32,1.97-2.33,4.21-2.76,6.72,0,0,.72,1.33,1.97,3.52.05.1.11.19.17.29.1.17.2.34.3.52.05.1.11.19.17.29,5.92,10.27,36.75,4.21,46.33,8.57l39.92-70.18"/><path class="cls-14" d="m176.23,88.6l-.25-12c7.06.86,8.52,3.02,4.28-.78-1.44-1.29.11-.95-1.28-.47-.8.28-2.19-1.44-2.88-.9-.11.08-.09.65-.19.74-.05-.03-.22-.56-.26-.59-.36-.26-.68-.53-.94-.82-2.51-2.71-.84-9.6-.84-9.6,0,0-21.09,3.75-30.94-.87-.1-.05-.2-.09-.29-.14-7.17-3.52-5.41-14.2,2.51-15.25,8.78-1.16,20.37-3.23,27.45-3.73,8.47-.6,11.26,7.38,11.26,7.38,19.84,14.17-7.61,37.01-7.61,37.01Z"/><path class="cls-9" d="m176.44,78.78l-.21,9.82.26,10.58-19.02,4.25.23-4.85s-10.73,2.46-17.14-3.69c-6.41-6.15,2.36-31.57,2.36-31.57,9.84,4.62,30.94.87,30.94.87,0,0-1.78,7.59,2.24,10.27,1.93-1.62-.24-1.27,2.16.88,4.24,3.8,5.25,4.3-1.81,3.44Z"/><path class="cls-15" d="m174.73,70.68l-7.74,2.5c-.5-3.34-3.38-5.9-6.86-5.9s-6.42,2.62-6.87,6.01c-1.16-.56-2.3-.43-3.05-.21,0-.1,0-.19,0-.29,0-3.82-3.11-6.93-6.93-6.93s-6.93,3.11-6.93,6.93,3.11,6.93,6.93,6.93c3.32,0,6.1-2.34,6.78-5.46.51-.21,1.86-.63,3.14.23.15,3.7,3.2,6.66,6.93,6.66s6.9-3.08,6.93-6.87l8.6-2.78c-.36-.26-.68-.53-.94-.82Zm-31.44,7.98c-3.24,0-5.87-2.63-5.87-5.87s2.63-5.87,5.87-5.87,5.87,2.63,5.87,5.87-2.63,5.87-5.87,5.87Zm16.84,1.42c-3.24,0-5.87-2.63-5.87-5.87s2.63-5.87,5.87-5.87,5.87,2.63,5.87,5.87-2.63,5.87-5.87,5.87Z"/><path class="cls-10" d="m157.69,98.58l-.15,3.19c7.42-3.22,11.41-8.99,11.41-8.99-.99.74-10.53,5.61-11.11,5.76-.09.02-.14.04-.14.04Z"/><path class="cls-15" d="m88.35,65.35l-3.12,2.69c-.12.11-.18.27-.16.43h0c.03.24.25.42.49.41l4.04-.13-1.25-3.4Z"/><path class="cls-5" d="m103.85,63.1l-2.79,1.11-5.59,2.23c-2.08-1.73-3.94-2.44-5.34-.87-.38.43-.06,1.45.63,2.74l-.74.29c-.98.39-2.08-.11-2.43-1.11-.07-.2-.1-.4-.1-.61,0-.73.44-1.42,1.16-1.71l4.69-1.89,9.11-3.67c.93-.37,1.98.06,2.38.97l.02.04c.42.96-.04,2.07-1.01,2.46Z"/><path class="cls-9" d="m118.27,81.71l-10.81,4.11-1.66-3.19-3.09-1.58c-2.74-1.4-5.15-3.37-7.07-5.78-1.74-2.19-3.78-4.91-4.87-6.95-.7-1.3-1.01-2.32-.63-2.74,1.4-1.57,3.25-.86,5.34.87.24.2.49.41.73.64,2.38,2.17,4.27,4.76,4.27,4.76l.59-7.63,2.79-1.11c.97-.39,1.43-1.5,1.01-2.46l-.02-.04c-.4-.91-1.46-1.34-2.38-.97l-9.11,3.67c-.21-.83-.01-1.56-.01-1.56,0,0,5.82-6.27,7.38-6.35,1.23-.07,2.77.91,3.36,1.32.16.11.25.18.25.18,0,0,.35.07.95.2.93.21,2.46.56,4.1,1.03.31.09.63.18.95.28,1.18.36,2.37.77,3.4,1.22h0c.34.15.66.3.97.46.99.52,1.73,1.07,2.02,1.65,1.31,2.68.74,17.97.74,17.97l.82,2.01Z"/><path class="cls-14" d="m183.85,51.59s14.17,6.98,8.27,39.56c0,0-1.34,5.79,2.67,9.13,0,0-11.2,6.94-18.3-1.1l-.26-10.58.73-2.73,2.17-.99,1.17-.81,2.47-2.02,1.7-3.15,1.07-3.85-1.17-3.34-3.16-12,2.64-8.11Z"/><circle class="cls-9" cx="177.87" cy="77.76" r="5.75"/><path class="cls-10" d="m178.65,74.48s-1.88.8-1.67,2.05c0,0,2.09.35,2.37,2.96,0,0-2.23-1.95-3.13-1.46-.91.49-1.04,1.74-.73,2.51,0,0-1.46-2.75-.07-4.84,1.39-2.09,3.24-1.22,3.24-1.22Z"/><path class="cls-14" d="m138.11,56.08v6.9s10.36,2.53,15.66,2.53l-15.66-9.43Z"/><polyline class="cls-6" points="28.51 84.58 28.51 72.22 37.18 72.22 37.18 84.58"/><polyline class="cls-6" points="41.52 84.58 41.52 63.65 50.19 63.65 50.19 84.58"/><polyline class="cls-6" points="54.53 84.58 54.53 54.37 63.2 54.37 63.2 84.58"/><polyline class="cls-6" points="67.54 84.58 67.54 48.06 76.21 48.06 76.21 84.58"/><polygon class="cls-13" points="30.66 90.26 32.07 93.12 35.21 93.57 32.94 95.79 33.47 98.93 30.66 97.45 27.84 98.93 28.38 95.79 26.1 93.57 29.25 93.12 30.66 90.26"/><line class="cls-16" x1="23.21" y1="84.88" x2="102.55" y2="84.88"/><line class="cls-16" x1="27.53" y1="104.23" x2="47.22" y2="104.23"/><line class="cls-16" x1="27.53" y1="110.4" x2="55.2" y2="110.4"/><path class="cls-18" d="m80.7,140.7l-17.14,2.31c-.82.11-1.6-.35-1.9-1.12l-16.52-42.47c-.43-1.1.31-2.3,1.48-2.42l39.89-4.09c.8-.08,1.56.38,1.85,1.13l15.52,40.44c.4,1.05-.25,2.2-1.36,2.39l-21.83,3.82Z"/><line class="cls-16" x1="54.33" y1="103.58" x2="83.36" y2="99.7"/><line class="cls-16" x1="56.03" y1="107.83" x2="72.69" y2="105.6"/><line class="cls-16" x1="57.39" y1="112.17" x2="82.89" y2="108.76"/><line class="cls-16" x1="59.64" y1="116.78" x2="76.3" y2="114.55"/><path class="cls-9" d="m105.49,144.69s.14-4.35-3.17-6.1l-6.17.97s-7.12-7.41-15.21-6.31c0,0-4.78-7.17-7.54-5.61-2.76,1.56-2.11,6.44,8.68,14.24l-7.72.92,9.47,6.72c2.15,1.57,4.66,2.6,7.3,2.99l4.74.86s3.86-5.36,9.63-8.69Z"/><path class="cls-8" d="m146.31,121.59s.04,0,0,0h0Zm-.59,0s.01,0,0,0h0Z"/><polygon class="cls-11" points="151.43 109.62 176.26 104.18 152.83 106.87 151.43 109.62"/><polygon class="cls-11" points="158.04 133.01 188.81 127.89 189.62 132.21 158.04 133.01"/><path class="cls-11" d="m125.64,140.15s5.28-22.91,15.53-26.72l-6.54-9.58s-3.18,20.66-13.24,28.94l2.14,4.06,2.11,3.3Z"/><path class="cls-11" d="m121.5,156.9s-2.22,14.15-2.22,21.84c0,0,7.95-45.9,10.22-51.1,0,0-4.41,10.66-7.99,29.26Z"/><polygon class="cls-11" points="108.91 142.91 121.5 156.9 121.26 164.12 107.49 143.61 108.91 142.91"/><path class="cls-7" d="m153.2,46.87s.51,13.21,27.23,7.82c0,0,2.47,8.76,11,7.63,0,0-1.91-7.34-7.58-10.74,0,0-2.3-8.79-13.75-7.45l-16.9,2.73Z"/></svg>