<?xml version="1.0" encoding="UTF-8"?><svg xmlns="http://www.w3.org/2000/svg" xmlns:xlink="http://www.w3.org/1999/xlink" viewBox="0 0 216 216"><defs><style>.cls-1{clip-path:url(#clippath);}.cls-2,.cls-3,.cls-4,.cls-5,.cls-6,.cls-7,.cls-8,.cls-9,.cls-10,.cls-11,.cls-12,.cls-13,.cls-14,.cls-15,.cls-16,.cls-17,.cls-18,.cls-19,.cls-20,.cls-21,.cls-22,.cls-23,.cls-24,.cls-25,.cls-26,.cls-27,.cls-28,.cls-29,.cls-30,.cls-31,.cls-32{stroke-width:0px;}.cls-2,.cls-33{fill:none;}.cls-3{fill:url(#linear-gradient);}.cls-34{stroke:#3870b5;stroke-width:2px;}.cls-34,.cls-33,.cls-35{stroke-miterlimit:10;}.cls-34,.cls-27{fill:#fff;}.cls-36{clip-path:url(#clippath-1);}.cls-37{clip-path:url(#clippath-2);}.cls-33{stroke:#2356a0;stroke-width:.75px;}.cls-4{fill:#9ac7f7;}.cls-4,.cls-5,.cls-6,.cls-7,.cls-8,.cls-9,.cls-10,.cls-32{fill-rule:evenodd;}.cls-5{fill:#2c003d;}.cls-6{fill:#ca7572;}.cls-7{fill:#de9882;}.cls-8,.cls-28{fill:#ffc257;}.cls-9{fill:#b68f7d;}.cls-10{fill:#937462;}.cls-11{mix-blend-mode:multiply;opacity:.3;}.cls-11,.cls-12{fill:#f54e62;}.cls-35{fill:#9dc5e9;stroke:#9dc5e9;stroke-width:3px;}.cls-38{isolation:isolate;}.cls-13{fill:#4e70a0;}.cls-14{fill:#293473;}.cls-15{fill:#99cec0;}.cls-16{fill:#719e8f;}.cls-17{fill:#3870b5;}.cls-18{fill:#3f1a0e;}.cls-19{fill:#2356a0;}.cls-20{fill:#dc8c67;}.cls-21{fill:#d2e9ff;}.cls-22{fill:#abe0d3;}.cls-23{fill:#84b2a5;}.cls-24{fill:#fe7682;}.cls-25{fill:#ff8a98;}.cls-26{fill:#ffc9bd;}.cls-29{fill:#ed3a58;}.cls-30{fill:#f78f2a;}.cls-31{fill:#002555;}</style><clipPath id="clippath"><circle class="cls-2" cx="115.45" cy="-119.19" r="78.19"/></clipPath><clipPath id="clippath-1"><circle class="cls-2" cx="352.49" cy="97.42" r="78.31"/></clipPath><linearGradient id="linear-gradient" x1="211.47" y1="162.2" x2="339.56" y2="162.2" gradientUnits="userSpaceOnUse"><stop offset="0" stop-color="#4e70a0"/><stop offset="1" stop-color="#abe0d3"/></linearGradient><clipPath id="clippath-2"><path class="cls-2" d="m186.4,117.5c0,43.22-35.04,78.26-78.26,78.26S29.87,160.73,29.87,117.5c0-34.57,22.41-63.9,53.49-74.26,2.41-.8,2.81-14.84,5.31-15.41,5.59-1.27,21.5-8.5,27.48-8.5,8.1,0,15.25,23.43,15.25,23.43,31.86,9.91,54.99,39.63,54.99,74.74Z"/></clipPath></defs><g class="cls-38"><g id="Layer_1"><g class="cls-1"><path class="cls-4" d="m186.91,23.96c-.63.02-1.66.05-2.97.09.81-8.21-.57-13.55-1.69-18.21-1.21-5.01.68-7.11,1.47-13.93.2-1.76.27-5.29.31-9.75,2.7,1.28,5.29,2.44,7.07,3.27,1.2,12.27,2.01,25.26,2.14,38.42-2.15-.06-4.4.05-6.34.11Z"/><path class="cls-35" d="m130.5,104.73c-7.46,0-15.41-1.06-17.92-2.38-2.6-1.36-2.96-3.55-2.99-4.43-.23-6.24-.71-10.96-1.17-15.52-.48-4.73-.93-9.2-.99-14.54-.03-2.5.05-5.22.14-8.38.13-4.27.28-9.29.2-15.52-.4.92-.84,1.85-1.27,2.77-.41.88-.97,2.08-1.29,2.88.27.69.6,1.5.99,2.43.25.6.52,1.26.81,1.97.88,2.17.59,4.5-.78,6.22-1.07,1.34-2.66,2.11-4.3,2.11-.03,0-.07,0-.1,0-.59,1.52-1.59,2.73-2.91,3.47-1.39,2.26-3.95,3.45-6.42,2.95-1.21-.25-2.25-.86-3.03-1.74-2.42-.68-4.12-2.95-4.25-5.81-.02-.26-.12-.81-.25-1.44-.39-.09-.77-.22-1.13-.39-2.4-1.12-3.61-3.73-2.92-6.36.38-1.48.53-3.81.64-5.68.13-2.16.23-3.73.66-4.98.4-1.15,1.25-2.53,3.22-5.63.55-.86,1.29-2.02,1.81-2.88-.29-.72-.42-1.5-.4-2.3.11-3.73.39-6.25.66-8.69.34-3.08.67-5.99.6-11.36l-.04-2.63c-.06-3.71-.13-7.55.04-11.66.1-2.37.48-5.43.85-8.4.31-2.5.63-5.08.72-6.8.38-7.43.75-13.32,1.1-17.51.02-1.1.11-2.13.26-3.15,1.63-10.92,5.32-29.35,8.93-42.76-1.25-1.83-1.91-4.13-1.88-6.74.02-2.14.53-4.28,1.56-6.57.99-2.21.54-3.69.19-4.38-.62-1.21-1.4-2.84-1.88-4.72-.28-1.11-.47-2.21-.54-3.27-.57-4.04.69-8.44,3.31-11.52.88-1.04,1.25-2.76.92-3.45-1.47-3.15-1.77-5.19-1.72-6.44,0-2.29.66-4.77,1.97-7.35.47-.93.65-2,.53-3.09-.12-1.09-.29-2.06-.4-2.64l-.03-.15c-.03-.19-.06-.37-.07-.56-.4-2.78.37-8.29,4.27-12.39,1.89-1.98,3.46-2.84,4.5-3.42.53-.29.65-.36.73-.44.07-.24.16-.78.23-1.19.33-2.05.89-5.47,4.24-8.38,3.19-2.76,6.19-2.9,7.99-2.99.29-.01.66-.03.87-.06.16-.18.39-.49.57-.74,1.13-1.51,3.22-4.32,7.58-4.7,3.12-.27,4.76.13,6.43.64.53.16.89.27,1.39.34.26-.04.84-.25,1.27-.4,1.91-.68,5.11-1.81,8.91-.25,3.24,1.33,4.63,3.31,5.45,4.5.13.19.3.43.4.54.73.33,1.64.66,2.6,1.01,2.09.75,4.46,1.6,6.79,3.1,3.02,1.95,3.81,5.03,4.33,7.08.11.43.27,1.06.38,1.32.17.17.6.48.92.72,1.31.95,3.28,2.38,4.57,5.22,1.93,4.26.35,7.45-.61,9.14.97.78,2.32,1.95,3.54,4.12,1.9,3.38.83,7.67-.46,10.76-.14.48-.22.95-.25,1.37,0,.09-.02.26.22.53,3.16,3.51,4.25,8.1,3.01,12.6-.17.61-.39,1.13-.55,1.51-.21.47-1.19,2.87-.45,4.85.1.28.3.6.58.93,1.42,1.71,2.81,5.92,2.75,10.07,1.91,1.29,3.78,3.03,4.55,4.81.12.28.22.56.29.85.11.14.23.29.33.43.26.32.51.67.74,1.04.91,1.36,1.66,2.84,2.24,4.4.26.5.54,1.02.82,1.56,1.8,3.39,4.03,7.61,5.76,12.28.82,2.22.95,4.32,1.06,6.17.08,1.41.15,2.62.5,3.69.79,2.41,2.3,5.35,3.75,8.2,1.33,2.61,2.71,5.3,3.62,7.74,1.76,4.75,2.52,8.66,3.13,11.8.33,1.69.61,3.15.98,4.36h0c2.07,6.83.38,11.55-1.42,14.31-1.57,2.42-3.88,4.29-6.6,5.43.92,11.35,1.44,22.95,1.54,34.55.46.84.77,1.76.92,2.73,2.48,16.17,3.03,26.37,1.62,30.33-.42,1.18-1.21,2.21-2.5,3.22.74,4.39,1.41,8.58,1.01,14.54-.39,5.77-6.7,9.18-12.72,11.34.46,3.92.85,8.02.91,11.54.1,5.29-6.43,5.68-12.18,6.03-4.79.29-10.62.32-15.23.09-5.54-.28-11.82-.59-12.32-5.58-.17-1.65-.47-2.29-.97-3.34-.19-.4-.4-.84-.61-1.34-2.04.04-4.14-.01-6.12-.33-.24,1.54-.42,2.93-.38,3.61.09,2-.91,3.82-2.74,4.98-2.49,1.59-7.88,2.2-13.55,2.2Zm-12.03-9.89c4.63.9,15.11,1.25,19.45.44.21-2.02.67-4.69,1.34-8.25l1.47-7.85,5.95,5.33c.36.27,1.83.92,7.3.74.28,0,1.01-.06,2.21-.17l4.16-.39.7,4.12c.23,1.35.53,1.98.98,2.92.43.91.94,1.96,1.32,3.48,4.79.64,16.56.62,22.11,0-.24-3.5-.7-7.38-1.14-10.9l-.47-3.77,3.64-1.1c7.86-2.37,9.66-4.32,9.96-4.73.31-4.94-.26-8.31-.97-12.56-.14-.86-.29-1.74-.44-2.65l-.5-3.15,2.81-1.51c.58-.31.96-.55,1.21-.72.43-2.82-.05-11.4-2.15-25.12l-.46-.51-3.85-.12c-1.58-.05-3.24,0-4.84.06l-9.31.29.5-5.1c.71-7.21-.41-11.83-1.48-16.3l-.1-.42c-1.01-4.2-.35-7.02.35-10.01.37-1.59.76-3.24,1.02-5.49.19-1.63.25-5.42.29-9.27l.07-7.04,6.36,3.02c1.53.72,3.02,1.41,4.34,2.02,1.02.47,1.94.89,2.71,1.25l2.31,1.09.03.27,3.12-.39c1.95-.24,3.51-1.14,4.41-2.52,1.08-1.65,1.2-4,.35-6.79h0c-.5-1.65-.84-3.4-1.2-5.26-.57-2.97-1.23-6.33-2.73-10.39-.72-1.95-1.92-4.29-3.19-6.77-1.61-3.15-3.28-6.41-4.29-9.49-.71-2.18-.83-4.19-.94-5.97-.08-1.4-.16-2.62-.51-3.58-1.53-4.12-3.52-7.88-5.28-11.2-.34-.65-.68-1.28-.99-1.87l-.25-.58c-.36-1.01-.81-1.92-1.39-2.78l-.12-.19s-.06-.09-.09-.13l-.15-.18c-.22-.3-.46-.59-.72-.87l-.64-.72-.33-1.04c-.02-.07-.04-.14-.06-.2l-.11-.33c-.61-.58-1.78-1.42-2.55-1.7l-3.9-1.43,1.11-4c.54-1.93-.21-4.86-.67-5.8-.84-1.06-1.49-2.17-1.92-3.32-1.87-4.98-.17-9.81.65-11.66.04-.09.08-.18.11-.27.42-1.53.08-2.94-1.03-4.17-1.8-2-2.69-4.55-2.51-7.19.08-1.17.31-2.37.69-3.58l.17-.45c.64-1.48.88-2.75.86-3.27-.41-.67-.81-.98-1.42-1.47-1.04-.83-2.77-2.21-3.41-5-.62-2.72.58-4.8,1.3-6.05.18-.31.44-.77.5-.95,0,0-.03-.1-.11-.27-.29-.65-.7-.95-1.66-1.65-.88-.64-1.97-1.43-2.9-2.68-1.08-1.45-1.5-3.1-1.84-4.42-.14-.56-.38-1.47-.56-1.78-1.45-.92-3.19-1.54-4.87-2.15-1.14-.41-2.31-.83-3.42-1.35-2.17-1.01-3.22-2.52-3.92-3.52-.55-.78-.69-.99-1.49-1.32-.54-.22-.99-.12-2.48.41-1.41.5-3.16,1.12-5.26.87-1.34-.16-2.31-.46-3.03-.67-.93-.28-1.39-.42-3.02-.28-.28.02-.34.03-1.15,1.12-.75,1-1.77,2.37-3.48,3.29-1.8.97-3.51,1.05-4.76,1.11-1.26.06-1.69.08-2.52.8-.85.74-.99,1.42-1.25,3.02-.22,1.39-.5,3.11-1.62,4.74-1.32,1.93-2.8,2.74-3.88,3.33-.78.43-1.39.76-2.32,1.73-1.48,1.56-1.85,3.62-1.9,4.51l.12.26-.02.72c.12.67.31,1.77.45,3.04.32,2.84-.18,5.66-1.44,8.15-.65,1.29-1.02,2.51-1,3.35v.17c.04.23.22,1.01.87,2.4,2.18,4.65.37,10.05-2.22,13.1-.99,1.16-1.48,2.96-1.24,4.5l.05.45c.03.55.13,1.15.29,1.77.2.8.56,1.67,1.16,2.84.88,1.71,2.65,6.33.02,12.19-.5,1.12-.76,2.12-.77,2.98,0,.32.02,1.4.44,1.7l2.65,1.83-.87,3.1c-3.71,13.19-7.68,32.79-9.37,44.11-.1.68-.16,1.37-.17,2.13v.31c-.36,4.04-.73,10.04-1.11,17.35-.1,2.05-.43,4.67-.77,7.45-.34,2.79-.7,5.67-.79,7.68-.16,3.84-.1,7.38-.04,11.13l.04,2.67c.08,5.93-.29,9.26-.65,12.48-.22,1.94-.42,3.78-.54,6.24l1.98,1.2-1.19,3.44c-.17.48-.34.94-.51,1.39-.06.16-.13.32-.21.49l.22,5.23,1.62,2.24c.17-.37.35-.76.54-1.17.89-1.91,2-4.29,2.31-5.62l.19-.79c-.06-.38-.25-.91-.45-1.48l-1.25-3.57,1.95-1.44c.2-1.13.53-2.52.99-4.45.63-2.64,1.49-6.25,2.42-11.03l6.85-35.17,2.06,35.78c.19,3.25-.03,6.62-.21,9.6-.07,1.14-.14,2.24-.17,3.16.16.1.39.24.7.39l2.52,1.22.03,4.34c0,.35.04.66.13.95l.15.53.02.55c.4,10.29.18,17.81,0,23.85-.09,3.06-.17,5.7-.14,8,.06,4.95.47,9.03.95,13.76.39,3.83.82,8.1,1.08,13.34Zm81.5-41.03h0Zm-108.94-9.05l.5,2.49,1.48-5.66c-.62.97-1.48,2.31-1.98,3.17ZM187.54-3.52c-.19.92-.38,1.73-.55,2.46-.6,2.56-.87,3.72-.36,5.85l.1.42c.74,3.07,1.6,6.62,1.87,11.14-.19-6.45-.54-13.08-1.05-19.86Zm-13.19-97.8s.04.05.06.08c-.02-.03-.04-.05-.06-.08Zm-63.55-42.31h0Zm.59-14.86h0Z"/><path class="cls-5" d="m111.67,14.13c0,5.28-.05,14.28,0,19.9.09,10.51,16.1,6.54,30.36,7.14,14.26.6,41.39,6.63,40.84-11.25-.13-4.32.31-7.77,0-15.79-.65-17.02-71.24-24.49-71.19,0Z"/><path class="cls-5" d="m111.83,32.98c.86,17.41-.09,27.51,0,34.95.13,10.11,1.67,16.94,2.16,29.96.09,2.54,28.39,3.95,28.2,0-.18-3.96,3.18-17.27,3.47-22.91.36-7.1,1.5-21.62,2.17-36.6,1.2-26.8-37.3-31.72-36-5.4Z"/><path class="cls-5" d="m144.23,36.07c-.15,9.38,4.87,24.61,4.94,30.79.08,6.18,6.64,12.65,7.02,19.91.39,7.26,2.51,6.41,3.06,11.84.25,2.45,30.8,2.04,30.76,0-.16-8.82-2.53-21.65-2.58-26.91-.05-5.26-3.39-15.98-3.72-22.34-.33-6.36-.38-10.28-1.24-19.75-1.62-17.93-37.88-16.77-38.25,6.44Z"/><path class="cls-6" d="m90.51,41.37c-.4,1.75-2.46,9.2-2.57,10.7-.11,1.5,1.57,7.16,1.66,9.06.11,2.38,2.33,2.11,2.79.35.02.4-.03,1.65,0,1.89.2,1.48,1.85,1.47,2.62.16.25-.42.29-.83.29-1.53,1,.57,2.37-.18,2.53-2.59.1-1.58.33-3.91.57-6.59,0,0,2.15,2.96,2.77,4.64.43,1.16,2.3.18,1.57-1.64-1.04-2.57-1.82-4.37-2.28-5.75-.46-1.38,4.43-9.22,4.65-12.6.21-3.38-13.5-.91-14.58,3.88Z"/><path class="cls-7" d="m93.37,29.26c-.25,1.93-.88,3.78-1.5,5.39-.63,1.64-5,7.81-5.52,9.31-.52,1.51-.31,6.91-1.19,10.32-.51,1.96,3.32,1.83,3.74-1.64.38-3.16,1.72-6.19,2.73-6.53,1.02-.34,12.93-5.85,13.48-8.02.76-3-1.53-5.25-1.2-7.69.94-6.96-9.7-7.53-10.54-1.14Z"/><path class="cls-8" d="m95.37-37.57c-.44,4.33-.9,11.63-1.33,19.94-.2,3.94-1.38,10.98-1.56,15.16-.21,4.92-.06,9.41,0,14.04.13,9.86-1.02,11.94-1.26,20.25-.1,3.56,13.73,3.9,14.07,0,.23-2.67,2.53-9.55,4.86-23.83.62-3.8,2.68-11.64,3.03-15.52.98-10.77,3.23-21.7,3.78-26.06,2.36-18.64-19.82-21.39-21.6-3.99Z"/><path class="cls-32" d="m177.61-93.96c.51,3.29,15.58,61.19,15.56,121.82,0,.9,7.63.96,7.63,0-.18-70.98-15.83-115.79-16.32-117.54-.49-1.76-7.11-5.86-6.87-4.28Z"/><path class="cls-8" d="m126.9-103.38c-5.66-.92-16.93,4.08-18.5,13.7-1.58,9.62.11,44.48,0,51.33-.11,6.85,1.31,26.22,1.35,31.94.04,5.71-2.41,13.39-1.35,18.55,1.06,5.16.03,12.58,0,16.67-.09,11.33,73.66,9,75.22-2.71,1.24-9.32-.26-15.11-1.47-20.13-1.21-5.01.68-7.11,1.47-13.93.79-6.82-.45-40.03,2.62-51.48,3.92-14.68,6.27-27.74-9.24-35.16-9.28-4.44-46.84-8.24-50.09-8.77Z"/><path class="cls-10" d="m134.62,34.29c-.64,4.59,8.11,46,7.84,50.99-.28,4.98,8.37,4.69,11.56,4.59,4.15-.13,47.15-4.72,47.81-14.52.7-10.5-2.23-15-2.48-27.89-.12-6.09.9-19.09-1.92-21.21-3.94-2.96-61.54-1.05-62.81,8.05Z"/><path class="cls-9" d="m136.49,31.82c7.64-1.31,11.42-1.63,12.75,10.42,1.33,12.05,1.11,18.93,4.45,24.08,1.87,2.89,21.14.82,29.81-1.41,10.82-2.78,19.33-6.46,20.06-8.53,1.66-4.66-1.06-23.14-1.83-28.14-.77-5-9.19-4.32-14.93-4.14-5.74.17-42.81,1-50.32,7.73Z"/><path class="cls-32" d="m184.42-89.64c-3.36-2.47-35.49,17.94-41.34,27.75-3.81,6.38,3.05,98.96,3.65,103.61.13,1.02-8.59,2.26-8.76,1.11-1.01-6.55-7.04-99.73-3.76-107.48,3.63-8.58,27.7-24.35,43.17-29.86,2.11-.75,7.86,3.92,7.05,4.86Z"/></g><g class="cls-36"><g id="R"><path class="cls-24" d="m253.63,80.9l.77-6.93c.11-.97-.59-1.84-1.56-1.95l-5.2-.58c-.11-2.27-.46-4.5-1.01-6.64l4.79-2.1c.89-.39,1.3-1.43.91-2.32l-2.8-6.38c-.39-.89-1.43-1.3-2.32-.91l-4.8,2.1c-1.22-1.89-2.62-3.64-4.2-5.24l3.1-4.22c.58-.78.41-1.89-.38-2.46l-5.61-4.13c-.78-.58-1.89-.41-2.46.38l-3.1,4.22c-1.97-1.01-4.06-1.84-6.26-2.44l.58-5.2c.11-.97-.59-1.84-1.56-1.95l-6.93-.77c-.97-.11-1.84.59-1.95,1.56l-.58,5.2c-2.27.11-4.5.46-6.64,1.01l-2.1-4.79c-.39-.89-1.43-1.3-2.32-.91l-6.38,2.8c-.89.39-1.3,1.43-.91,2.32l2.1,4.8c-1.89,1.22-3.64,2.63-5.25,4.2l-4.22-3.1c-.78-.58-1.89-.41-2.46.38l-4.13,5.61c-.58.78-.41,1.89.38,2.46l4.22,3.1c-1.01,1.97-1.84,4.06-2.44,6.26l-5.2-.58c-.97-.11-1.84.59-1.95,1.56l-.77,6.93c-.11.97.59,1.84,1.56,1.95l5.2.58c.11,2.27.46,4.5,1.01,6.64l-4.79,2.1c-.89.39-1.3,1.43-.91,2.32l2.8,6.38c.39.89,1.43,1.3,2.32.91l4.8-2.1c1.22,1.89,2.63,3.64,4.2,5.25l-3.1,4.22c-.58.78-.41,1.89.38,2.46l5.61,4.13c.78.58,1.89.41,2.46-.38l3.1-4.22c1.97,1.01,4.06,1.84,6.26,2.44l-.58,5.2c-.11.97.59,1.84,1.56,1.95l6.93.77c.97.11,1.84-.59,1.95-1.56l.58-5.2c2.27-.11,4.5-.46,6.64-1.01l2.1,4.79c.39.89,1.43,1.3,2.32.91l6.38-2.8c.89-.39,1.3-1.43.91-2.32l-2.1-4.8c1.89-1.22,3.64-2.62,5.24-4.2l4.22,3.1c.78.58,1.89.41,2.46-.38l4.13-5.61c.58-.78.41-1.89-.38-2.46l-4.22-3.1c1.01-1.97,1.84-4.07,2.44-6.26l5.2.58c.97.11,1.84-.59,1.95-1.56Zm-63.03-10.49c1.48-13.3,13.46-22.89,26.76-21.42,13.3,1.47,22.89,13.46,21.42,26.76-1.48,13.3-13.46,22.89-26.76,21.42-13.3-1.47-22.89-13.46-21.42-26.76Z"/><circle class="cls-24" cx="214.69" cy="73.08" r="19.21" transform="translate(103.31 270.63) rotate(-79.38)"/><path class="cls-12" d="m216.81,53.98c-.71-.08-1.42-.11-2.12-.12v38.42c9.67.01,18-7.26,19.09-17.09,1.17-10.54-6.43-20.04-16.98-21.21Z"/><path class="cls-27" d="m215.9,73.21c.07-.67-.41-1.27-1.08-1.34-.67-.07-1.27.41-1.34,1.08s.41,1.27,1.08,1.34,1.27-.41,1.34-1.08Z"/><path class="cls-12" d="m252.84,72.03l-5.2-.58c-.11-2.27-.46-4.5-1.01-6.64l4.79-2.1c.89-.39,1.3-1.43.91-2.32l-2.8-6.38c-.39-.89-1.43-1.3-2.32-.91l-4.8,2.1c-1.22-1.89-2.62-3.64-4.2-5.24l3.1-4.22c.58-.78.41-1.89-.38-2.46l-5.61-4.13c-.78-.58-1.89-.41-2.46.38l-3.1,4.22c-1.97-1.01-4.06-1.84-6.26-2.44l.58-5.2c.11-.97-.59-1.84-1.56-1.95l-6.93-.77c-.32-.04-.62.02-.9.14v15.32c.88,0,1.77.05,2.67.15,13.3,1.47,22.89,13.46,21.42,26.76-1.38,12.41-11.89,21.58-24.09,21.57v15.32c.56-.24.98-.77,1.05-1.41l.58-5.2c2.27-.11,4.5-.46,6.64-1.01l2.1,4.79c.39.89,1.43,1.3,2.32.91l6.38-2.8c.89-.39,1.3-1.43.91-2.32l-2.1-4.8c1.89-1.22,3.64-2.62,5.24-4.2l4.22,3.1c.78.58,1.89.41,2.46-.38l4.13-5.61c.58-.78.41-1.89-.38-2.46l-4.22-3.1c1.01-1.97,1.84-4.07,2.44-6.26l5.2.58c.97.11,1.84-.59,1.95-1.56l.77-6.93c.11-.97-.59-1.84-1.56-1.95Z"/><path class="cls-13" d="m214.72,93.04s0,0,0,0c-.74,0-1.49-.04-2.22-.12-5.3-.59-10.05-3.2-13.38-7.37-3.33-4.16-4.84-9.37-4.26-14.67,1.12-10.13,9.64-17.76,19.82-17.76.74,0,1.49.04,2.22.12,5.3.59,10.05,3.2,13.38,7.37,3.33,4.16,4.84,9.37,4.26,14.67-1.12,10.13-9.64,17.76-19.82,17.76Zm-.05-38.42c-9.41,0-17.28,7.06-18.32,16.43-.54,4.9.85,9.72,3.94,13.57,3.08,3.85,7.48,6.27,12.38,6.81.68.08,1.37.11,2.06.11,9.41,0,17.28-7.06,18.32-16.43,1.12-10.12-6.2-19.26-16.31-20.38-.68-.08-1.37-.11-2.06-.11Z"/><path class="cls-25" d="m214.69,89.33c-8.96,0-16.26-7.29-16.26-16.26s7.29-16.26,16.26-16.26v1.5c-8.14,0-14.75,6.62-14.75,14.75s6.62,14.75,14.75,14.75v1.5Z"/><path class="cls-25" d="m214.69,85.78c-7,0-12.7-5.7-12.7-12.7s5.7-12.7,12.7-12.7v1.5c-6.17,0-11.2,5.02-11.2,11.2s5.02,11.2,11.2,11.2v1.5Z"/><path class="cls-25" d="m214.69,81.98c-4.91,0-8.9-3.99-8.9-8.9s3.99-8.9,8.9-8.9v1.5c-4.08,0-7.4,3.32-7.4,7.4s3.32,7.4,7.4,7.4v1.5Z"/><path class="cls-25" d="m214.69,78.63c-3.06,0-5.55-2.49-5.55-5.55s2.49-5.55,5.55-5.55v1.5c-2.23,0-4.05,1.81-4.05,4.05s1.81,4.05,4.05,4.05v1.5Z"/><path class="cls-29" d="m214.69,89.33v-1.5c8.14,0,14.75-6.62,14.75-14.75s-6.62-14.75-14.75-14.75v-1.5c8.96,0,16.26,7.29,16.26,16.26s-7.29,16.26-16.26,16.26Z"/><path class="cls-29" d="m214.69,85.78v-1.5c6.17,0,11.2-5.02,11.2-11.2s-5.02-11.2-11.2-11.2v-1.5c7,0,12.7,5.7,12.7,12.7s-5.7,12.7-12.7,12.7Z"/><path class="cls-29" d="m214.69,81.98v-1.5c4.08,0,7.4-3.32,7.4-7.4s-3.32-7.4-7.4-7.4v-1.5c4.91,0,8.9,3.99,8.9,8.9s-3.99,8.9-8.9,8.9Z"/><path class="cls-29" d="m214.69,78.63v-1.5c2.23,0,4.05-1.81,4.05-4.05s-1.81-4.05-4.05-4.05v-1.5c3.06,0,5.55,2.49,5.55,5.55s-2.49,5.55-5.55,5.55Z"/><path class="cls-25" d="m214.69,103.89c-16.99,0-30.82-13.82-30.82-30.82s13.82-30.82,30.82-30.82v3.76c-14.92,0-27.06,12.14-27.06,27.06s12.14,27.06,27.06,27.06v3.76Z"/><path class="cls-29" d="m214.69,103.89v-3.76c14.92,0,27.06-12.14,27.06-27.06s-12.14-27.06-27.06-27.06v-3.76c16.99,0,30.82,13.82,30.82,30.82s-13.82,30.82-30.82,30.82Z"/><path class="cls-11" d="m214.69,47.32c14.69,0,26.63,11.75,26.96,26.36,0-.2.02-.4.02-.61,0-14.9-12.08-26.97-26.97-26.97s-26.97,12.08-26.97,26.97c0,.2.01.41.02.61.32-14.61,12.26-26.36,26.96-26.36Z"/></g><g id="R-2"><circle class="cls-22" cx="158.57" cy="35.89" r="16.41" transform="translate(-4 37.88) rotate(-13.45)"/><path class="cls-23" d="m174.98,35.89c0-9.06-7.35-16.41-16.41-16.41v32.81c9.06,0,16.41-7.35,16.41-16.41Z"/><path class="cls-3" d="m226.84,183.7c-6.43,0-11.73-.68-15.37-2.09l.54-1.4c10.13,3.91,33.73,2,58.73-4.77,28.97-7.84,53.66-20.5,67.75-34.72l1.07,1.06c-14.27,14.41-39.21,27.2-68.43,35.11-16.44,4.45-32.34,6.81-44.3,6.81Z"/><rect class="cls-13" x="158.57" y="18.73" width="143.44" height="1.5"/><path class="cls-13" d="m148.32,49.65c-4.39-3.28-6.91-8.29-6.91-13.76,0-9.46,7.7-17.16,17.16-17.16v1.5c-8.63,0-15.66,7.02-15.66,15.66,0,4.99,2.3,9.57,6.3,12.56l-.9,1.2Z"/><path class="cls-13" d="m160.01,35.89c0-.81-.65-1.46-1.46-1.46s-1.46.65-1.46,1.46.65,1.46,1.46,1.46,1.46-.65,1.46-1.46Z"/><path class="cls-15" d="m158.57,50.22c-7.9,0-14.33-6.43-14.33-14.33s6.43-14.33,14.33-14.33v1.5c-7.07,0-12.83,5.75-12.83,12.83s5.75,12.83,12.83,12.83v1.5Z"/><path class="cls-15" d="m158.55,43.1c-3.97,0-7.21-3.23-7.21-7.21s3.23-7.21,7.21-7.21v1.5c-3.14,0-5.7,2.56-5.7,5.7s2.56,5.7,5.7,5.7v1.5Z"/><path class="cls-15" d="m158.55,46.86c-6.04,0-10.96-4.92-10.96-10.96s4.92-10.96,10.96-10.96v1.5c-5.22,0-9.46,4.24-9.46,9.46s4.24,9.46,9.46,9.46v1.5Z"/><path class="cls-16" d="m158.55,50.22v-1.5c7.07,0,12.83-5.75,12.83-12.83s-5.75-12.83-12.83-12.83v-1.5c7.9,0,14.33,6.43,14.33,14.33s-6.43,14.33-14.33,14.33Z"/><path class="cls-16" d="m158.57,43.1v-1.5c3.14,0,5.7-2.56,5.7-5.7s-2.56-5.7-5.7-5.7v-1.5c3.97,0,7.21,3.23,7.21,7.21s-3.23,7.21-7.21,7.21Z"/><path class="cls-16" d="m158.57,46.86v-1.5c5.22,0,9.46-4.24,9.46-9.46s-4.24-9.46-9.46-9.46v-1.5c6.04,0,10.96,4.92,10.96,10.96s-4.92,10.96-10.96,10.96Z"/></g></g><circle class="cls-34" cx="108" cy="117.49" r="79.18"/><polygon class="cls-21" points="137.62 82.1 136.06 81.98 137.46 83.3 137.62 82.1"/><polygon class="cls-21" points="108.99 82.33 110.32 82.45 109.05 83.18 108.99 82.33"/><g class="cls-37"><polygon class="cls-14" points="95.51 75.44 99.98 75.26 96.02 78.3 93.96 78.32 95.51 75.44"/><polygon class="cls-19" points="123.96 75.92 118.32 75.53 123.97 78.26 123.96 75.92"/><path class="cls-2" d="m136.66,155.14l-.06.08h0c.01.06.04.01.06-.08Z"/><path class="cls-31" d="m102.54,168.14l-28.86,2.82c-7.21,24.52,2.56,58.16,3.79,62.18.82.13,2.66.25,3.52.37h.01c4.35.59,9.41,1.02,15.11,1.29,1.89.09,3.86.16,5.9.22,2.3.07,4.75.11,7.51.12.57,0,1.14,0,1.7,0,8.45.01,15.71-.25,19.41-.42.81-.04,4.32-1.26,4.71-1.28,8.81-31.84,8.53-51.37,6.63-62.3"/><path class="cls-26" d="m101.16,67.28l1,.52c.39.2.78.4,1.17.57,4.18,1.86,8.81,1.94,13.05.2l.93-.38v.06c1.44-.67,2.68-1.44,3.69-2.3,1.01-.86,1.8-1.8,2.36-2.83,1.67-3.04,2.13-8.86,2.17-13.98-.91-2.13-2.46-6.53-1.18-9.73,0,0-5.41-7.7-14.1-8.02-8.69-.33-14.89,8.02-14.89,8.02,0,0,1.17,3.55-.69,9.29.02,5.21.47,11.29,2.18,14.42.87,1.61,2.32,3.02,4.32,4.21v-.06Z"/><path class="cls-26" d="m122.13,76.81l-4.55-2.36v-16.16c-4.32,1.5-11.42,1.31-15.64-.58-.08-.04-.16-.07-.25-.11v16.9l-4.4,1.46c3.58,11.36,7.15,18.91,11.46,24.26,6.1-6.44,10.33-15.77,13.38-23.41Z"/><path class="cls-26" d="m73.81,167.36s.15-.53.15-.56c.24-.52.43-1.07.64-1.62.08-.23.17-.47.26-.71.13-.37.28-.76.41-1.15.08-.21.16-.42.23-.64.16-.46.32-.93.49-1.41.05-.15.11-.3.16-.44.43-1.28.87-2.61,1.3-3.97.05-.17.11-.35.16-.52.16-.51.32-1.02.48-1.54.08-.26.16-.53.24-.79.11-.38.23-.77.35-1.16l-4.65-5.26-8.21,4.88,1.76,2.32c.14.2.14.47.03.69-1.81,3.74,3.02,9.21,3.07,9.26,0,0,2.17,2.53,3.15,2.61Z"/><path class="cls-26" d="m141.1,167.25s-.15-.53-.15-.56c-.24-.52-.43-1.07-.64-1.62-.08-.23-.17-.47-.26-.71-.13-.37-.28-.76-.41-1.15-.08-.21-.16-.42-.23-.64-.16-.46-.32-.93-.49-1.41-.05-.15-.11-.3-.16-.44-.43-1.28-.87-2.61-1.3-3.97-.05-.17-.11-.35-.16-.52-.16-.51-.32-1.02-.48-1.54-.08-.26-.16-.53-.24-.79-.11-.38-.23-.77-.35-1.16l4.6-5.09h0c2.59.78,5.01,2.06,7.11,3.77l1.16.94-1.76,2.32c-.14.2-.14.47-.03.69,1.81,3.74-3.02,9.21-3.07,9.26,0,0-2.17,2.53-3.15,2.61Z"/><path class="cls-17" d="m97.29,75.96l-.67-.47c.02-.39-.95.23-.93-.09l-.24.3c-1.43.29-2.59.12-3.88.41,9.79,28.62,5.83,93.95,5.27,102.39,6.42.68,14.21.61,23.42-.93-.68-11.49-4.04-73.32,4.41-101.18-.34-.05-.38.03-.63,0-.11-.01-.26-.44-.29-.41l.14.05-.18.47c0,.33,0,.71,0,1.11l-1.59-.81"/><path class="cls-17" d="m78.14,106.59c.17,1.59.39,3.42.51,4,0,0,4.85,22.62.16,41.79-.55,2.23-1.31,4.34-1.98,6.37-.25.76-.49,1.49-.74,2.21-.42,1.24-.83,2.42-1.25,3.55-.44,1.2-.88,2.34-1.31,3.41-.16.4-.94,2.05-1.11,2.44l1.34.41s7.33,5.92,22.56,7.66l-6.98-14.81-.33-33.35-8.47-43.2c-.83-4.21,1.66-8.37,5.76-9.64l1.4-.43c-5.13,1.24-8.56,2.32-9.25,2.98,0,0,.05-.09,0,0h0"/><path class="cls-17" d="m137.38,79.74c-.38-.36-.94-.69-1.62-1l-8.4,50.54-.29,33.35-5.89,14.78c6.41-1.13,13.49-2.96,21.27-5.75-.34-2.14-5.08-15.05-5.14-15.43l-.99-3.16s-3.98-22.67-.09-42.6c.35-1.83,1.76-2.04,1.92-3.52"/><path class="cls-17" d="m91.58,76.11c-.23.05-.48.1-.7.15-1.12.25-2.17.5-3.17.74l-8.61,2.67,9.92,50.61.33,33.35,6.98,14.81c.17.02.34.04.52.06.56-8.44,4.52-73.77-5.27-102.39Z"/><path class="cls-17" d="m127.36,129.28l8.4-50.54c-.11-.05-.22-.1-.34-.15l-5.74-1.67c-1.38-.29-2.73-.53-3.82-.71-.36-.06-.7-.11-1-.16-12.45,34.64-5.26,90.03-4.59,101.52.3-.05.6-.1.91-.15l5.89-14.78.29-33.35Z"/></g><path class="cls-18" d="m90.61,56.12l.08,16.71,3.78-1.58v-4.62l.85,4.26,2.31-.61v-3.16l.85,2.67,3.22,1.05v-3.29c-.06-.05-.13-.06-.31-.15-2.68-1.84-4.08-4.13-4.86-6.7-.08-.26-.5-2.94-.77-2.94-.03,0,.14.32.11.32l-5.26-1.94Zm.08,16.71s5.9-1.67,11.01-2l-4.74-5.92h-3.63l-2.64,7.92Zm26.85-2s4.61.37,9.93,2.22l-2.35-2.63-4.71-.05h-1.82l-.94-2.37-.12,2.82Zm.12-2.82s-.32,3.63.84,2.69l.53.25,3.57.32.81.38.32-.05,3.73,1.46s3.09-17.95,1.95-28.34c-1.14-10.38-6.98-22.39-20.77-21.42-13.79.98-13.46,8.4-13.46,8.4-10.85.77-5.72,18.96-5.08,22.08l.79-2.04c1.56-1.5,3.55-.53,4.94.55l1.42,3.99.79-6.28c.84-1.29,1.58-3.52,1.35-7.39-.37-6.32,5.27-6.29,5.27-6.29,3.45,5.28,7.94,5.48,11.49,5.81,1.99.19,3.87.96,5.42,2.22h0c.64.52,1.23,1.12,1.73,1.78.57.76,1.01,1.49,1.27,2.03,2.95,16.87-6.93,19.84-6.93,19.84"/><ellipse class="cls-26" cx="93.56" cy="53.89" rx="4.55" ry="4.98"/><path class="cls-20" d="m92.71,50.84s1.64.66,1.48,1.75c0,0-1.8.34-2,2.61,0,0,1.9-1.73,2.69-1.32.79.41.94,1.49.68,2.16,0,0,1.22-2.41-.02-4.2-1.24-1.79-2.83-1-2.83-1Z"/><path class="cls-20" d="m101.61,67.5s8.25,5.61,16.05.52l-.06,1.66s-7.55,7.84-15.96-.49l-.03-1.69Z"/><polygon class="cls-14" points="91.58 76.11 95.85 75.5 97.29 75.96 91.6 77.68 91.58 76.11"/><path class="cls-17" d="m91.58,76.11s4.3-1.16,7.95-.85l-8.2,2.54.25-1.69Z"/><path class="cls-17" d="m124.85,76.05s-3.92-.53-4.82-.41l4.46,2.37.37-1.96Z"/><polygon class="cls-30" points="66.01 41.64 70.1 49.93 79.25 51.26 72.63 57.71 74.19 66.82 66.01 62.52 57.82 66.82 59.39 57.71 52.77 51.26 61.92 49.93 66.01 41.64"/><polygon class="cls-28" points="54.24 73.93 56.75 79.02 62.37 79.83 58.31 83.79 59.27 89.38 54.24 86.74 49.22 89.38 50.18 83.79 46.12 79.83 51.73 79.02 54.24 73.93"/><polygon class="cls-28" points="149.26 41.64 145.16 49.93 136.02 51.26 142.64 57.71 141.07 66.82 149.26 62.52 157.44 66.82 155.88 57.71 162.5 51.26 153.35 49.93 149.26 41.64"/><polygon class="cls-30" points="161.02 73.93 158.51 79.02 152.89 79.83 156.96 83.79 156 89.38 161.02 86.74 166.04 89.38 165.08 83.79 169.14 79.83 163.53 79.02 161.02 73.93"/><path class="cls-26" d="m97.29,75.96s2.92,5.86,13.03,6.49c0,0,6.8.88,11.82-5.64l-13.47-1.35-11.37.5Z"/><path class="cls-26" d="m78.45,79.98s.05-.09,0,0h0l-34.45,33.44c-3.13,3.03-3.67,7.65-1.33,11.24l23.14,27.81,3.89-2.23s2.32,1.29,2.32,1.29l.9-3.27s1.11-.66,1.11-.66h0l-12.72-26.87,16.84-14.13.31-26.61"/><polygon class="cls-17" points="78.45 79.98 55.84 101 68.16 119.25 80.02 110.48 78.45 79.98"/><path class="cls-26" d="m136.72,79.18s-.05-.09,0,0h0l34.45,33.44c3.13,3.03,3.67,7.65,1.33,11.24l-23.41,28.5-3.83.38s-2.11-2.01-2.11-2.01l-1.49-.13s-.83-2.95-.83-2.96l.31-.86,12.72-26.87-16.84-14.13-.31-26.61"/><polygon class="cls-17" points="136.72 79.18 159.33 100.21 147.01 118.46 135.15 109.69 136.72 79.18"/><polygon class="cls-19" points="78.9 111.43 81.71 102.77 65.53 115.4 68.16 119.25 78.9 111.43"/><polygon class="cls-19" points="136.22 110.47 133.41 101.82 149.59 114.45 146.96 118.3 136.22 110.47"/><path class="cls-19" d="m136.29,109.81l-1.15,4.52c-3.07,12.06-6.43,25.32-5.35,37.72h0c.24,2.78.76,5.53,1.55,8.21l4.04,13.74,8.12-2.58-4.64-11.97c-1.57-4.27-2.56-8.74-2.94-13.27l-.63-7.44c-.34-3.96-.37-7.95-.11-11.91l1.13-17.02Z"/><path class="cls-33" d="m74.63,166.13s26.43,17.03,66.46,1.12"/><path class="cls-33" d="m93.68,75.94s1.88,4.61,7.29,7.82c5.71,3.38,12.87,3.27,18.55-.17,2.71-1.64,5.05-4.06,5.25-7.57"/><line class="cls-33" x1="59.18" y1="98.12" x2="70.84" y2="116.84"/><line class="cls-33" x1="156.37" y1="97.53" x2="144.53" y2="115.11"/></g></g></svg>