<?xml version="1.0" encoding="UTF-8"?><svg id="Layer_1" xmlns="http://www.w3.org/2000/svg" xmlns:xlink="http://www.w3.org/1999/xlink" viewBox="0 0 216 216"><defs><style>.cls-1{fill:none;}.cls-1,.cls-2,.cls-3,.cls-4,.cls-5,.cls-6,.cls-7,.cls-8,.cls-9,.cls-10,.cls-11,.cls-12,.cls-13,.cls-14,.cls-15,.cls-16{stroke-width:0px;}.cls-17{fill:#fff;stroke:#3870b5;stroke-miterlimit:10;stroke-width:2px;}.cls-18{clip-path:url(#clippath-3);}.cls-19{clip-path:url(#clippath-2);}.cls-3{fill:#47190f;}.cls-4{fill:#6d401f;}.cls-5{fill:#9ac7f7;}.cls-6{fill:#2356a0;}.cls-7{fill:#d90f03;}.cls-8{fill:#d2e9ff;}.cls-9{fill:#a81c20;}.cls-10{fill:#6d0802;}.cls-11{fill:#ffdec7;}.cls-12{fill:#ffab01;}.cls-13{fill:#ffc257;}.cls-14{fill:#f15a53;}.cls-15{fill:#02734a;}.cls-16{fill:#002555;}</style><clipPath id="clippath-2"><circle class="cls-1" cx="125.66" cy="107.18" r="78.12"/></clipPath><clipPath id="clippath-3"><polygon class="cls-1" points="11.1 146.3 81.62 75.27 106.09 97.51 82.52 188.01 32.81 180.42 11.87 182.75 11.1 146.3"/></clipPath></defs><circle class="cls-17" cx="125.72" cy="107.17" r="79.18"/><circle class="cls-1" cx="125.72" cy="107.17" r="79.18"/><circle class="cls-1" cx="125.72" cy="107.17" r="78.14"/><circle class="cls-1" cx="125.72" cy="107.17" r="78.14"/><g class="cls-19"><path class="cls-8" d="m178.12,169.32H15.49c-1.2,0-1.84-1.51-1.03-2.46l59.7-70.51c.37-.44.9-.69,1.46-.69h141.87s-13.67,70.83-13.67,70.83l-25.68,2.83Z"/><polygon class="cls-13" points="210.56 -.83 32.16 142.62 34.45 145.53 36.24 147.8 39.24 151.61 40.97 153.81 219.36 10.37 217.08 7.47 214.64 4.36 212.29 1.37 210.56 -.83"/><polygon class="cls-11" points="32.16 142.62 24.97 155.4 22.88 159.12 27.1 157.88 40.97 153.81 32.16 142.62"/><polygon class="cls-2" points="24.97 155.4 22.88 159.12 27.1 157.88 24.97 155.4"/><path class="cls-14" d="m219.36,10.37s7.49-6.15,6.96-8.09c-.7-2.54-2.5-6.17-6.86-8.3-1.24-.6-8.9,5.19-8.9,5.19l8.8,11.2Z"/><polygon class="cls-12" points="217.08 7.47 39.24 151.61 40.97 153.81 219.36 10.37 217.08 7.47"/><polygon class="cls-12" points="212.29 1.37 34.45 145.53 36.24 147.8 214.64 4.36 212.29 1.37"/><polygon class="cls-5" points="219.36 10.37 217.67 11.72 208.84 .55 210.56 -.83 219.36 10.37"/><path class="cls-4" d="m85.33,148.17s-16.53,3.53-25.61,6.75c-9.08,3.22-3.28,3.91-1.96,3.15,0,0,.57,1.32,3.34.63,0,0,.25,1.22,3.34.2,0,0,.44,1.14,2.65.41,2.21-.73,6.56.1,10.98,0,4.42-.1,7.57-.17,7.57-.17l-.32-10.98Z"/><path class="cls-4" d="m110.75,122.91l-9.67-8.28s-2.43-10.43-2.78-11.94-2.61-1.74-2.49.52c.12,2.26.54,6.16.54,6.16l-7.2,5.79,16.07,14.81,5.53-7.07Z"/><path class="cls-4" d="m91.11,95.34l-.32.28c-.28.24-.43.6-.41.96.07,1.66.26,6.4.15,7.79-.14,1.7-2.11,1.7-2.28.31,0,0-.14.62-.69.69s-.73-.24-.73-.24c0,0-.1.66-.73.9s-.97,0-.97,0c0,0,.14.93-.8.73s-1.63-3.25-1.7-5.12,1.28-2.42,1.28-2.42c0,0,.46-1.52,1.63-1.38,0,0,.44-2.4,2.24-1.51,0,0,1.04-2.93,3.32-.99Z"/><path class="cls-9" d="m135.24,89.39l-10.25,41.54-15.96-10.15-9.25,12.59s28.13,18.61,33.98,20.44c5.85,1.84,29.07-50.29,29.07-50.29,0,0,.78-17.77-27.59-14.13Z"/><path class="cls-16" d="m243.07,85.82l-93.45,37.45c-20.02,8.02-14.28,37.78,7.29,37.78h104.54s6.19-15.2,3-28.63h-33.58s7.68-3.41,7.68-3.41c12-5.32,16.97-19.7,10.82-31.3l-6.3-11.89Z"/><path class="cls-4" d="m100.3,83.45c1.07,3.35-.41,6.9.46,8.26.86,1.37,4.61-.15,4.61-.15,0,0,3.14,4.92,4,6.64.86,1.72,3.75,3.75,5.78,2.08,2.03-1.67,5.83-4.97,5.83-4.97l11.17-1.44,10.83-1.39,9.49-16.68-20.35,2.74s-1.76.46-4.14-2.08c-2.38-2.53-.61-8.31-6.94-11.66-6.33-3.34-14.9-1.11-14.9-1.11,0,0-10.13,10.54-10.39,11.5,0,0,3.49,4.92,4.56,8.26Z"/><polygon class="cls-3" points="120.98 95.31 132.14 93.86 125.5 90.31 120.98 95.31"/><path class="cls-16" d="m261.5,85.82l-93.45,37.45c-20.02,8.02-14.28,37.78,7.29,37.78h104.54s6.19-15.2,3-28.63h-33.58s7.68-3.41,7.68-3.41c12-5.32,16.97-19.7,10.82-31.3l-6.3-11.89Z"/><path class="cls-6" d="m201.63,151.05s.07,0,.11-.02l47.67-18.32c.16-.06.23-.24.17-.39s-.24-.23-.39-.17l-47.67,18.32c-.16.06-.23.24-.17.39.05.12.16.19.28.19Z"/><path class="cls-7" d="m261.5,85.82s-23.04-23.68-65.25-21.61c-42.22,2.07-57.99,12.43-60.69,23.9-2.71,11.47-13.92,56.75-13.92,56.75h-39.46s-2.53,7.42,2.88,16.2h42.38c5.34,0,10.19-3.1,12.43-7.95l23.08-49.87,43.96,4.45,54.58-21.88Z"/><path class="cls-2" d="m120.62,76.66s3.9,1.02.57-2.84c-3.33-3.86-6.33-.96-4.19,2.84s.06,3.63-.42,2.73-1.66-3.98-4.99-4.16-5.17-4.28-5.17-4.28c0,0-4.81,4.1-11,4.52-6.18.42-11.06-6.42-3.33-11.47,0,0-3.69-8.86,11.47-11.23s20.74-2.44,21.69,2.62c0,0,7.96-.59,5.59,7.49s2.2,16.7,2.2,16.7c0,0-7.73.83-12.42-2.91Z"/><circle class="cls-4" cx="120.05" cy="74.41" r="4.28"/><path class="cls-3" d="m118.2,72.71s-.16,1.51.73,1.83c0,0,.98-1.23,2.78-.47,0,0-2.07.74-2.09,1.51-.01.76.75,1.31,1.36,1.38,0,0-2.32-.05-3.17-1.71-.85-1.66.38-2.55.38-2.55Z"/></g><g class="cls-18"><path class="cls-8" d="m178.12,169.32H15.49c-1.2,0-1.84-1.52-1.03-2.48l56.69-70.94c.37-.44.9-.69,1.46-.69h144.87s-13.67,71.26-13.67,71.26l-25.68,2.85Z"/><polygon class="cls-13" points="232.81 -18.61 54.42 124.84 56.71 127.75 58.5 130.03 61.49 133.84 63.22 136.04 241.62 -7.41 239.34 -10.31 236.89 -13.42 234.55 -16.4 232.81 -18.61"/><polygon class="cls-11" points="54.42 124.84 47.23 137.63 45.14 141.34 49.36 140.11 63.22 136.04 54.42 124.84"/><polygon class="cls-2" points="47.23 137.63 45.14 141.34 49.36 140.11 47.23 137.63"/><polygon class="cls-12" points="239.34 -10.31 61.49 133.84 63.22 136.04 241.62 -7.41 239.34 -10.31"/><polygon class="cls-12" points="234.55 -16.4 56.71 127.75 58.5 130.03 236.89 -13.42 234.55 -16.4"/><path class="cls-4" d="m85.33,148.17s-16.53,3.53-25.61,6.75c-9.08,3.22-3.28,3.91-1.96,3.15,0,0,.57,1.32,3.34.63,0,0,.25,1.22,3.34.2,0,0,.44,1.14,2.65.41,2.21-.73,6.56.1,10.98,0,4.42-.1,7.57-.17,7.57-.17l-.32-10.98Z"/><path class="cls-4" d="m110.75,122.91l-9.67-8.28s-2.43-10.43-2.78-11.94-2.61-1.74-2.49.52c.12,2.26.54,6.16.54,6.16l-7.2,5.79,16.07,14.81,5.53-7.07Z"/><path class="cls-4" d="m91.11,95.34l-.32.28c-.28.24-.43.6-.41.96.07,1.66.26,6.4.15,7.79-.14,1.7-2.11,1.7-2.28.31,0,0-.14.62-.69.69s-.73-.24-.73-.24c0,0-.1.66-.73.9s-.97,0-.97,0c0,0,.14.93-.8.73s-1.63-3.25-1.7-5.12,1.28-2.42,1.28-2.42c0,0,.46-1.52,1.63-1.38,0,0,.44-2.4,2.24-1.51,0,0,1.04-2.93,3.32-.99Z"/><path class="cls-10" d="m135.24,89.39l-10.25,41.54-15.96-10.15-9.25,12.59s28.13,18.61,33.98,20.44c5.85,1.84,29.07-50.29,29.07-50.29,0,0,.78-17.77-27.59-14.13Z"/><path class="cls-16" d="m243.07,85.82l-93.45,37.45c-20.02,8.02-14.28,37.78,7.29,37.78h104.54s6.19-15.2,3-28.63h-33.58s7.68-3.41,7.68-3.41c12-5.32,16.97-19.7,10.82-31.3l-6.3-11.89Z"/><path class="cls-4" d="m105.73,81.9c.83,2.6-.32,5.36.35,6.43.67,1.06,3.59-.12,3.59-.12,0,0,2.45,3.82,3.11,5.16.67,1.34,2.92,2.92,4.49,1.61,1.58-1.3,4.53-3.86,4.53-3.86l8.69-1.12,8.42-1.08,7.38-12.97-15.83,2.13s-1.37.36-3.22-1.62c-1.85-1.97-.47-6.46-5.4-9.07-4.93-2.6-11.59-.87-11.59-.87,0,0-7.88,8.2-8.08,8.95,0,0,2.72,3.82,3.54,6.42Z"/><polygon class="cls-3" points="121.81 91.12 130.5 90 125.33 87.24 121.81 91.12"/><path class="cls-15" d="m261.5,85.82l-93.45,37.45c-20.02,8.02-14.28,37.78,7.29,37.78h104.54s6.19-15.2,3-28.63h-33.58s7.68-3.41,7.68-3.41c12-5.32,16.97-19.7,10.82-31.3l-6.3-11.89Z"/><path class="cls-16" d="m261.5,85.82l-93.45,37.45c-20.02,8.02-14.28,37.78,7.29,37.78h104.54s6.19-15.2,3-28.63h-33.58s7.68-3.41,7.68-3.41c12-5.32,16.97-19.7,10.82-31.3l-6.3-11.89Z"/><path class="cls-6" d="m201.63,151.05s.07,0,.11-.02l47.67-18.32c.16-.06.23-.24.17-.39s-.24-.23-.39-.17l-47.67,18.32c-.16.06-.23.24-.17.39.05.12.16.19.28.19Z"/><path class="cls-6" d="m191.37,155.95h87.03c.17,0,.3-.14.3-.3,0-.17-.14-.3-.3-.3h-87.03c-4.04,0-7.33-3.29-7.33-7.33,0-2.96,1.76-5.61,4.49-6.76,9.7-4.08,34.06-14.31,50.75-21.2,6.32-2.61,10.2-6.37,11.54-11.18,2.34-8.39-4.02-17.14-4.09-17.23-.1-.13-.29-.16-.42-.06-.13.1-.16.29-.06.42.06.09,6.25,8.61,3.99,16.71-1.29,4.62-5.05,8.24-11.19,10.78-16.69,6.89-41.06,17.12-50.76,21.2-2.95,1.24-4.86,4.11-4.86,7.32,0,4.38,3.56,7.94,7.94,7.94Z"/><path class="cls-7" d="m261.5,85.82s-23.04-23.68-65.25-21.61c-42.22,2.07-57.99,12.43-60.69,23.9-2.71,11.47-13.92,56.75-13.92,56.75h-39.46s-2.53,7.42,2.88,16.2h42.38c5.34,0,10.19-3.1,12.43-7.95l23.08-49.87,43.96,4.45,54.58-21.88Z"/><path class="cls-2" d="m121.54,76.62s3.03.79.44-2.21c-2.59-3-4.93-.75-3.26,2.21,1.66,2.96.05,2.82-.32,2.13s-1.29-3.1-3.88-3.24-4.02-3.33-4.02-3.33c0,0-3.74,3.19-8.55,3.51-4.81.32-8.6-4.99-2.59-8.92,0,0-2.87-6.89,8.92-8.74,11.79-1.85,16.13-1.9,16.87,2.03,0,0,6.19-.46,4.35,5.82-1.85,6.29,1.71,12.99,1.71,12.99,0,0-6.01.65-9.66-2.27Z"/><circle class="cls-4" cx="120.41" cy="75.09" r="4.3"/><path class="cls-3" d="m118.55,73.38s-.16,1.52.73,1.84c0,0,.99-1.24,2.8-.47,0,0-2.09.75-2.1,1.52-.01.77.76,1.32,1.37,1.39,0,0-2.33-.05-3.19-1.72-.86-1.67.38-2.56.38-2.56Z"/></g><polygon class="cls-7" points="109.03 120.78 101.93 130.51 123.69 136.58 124.99 130.93 109.03 120.78"/><path class="cls-9" d="m124.43,130.65s-.81,4.24-5.66,6.53l4.31,1.41,1.91-7.67-.56-.28Z"/><polygon class="cls-9" points="162.95 103.24 154.41 101.06 139.86 153.11 162.95 103.24"/></svg>